<svg width="95" height="93" viewBox="0 0 95 93" fill="none" xmlns="http://www.w3.org/2000/svg">
<path d="M18.9532 61.7026C18.7676 61.0457 18.7325 60.3555 18.8504 59.6831C19.0958 58.2254 20.1246 56.8749 21.567 56.445C22.2472 56.218 22.9758 56.3414 23.6701 56.1921C25.9642 55.7927 27.8652 54.0289 28.6915 51.8855C28.9674 51.1857 29.1392 50.4494 29.2017 49.6998C29.2563 48.6723 29.236 47.6374 29.3997 46.618C29.7687 43.9493 30.7922 41.4133 32.3788 39.236C34.6643 36.0884 38.2411 33.8428 42.1391 33.4528C42.5993 33.404 43.0617 33.3794 43.5245 33.3791C42.4661 33.3891 38.8968 33.3365 38.0062 33.4347C36.9885 33.5274 35.985 33.739 35.0165 34.0651C32.6397 34.8587 30.5167 36.3382 28.873 38.222C28.8721 38.2231 28.8712 38.2243 28.8702 38.2254C28.0727 39.143 27.3837 40.1495 26.8167 41.225C25.9334 42.9098 25.3468 44.7341 25.0827 46.618C24.9944 47.249 24.9411 47.8844 24.923 48.5212C24.9152 49.1909 24.9086 49.865 24.7704 50.5229C24.2063 53.64 21.5281 56.3126 18.2666 56.2908C17.3593 56.2999 16.4884 56.6487 15.8255 57.2682C14.9874 58.0381 14.513 59.1619 14.4677 60.2927V60.2951C14.4502 60.7693 14.5068 61.2434 14.6353 61.7002C14.9368 62.7766 15.6601 63.7465 16.6662 64.2541C16.7256 64.2841 16.7861 64.3129 16.8468 64.34C20.1217 65.5154 21.8645 69.2978 21.2308 72.6214C20.6981 75.7926 18.0099 78.5106 14.7004 78.5015C15.3267 78.4825 19.3185 78.5547 19.8405 78.4436C21.3858 78.2357 22.8141 77.4077 23.8336 76.2377C23.8351 76.236 23.8366 76.2345 23.8381 76.2327C26.2368 73.5082 26.2728 69.1306 23.9591 66.3434V66.3429C23.2366 65.4612 22.3003 64.7792 21.2395 64.3619C21.214 64.3545 21.189 64.3451 21.164 64.34C20.0689 63.8614 19.2716 62.8424 18.9532 61.7026Z" fill="url(#paint0_linear_101_681)"/>
<path d="M39.9471 18.841C41.3885 18.8937 42.8232 19.0638 44.237 19.3496H48.5539C47.3391 19.1041 46.1087 18.944 44.8716 18.8703C43.9108 18.7904 40.2045 18.8328 39.1827 18.8232C39.4378 18.8251 39.6924 18.832 39.9471 18.841Z" fill="url(#paint1_linear_101_681)"/>
<path d="M53.8947 75.5586L53.8954 75.5573C53.9698 75.4146 54.0402 75.2698 54.1064 75.123C54.1691 74.98 54.2281 74.8356 54.2837 74.6899C54.3382 74.5426 54.3888 74.3939 54.4353 74.244L54.4363 74.241C54.4816 74.0893 54.5233 73.9365 54.5612 73.7827C54.9093 72.3247 54.8407 70.7982 54.3631 69.3773C53.944 68.1208 53.1867 67.0042 52.1744 66.1501L52.1719 66.1478C51.1922 65.3307 49.9931 64.8208 48.725 64.6819H48.7243C48.2874 64.6276 47.4595 64.6494 47.0109 64.6454L48.4394 61.9164C50.0377 59.2006 49.7657 55.5089 47.728 53.0934C46.5356 51.6509 44.7158 50.7213 42.8316 50.7316H38.5147C40.3991 50.7216 42.2183 51.6509 43.4111 53.0934C45.4488 55.5097 45.7204 59.2004 44.1225 61.9164L42.6941 64.6454C43.6206 64.6354 44.6623 64.6206 45.5484 64.9106C48.7686 65.8458 50.6998 69.2066 50.4451 72.4642C50.3874 73.3427 50.1814 74.2052 49.836 75.0151C49.7586 75.2003 49.6701 75.3807 49.578 75.559L42.335 89.3104C41.6338 90.6656 40.5052 91.7518 39.1241 92.4007C39.1221 92.4015 39.1202 92.4026 39.1182 92.4035C38.8526 92.5237 38.5794 92.6264 38.3004 92.7108L38.2959 92.7122C38.0153 92.7946 37.7294 92.858 37.4402 92.9019C37.1468 92.9442 36.8507 92.966 36.5542 92.9671C37.2238 92.9456 41.1818 93.026 41.7548 92.9023H41.757C42.0463 92.8585 42.3322 92.7951 42.6128 92.7126L42.6173 92.7112C44.3572 92.1965 45.8158 90.9117 46.6511 89.3125L46.652 89.3108L53.8947 75.5586Z" fill="url(#paint2_linear_101_681)"/>
<path d="M57.6774 26.395C60.3575 29.0205 62.5255 32.1219 64.0708 35.5408C64.6992 35.8935 65.3099 36.276 65.9032 36.6882H70.2202C69.6285 36.2767 69.0177 35.8942 68.3877 35.5408C66.7268 31.8622 64.344 28.5546 61.3808 25.8141C61.3331 24.154 61.6244 22.5016 62.2367 20.9579H57.9198C57.8837 21.0478 57.849 21.1376 57.8149 21.2283C57.2748 22.6951 57.0199 24.2516 57.0639 25.8141C57.2712 26.0045 57.4757 26.1981 57.6774 26.395Z" fill="url(#paint3_linear_101_681)"/>
<path d="M69.9132 15.5668C70.4588 17.2545 71.3976 18.7885 72.6523 20.0423C72.654 20.0438 72.6554 20.0456 72.657 20.0472C74.0466 21.4251 75.839 22.4099 77.7714 22.7537C78.9179 23.0143 82.53 22.8669 83.7421 22.9028C79.4448 22.9291 75.7304 19.855 74.3391 15.8862C73.6594 14.002 73.4805 11.9736 73.8199 9.99945C74.0563 8.91644 74.1944 7.80407 74.024 6.70029C73.7144 4.42134 72.3401 2.25292 70.2642 1.20366C69.5854 0.858363 68.8498 0.638885 68.0928 0.555863C67.7451 0.487469 63.5831 0.534004 63.1289 0.521224C65.4876 0.501954 67.691 1.95208 68.8037 4.00059C69.5488 5.34518 69.8809 6.87966 69.7584 8.41203C69.6809 9.34588 69.399 10.2511 69.3598 11.1905C69.2718 12.5275 69.4164 13.8697 69.7872 15.1573C69.8271 15.2947 69.8685 15.4312 69.9132 15.5668Z" fill="url(#paint4_linear_101_681)"/>
<path d="M94.1963 29.7534C94.1872 27.83 93.4797 25.8834 92.1245 24.5003C91.1487 23.4287 89.8389 22.719 88.4083 22.4867C87.7881 22.3475 83.8524 22.4377 83.1476 22.4137C84.9104 22.4023 86.6222 23.2071 87.8077 24.5005C89.509 26.2404 90.1864 28.8453 89.7509 31.2182C88.2144 38.8582 83.2348 45.8501 76.0516 49.0888C77.8227 54.5119 77.6239 60.5677 75.4762 65.8548C73.1298 71.72 68.2358 76.648 62.1213 78.4622L61.8584 78.5254C61.7301 78.5479 61.6009 78.5647 61.4712 78.5784H60.3131C60.1296 78.5942 59.9466 78.6026 59.7668 78.6026H61.1641C61.0767 78.6069 60.9893 78.6095 60.9015 78.6095C61.6288 78.5818 65.5412 78.6857 66.1753 78.5254L66.4382 78.4622C72.7722 76.5843 77.7759 71.3723 80.0344 65.2381C81.9529 60.0446 82.0705 54.3571 80.3684 49.0888C87.5518 45.8499 92.5316 38.8582 94.0678 31.2182C94.156 30.735 94.199 30.2446 94.1963 29.7534Z" fill="url(#paint5_linear_101_681)"/>
<path d="M43.7195 64.6451C49.1465 64.6326 52.0484 71.0152 49.5776 75.5586L42.3347 89.3101C40.6129 92.7002 36.3894 94.0379 33.2383 91.9951C30.0273 90.0511 28.9704 85.3043 30.7828 82.0338L32.2525 79.2015H31.1605C28.064 79.1916 25.4768 76.8381 24.7639 73.8082C24.302 71.9475 24.5379 69.982 25.427 68.2834C25.7964 67.5826 32.8075 54.2663 32.9084 54.0932C34.1256 51.9919 36.2246 50.7312 38.5142 50.7312C43.9317 50.7402 46.8512 57.3899 44.122 61.916L42.6935 64.6451H43.7195Z" fill="#F87C56"/>
<path d="M87.8076 24.5003C89.4402 26.1587 90.2055 28.7512 89.7509 31.2181C88.073 39.3568 82.9378 45.9589 76.0515 49.0885C80.1252 60.7913 73.6637 75.2079 62.1213 78.462L61.8584 78.5252C61.3483 78.615 60.8281 78.6329 60.3131 78.5782C56.7586 78.8972 53.6134 76.0727 53.1442 72.2608C52.6178 68.6353 55.0246 64.6802 58.6609 64.0663C65.9068 61.4864 65.167 50.1035 57.7322 48.5961C55.3206 48.1442 53.3351 46.2754 52.5585 43.7212C46.7557 27.3222 25.2878 31.5526 24.916 49.013C24.916 53.0267 21.9343 56.2916 18.2673 56.2916C16.7156 56.2973 15.331 57.32 14.7461 58.9001C13.9593 60.888 14.8668 63.5029 16.8476 64.3407C20.6916 65.6895 22.3897 70.6966 20.7098 74.3466C19.2309 77.8594 15.1534 79.5659 11.8536 77.7971C-2.46009 71.5394 -2.43408 49.0626 12.1639 42.9672C15.0542 27.2895 29.336 16.2236 44.2377 19.3504C46.4 9.78728 53.82 1.72326 63.1294 0.521931C63.6551 0.522389 64.1785 0.590298 64.6869 0.724008C66.4159 1.1798 67.8779 2.34348 68.8039 4.0014C69.7325 5.67728 70.0147 7.6353 69.5974 9.50522C69.4301 10.2876 69.3409 11.0846 69.331 11.8846C69.331 17.9452 73.8583 22.9035 79.4254 22.9035C80.1724 22.8847 80.915 22.7843 81.6402 22.604C83.8609 22.0317 86.2154 22.7672 87.8076 24.5003ZM67.02 36.6486C68.5307 36.6478 70.019 36.2821 71.358 35.5825C65.2328 32.9921 60.3198 27.6434 57.9204 20.9578C57.3074 22.5013 57.0161 24.1539 57.0644 25.814C60.0294 28.5529 62.4124 31.8609 64.0713 35.5407C64.7011 35.8919 65.3128 36.2748 65.9038 36.6881C66.1584 36.6904 66.4129 36.6798 66.6665 36.6565L67.02 36.6486Z" fill="#F87C56"/>
<g style="mix-blend-mode:multiply" opacity="0.4" filter="url(#filter0_f_101_681)">
<path d="M44.0508 68.7389C46.4592 68.7145 47.7432 71.5186 46.6554 73.516L39.4127 87.2644C38.0648 89.7715 34.7118 89.1938 34.0543 86.5056C33.85 85.6878 33.9525 84.8236 34.3426 84.0764L38.9853 75.1092H31.477C30.9701 75.103 30.4751 74.9552 30.0478 74.6825C28.6459 73.8327 28.1898 71.759 28.9829 70.3322L36.2381 56.5602C36.9564 54.9471 38.9559 54.2938 40.3887 55.3231C41.7507 56.2334 42.1353 58.325 41.2837 59.719L36.5569 68.7399L44.0508 68.7389Z" fill="#D34A0F"/>
<path d="M85.5042 27.4189C85.8789 27.808 86.1561 28.2805 86.3128 28.7975C86.4695 29.3146 86.5013 29.8614 86.4056 30.3931C84.7133 38.6432 78.794 44.7879 71.1761 46.6201C77.0721 56.9258 72.7161 70.9915 61.5179 74.4946C61.2994 74.5277 61.0769 74.5243 60.8595 74.4846C60.3503 74.4993 60.216 74.5091 60.0839 74.5091C56.3927 74.3605 56.1182 68.7194 59.6945 68.0847C71.1476 64.394 70.0566 46.8998 58.6996 44.5657C57.6328 44.3655 56.7632 43.5473 56.4242 42.4308C49.1561 21.6345 21.9684 26.929 21.4928 49.0122C21.4928 50.7678 20.1874 52.1967 18.5835 52.1967C10.0776 52.4176 8.34875 64.8161 15.7593 68.1327C17.5835 68.6741 18.4146 70.8942 17.6493 72.5876C17.0009 74.1261 15.2194 74.8741 13.7738 74.0975C1.48996 68.7696 2.64047 49.4559 15.7917 46.133C17.383 30.233 32.1462 18.6843 47.5895 24.4112C48.0841 15.0514 54.2492 6.67934 62.8135 4.69254C63.2463 4.58591 63.6989 4.58958 64.1299 4.70321C65.7245 5.0981 66.6646 6.96139 66.2777 8.54442C63.9008 18.8158 72.7748 29.2335 82.7903 26.5926C83.0107 26.5352 83.2375 26.506 83.4652 26.5056C83.8499 26.508 84.2299 26.5904 84.5809 26.7476C84.9319 26.9048 85.2463 27.1335 85.5042 27.4189ZM78.0067 35.2392L79.4515 33.3222C74.1767 32.7165 69.8813 30.9941 66.1305 26.8874C62.3497 22.7859 60.7662 17.8774 60.2456 12.2546L58.4846 13.9039C55.407 16.7853 53.6422 20.9801 53.6422 25.4138V27.8006C57.1238 30.5771 59.8748 34.3283 61.5739 38.6117C62.7823 39.1865 63.9258 39.8889 64.9849 40.707C65.7299 40.7888 66.4809 40.8006 67.2281 40.7423C71.4126 40.7764 75.346 38.7677 78.0067 35.239" fill="#D34A0F"/>
</g>
<path d="M6.66181 60.8949C6.78641 63.9117 8.55419 66.9025 11.3658 68.1329C13.1214 68.6599 13.9607 70.7257 13.3328 72.3928C12.9398 73.5244 11.8472 74.4174 10.6254 74.4075C11.1637 74.395 12.0315 74.4685 12.5369 74.2713C13.9647 73.8113 14.7956 72.2201 14.5856 70.7715V70.7687C14.5634 70.6082 14.5306 70.4494 14.4874 70.2932C14.3655 69.8521 14.1536 69.4411 13.8648 69.0861C13.7995 69.0068 13.7294 68.9322 13.6574 68.8591C13.3952 68.6006 13.0866 68.3937 12.7477 68.2494C12.6467 68.2071 12.5473 68.1702 12.4426 68.133C7.98429 66.1461 6.48508 60.2932 8.83342 56.158C9.78374 54.4271 11.3914 53.0446 13.2965 52.4853C13.8023 52.3363 14.3231 52.2447 14.8493 52.212C15.1276 52.1886 15.41 52.2111 15.6864 52.1634C16.514 52.0366 17.2426 51.5004 17.6773 50.7937L17.6778 50.7927C17.8621 50.4918 17.9982 50.164 18.0811 49.821C18.189 49.4034 18.1749 48.9697 18.1817 48.5421C18.197 47.8949 18.2372 47.2481 18.3106 46.6051C18.547 44.4678 19.1103 42.3796 19.9809 40.4134C22.8076 33.9712 29.0487 29.2576 36.2109 29.2853C34.9387 29.2711 33.6022 29.2932 32.3521 29.52C28.3742 30.183 24.728 32.3644 22.0944 35.3962C22.0925 35.3982 22.0907 35.4005 22.0889 35.4025C21.0834 36.5601 20.2144 37.8296 19.4993 39.186C19.2938 39.5754 19.1039 39.9748 18.9208 40.3757C18.1258 42.1636 17.5841 44.0537 17.3112 45.9913C17.1926 46.8367 17.124 47.6884 17.1056 48.5419C17.1607 49.7688 16.8178 50.9211 15.7898 51.6704C15.4409 51.9253 15.0368 52.0941 14.6103 52.1632C14.2632 52.217 13.9092 52.1868 13.5607 52.2277C12.9009 52.2891 12.2532 52.4438 11.6368 52.687C8.39642 53.9411 6.46212 57.4984 6.66181 60.8949Z" fill="url(#paint6_linear_101_681)"/>
<path d="M37.3274 57.6775C37.3986 58.3867 37.2454 59.1004 36.8897 59.7182L32.1631 68.7389H33.2393L37.966 59.7182C37.9903 59.6761 38.0142 59.6338 38.0359 59.5906C38.1317 59.4063 38.2108 59.2139 38.2723 59.0155V59.0134C38.68 57.7007 38.2301 56.1327 37.0874 55.3339C36.7052 55.0633 36.2608 54.8935 35.7956 54.8402C35.6004 54.8147 34.6506 54.8283 34.4377 54.8253C35.9828 54.8149 37.2137 56.1884 37.3274 57.6775Z" fill="url(#paint7_linear_101_681)"/>
<path d="M36.8343 22.9962C38.1247 23.1051 39.4036 23.3232 40.6572 23.6483C41.3525 23.8213 42.5 24.1968 43.196 24.4113H44.2727C42.939 23.9876 41.4589 23.5175 40.0854 23.285C38.4599 22.9772 36.7606 22.8907 35.1066 22.917C35.6829 22.9224 36.2595 22.9476 36.8343 22.9962Z" fill="url(#paint8_linear_101_681)"/>
<path d="M43.5753 72.9396L43.576 72.9378C43.9582 71.7018 43.5995 70.2372 42.5892 69.402C42.1526 69.0414 41.6198 68.8168 41.0569 68.7559C40.829 68.7276 39.9008 68.7421 39.6572 68.7389C41.8206 68.7311 43.1134 70.9755 42.4992 72.9397C42.4369 73.1383 42.3575 73.3311 42.2619 73.516L35.0191 87.2644C34.8293 87.6243 34.5726 87.9448 34.2628 88.2087L34.2623 88.2092C34.1619 88.2925 34.0564 88.3695 33.9466 88.4399H33.946C33.8365 88.5084 33.7228 88.57 33.6056 88.6243C33.3709 88.7306 33.1227 88.8042 32.868 88.843C32.7395 88.8611 32.6098 88.8706 32.48 88.8714C32.7696 88.8647 33.6716 88.8923 33.9441 88.843C34.1989 88.8042 34.4471 88.7306 34.6819 88.6243C34.799 88.57 34.9126 88.5084 35.0221 88.4399H35.0227C35.1325 88.3696 35.2377 88.2926 35.3381 88.2094L35.339 88.2087C35.5931 87.9927 35.8117 87.7382 35.9869 87.4545C36.025 87.3929 36.0594 87.3279 36.0953 87.2648L43.338 73.5169L43.3395 73.5143C43.403 73.3904 43.4599 73.2632 43.51 73.1332C43.5327 73.0683 43.5538 73.0039 43.5753 72.9396Z" fill="url(#paint9_linear_101_681)"/>
<path d="M50.2626 28.6618C53.3241 31.3616 55.6698 34.8275 57.1803 38.6119C58.3883 39.1876 59.5317 39.89 60.5913 40.7071C61.3108 40.7912 62.2576 40.7831 62.9884 40.7802C62.5546 40.7802 62.0997 40.7485 61.6675 40.7071C60.6079 39.8899 59.4645 39.1876 58.2565 38.6119C57.2325 36.0303 55.8152 33.6227 54.0549 31.4746L54.0539 31.4733C52.9374 30.1271 51.6881 28.8967 50.3249 27.8009C50.3394 26.5928 50.2726 24.6958 50.4342 23.52C50.6956 21.1888 51.4656 18.9435 52.6899 16.9425C53.2177 16.0863 53.8305 15.2856 54.5191 14.5525C54.9652 14.0606 56.4332 12.7296 56.9283 12.2548H55.8521C54.9221 13.1442 53.4538 14.4156 52.6845 15.4251C51.0407 17.4955 49.9446 19.9464 49.4971 22.5518V22.5532C49.186 24.1157 49.2516 26.2001 49.249 27.8009C49.552 28.0543 49.972 28.4016 50.2626 28.6618Z" fill="url(#paint10_linear_101_681)"/>
<path d="M62.3167 16.9258C63.3052 19.9738 65.2422 22.7285 67.8665 24.5826C68.8982 25.3129 70.0282 25.8934 71.2228 26.3066L71.2301 26.309C72.5563 26.7622 73.9481 26.9939 75.3496 26.9946H76.4259C70.3363 27.0182 65.2014 22.5933 63.393 16.9256C62.8024 15.1171 62.5358 13.2187 62.6052 11.3175C62.635 10.6233 62.7087 9.93171 62.8258 9.24683C62.8922 8.80681 63.0242 8.37629 63.0397 7.92988C63.0532 7.5689 63.0105 7.20804 62.9132 6.86016C62.6325 5.85073 61.8448 4.968 60.8144 4.70351H60.8126C60.382 4.56912 59.5086 4.62662 59.0562 4.61544C59.2857 4.61687 59.5141 4.64646 59.7364 4.70351L59.7382 4.70402C61.0063 5.02872 61.8806 6.27328 61.9569 7.55178C62.005 8.05101 61.8834 8.53935 61.7887 9.02559C61.6843 9.58922 61.6097 10.1579 61.5652 10.7294C61.4073 12.8242 61.6626 14.9295 62.3167 16.9258Z" fill="url(#paint11_linear_101_681)"/>
<path d="M83.1388 29.7027C83.1195 28.8489 82.7797 28.0336 82.1869 27.4189C82.1566 27.3864 82.1258 27.3546 82.0945 27.3238C81.8821 27.1144 81.6394 26.9383 81.3744 26.8014C81.2044 26.7154 81.026 26.6469 80.8421 26.5969L80.8362 26.595C80.7042 26.5612 80.5699 26.5364 80.4345 26.5209H80.434C80.2396 26.4936 79.2847 26.5099 79.0718 26.5058C79.1672 26.5076 79.2633 26.511 79.358 26.5209L79.3609 26.5214C80.0331 26.6003 80.6545 26.919 81.1107 27.419C81.4844 27.8089 81.7607 28.2814 81.9174 28.7982C82.074 29.315 82.1065 29.8615 82.012 30.3932C80.8431 36.1492 77.3286 41.4868 72.2057 44.4479C71.2766 44.9889 70.3024 45.4484 69.294 45.8213C68.6427 46.0694 67.454 46.4103 66.7826 46.62C67.3018 47.696 67.9622 48.9995 68.336 50.119C69.2715 52.8321 69.6143 55.7143 69.3413 58.5712C68.7312 65.6502 64.0839 72.3639 57.155 74.4846H56.4661C55.9569 74.4993 55.8225 74.5092 55.6904 74.5092C55.9474 74.5072 56.8229 74.5157 57.0755 74.5C56.9927 74.5108 56.9094 74.5166 56.8259 74.5171C57.0542 74.5106 57.9919 74.5362 58.2008 74.4946C65.1468 72.3819 69.8064 65.6627 70.4177 58.5708C70.6908 55.7141 70.3479 52.8321 69.4124 50.1192C69.0482 48.9972 68.3666 47.6895 67.859 46.62C69.162 46.2263 70.6455 45.7929 71.8605 45.1957C75.3251 43.5655 78.2351 40.8531 80.2383 37.6011C81.4739 35.5904 82.3825 33.3963 82.9301 31.1007V31.1C82.9863 30.8659 83.039 30.6302 83.0882 30.393C83.1278 30.1651 83.1448 29.9339 83.1388 29.7027Z" fill="url(#paint12_linear_101_681)"/>
<path d="M39.6572 68.7389C42.0656 68.7145 43.3496 71.5186 42.2619 73.516L35.0191 87.2644C33.6712 89.7715 30.3182 89.1938 29.6608 86.5056C29.4565 85.6878 29.559 84.8236 29.9491 84.0764L34.5918 75.1092H27.0835C26.5766 75.103 26.0816 74.9552 25.6543 74.6825C24.2525 73.8327 23.7963 71.759 24.5895 70.3322L31.8447 56.5602C32.563 54.9471 34.5625 54.2938 35.9953 55.3231C37.3573 56.2334 37.7418 58.325 36.8902 59.719L32.1635 68.7399L39.6572 68.7389Z" fill="#FFF2DC"/>
<path d="M81.1107 27.4189C81.4855 27.808 81.7626 28.2805 81.9193 28.7975C82.076 29.3146 82.1077 29.8614 82.012 30.3931C80.3198 38.6432 74.4005 44.7879 66.7826 46.6201C72.6786 56.9258 68.3227 70.9915 57.1243 74.4946C56.9058 74.5277 56.6834 74.5243 56.4661 74.4846C55.9568 74.4993 55.8225 74.5091 55.6904 74.5091C51.9992 74.3605 51.7246 68.7194 55.301 68.0847C66.754 64.394 65.6631 46.8998 54.3061 44.5657C53.2392 44.3655 52.3691 43.5473 52.0307 42.4308C44.7625 21.6345 17.5748 26.929 17.0993 49.0122C17.0993 50.7678 15.7939 52.1967 14.1899 52.1967C5.68408 52.4176 3.95526 64.8161 11.3658 68.1327C13.1899 68.6741 14.0211 70.8942 13.2558 72.5876C12.6068 74.1261 10.8258 74.8741 9.38024 74.0975C-2.90363 68.7696 -1.75302 49.4559 11.3981 46.133C12.9894 30.233 27.7526 18.6843 43.1959 24.4112C43.6905 15.0514 49.8556 6.67934 58.4199 4.69254C58.8527 4.58591 59.3053 4.58958 59.7363 4.70321C61.331 5.0981 62.2711 6.96139 61.8841 8.54442C59.5072 18.8158 68.3813 29.2335 78.3968 26.5926C78.6172 26.5352 78.844 26.506 79.0717 26.5056C79.4564 26.508 79.8363 26.5904 80.1873 26.7476C80.5383 26.9049 80.8528 27.1335 81.1107 27.4189ZM73.6132 35.2392L75.0579 33.3222C69.7832 32.7165 65.4878 30.9941 61.737 26.8874C57.9561 22.7859 56.3727 17.8774 55.8521 12.2546L54.091 13.9039C51.0135 16.7853 49.2486 20.9801 49.2486 25.4138V27.8006C52.7301 30.5771 55.4811 34.3283 57.1802 38.6117C58.3887 39.1865 59.5322 39.8889 60.5912 40.707C61.3362 40.7888 62.0873 40.8006 62.8345 40.7423C67.0189 40.7764 70.9519 38.7677 73.6131 35.239" fill="#FFF2DC"/>
<defs>
<filter id="filter0_f_101_681" x="2.20764" y="1.61519" width="87.252" height="90.25" filterUnits="userSpaceOnUse" color-interpolation-filters="sRGB">
<feFlood flood-opacity="0" result="BackgroundImageFix"/>
<feBlend mode="normal" in="SourceGraphic" in2="BackgroundImageFix" result="shape"/>
<feGaussianBlur stdDeviation="1.5" result="effect1_foregroundBlur_101_681"/>
</filter>
<linearGradient id="paint0_linear_101_681" x1="54.3305" y1="0.517471" x2="54.3305" y2="92.9733" gradientUnits="userSpaceOnUse">
<stop stop-color="#D34A0F"/>
<stop offset="1" stop-color="#F87C56"/>
</linearGradient>
<linearGradient id="paint1_linear_101_681" x1="54.3305" y1="0.517471" x2="54.3305" y2="92.9733" gradientUnits="userSpaceOnUse">
<stop stop-color="#D34A0F"/>
<stop offset="1" stop-color="#F87C56"/>
</linearGradient>
<linearGradient id="paint2_linear_101_681" x1="54.3305" y1="0.517471" x2="54.3305" y2="92.9733" gradientUnits="userSpaceOnUse">
<stop stop-color="#D34A0F"/>
<stop offset="1" stop-color="#F87C56"/>
</linearGradient>
<linearGradient id="paint3_linear_101_681" x1="54.3305" y1="0.517471" x2="54.3305" y2="92.9733" gradientUnits="userSpaceOnUse">
<stop stop-color="#D34A0F"/>
<stop offset="1" stop-color="#F87C56"/>
</linearGradient>
<linearGradient id="paint4_linear_101_681" x1="54.3305" y1="0.517471" x2="54.3305" y2="92.9733" gradientUnits="userSpaceOnUse">
<stop stop-color="#D34A0F"/>
<stop offset="1" stop-color="#F87C56"/>
</linearGradient>
<linearGradient id="paint5_linear_101_681" x1="54.3305" y1="0.517471" x2="54.3305" y2="92.9733" gradientUnits="userSpaceOnUse">
<stop stop-color="#D34A0F"/>
<stop offset="1" stop-color="#F87C56"/>
</linearGradient>
<linearGradient id="paint6_linear_101_681" x1="44.8938" y1="4.61248" x2="44.8938" y2="88.8732" gradientUnits="userSpaceOnUse">
<stop stop-color="#F7A175"/>
<stop offset="1" stop-color="#FFF2DC"/>
</linearGradient>
<linearGradient id="paint7_linear_101_681" x1="44.8938" y1="4.61248" x2="44.8938" y2="88.8732" gradientUnits="userSpaceOnUse">
<stop stop-color="#F7A175"/>
<stop offset="1" stop-color="#FFF2DC"/>
</linearGradient>
<linearGradient id="paint8_linear_101_681" x1="44.8938" y1="4.61248" x2="44.8938" y2="88.8732" gradientUnits="userSpaceOnUse">
<stop stop-color="#F7A175"/>
<stop offset="1" stop-color="#FFF2DC"/>
</linearGradient>
<linearGradient id="paint9_linear_101_681" x1="44.8938" y1="4.61248" x2="44.8938" y2="88.8732" gradientUnits="userSpaceOnUse">
<stop stop-color="#F7A175"/>
<stop offset="1" stop-color="#FFF2DC"/>
</linearGradient>
<linearGradient id="paint10_linear_101_681" x1="44.8938" y1="4.61248" x2="44.8938" y2="88.8732" gradientUnits="userSpaceOnUse">
<stop stop-color="#F7A175"/>
<stop offset="1" stop-color="#FFF2DC"/>
</linearGradient>
<linearGradient id="paint11_linear_101_681" x1="44.8938" y1="4.61248" x2="44.8938" y2="88.8732" gradientUnits="userSpaceOnUse">
<stop stop-color="#F7A175"/>
<stop offset="1" stop-color="#FFF2DC"/>
</linearGradient>
<linearGradient id="paint12_linear_101_681" x1="44.8938" y1="4.61248" x2="44.8938" y2="88.8732" gradientUnits="userSpaceOnUse">
<stop stop-color="#F7A175"/>
<stop offset="1" stop-color="#FFF2DC"/>
</linearGradient>
</defs>
</svg>
