<svg width="94" height="93" viewBox="0 0 94 93" fill="none" xmlns="http://www.w3.org/2000/svg">
<path d="M18.242 61.6408C17.5692 59.4167 18.8521 56.7109 21.2343 56.2739C21.5505 56.2248 21.8701 56.2016 22.19 56.2047C22.5524 56.1844 22.9124 56.1327 23.2659 56.0503C24.9804 55.6547 26.4616 54.494 27.3783 53.0068V53.0062L27.3802 53.0031C27.9755 52.0325 28.3473 50.9414 28.4684 49.8092C28.5399 49.1272 28.5019 48.4373 28.5611 47.7546C28.6866 46.031 29.0791 44.3373 29.7247 42.7342C31.4677 38.341 35.3045 34.7219 39.974 33.7037L39.9762 33.7031C40.9234 33.495 41.89 33.3889 42.8598 33.3864C42.243 33.3931 38.2535 33.368 37.8259 33.4064C37.0964 33.4463 36.3714 33.5457 35.6581 33.7036C31.1851 34.6798 27.4649 38.0452 25.6373 42.1923C24.9262 43.7903 24.472 45.4906 24.2918 47.2303C24.1854 48.0614 24.228 48.9038 24.1582 49.7373C24.0456 50.8963 23.6704 52.0143 23.0609 53.0065C21.907 54.9045 19.7971 56.2327 17.5488 56.2137C14.8204 56.2387 13.1843 59.1654 13.9238 61.6397V61.641C14.1224 62.343 14.4973 62.9827 15.0127 63.499C15.2895 63.7716 15.606 64.0007 15.9513 64.1786L15.9526 64.1793C16.0105 64.2088 16.0693 64.2368 16.1292 64.2634C19.3953 65.441 21.1297 69.2104 20.5146 72.5275C19.9939 75.7073 17.2988 78.4347 13.984 78.4255C14.61 78.4066 18.602 78.4788 19.1237 78.3677C20.6687 78.16 22.0972 77.3327 23.1164 76.1628C24.2402 74.8525 24.8848 73.199 24.9445 71.4739V71.4717C25.0882 68.4664 23.3496 65.3036 20.4461 64.2629C19.3595 63.7847 18.5634 62.774 18.242 61.6408Z" fill="url(#paint0_linear_101_680)"/>
<path d="M45.3889 18.8892C43.6949 18.6707 40.2097 18.7648 38.4657 18.7465C39.5077 18.7503 40.5487 18.818 41.5825 18.9491H45.8992C45.7294 18.927 45.559 18.9088 45.3889 18.8892Z" fill="url(#paint1_linear_101_680)"/>
<path d="M46.7691 52.7384C45.5826 51.4534 43.8728 50.6462 42.1142 50.6548H37.7974C39.6752 50.6448 41.4882 51.567 42.6836 52.9987C44.7377 55.4124 45.0093 59.1185 43.4051 61.839L41.9766 64.5686C42.9041 64.5586 43.9463 64.5438 44.8333 64.8338C47.8577 65.7078 49.7773 68.7738 49.7462 71.8486C49.7481 73.1154 49.4438 74.3638 48.8593 75.4877L41.6185 89.2308C41.5006 89.4533 41.3722 89.6696 41.2333 89.8798C40.6983 90.6898 39.9995 91.3787 39.1819 91.9021L39.1772 91.9052C38.929 92.0612 38.6712 92.2011 38.4051 92.3241L38.401 92.326C38.1352 92.4464 37.8617 92.5491 37.5823 92.6334L37.5787 92.6346C37.2979 92.7171 37.0118 92.7805 36.7225 92.8243H36.7209C36.4282 92.8662 36.133 92.8879 35.8373 92.8891C36.5063 92.8676 40.4649 92.9479 41.0378 92.8243H41.0394C41.3288 92.7805 41.6149 92.7171 41.8957 92.6346L41.8989 92.6335C42.1783 92.5491 42.4517 92.4464 42.7175 92.326L42.7211 92.3243C42.9873 92.2011 43.2453 92.0611 43.4936 91.9049L43.4988 91.9014C44.5295 91.2383 45.3693 90.3177 45.9351 89.2306L53.1758 75.4875C53.2507 75.3463 53.3188 75.2019 53.3856 75.0567C53.5139 74.7673 53.625 74.4706 53.7184 74.1681C53.7633 74.0173 53.805 73.8654 53.8426 73.7126C54.5133 70.9868 53.6429 67.8782 51.4544 66.0697L51.4529 66.0685C50.4741 65.2525 49.2765 64.7434 48.0098 64.6049H48.0087C47.5714 64.5504 46.7427 64.5724 46.2936 64.5684L47.722 61.8388C48.0167 61.3295 48.2523 60.7883 48.4243 60.2256C49.2083 57.6724 48.6107 54.699 46.7691 52.7384Z" fill="url(#paint2_linear_101_680)"/>
<path d="M47.2737 7.39319C48.7647 7.48739 50.1752 8.10251 51.2587 9.13108L52.4351 10.4121H56.752L55.5755 9.13108C55.3506 8.92184 55.1124 8.72748 54.8622 8.5492C54.0559 7.97578 53.1264 7.59917 52.1483 7.44952C51.5755 7.32252 47.5984 7.40479 46.9371 7.38292C47.0496 7.38332 47.1616 7.38799 47.2737 7.39319Z" fill="url(#paint3_linear_101_680)"/>
<path d="M56.6955 26.02C59.4649 28.6872 61.7061 31.8531 63.3012 35.3515C64.2505 35.7845 65.1633 36.2933 66.0309 36.8729H70.3478C69.4803 36.2932 68.5675 35.7845 67.6182 35.3515C65.8857 31.5492 63.3902 28.1434 60.2866 25.3456C60.4065 25.1719 60.5357 25.0037 60.6695 24.8431C62.0322 23.4474 63.946 22.5929 65.9042 22.6002C65.0882 22.6242 61.2642 22.5319 60.5381 22.6788C58.9457 22.9288 57.4771 23.6882 56.3526 24.8431C56.2188 25.0037 56.0892 25.1719 55.9697 25.3456C56.2155 25.5656 56.4589 25.7891 56.6955 26.02Z" fill="url(#paint4_linear_101_680)"/>
<path d="M70.5715 10.4104H74.8884C74.1067 9.996 73.2984 9.63361 72.4689 9.32558C72.4631 8.91403 72.4857 7.54019 72.4489 7.15519C72.4129 6.60433 72.3188 6.05881 72.1681 5.52772C71.5633 3.37198 69.9444 1.47254 67.8 0.746666C67.2532 0.559585 66.6825 0.451486 66.1051 0.425657C66.0112 0.420565 65.9169 0.417482 65.8225 0.417881H61.5057C64.3613 0.391323 66.859 2.49793 67.732 5.1505C67.9535 5.7979 68.088 6.47185 68.1319 7.15468C68.1704 7.55355 68.1455 8.90954 68.1519 9.32549C68.9812 9.63402 69.7895 9.99643 70.5715 10.4104Z" fill="url(#paint5_linear_101_680)"/>
<path d="M93.3912 30.2609C93.2764 26.6718 90.4819 23.3225 86.7532 23.3298H85.2644C84.9866 22.4271 84.6549 21.5417 84.2714 20.6786L85.4422 19.3906C85.809 18.9189 86.1181 18.4049 86.3625 17.8596L86.3639 17.8564C86.5555 17.4251 86.7074 16.9773 86.8179 16.5185C87.5317 13.6181 86.4823 10.2861 84.0009 8.54658C83.9991 8.54549 83.9975 8.5441 83.9957 8.5429C83.1909 7.97163 82.2638 7.59629 81.2882 7.44681C80.7146 7.31921 76.7377 7.40189 76.0756 7.37992C78.0169 7.36994 79.8861 8.3541 81.0792 9.86874C83.2428 12.5474 83.2616 16.6904 81.1254 19.3906L79.9542 20.6783C80.3377 21.5415 80.6694 22.4268 80.9472 23.3296C81.239 23.3224 82.5377 23.328 82.7971 23.3406C83.3477 23.3736 83.8912 23.4804 84.4133 23.6583C87.2864 24.6268 89.1149 27.6355 89.082 30.6069C89.1155 33.5698 87.2961 36.572 84.4361 37.5485C83.9284 37.7239 83.3997 37.8317 82.8639 37.8692C82.5436 37.9072 81.338 37.876 81.0023 37.886C80.7143 38.9066 80.3592 39.907 79.9392 40.8807C80.4237 41.4281 81.3019 42.3061 81.677 42.9195C82.7597 44.5624 83.1424 46.6258 82.8046 48.5573C82.294 51.7007 79.6664 54.404 76.3882 54.4258C77.57 64.7067 71.7123 75.5404 61.534 78.6141L61.2821 78.6745C61.1508 78.6985 61.0187 78.7163 60.8862 78.7303H59.7139C59.533 78.7455 59.3526 78.7532 59.1729 78.7534H60.6006C60.504 78.7586 60.4071 78.7619 60.3098 78.7619C61.0499 78.733 64.9517 78.8418 65.5992 78.6745L65.851 78.6141C76.0309 75.5397 81.8868 64.7058 80.7053 54.4258C83.9891 54.4004 86.6078 51.7051 87.1218 48.5573C87.4597 46.626 87.0768 44.5623 85.9936 42.9196C85.6217 42.3093 84.7347 41.4205 84.2562 40.8808C84.4128 40.5179 84.5606 40.1513 84.6996 39.7811L84.7002 39.7794C84.932 39.157 85.1384 38.5259 85.3192 37.8861C86.021 37.8736 87.1617 37.9333 87.8387 37.7872C89.6793 37.4647 91.291 36.2558 92.2605 34.677C93.0702 33.351 93.4641 31.8128 93.3912 30.2609Z" fill="url(#paint6_linear_101_680)"/>
<path d="M43.0036 64.5689C48.4151 64.5375 51.3375 70.964 48.8592 75.4881L41.6184 89.2311C39.8964 92.624 35.6738 93.9606 32.5215 91.9178C29.3377 89.9125 28.236 85.4455 30.067 81.9605L31.5356 79.1249H30.4436C27.3485 79.1132 24.7607 76.7606 24.047 73.7316C23.5859 71.8706 23.8221 69.9051 24.7112 68.2063C25.0801 67.5055 32.091 54.1898 32.1921 54.0155C34.0266 50.7117 38.323 49.6089 41.3607 51.7913C44.4771 53.8729 45.3506 58.6533 43.4051 61.8389L41.9766 64.5685L43.0036 64.5689Z" fill="#F87C56"/>
<path d="M82.4362 37.8862H81.0024C80.7152 38.907 80.3601 39.9076 79.9394 40.881L80.9952 42.0368C84.953 46.2753 82.4801 54.3109 76.3882 54.4265C77.7042 64.5607 71.4101 75.8164 61.5341 78.6148L61.2821 78.6752C60.7647 78.7686 60.2366 78.7874 59.7139 78.731C51.0774 79.0794 49.8508 66.0109 58.0665 64.2187C65.2141 61.6767 64.7208 50.3702 57.141 48.749C54.7288 48.296 52.7427 46.4272 51.969 43.8797C46.3308 27.2632 24.4903 31.6507 24.1992 48.9489C24.1992 52.9503 21.2175 56.2136 17.5496 56.2136C13.2717 56.3272 12.383 62.5883 16.1309 64.2632C23.0264 66.9056 21.6781 78.183 13.9856 78.4253C12.9927 78.4249 12.0148 78.1829 11.1364 77.7202C-3.17552 71.4654 -3.15132 48.985 11.4466 42.8892C14.2369 27.9155 27.3084 17.1226 41.5823 18.9491C38.4804 14.4221 41.2728 7.42396 46.9371 7.38293C48.5477 7.39419 50.0932 8.01936 51.2586 9.13099L52.435 10.4121C53.2162 9.99457 54.0253 9.63153 54.8565 9.32558V7.69594C54.8565 3.68219 57.8383 0.418072 61.5053 0.418072C65.1696 0.418072 68.1519 3.6819 68.1519 7.69594V9.32599C68.9823 9.63179 69.7907 9.99424 70.5714 10.4108L71.6097 9.27256C72.9541 8.00114 74.4904 7.38012 76.0755 7.38012C81.9639 7.40678 84.6738 15.0088 81.1253 19.3907L79.9541 20.6783C80.3376 21.5414 80.6693 22.4267 80.9472 23.3295H82.4359C91.2538 23.7254 91.2478 37.4921 82.4362 37.8862ZM66.7286 36.109C69.5516 32.9212 69.5516 27.9279 66.7286 24.7408C63.9735 21.8852 59.1254 21.9008 56.3526 24.8429C56.2243 24.9958 56.0944 25.1639 55.9697 25.3455C59.0751 28.1416 61.5709 31.5477 63.3012 35.3513C64.251 35.7834 65.1639 36.2922 66.0308 36.8728C66.1632 36.77 66.2905 36.6612 66.4158 36.5462L66.7286 36.109Z" fill="#F87C56"/>
<g style="mix-blend-mode:multiply" opacity="0.4" filter="url(#filter0_f_101_680)">
<path d="M43.3803 68.662C45.711 68.6673 46.982 71.4716 45.9006 73.44L38.6588 87.1879C38.1373 88.1797 37.1645 88.7954 36.1185 88.7954C33.8097 88.7935 32.4927 85.9955 33.5879 84.0004L38.2307 75.0323H30.7232C30.2161 75.0259 29.7209 74.8781 29.2931 74.6057C27.9043 73.7271 27.4267 71.7766 28.2287 70.2554L35.484 56.4834C35.9669 55.4364 36.9824 54.7405 38.0779 54.7489C40.4357 54.7479 41.7297 57.671 40.5289 59.6422L35.8023 68.663H43.2964C43.2991 68.6629 43.3575 68.662 43.3803 68.662Z" fill="#D34A0F"/>
<path d="M82.7135 27.4225C86.5731 27.5961 86.5709 33.6194 82.7135 33.7918H78.3178L78.1126 34.9169C77.6965 37.3097 76.7816 39.5274 75.5819 41.5933L78.6297 44.9301C80.3588 46.7826 79.2749 50.3189 76.5847 50.3344C76.1966 50.3323 75.8133 50.2491 75.4593 50.09C75.1053 49.9308 74.7885 49.6994 74.5294 49.4104L73.989 48.8194L71.898 50.3198C75.5441 60.2012 70.3566 71.8101 60.8872 74.6484C60.6692 74.6806 60.4474 74.677 60.2306 74.6376C59.7214 74.6522 59.587 74.6621 59.4549 74.6621C57.9895 74.6621 56.7361 73.4607 56.5399 71.8674C56.2993 70.2355 57.4145 68.4566 59.066 68.2386C70.5126 64.5476 69.4339 47.0571 58.0708 44.7187C57.0047 44.5195 56.1344 43.7018 55.7953 42.5838C53.2917 34.6661 46.4804 29.3313 38.8417 29.2936C28.5895 29.1381 20.5681 38.8316 20.7384 48.9296C20.7384 50.6928 19.4336 52.1208 17.8297 52.1208C14.7432 52.1297 12.0021 54.1558 10.843 57.2828C9.28061 61.2185 11.0813 66.3948 15.0051 68.056C18.2247 69.0775 17.7332 74.2026 14.2642 74.3311C13.8303 74.3302 13.4031 74.2239 13.0192 74.0216C0.568575 68.61 2.11786 49.2158 15.037 46.0562C16.4785 30.6741 30.9664 18.8177 46.0436 24.1097C46.5179 23.1287 46.9879 21.9037 47.4738 20.9703L47.9819 20.0429L44.9788 16.6962C43.4537 14.7773 44.6481 11.4878 47.2161 11.4737C47.9047 11.4784 48.5667 11.7403 49.0722 12.208L52.0903 15.5128C53.8489 14.2554 55.8062 13.2229 57.8844 12.7234L58.8745 12.4738V7.69582C58.8745 5.94006 60.1799 4.51079 61.7838 4.51079C63.3877 4.51079 64.6923 5.93966 64.6923 7.69582V12.4738L65.6831 12.7234C67.7599 13.2226 69.7187 14.2558 71.4763 15.5128L74.4946 12.208C75.0009 11.7402 75.6639 11.4786 76.3533 11.4746C78.9114 11.4846 80.1041 14.7695 78.591 16.6929L75.5728 19.9968L76.1003 20.9368C77.2321 22.9095 77.9324 25.1602 78.3487 27.422L82.7135 27.4225ZM69.9322 38.6767C73.886 34.1118 73.7839 26.3316 69.6907 21.89C68.688 20.8313 67.4808 19.9872 66.1423 19.4086C64.8037 18.8301 63.3617 18.5292 61.9035 18.5243C60.4453 18.5193 59.0013 18.8103 57.6588 19.3797C56.3164 19.9491 55.1034 20.785 54.0935 21.8368C52.8484 23.2374 52.0701 24.8599 51.4466 26.5705C55.6874 29.5763 58.9552 33.7579 60.847 38.5994C62.5181 39.1989 64.0793 40.0692 65.4679 41.1754L66.0797 41.6646L66.7643 41.3124C67.9377 40.7 68.993 39.884 69.881 38.9024L69.9322 38.6769" fill="#D34A0F"/>
</g>
<path d="M5.8944 60.5509C5.90827 61.3234 6.02156 62.091 6.23148 62.8346C6.23187 62.8357 6.23218 62.8368 6.23245 62.8379C6.82952 64.9684 8.26758 66.886 10.2597 67.889C10.3754 67.9475 10.4926 68.0036 10.6116 68.0564C12.3694 68.5856 13.2041 70.6555 12.5765 72.3236C12.1821 73.4519 11.0897 74.3411 9.87073 74.3314C10.0459 74.3285 11.021 74.3403 11.1722 74.3214C11.7873 74.2633 12.3661 74.0039 12.8189 73.5835C13.0282 73.3885 13.2111 73.1669 13.3629 72.9245C13.4012 72.8575 13.441 72.791 13.4774 72.7229C13.5401 72.602 13.5957 72.4774 13.6439 72.35C13.7157 72.1546 13.7704 71.9533 13.8074 71.7484L13.8079 71.7463C13.8334 71.5947 13.8498 71.4416 13.8567 71.2881V71.2874C13.8917 70.4625 13.6255 69.6529 13.1079 69.0096C12.9875 68.8651 12.8548 68.7315 12.7111 68.6102C12.71 68.6092 12.7087 68.6084 12.7076 68.6074C12.5182 68.4507 12.3097 68.3187 12.0871 68.2145C12.0629 68.2033 12.0373 68.192 12.0104 68.1806C11.9035 68.135 11.7983 68.096 11.6876 68.0563C8.2356 66.5533 6.43345 62.473 7.10121 58.852V58.8491C7.56869 56.0763 9.45278 53.4935 12.1462 52.54C12.9048 52.2655 13.7051 52.1236 14.5118 52.1206C15.4945 52.129 16.4155 51.5482 16.9197 50.719L16.921 50.717C17.1771 50.2991 17.3389 49.8303 17.3951 49.3434C17.446 48.7083 17.4189 48.0672 17.4777 47.4317C17.609 45.5941 17.9789 43.7813 18.5779 42.039C21.0628 34.7544 27.6624 29.2509 35.5237 29.2934C34.7856 29.2926 33.8763 29.2823 33.1526 29.3423C31.6195 29.456 30.1092 29.7793 28.6639 30.303C23.14 32.2886 18.9491 37.1797 17.2717 42.7422C16.8081 44.2682 16.5163 45.8411 16.4016 47.4317C16.329 48.1355 16.3916 48.8495 16.2887 49.5496C16.1237 50.4906 15.539 51.3658 14.685 51.8113C14.1703 52.1021 13.5927 52.1245 13.0176 52.1356C12.3883 52.1744 11.7672 52.2981 11.171 52.5032C8.42772 53.4297 6.49643 56.0395 6.02477 58.849V58.8519C5.92689 59.4128 5.88325 59.9817 5.8944 60.5509Z" fill="url(#paint7_linear_101_680)"/>
<path d="M32.1131 88.7668C31.9846 88.7849 31.8551 88.7943 31.7254 88.7952C32.015 88.7885 32.9169 88.8161 33.1892 88.7668H33.1897C33.3166 88.7474 33.4422 88.7197 33.5655 88.6839H33.5667C33.6892 88.6467 33.8093 88.6017 33.9261 88.5492L33.9278 88.5485C34.5381 88.2671 35.0358 87.7885 35.341 87.1898L35.3418 87.1883L42.5837 73.4404L42.585 73.4378C42.6156 73.3744 42.6482 73.3118 42.6774 73.2481C42.7037 73.1855 42.7291 73.1225 42.7545 73.0595L42.7557 73.057C42.7783 72.9931 42.7992 72.9285 42.821 72.8643L42.8217 72.8625C43.2058 71.6216 42.8407 70.1532 41.8267 69.3159L41.823 69.3126C41.4023 68.9614 40.8882 68.7408 40.3438 68.6777C40.1489 68.652 39.1994 68.6659 38.9871 68.6627C41.1828 68.6844 42.4289 71.1249 41.6785 73.0595C41.6282 73.1895 41.5712 73.3167 41.5075 73.4407C41.5065 73.4543 34.2599 87.1925 34.2562 87.2051C34.007 87.6763 33.6406 88.0754 33.1925 88.3639L33.1907 88.3651C33.0815 88.4333 32.9682 88.4947 32.8513 88.5488L32.8499 88.5495C32.6155 88.6555 32.3675 88.7287 32.1131 88.7668Z" fill="url(#paint8_linear_101_680)"/>
<path d="M36.3035 56.5607C36.5162 57.0522 36.6117 57.5865 36.5825 58.1213C36.5533 58.656 36.4 59.1767 36.135 59.6421L31.4083 68.6629H32.4846L37.2112 59.6421C37.4459 59.2342 37.5934 58.782 37.6443 58.3142V58.3123C37.7341 57.4965 37.529 56.6755 37.066 55.9979C36.8512 55.6841 36.5767 55.4157 36.258 55.2082C35.9393 55.0006 35.5828 54.8581 35.2089 54.7886C34.8987 54.7209 34.0099 54.7579 33.6843 54.7486C34.6023 54.7464 35.4757 55.2498 35.9918 55.9999C36.1139 56.1761 36.2183 56.3639 36.3035 56.5607Z" fill="url(#paint9_linear_101_680)"/>
<path d="M36.2231 22.9266C38.0652 23.0764 39.896 23.5343 41.65 24.1102H42.7262C41.3722 23.6743 39.9521 23.2728 38.5449 23.0751C37.1801 22.8591 35.7351 22.8243 34.3522 22.8404C34.9768 22.842 35.6004 22.8707 36.2231 22.9266Z" fill="url(#paint10_linear_101_680)"/>
<path d="M45.655 12.1216L45.6537 12.1207C45.5955 12.0719 45.5345 12.028 45.474 11.983C45.3614 11.9047 45.2439 11.8338 45.1221 11.7707L45.1201 11.7698C45.0054 11.7122 44.8872 11.6622 44.766 11.62L44.7644 11.6195C44.6426 11.5784 44.5183 11.5455 44.3921 11.521C44.3902 11.521 44.3884 11.5203 44.3865 11.5199C44.318 11.508 44.2491 11.4982 44.18 11.4899C43.9893 11.4628 43.0323 11.4788 42.823 11.4749C43.118 11.4761 43.4109 11.5252 43.6902 11.6204C44.0135 11.733 44.3141 11.9026 44.5776 12.1212C44.6121 12.1496 44.6457 12.179 44.679 12.2091L47.6971 15.5144H48.7734L45.7552 12.2091C45.7221 12.179 45.6887 12.1498 45.655 12.1216Z" fill="url(#paint11_linear_101_680)"/>
<path d="M57.1256 18.5117C54.3359 18.5891 51.643 19.8507 49.6999 21.8374C49.4582 22.117 49.2295 22.4065 49.011 22.7042C48.501 23.4053 48.0647 24.1572 47.709 24.9479C47.5336 25.3237 47.2115 26.1765 47.0527 26.571C51.3512 29.6203 54.505 33.7087 56.4531 38.5999C57.5046 38.9821 58.5154 39.468 59.4706 40.0505C60.2449 40.5375 60.9851 41.0769 61.6858 41.665H62.762C62.0615 41.0767 61.3212 40.5373 60.5467 40.0505C59.5918 39.4675 58.5809 38.9816 57.5292 38.5999C56.9135 37.0595 56.1658 35.5751 55.2944 34.1635C54.0413 32.1425 52.5169 30.3029 50.7638 28.6962C49.962 27.9498 49.0096 27.2285 48.1288 26.571C48.3479 26.0244 48.6631 25.1747 48.9204 24.6575C49.4109 23.6393 50.0348 22.6909 50.7756 21.8374C52.7991 19.765 55.6408 18.4899 58.5498 18.5053C58.2869 18.5067 57.3724 18.4993 57.1256 18.5117Z" fill="url(#paint12_linear_101_680)"/>
<path d="M61.3721 7.55714C61.3603 7.28308 61.3167 7.0113 61.2422 6.74729L61.2416 6.7449C61.0904 6.21337 60.8066 5.72897 60.4169 5.33711C60.4157 5.33591 60.4147 5.3347 60.4136 5.3337C60.2458 5.16838 60.0593 5.02325 59.8577 4.90127C59.6916 4.80235 59.5158 4.7204 59.3333 4.65665L59.3318 4.65617C59.2719 4.6353 59.2105 4.61843 59.1494 4.60095C58.7172 4.46567 57.8438 4.52296 57.3896 4.51198C58.6976 4.4978 59.8323 5.51611 60.1661 6.74729C60.2532 7.05627 60.2975 7.3757 60.2981 7.69672V12.4746C61.3818 12.7365 62.5346 13.0391 63.5531 13.486C64.7942 13.9968 65.9793 14.7491 67.0819 15.5138H68.1582C67.0493 14.7441 65.8592 13.9907 64.6104 13.4777C63.599 13.0364 62.4484 12.7338 61.374 12.4746V7.69672C61.3746 7.64992 61.374 7.6034 61.3721 7.55714Z" fill="url(#paint13_linear_101_680)"/>
<path d="M68.7565 50.8326C68.7001 50.661 68.6415 50.4893 68.5806 50.3198L70.6716 48.8194H69.5954L67.5044 50.3198C68.9447 54.3417 69.0517 58.7205 67.8097 62.8079C66.1838 68.2364 62.0152 72.9598 56.5273 74.6376H55.8374C55.3282 74.6522 55.1938 74.6621 55.0617 74.6621C55.3271 74.6601 56.1931 74.6688 56.4557 74.6521C56.37 74.6634 56.2836 74.6693 56.1971 74.6696C56.4237 74.663 57.3633 74.6883 57.5702 74.6479C67.3551 71.5637 71.9092 60.2538 68.7565 50.8326Z" fill="url(#paint14_linear_101_680)"/>
<path d="M74.6651 25.7339C74.3444 24.4142 73.8839 23.1325 73.2914 21.9105C73.0176 21.3355 72.5696 20.5595 72.2553 19.9972L75.2735 16.6934C75.6067 16.2411 75.824 15.7141 75.9065 15.1584C75.989 14.6027 75.9341 14.0353 75.7467 13.5057L75.7458 13.5033C75.533 12.8925 75.1374 12.3619 74.6128 11.9835C74.6107 11.982 74.6086 11.9809 74.6065 11.9795C74.4986 11.9041 74.3858 11.836 74.2688 11.7756C74.2664 11.7744 74.2641 11.773 74.2618 11.7717C74.0885 11.6847 73.9069 11.6152 73.7197 11.5644C73.2872 11.4284 72.4142 11.4863 71.9597 11.4751C73.1878 11.4632 74.2827 12.3632 74.6695 13.5033L74.6705 13.5057C74.8579 14.0353 74.9127 14.6027 74.8302 15.1584C74.7477 15.7141 74.5304 16.2411 74.1972 16.6934L71.1792 19.9972C71.8164 21.105 72.4559 22.2898 72.8946 23.4882C73.3803 24.7338 73.6933 26.11 73.9551 27.4221H75.0313C74.942 27.0062 74.7665 26.135 74.6651 25.7339Z" fill="url(#paint15_linear_101_680)"/>
<path d="M76.1501 47.0444C76.1283 46.3156 75.8691 45.6137 75.4119 45.0456C75.3798 45.0064 75.3465 44.9679 75.3121 44.9301L72.2643 41.5933C72.6515 40.8871 73.1237 40.0401 73.443 39.3083C73.5998 38.9546 73.7465 38.5966 73.883 38.2341C74.4261 36.8246 74.7489 35.2814 75.0002 33.7918H73.924C73.697 35.1061 73.428 36.4901 72.9813 37.7446C72.542 39.0739 71.8748 40.3732 71.188 41.5933L74.236 44.9301C74.2706 44.9681 74.304 45.007 74.3365 45.0466C74.7192 45.5206 74.9639 46.0908 75.0438 46.6947C75.3143 48.4564 74.0666 50.3413 72.191 50.3345C72.6496 50.3198 73.5069 50.3836 73.9419 50.2481C75.0841 49.9639 75.9131 48.9151 76.1003 47.7765C76.1263 47.6235 76.1428 47.4691 76.1497 47.3141C76.1526 47.2242 76.1535 47.1343 76.1501 47.0444Z" fill="url(#paint16_linear_101_680)"/>
<path d="M82.302 30.4558C82.2899 30.185 82.2466 29.9165 82.1729 29.6556C82.0495 29.2259 81.8405 28.8255 81.5584 28.4786C81.4913 28.3988 81.4221 28.3207 81.3479 28.2476C81.3468 28.2466 81.3459 28.2454 81.3448 28.2444C81.2805 28.1819 81.2143 28.122 81.1459 28.0647C80.8839 27.8477 80.5853 27.6793 80.2641 27.5672L80.2624 27.5667C79.7505 27.3614 78.8646 27.434 78.3199 27.4225C79.9964 27.4104 81.258 28.9971 81.2292 30.6075C81.2615 32.212 79.9911 33.8088 78.3199 33.7921C78.5795 33.7862 79.4914 33.8097 79.7312 33.7703C80.5917 33.6679 81.3575 33.1202 81.8064 32.389L81.807 32.388C81.9914 32.0872 82.1275 31.7593 82.2104 31.4164C82.285 31.1019 82.3158 30.7786 82.302 30.4558Z" fill="url(#paint17_linear_101_680)"/>
<path d="M38.9868 68.662C41.3175 68.6673 42.5884 71.4716 41.5072 73.44L34.2652 87.1879C33.7438 88.1797 32.771 88.7954 31.725 88.7954C29.4161 88.7935 28.0992 85.9955 29.1944 84.0004L33.8372 75.0323H26.3298C25.8227 75.0259 25.3275 74.8781 24.8997 74.6057C23.5109 73.7271 23.0333 71.7766 23.8353 70.2554L31.0906 56.4834C31.5734 55.4364 32.589 54.7405 33.6845 54.7489C36.0422 54.7479 37.3363 57.671 36.1355 59.6422L31.4088 68.663H38.903C38.9055 68.6629 38.964 68.662 38.9868 68.662Z" fill="#FFF2DC"/>
<path d="M78.3199 27.4225C82.1796 27.5961 82.1774 33.6194 78.3199 33.7918H73.9241L73.7188 34.9169C73.3028 37.3097 72.3879 39.5274 71.1881 41.5933L74.236 44.9301C75.9651 46.7826 74.8812 50.3189 72.191 50.3344C71.8029 50.3324 71.4196 50.2491 71.0656 50.09C70.7117 49.9308 70.3949 49.6994 70.1357 49.4104L69.5954 48.8194L67.5044 50.3198C71.1503 60.2012 65.963 71.8101 56.4935 74.6484C56.2755 74.6806 56.0537 74.677 55.8369 74.6376C55.3277 74.6522 55.1933 74.6621 55.0612 74.6621C53.5958 74.6621 52.3425 73.4607 52.1463 71.8674C51.9056 70.2355 53.0208 68.4566 54.6723 68.2386C66.1189 64.5476 65.0401 47.0571 53.6771 44.7187C52.6111 44.5195 51.7401 43.7018 51.4017 42.5838C48.898 34.6661 42.0868 29.3313 34.4481 29.2936C24.1958 29.1381 16.1744 38.8316 16.3447 48.9296C16.3447 50.6928 15.04 52.1208 13.436 52.1208C10.3494 52.1297 7.60843 54.1558 6.44933 57.2828C4.88697 61.2185 6.68752 66.3948 10.6115 68.056C13.8311 69.0775 13.3396 74.2026 9.87057 74.3311C9.43662 74.3302 9.0094 74.224 8.62553 74.0216C-3.82507 68.61 -2.27589 49.2158 10.6434 46.0562C12.0848 30.6741 26.5727 18.8177 41.65 24.1097C42.1241 23.1287 42.5941 21.9037 43.0801 20.9703L43.5882 20.0429L40.5851 16.6962C39.0601 14.7773 40.2544 11.4878 42.8224 11.4737C43.5111 11.4784 44.173 11.7403 44.6784 12.208L47.6966 15.5128C49.4552 14.2554 51.4125 13.2229 53.4908 12.7234L54.4807 12.4738V7.69582C54.4807 5.94006 55.7861 4.51079 57.3901 4.51079C58.9941 4.51079 60.2986 5.93966 60.2986 7.69582V12.4738L61.2895 12.7234C63.3662 13.2226 65.325 14.2558 67.0827 15.5128L70.1009 12.208C70.6073 11.7402 71.2703 11.4786 71.9597 11.4746C74.5177 11.4846 75.7103 14.7695 74.1973 16.6929L71.1791 19.9968L71.7066 20.9368C72.8385 22.9095 73.5387 25.1602 73.9551 27.422L78.3199 27.4225ZM65.5385 38.6767C69.4924 34.1118 69.3902 26.3316 65.2972 21.89C64.2944 20.8313 63.0872 19.9872 61.7487 19.4086C60.4102 18.8301 58.9681 18.5292 57.5099 18.5243C56.0517 18.5193 54.6077 18.8103 53.2653 19.3797C51.9228 19.9491 50.7099 20.785 49.6999 21.8368C48.4549 23.2374 47.6765 24.8599 47.0531 26.5705C51.2938 29.5763 54.5616 33.758 56.4535 38.5994C58.1245 39.1989 59.6857 40.0692 61.0743 41.1754L61.6861 41.6646L62.3707 41.3124C63.5442 40.7 64.5995 39.884 65.4874 38.9024L65.5385 38.6769" fill="#FFF2DC"/>
<defs>
<filter id="filter0_f_101_680" x="1.46753" y="1.51079" width="87.1399" height="90.2846" filterUnits="userSpaceOnUse" color-interpolation-filters="sRGB">
<feFlood flood-opacity="0" result="BackgroundImageFix"/>
<feBlend mode="normal" in="SourceGraphic" in2="BackgroundImageFix" result="shape"/>
<feGaussianBlur stdDeviation="1.5" result="effect1_foregroundBlur_101_680"/>
</filter>
<linearGradient id="paint0_linear_101_680" x1="53.5729" y1="0.417633" x2="53.5729" y2="92.8952" gradientUnits="userSpaceOnUse">
<stop stop-color="#D34A0F"/>
<stop offset="1" stop-color="#F87C56"/>
</linearGradient>
<linearGradient id="paint1_linear_101_680" x1="53.5729" y1="0.417633" x2="53.5729" y2="92.8952" gradientUnits="userSpaceOnUse">
<stop stop-color="#D34A0F"/>
<stop offset="1" stop-color="#F87C56"/>
</linearGradient>
<linearGradient id="paint2_linear_101_680" x1="53.5729" y1="0.417633" x2="53.5729" y2="92.8952" gradientUnits="userSpaceOnUse">
<stop stop-color="#D34A0F"/>
<stop offset="1" stop-color="#F87C56"/>
</linearGradient>
<linearGradient id="paint3_linear_101_680" x1="53.5729" y1="0.417633" x2="53.5729" y2="92.8952" gradientUnits="userSpaceOnUse">
<stop stop-color="#D34A0F"/>
<stop offset="1" stop-color="#F87C56"/>
</linearGradient>
<linearGradient id="paint4_linear_101_680" x1="53.5729" y1="0.417633" x2="53.5729" y2="92.8952" gradientUnits="userSpaceOnUse">
<stop stop-color="#D34A0F"/>
<stop offset="1" stop-color="#F87C56"/>
</linearGradient>
<linearGradient id="paint5_linear_101_680" x1="53.5729" y1="0.417633" x2="53.5729" y2="92.8952" gradientUnits="userSpaceOnUse">
<stop stop-color="#D34A0F"/>
<stop offset="1" stop-color="#F87C56"/>
</linearGradient>
<linearGradient id="paint6_linear_101_680" x1="53.5729" y1="0.417633" x2="53.5729" y2="92.8952" gradientUnits="userSpaceOnUse">
<stop stop-color="#D34A0F"/>
<stop offset="1" stop-color="#F87C56"/>
</linearGradient>
<linearGradient id="paint7_linear_101_680" x1="44.0989" y1="4.50901" x2="44.0989" y2="88.797" gradientUnits="userSpaceOnUse">
<stop stop-color="#F7A175"/>
<stop offset="1" stop-color="#FFF2DC"/>
</linearGradient>
<linearGradient id="paint8_linear_101_680" x1="44.0989" y1="4.50901" x2="44.0989" y2="88.797" gradientUnits="userSpaceOnUse">
<stop stop-color="#F7A175"/>
<stop offset="1" stop-color="#FFF2DC"/>
</linearGradient>
<linearGradient id="paint9_linear_101_680" x1="44.0989" y1="4.50901" x2="44.0989" y2="88.797" gradientUnits="userSpaceOnUse">
<stop stop-color="#F7A175"/>
<stop offset="1" stop-color="#FFF2DC"/>
</linearGradient>
<linearGradient id="paint10_linear_101_680" x1="44.0989" y1="4.50901" x2="44.0989" y2="88.797" gradientUnits="userSpaceOnUse">
<stop stop-color="#F7A175"/>
<stop offset="1" stop-color="#FFF2DC"/>
</linearGradient>
<linearGradient id="paint11_linear_101_680" x1="44.0989" y1="4.50901" x2="44.0989" y2="88.797" gradientUnits="userSpaceOnUse">
<stop stop-color="#F7A175"/>
<stop offset="1" stop-color="#FFF2DC"/>
</linearGradient>
<linearGradient id="paint12_linear_101_680" x1="44.0989" y1="4.50901" x2="44.0989" y2="88.797" gradientUnits="userSpaceOnUse">
<stop stop-color="#F7A175"/>
<stop offset="1" stop-color="#FFF2DC"/>
</linearGradient>
<linearGradient id="paint13_linear_101_680" x1="44.0989" y1="4.50901" x2="44.0989" y2="88.797" gradientUnits="userSpaceOnUse">
<stop stop-color="#F7A175"/>
<stop offset="1" stop-color="#FFF2DC"/>
</linearGradient>
<linearGradient id="paint14_linear_101_680" x1="44.0989" y1="4.50901" x2="44.0989" y2="88.797" gradientUnits="userSpaceOnUse">
<stop stop-color="#F7A175"/>
<stop offset="1" stop-color="#FFF2DC"/>
</linearGradient>
<linearGradient id="paint15_linear_101_680" x1="44.0989" y1="4.50901" x2="44.0989" y2="88.797" gradientUnits="userSpaceOnUse">
<stop stop-color="#F7A175"/>
<stop offset="1" stop-color="#FFF2DC"/>
</linearGradient>
<linearGradient id="paint16_linear_101_680" x1="44.0989" y1="4.50901" x2="44.0989" y2="88.797" gradientUnits="userSpaceOnUse">
<stop stop-color="#F7A175"/>
<stop offset="1" stop-color="#FFF2DC"/>
</linearGradient>
<linearGradient id="paint17_linear_101_680" x1="44.0989" y1="4.50901" x2="44.0989" y2="88.797" gradientUnits="userSpaceOnUse">
<stop stop-color="#F7A175"/>
<stop offset="1" stop-color="#FFF2DC"/>
</linearGradient>
</defs>
</svg>
