<svg width="95" height="94" viewBox="0 0 95 94" fill="none" xmlns="http://www.w3.org/2000/svg">
<path d="M17.1577 64.8573C20.3481 66.6238 21.5648 70.838 20.2446 74.1567C19.306 76.6654 16.8581 78.6351 14.1235 78.6083H18.4403C19.0778 78.607 19.7113 78.5059 20.3175 78.3088C22.1532 77.7208 23.6356 76.2593 24.4134 74.5136C25.4353 72.2436 25.2876 69.4825 24.0065 67.3447C23.4354 66.3801 22.6388 65.5685 21.6849 64.9797C21.3442 64.7607 20.9604 64.6196 20.6204 64.4C20.0351 64.021 19.5616 63.4927 19.2486 62.8696C18.1851 60.8228 18.9596 57.9705 21.1112 56.9865C21.4625 56.8246 21.8377 56.7208 22.2222 56.6793C22.7081 56.6449 23.1986 56.6604 23.6782 56.5606C25.5177 56.2387 27.1293 55.0316 28.0994 53.4543L28.1015 53.4508C28.7307 52.4258 29.1103 51.2673 29.2097 50.0688C29.2648 49.2047 29.2333 48.3341 29.3467 47.4736C29.5558 45.5763 30.091 43.7293 30.9288 42.0142C33.2525 37.1975 38.0996 33.7176 43.5343 33.7488C41.8345 33.786 38.3938 33.6112 36.7678 33.9784C33.7075 34.5475 30.9148 36.2517 28.8801 38.5912C26.7089 41.0748 25.3756 44.2489 25.0231 47.523C24.8775 48.6145 24.9975 49.7285 24.7933 50.8128C24.4356 52.8097 23.2539 54.6727 21.5116 55.7351C20.7599 56.1996 19.9174 56.4975 19.0408 56.6088C18.4018 56.6899 17.7394 56.6131 17.1261 56.8522C16.2884 57.1539 15.5792 57.7332 15.1163 58.4938C15.1153 58.4955 15.1142 58.4971 15.1132 58.4987C15.0134 58.6624 14.9236 58.832 14.8442 59.0065C14.7351 59.2545 14.6478 59.5116 14.5833 59.7747C14.3089 60.9093 14.4826 62.106 15.0682 63.1157C15.3541 63.5965 15.7394 64.0106 16.1984 64.3303C16.4964 64.5449 16.8396 64.6783 17.1577 64.8573Z" fill="url(#paint0_linear_101_671)"/>
<path d="M43.2341 78.7415C42.4823 78.5843 41.8492 77.8886 41.8311 77.1106C41.9661 75.2125 42.5611 73.3758 43.5646 71.759H39.2477C38.244 73.3757 37.649 75.2125 37.514 77.1106C37.5328 77.5448 37.7184 77.9551 38.0321 78.2559C38.0338 78.2574 38.0351 78.2593 38.0368 78.2608C38.0758 78.2979 38.1167 78.3333 38.1566 78.3696C38.1938 78.4005 38.2322 78.43 38.2718 78.458C38.2736 78.4594 38.2758 78.4604 38.2776 78.4618C38.4159 78.5588 38.5671 78.6358 38.7269 78.6905C38.8389 78.7277 38.9544 78.7533 39.0717 78.7669L39.0755 78.7674C39.1317 78.7734 39.1882 78.7763 39.2446 78.7763H43.5617C43.4516 78.7761 43.3418 78.7644 43.2341 78.7415Z" fill="url(#paint1_linear_101_671)"/>
<path d="M39.9565 19.2107C41.3976 19.263 42.8319 19.434 44.2448 19.722H48.5617C47.347 19.4744 46.1162 19.3131 44.8786 19.2396C43.9184 19.1603 40.2118 19.2026 39.1904 19.193C39.4461 19.1952 39.7016 19.2019 39.9565 19.2107Z" fill="url(#paint2_linear_101_671)"/>
<path d="M49.9715 57.9097C49.3868 57.3356 48.781 56.7842 48.1528 56.2623L48.1494 56.2594C47.8617 56.0215 47.5738 55.7914 47.2743 55.5726L47.2722 55.5711L47.2522 55.5569C47.2493 55.5549 47.2454 55.5521 47.2432 55.5504L47.2313 55.5422C46.8274 55.2468 46.3911 54.9983 45.9309 54.8016H45.93C45.3096 54.5392 44.6504 54.3804 43.9786 54.3315C43.8945 54.3004 39.4399 54.3202 39.2237 54.315C40.5532 54.3214 41.846 54.7514 42.9144 55.5425L42.9262 55.5507C45.2653 57.3113 47.3007 59.4682 49.0447 61.8168C52.3659 66.2875 54.418 71.7986 54.2566 77.4071C54.0859 85.6584 47.8196 93.3123 39.245 93.3316C39.9382 93.3464 43.8443 93.3404 44.4331 93.3034C45.391 93.2435 46.3401 93.0833 47.2647 92.8255C51.2931 91.7173 54.6641 88.7512 56.5843 85.0757C59.3276 79.9544 59.0236 73.6996 56.9883 68.3846C55.4701 64.4251 52.9832 60.8757 49.9715 57.9097Z" fill="url(#paint3_linear_101_671)"/>
<path d="M57.686 26.7656C60.3659 29.3901 62.533 32.4914 64.076 35.9103C64.7056 36.2604 65.3168 36.6444 65.9085 37.0554H70.2254C69.6337 36.6444 69.0227 36.2602 68.393 35.9103C66.7341 32.2311 64.3519 28.9232 61.3881 26.1837C61.3408 24.5243 61.6323 22.8726 62.2446 21.3296H57.9277C57.8924 21.4176 57.8581 21.506 57.8248 21.5949C57.2831 23.0624 57.0273 24.62 57.0712 26.1837C57.2788 26.3743 57.4838 26.5683 57.686 26.7656Z" fill="url(#paint4_linear_101_671)"/>
<path d="M63.507 0.90216C66.7514 1.08428 69.2518 3.84048 69.6991 6.96641C69.8123 7.70796 69.8196 8.46182 69.7208 9.20542C69.6017 9.98581 69.4024 10.755 69.3671 11.5477C69.0117 16.289 71.8352 21.2143 76.4253 22.7692C77.1915 23.0314 77.9887 23.1922 78.7967 23.2473C79.089 23.2911 83.3382 23.2623 83.7501 23.27C80.272 23.3018 77.0131 21.2063 75.2824 18.2395C74.1413 16.3135 73.58 14.0991 73.666 11.862C73.6897 11.0572 73.8386 10.2661 73.9969 9.47989C74.1102 8.80526 74.136 8.11882 74.0737 7.43758C73.8401 4.57514 71.8588 1.81683 69.0132 1.09436L69.0113 1.09376C68.5441 0.971101 68.0642 0.903413 67.5814 0.892076C67.5388 0.89121 67.4961 0.890778 67.4534 0.890778H63.1365C63.2601 0.89111 63.3836 0.894904 63.507 0.90216Z" fill="url(#paint5_linear_101_671)"/>
<path d="M83.5118 22.7938C85.1511 22.8774 86.7099 23.6674 87.8151 24.8699C89.5162 26.6101 90.1938 29.2152 89.7583 31.5883C88.2207 39.2278 83.2424 46.2208 76.059 49.4588C78.3354 56.4596 77.372 64.5301 73.2016 70.6378C72.1923 72.1266 71.0019 73.4843 69.6577 74.6794C68.1636 76.0429 66.5853 77.0907 64.5356 77.0683H68.8524C70.1751 77.062 71.4618 76.6373 72.5283 75.855C73.9778 74.7781 75.2853 73.5222 76.4197 72.1173C81.2873 66.1413 82.7312 57.7471 80.6568 50.3805C80.5676 50.0721 80.4762 49.7636 80.3757 49.4588C87.5593 46.2206 92.5383 39.2278 94.075 31.5883C94.5107 29.2154 93.8329 26.6099 92.1318 24.8699C90.9473 23.5761 89.234 22.7708 87.4712 22.7832H83.1543C83.2743 22.7831 83.3928 22.7881 83.5118 22.7938Z" fill="url(#paint6_linear_101_671)"/>
<path d="M42.9146 55.5419C42.9821 55.586 54.2647 63.5882 54.2647 76.8895C54.2647 85.9554 47.5273 93.3311 39.245 93.3311C30.9627 93.3311 24.2257 85.955 24.2257 76.8895C24.2948 65.6125 31.9859 58.3874 35.5319 55.5419C36.5989 54.748 37.8934 54.3192 39.2233 54.3192C40.5533 54.3192 41.8477 54.748 42.9146 55.5419ZM39.245 78.7763C40.1953 78.7763 40.9693 77.9291 40.9693 76.8893C40.8186 75.0651 40.2278 73.3047 39.2476 71.7589C38.242 73.3747 37.6468 75.212 37.5141 77.1105C37.5213 77.9293 38.2953 78.7762 39.245 78.7762" fill="#F87C56"/>
<path d="M87.8154 24.8699C89.448 26.5289 90.2132 29.1215 89.7587 31.5883C88.0797 39.7293 82.943 46.3314 76.0593 49.4587C79.2116 58.7742 76.0546 70.235 68.2116 75.8549C67.1452 76.6373 65.8586 77.062 64.5359 77.0683C57.668 76.9633 55.5742 67.4014 60.8776 63.67C66.7277 59.7995 64.8004 49.8361 57.9037 48.9922C55.3277 48.513 53.3415 46.6439 52.5649 44.0914C46.763 27.6958 25.2966 31.9183 24.9224 49.3821C24.9224 53.3959 21.9412 56.66 18.2741 56.66C16.1691 56.66 14.4577 58.5345 14.4577 60.8377C14.4477 62.5034 15.3399 63.9892 16.7252 64.6357C23.2508 67.7169 21.4242 78.465 14.1232 78.6083C13.2229 78.6 12.3333 78.4112 11.5072 78.0532C-2.51412 71.4197 -2.1696 49.3734 12.1704 43.3384C15.057 27.664 29.3427 16.5877 44.2442 19.722C46.3241 10.4721 53.0573 3.15346 61.6952 1.06472C64.5043 0.369302 67.4023 1.79618 68.8107 4.37027C69.7388 6.04545 70.0211 8.00252 69.6044 9.8717C69.4343 10.6545 69.3447 11.4527 69.337 12.2538C69.337 18.3127 73.865 23.2694 79.4326 23.2694C80.1793 23.2533 80.9219 23.1536 81.6464 22.9722C83.8679 22.4001 86.2233 23.1363 87.8154 24.8699ZM67.0267 37.0183C68.5367 37.0172 70.0241 36.6516 71.3626 35.9527C65.238 33.3618 60.3244 28.0136 57.9276 21.3297C57.3145 22.8725 57.0231 24.5243 57.0711 26.1837C60.0367 28.9216 62.4192 32.2299 64.0759 35.9104C64.7058 36.2607 65.3174 36.6429 65.9084 37.0554C66.1675 37.0568 66.4258 37.0499 66.6824 37.0267L67.0267 37.0183Z" fill="#F87C56"/>
<g style="mix-blend-mode:multiply" opacity="0.4" filter="url(#filter0_f_101_671)">
<path d="M41.1076 58.9431C41.2289 59.0288 50.7959 66.009 50.7959 76.8883C50.7959 83.6977 45.7349 89.2379 39.5135 89.2379C33.2921 89.2379 28.2319 83.698 28.2319 76.8883C28.3449 69.8302 31.8773 63.9297 37.9069 58.9224C38.3734 58.5855 38.9352 58.4059 39.5106 58.4096C40.0861 58.4133 40.6454 58.6002 41.1076 58.9431ZM44.9772 76.8309C44.6877 72.4596 42.663 68.6204 39.514 65.8564C36.3645 68.6187 34.3405 72.4587 34.0507 76.8309C34.3061 84.8447 44.724 84.8404 44.9772 76.8309Z" fill="#D34A0F"/>
<path d="M85.4622 27.787C85.8372 28.176 86.1145 28.6485 86.2714 29.1656C86.4282 29.6827 86.4602 30.2297 86.3645 30.7615C84.6724 39.0122 78.7536 45.1558 71.1345 46.9882C75.904 55.415 74.1426 66.7411 66.3941 72.4565C65.0661 73.4324 63.1796 72.9678 62.351 71.5263C61.479 70.1395 61.8359 68.0392 63.184 67.1007C71.9213 61.201 69.0203 46.2632 58.6174 44.9253C57.5723 44.7162 56.7187 43.9038 56.3822 42.7986C54.0309 35.3728 47.2632 29.6055 39.4859 29.6531C29.5356 29.6531 21.4513 38.5025 21.4513 49.3799C21.4513 51.1356 20.1463 52.565 18.5424 52.565C10.2945 52.6983 8.13866 64.8871 15.5303 68.4003C18.3859 69.7582 17.5903 74.4435 14.3909 74.5144C13.9715 74.5074 13.5575 74.4193 13.1716 74.2548C1.30101 68.4559 3.14446 49.6064 15.7501 46.497C17.3476 30.5973 32.104 19.0538 47.5483 24.7795C48.041 15.4195 54.208 7.04788 62.7724 5.06078C63.2052 4.95383 63.6579 4.95785 64.0888 5.07246C65.6484 5.48312 66.6113 7.20544 66.2361 8.91268C64.1175 17.933 70.9388 27.5418 79.7016 27.3631C80.7294 27.3454 81.7519 27.2106 82.7491 26.9615C83.2336 26.8378 83.7427 26.8494 84.2211 26.9949C84.6994 27.1405 85.1287 27.4144 85.4622 27.787ZM77.9656 35.6073L79.4103 33.691C74.1354 33.0843 69.8403 31.363 66.0895 27.2556C62.3074 23.1537 60.7259 18.2464 60.2041 12.6233L58.4436 14.2721C55.366 17.1539 53.6011 21.3484 53.6011 25.782V28.1689C57.0832 30.9446 59.8339 34.6965 61.5332 38.9798C62.7416 39.5546 63.885 40.2573 64.9437 41.0757C65.6889 41.1573 66.4401 41.169 67.1875 41.1105C71.3709 41.1444 75.3048 39.1357 77.966 35.6073" fill="#D34A0F"/>
</g>
<path d="M6.60319 61.2839C6.69016 63.3906 7.55384 65.4741 9.06498 66.9564C9.53972 67.4233 10.0741 67.8253 10.6542 68.1521C10.9483 68.3225 11.2704 68.4428 11.5503 68.6378C11.9085 68.8875 12.2094 69.2106 12.433 69.5857C13.634 71.5545 12.4404 74.4752 9.99771 74.5141C10.136 74.5116 11.1491 74.5212 11.2604 74.5069C11.5846 74.4837 11.902 74.402 12.1971 74.2657C12.7275 74.0137 13.1733 73.6131 13.4803 73.1124C13.5576 72.9866 13.627 72.8561 13.688 72.7216L13.6886 72.72C13.772 72.5311 13.8386 72.3352 13.8876 72.1347C14.0945 71.2687 13.9593 70.3563 13.5103 69.5874C13.292 69.2216 13.0008 68.9047 12.6548 68.6563C12.407 68.4986 12.1489 68.3576 11.8824 68.2342C11.3282 67.9399 10.8133 67.5769 10.3499 67.1539C7.74535 64.7998 6.99817 60.7938 8.28407 57.5714C9.14273 55.3606 10.9876 53.5004 13.29 52.841C13.7623 52.7042 14.2478 52.6179 14.7384 52.5838C15.0392 52.5539 15.3455 52.5824 15.6448 52.5312C16.4722 52.4046 17.2006 51.8683 17.6352 51.1619C17.8911 50.7451 18.0529 50.2774 18.1092 49.7915C18.1604 49.179 18.1276 48.5604 18.182 47.9474C18.3039 46.0689 18.6761 44.2151 19.2886 42.435C21.746 35.1896 28.3483 29.6303 36.1689 29.6534C34.8966 29.6392 33.5602 29.6613 32.31 29.8881C28.3294 30.5517 24.681 32.7355 22.047 35.7705C21.3461 36.577 20.7111 37.4384 20.148 38.3465C18.8913 40.3875 17.999 42.6314 17.5109 44.978C17.2738 46.1159 17.1294 47.2713 17.0793 48.4326C17.0434 48.953 17.0942 49.481 17.0028 49.9965C16.9299 50.4239 16.7711 50.8322 16.536 51.1966C16.3009 51.5609 15.9944 51.8739 15.6349 52.1164C15.2889 52.3443 14.8953 52.4901 14.4844 52.5427C14.1306 52.5808 13.7721 52.5581 13.4188 52.6039C12.5394 52.6985 11.6856 52.9579 10.9022 53.3686C9.66333 54.0303 8.62341 55.0105 7.88957 56.208C6.95913 57.7317 6.51077 59.5009 6.60319 61.2839Z" fill="url(#paint7_linear_101_671)"/>
<path d="M30.7375 76.7739C30.9686 73.6456 32.0999 70.5724 34.0555 68.1103C34.6553 67.3274 35.4832 66.5428 36.1965 65.856H35.1204C34.404 66.5466 33.5806 67.3254 32.9794 68.1103C31.0114 70.5872 29.8793 73.6826 29.6571 76.8304C29.6527 77.4515 29.736 78.0702 29.9046 78.6681C30.4459 80.6151 32.015 82.3046 34.019 82.745C34.6462 82.9084 35.5487 82.8615 36.1965 82.8672C33.0006 82.8719 30.6695 79.8977 30.7332 76.8304L30.7375 76.7739Z" fill="url(#paint8_linear_101_671)"/>
<path d="M35.7478 23.3013C37.2496 23.3576 38.742 23.5626 40.2033 23.9134C41.0849 24.115 42.2812 24.5088 43.1548 24.7793H44.2311C42.8971 24.3558 41.4168 23.8854 40.043 23.653C38.4176 23.3452 36.7187 23.2587 35.0644 23.285C35.2923 23.2869 35.5201 23.2924 35.7478 23.3013Z" fill="url(#paint9_linear_101_671)"/>
<path d="M46.4752 70.8323C44.9076 66.1839 41.6428 61.9438 37.7903 58.9431C37.6138 58.8153 37.4237 58.7073 37.2237 58.6209L37.222 58.6203C36.9687 58.5139 36.7008 58.4466 36.4273 58.4206C36.2581 58.3975 35.2882 58.4106 35.0994 58.4076C35.6805 58.4117 36.2454 58.5991 36.7137 58.9431C41.9142 63.0127 46.0704 69.2602 46.3792 75.9926C46.5346 78.5786 45.9714 81.2171 44.6658 83.4633C42.7404 86.8656 39.0823 89.2694 35.1201 89.2379C35.9215 89.2371 36.8847 89.2597 37.6695 89.1326C40.2581 88.7715 42.6455 87.3789 44.3508 85.4145C44.3517 85.4133 44.3526 85.4121 44.3536 85.4111C44.7936 84.9047 45.1922 84.3638 45.5455 83.7936C45.697 83.5479 45.8397 83.2962 45.9757 83.0412L45.978 83.0368C47.9881 79.2984 47.789 74.7683 46.4752 70.8323Z" fill="url(#paint10_linear_101_671)"/>
<path d="M50.2212 29.0295C53.283 31.7294 55.6286 35.1954 57.1393 38.9798C58.3472 39.5556 59.4904 40.2582 60.5498 41.0757C60.9831 41.1166 61.4363 41.1493 61.8707 41.1482H62.9469C62.5133 41.1482 62.0582 41.1172 61.626 41.0757C60.5666 40.2582 59.4233 39.5556 58.2154 38.9798C57.1913 36.3983 55.7741 33.9907 54.0139 31.8426L54.0128 31.8413C52.8962 30.4949 51.6468 29.2646 50.2834 28.1689C50.2978 26.9608 50.2311 25.0637 50.3926 23.8883C50.6543 21.5572 51.4246 19.3119 52.6491 17.311C53.1372 16.5203 53.6972 15.7764 54.322 15.0886C54.8526 14.4869 56.2944 13.1915 56.8873 12.6233H55.8111C54.6675 13.7 53.1087 15.0571 52.221 16.3447C50.8114 18.2985 49.8657 20.5478 49.4554 22.9219C49.1444 24.4842 49.2099 26.5684 49.2074 28.1689C49.5104 28.4223 49.9307 28.7693 50.2212 29.0295Z" fill="url(#paint11_linear_101_671)"/>
<path d="M59.2583 4.99579C60.6695 5.10951 61.755 6.38632 61.898 7.75379C61.9887 8.35735 61.8306 8.94983 61.7203 9.53901C61.5928 10.2745 61.5138 11.0177 61.4838 11.7635C61.405 14.3074 61.9268 16.8341 63.0067 19.1388C64.6156 22.5819 67.5588 25.4417 71.1811 26.675C71.1835 26.6759 71.186 26.6766 71.1884 26.6774C72.2763 27.0495 73.4095 27.2727 74.5573 27.341C75.0355 27.3745 75.8961 27.3609 76.3845 27.3635C71.795 27.3953 67.5246 24.7759 65.0876 20.9487C62.7784 17.3874 62.0055 12.8947 62.9489 8.76002C63.0433 8.23012 63.0099 7.68533 62.8514 7.17096C62.6929 6.65658 62.4138 6.18748 62.0375 5.80263C61.9733 5.73933 61.9058 5.67932 61.8366 5.62171C61.6778 5.49121 61.5055 5.37789 61.3228 5.28364C61.0259 5.13281 60.7044 5.03644 60.3734 4.99908C60.1786 4.97322 59.2278 4.9873 59.0156 4.98401C59.096 4.9849 59.1773 4.9886 59.2583 4.99579Z" fill="url(#paint12_linear_101_671)"/>
<path d="M79.3163 26.889C79.9895 26.9673 80.6119 27.2862 81.0687 27.787C81.4426 28.1768 81.7192 28.6493 81.876 29.1662C82.0327 29.6831 82.0652 30.2297 81.9708 30.7615C80.8021 36.5175 77.2881 41.855 72.1649 44.8158C71.2356 45.3568 70.2612 45.8163 69.2527 46.1892C68.6013 46.4373 67.4126 46.7783 66.741 46.9879C67.0786 47.6911 67.6646 48.865 67.9457 49.5675C68.3575 50.576 68.6829 51.6176 68.9183 52.6812C70.5173 59.9311 68.0696 67.9741 62.0006 72.4564C61.5375 72.7914 60.9811 72.9728 60.4095 72.9748H61.4856C62.0571 72.9728 62.6137 72.7915 63.0767 72.4564C63.9501 71.8061 64.7613 71.0763 65.5 70.2763C69.8195 65.6199 71.3537 58.7766 69.9842 52.6337C69.7493 51.5867 69.4274 50.561 69.022 49.5674C68.7416 48.8585 68.1464 47.6823 67.8172 46.9876C68.9107 46.6521 70.2609 46.2688 71.2929 45.8016C73.9351 44.6407 76.2851 42.9054 78.1722 40.7219C78.9203 39.8605 79.5975 38.9399 80.1972 37.9693C81.4328 35.9588 82.3413 33.7648 82.8888 31.4694V31.4685C82.98 31.068 83.0931 30.6637 83.0974 30.2496C83.1106 29.7963 83.0331 29.345 82.8695 28.922C82.7059 28.4991 82.4595 28.113 82.1448 27.7866C82.1129 27.7526 82.0811 27.7192 82.048 27.6873C81.8368 27.4796 81.5956 27.3048 81.3325 27.1688C81.3316 27.1685 81.3307 27.168 81.3299 27.1675C81.1606 27.0823 80.9832 27.0143 80.8003 26.9645L80.7943 26.9626C80.6624 26.9288 80.5282 26.9041 80.3928 26.8886C80.2982 26.8786 80.2021 26.8743 80.1067 26.8733H79.0304C79.1256 26.8755 79.2217 26.879 79.3163 26.889Z" fill="url(#paint13_linear_101_671)"/>
<path d="M36.7141 58.9431C36.8354 59.0288 46.4024 66.009 46.4024 76.8883C46.4024 83.6977 41.3414 89.2379 35.12 89.2379C28.8986 89.2379 23.8385 83.698 23.8385 76.8883C23.9516 69.8302 27.4838 63.9297 33.5134 58.9224C33.98 58.5855 34.5417 58.4059 35.1172 58.4096C35.6927 58.4133 36.252 58.6002 36.7141 58.9431ZM40.5837 76.8309C40.2941 72.4596 38.2696 68.6204 35.1204 65.8564C31.971 68.6187 29.9471 72.4587 29.6571 76.8309C29.9126 84.8447 40.3305 84.8404 40.5837 76.8309Z" fill="#FFF2DC"/>
<path d="M81.0687 27.787C81.4437 28.176 81.721 28.6485 81.8779 29.1656C82.0347 29.6828 82.0665 30.2297 81.9708 30.7615C80.2787 39.0122 74.36 45.1558 66.741 46.9882C71.5105 55.415 69.749 66.7411 62.0005 72.4565C60.6726 73.4324 58.786 72.9678 57.9574 71.5263C57.0854 70.1395 57.4423 68.0392 58.7904 67.1007C67.5277 61.201 64.6268 46.2632 54.2238 44.9253C53.1787 44.7162 52.3251 43.9038 51.9886 42.7986C49.6373 35.3728 42.8696 29.6055 35.0924 29.6531C25.1421 29.6531 17.0578 38.5025 17.0578 49.3799C17.0578 51.1356 15.7528 52.565 14.1488 52.565C5.90088 52.6983 3.74504 64.8871 11.1368 68.4003C13.9924 69.7582 13.1968 74.4435 9.99739 74.5144C9.578 74.5075 9.16394 74.4193 8.7781 74.2548C-3.0926 68.4559 -1.24906 49.6064 11.3566 46.497C12.9541 30.5973 27.7105 19.0538 43.1548 24.7795C43.6474 15.4195 49.8145 7.04788 58.3788 5.06078C58.8117 4.95383 59.2644 4.95785 59.6953 5.07246C61.2549 5.48312 62.2178 7.20544 61.8426 8.91268C59.724 17.933 66.5458 27.5418 75.308 27.3631C76.3358 27.3454 77.3582 27.2106 78.3554 26.9615C78.8399 26.8378 79.3491 26.8494 79.8275 26.9949C80.3058 27.1405 80.7352 27.4144 81.0687 27.787ZM73.5721 35.6073L75.0168 33.691C69.7419 33.0843 65.4468 31.363 61.6959 27.2556C57.9139 23.1537 56.3323 18.2464 55.8105 12.6233L54.0499 14.2721C50.9724 17.1539 49.2075 21.3484 49.2075 25.782V28.1689C52.6897 30.9446 55.4403 34.6965 57.1396 38.9798C58.348 39.5546 59.4913 40.2573 60.5501 41.0757C61.2952 41.1573 62.0465 41.169 62.7938 41.1105C66.9773 41.1444 70.9112 39.1357 73.5725 35.6073" fill="#FFF2DC"/>
<defs>
<filter id="filter0_f_101_671" x="2.20764" y="1.98343" width="87.2108" height="90.2545" filterUnits="userSpaceOnUse" color-interpolation-filters="sRGB">
<feFlood flood-opacity="0" result="BackgroundImageFix"/>
<feBlend mode="normal" in="SourceGraphic" in2="BackgroundImageFix" result="shape"/>
<feGaussianBlur stdDeviation="1.5" result="effect1_foregroundBlur_101_671"/>
</filter>
<linearGradient id="paint0_linear_101_671" x1="54.1635" y1="0.890778" x2="54.1635" y2="93.3391" gradientUnits="userSpaceOnUse">
<stop stop-color="#D34A0F"/>
<stop offset="1" stop-color="#F87C56"/>
</linearGradient>
<linearGradient id="paint1_linear_101_671" x1="54.1635" y1="0.890778" x2="54.1635" y2="93.3391" gradientUnits="userSpaceOnUse">
<stop stop-color="#D34A0F"/>
<stop offset="1" stop-color="#F87C56"/>
</linearGradient>
<linearGradient id="paint2_linear_101_671" x1="54.1635" y1="0.890778" x2="54.1635" y2="93.3391" gradientUnits="userSpaceOnUse">
<stop stop-color="#D34A0F"/>
<stop offset="1" stop-color="#F87C56"/>
</linearGradient>
<linearGradient id="paint3_linear_101_671" x1="54.1635" y1="0.890778" x2="54.1635" y2="93.3391" gradientUnits="userSpaceOnUse">
<stop stop-color="#D34A0F"/>
<stop offset="1" stop-color="#F87C56"/>
</linearGradient>
<linearGradient id="paint4_linear_101_671" x1="54.1635" y1="0.890778" x2="54.1635" y2="93.3391" gradientUnits="userSpaceOnUse">
<stop stop-color="#D34A0F"/>
<stop offset="1" stop-color="#F87C56"/>
</linearGradient>
<linearGradient id="paint5_linear_101_671" x1="54.1635" y1="0.890778" x2="54.1635" y2="93.3391" gradientUnits="userSpaceOnUse">
<stop stop-color="#D34A0F"/>
<stop offset="1" stop-color="#F87C56"/>
</linearGradient>
<linearGradient id="paint6_linear_101_671" x1="54.1635" y1="0.890778" x2="54.1635" y2="93.3391" gradientUnits="userSpaceOnUse">
<stop stop-color="#D34A0F"/>
<stop offset="1" stop-color="#F87C56"/>
</linearGradient>
<linearGradient id="paint7_linear_101_671" x1="44.8451" y1="4.98308" x2="44.8451" y2="89.239" gradientUnits="userSpaceOnUse">
<stop stop-color="#F7A175"/>
<stop offset="1" stop-color="#FFF2DC"/>
</linearGradient>
<linearGradient id="paint8_linear_101_671" x1="44.8451" y1="4.98308" x2="44.8451" y2="89.239" gradientUnits="userSpaceOnUse">
<stop stop-color="#F7A175"/>
<stop offset="1" stop-color="#FFF2DC"/>
</linearGradient>
<linearGradient id="paint9_linear_101_671" x1="44.8451" y1="4.98308" x2="44.8451" y2="89.239" gradientUnits="userSpaceOnUse">
<stop stop-color="#F7A175"/>
<stop offset="1" stop-color="#FFF2DC"/>
</linearGradient>
<linearGradient id="paint10_linear_101_671" x1="44.8451" y1="4.98308" x2="44.8451" y2="89.239" gradientUnits="userSpaceOnUse">
<stop stop-color="#F7A175"/>
<stop offset="1" stop-color="#FFF2DC"/>
</linearGradient>
<linearGradient id="paint11_linear_101_671" x1="44.8451" y1="4.98308" x2="44.8451" y2="89.239" gradientUnits="userSpaceOnUse">
<stop stop-color="#F7A175"/>
<stop offset="1" stop-color="#FFF2DC"/>
</linearGradient>
<linearGradient id="paint12_linear_101_671" x1="44.8451" y1="4.98308" x2="44.8451" y2="89.239" gradientUnits="userSpaceOnUse">
<stop stop-color="#F7A175"/>
<stop offset="1" stop-color="#FFF2DC"/>
</linearGradient>
<linearGradient id="paint13_linear_101_671" x1="44.8451" y1="4.98308" x2="44.8451" y2="89.239" gradientUnits="userSpaceOnUse">
<stop stop-color="#F7A175"/>
<stop offset="1" stop-color="#FFF2DC"/>
</linearGradient>
</defs>
</svg>
