<svg width="82" height="107" viewBox="0 0 82 107" fill="none" xmlns="http://www.w3.org/2000/svg">
<path d="M13.9174 76.0853C13.8719 81.9401 17.1393 87.8804 22.5214 90.4021C23.844 91.0299 25.2616 91.4342 26.7165 91.5985C27.7859 91.7531 31.3958 91.6584 32.5174 91.683C24.5716 91.6776 18.6848 84.7608 18.2651 77.1163C18.0592 73.6764 18.9077 70.1706 20.7271 67.2385C21.1619 66.538 21.6523 65.8736 22.1935 65.2516C22.6174 64.7864 23.0422 64.3187 23.3678 63.7764V63.7758C23.9706 62.7902 24.3477 61.6833 24.4721 60.5347C24.4988 60.2591 24.5186 59.983 24.5187 59.706V23.323C24.5191 22.757 24.5695 22.1921 24.6694 21.635C25.0674 19.3791 26.3328 17.2637 28.2193 15.9454C29.479 15.054 30.983 14.5728 32.5262 14.5675C31.666 14.5936 27.8726 14.4938 27.0994 14.652C25.9483 14.8309 24.8541 15.2735 23.9024 15.9452C22.7976 16.7289 21.8944 17.7636 21.2673 18.9644L21.2665 18.966C20.7294 19.9909 20.3886 21.1072 20.2617 22.2574C20.2224 22.6112 20.2024 22.9668 20.2018 23.3228V59.7063C20.1971 61.1428 19.7988 62.5506 19.0504 63.7767C18.7234 64.3214 18.296 64.7908 17.8705 65.2582C17.451 65.7414 17.0616 66.2501 16.7046 66.7812C14.8752 69.5135 13.9216 72.802 13.9174 76.0853Z" fill="url(#paint0_linear_101_667)"/>
<path d="M35.4863 67.2121C39.0526 70.6718 40.0844 76.3135 38.1737 80.8702C36.5607 84.8793 32.6963 87.9083 28.2891 87.8793C29.5532 87.8477 33.0911 87.983 34.2766 87.7383C36.2732 87.386 38.1235 86.4582 39.6001 85.0689C44.8419 80.2031 44.6845 71.3725 39.2554 66.7112V23.323C39.2549 23.2068 39.2538 23.0917 39.2473 22.9768C39.2164 22.2555 39.0867 21.5419 38.8616 20.8559C38.5438 19.8843 38.0283 18.9891 37.3476 18.2265C36.3686 17.1124 35.0359 16.3693 33.5735 16.1222C32.9223 15.9737 29.0206 16.07 28.2889 16.0443C31.0466 16.0165 33.4998 17.9976 34.4299 20.5339C34.704 21.255 34.8685 22.0129 34.9181 22.7827C34.9319 22.9624 34.938 23.1421 34.938 23.323V66.7108C35.1268 66.8714 35.3088 67.0396 35.4863 67.2121Z" fill="url(#paint1_linear_101_667)"/>
<path d="M28.9347 0.0173684C37.7986 0.278561 45.2212 6.62547 48.121 14.8126C48.8387 16.8162 49.2977 18.9031 49.4868 21.0229C49.5379 21.6014 49.5702 22.181 49.5838 22.7619C49.5879 22.9483 49.5901 23.1352 49.5905 23.3226V56.687C57.0632 66.4455 58.0418 80.4478 52.2063 91.2331C47.5208 100.042 38.5411 106.237 28.4098 106.208C30.2526 106.194 33.6117 106.284 35.3872 106.067C38.1953 105.767 40.9338 105.001 43.4902 103.802C50.3624 100.603 55.6413 94.4523 58.2641 87.3885C60.6834 80.9296 60.9441 73.6999 59.0662 67.0677C58.0099 63.3159 56.2601 59.7952 53.9074 56.6878V23.323C53.9074 23.075 53.9039 22.8287 53.8955 22.5817C53.8785 21.9603 53.8381 21.3403 53.774 20.7215C53.5496 18.49 53.0241 16.2992 52.2118 14.2088C49.9026 8.20811 45.044 3.10735 38.8955 1.04377C37.5294 0.580548 36.1164 0.269383 34.682 0.115915C33.229 -0.0707939 29.7811 0.0302484 28.2888 0.00608608C28.5052 0.00598623 28.7196 0.0100798 28.9347 0.0173684Z" fill="url(#paint2_linear_101_667)"/>
<path d="M71.1128 6.95566C74.6808 7.51709 77.0181 11.0931 76.7871 14.5822C76.6501 17.9993 74.0404 21.229 70.5109 21.4252C70.3731 24.9984 67.5818 28.3131 63.8713 28.3084C64.4304 28.2923 68.4924 28.3535 68.9407 28.2603C70.5077 28.074 71.9591 27.2433 72.9898 26.0592C72.991 26.0577 72.9923 26.0564 72.9936 26.055C74.1059 24.7606 74.7517 23.1303 74.8274 21.4252C76.5424 21.3316 78.1615 20.4673 79.2781 19.1756C79.8581 18.5044 80.3139 17.7352 80.6242 16.9042C82.2664 12.5809 79.6729 7.23992 74.8274 6.88897C74.7276 4.65944 73.6266 2.46726 71.7921 1.17048C71.5341 0.988241 71.2636 0.824423 70.9825 0.680241L70.981 0.679442C70.3106 0.338258 69.5838 0.121739 68.8361 0.040438C68.529 -0.0252597 64.2963 0.0175734 63.8715 0.00619111C64.8424 0.00815543 65.7991 0.238946 66.6641 0.679842C68.9623 1.84313 70.4019 4.34543 70.5103 6.88917C70.7131 6.90085 70.9133 6.92411 71.1128 6.95566Z" fill="url(#paint3_linear_101_667)"/>
<path d="M34.9386 66.7108C42.8733 73.4109 38.7707 87.7724 28.2889 87.8789C17.7934 87.7667 13.7179 73.4039 21.6407 66.7108V23.323C21.6407 19.3092 24.6219 16.0443 28.289 16.0443C31.9562 16.0443 34.9387 19.3092 34.9387 23.323L34.9386 66.7108Z" fill="#F87C56"/>
<path d="M49.5904 23.323V56.6869C64.2244 75.4738 52.2252 106.124 28.4098 106.208C3.90794 105.595 -7.21083 75.3098 6.99055 56.6969V23.323C8.16482 -7.61323 48.4195 -7.60085 49.5904 23.323ZM38.7229 86.824C44.0324 80.6203 43.8256 70.8333 38.2156 64.8971C36.9443 63.5342 36.215 61.6488 36.2074 59.7168V23.323C36.2054 18.4977 32.6177 14.5705 28.2099 14.5677C23.7948 14.5677 20.205 18.495 20.2023 23.323V59.7063C20.1952 61.6483 19.4686 63.5309 18.2084 64.8843C13.0137 70.3025 12.4609 79.8443 17.113 85.9105C21.8087 92.5084 31.277 93.6331 37.2017 88.1769L38.7234 86.8237" fill="#F87C56"/>
<path d="M70.5109 6.88858C78.8503 7.68244 78.8436 20.6351 70.5109 21.4248C69.7847 30.5532 57.9552 30.5459 57.2316 21.4248C48.8931 20.6314 48.8994 7.67905 57.2316 6.88858C57.9587 -2.2389 69.7878 -2.23271 70.5109 6.88858Z" fill="#F87C56"/>
<g style="mix-blend-mode:multiply" opacity="0.4" filter="url(#filter0_f_101_667)">
<path d="M70.6109 10.9722C74.469 11.1458 74.4671 17.1691 70.6109 17.3415H67.2403V21.0302C67.2403 22.7862 65.9359 24.2152 64.3316 24.2152C62.7273 24.2152 61.4226 22.7864 61.4226 21.0302V17.3416H58.0524C56.4485 17.3416 55.1432 15.9127 55.1432 14.1572C55.1432 12.4016 56.4485 10.9721 58.0524 10.9721H61.4226V7.28367C61.4226 5.52801 62.7274 4.09924 64.3316 4.09924C65.9358 4.09924 67.2403 5.52801 67.2403 7.28367V10.9722H70.6109Z" fill="#D34A0F"/>
<path d="M46.31 58.2228C59.8835 73.9477 50.7079 101.769 28.8723 102.114C6.96646 101.415 -2.27414 74.1478 11.189 58.2172V23.3216C11.189 12.7223 19.0667 4.09872 28.749 4.09872C38.4313 4.09872 46.31 12.7223 46.31 23.3216V58.2228ZM41.714 89.8471C48.5751 82.3935 48.3909 69.1751 41.2772 61.9563C40.7174 61.3378 40.4076 60.5334 40.4079 59.6992V23.3221C40.4054 16.24 35.14 10.4763 28.6715 10.4736C22.1946 10.4736 16.9266 16.2372 16.924 23.3212V59.7052C16.9232 60.5392 16.6119 61.343 16.0508 61.96C9.41184 68.9115 8.84703 80.8518 14.6693 88.4918C20.0472 95.9813 30.3963 98.0523 37.938 92.9515C37.938 92.9515 41.183 90.449 41.714 89.8471Z" fill="#D34A0F"/>
<path d="M32.2971 69.3471C38.4276 73.2452 36.1021 83.6691 28.7489 83.7846C20.9795 83.5227 19.028 72.5954 25.8409 68.9442V23.3221C25.8409 21.566 27.1452 20.137 28.749 20.137C30.3528 20.137 31.6586 21.5658 31.6586 23.3221V68.944L32.2971 69.3471Z" fill="#D34A0F"/>
</g>
<path d="M61.1557 24.2116C62.089 24.1689 62.9429 23.6004 63.4244 22.8118C63.689 22.3799 63.8529 21.8939 63.9037 21.39C63.9393 21.3868 63.9172 17.4799 63.9228 17.342H62.8465V21.0306C62.8464 21.3832 62.7926 21.7338 62.6868 22.0701C62.3295 23.2612 61.2105 24.2297 59.938 24.2155C60.0238 24.2138 61.1052 24.2187 61.1557 24.2116Z" fill="url(#paint4_linear_101_667)"/>
<path d="M60.2053 4.1129C61.4094 4.22272 62.4006 5.19261 62.7149 6.33394C62.802 6.64291 62.8465 6.96234 62.8471 7.28336V10.9722H63.9233V7.28366C63.9226 6.96188 63.878 6.6417 63.7906 6.33204C63.6666 5.90003 63.456 5.4978 63.1715 5.14988C62.9557 4.88791 62.697 4.6643 62.4066 4.48851C62.2404 4.38961 62.0647 4.30763 61.8821 4.24379H61.8805C61.3686 4.03861 60.4827 4.111 59.9382 4.09962C60.0271 4.10081 60.1169 4.10441 60.2053 4.1129Z" fill="url(#paint5_linear_101_667)"/>
<path d="M66.4841 10.9863C68.0906 11.1315 69.2193 12.7504 69.1221 14.3036C69.0874 15.8573 67.8313 17.358 66.2174 17.3416C66.477 17.3357 67.3887 17.3593 67.6284 17.3197C68.487 17.2175 69.2515 16.6719 69.7001 15.9429C69.7009 15.9416 69.702 15.9404 69.7028 15.9391L69.7034 15.938C69.949 15.5326 70.1083 15.0808 70.1714 14.611C70.2344 14.1411 70.1998 13.6634 70.0697 13.2075V13.2051C69.9179 12.6721 69.6329 12.1864 69.2417 11.7938C69.1793 11.733 69.1146 11.6753 69.0489 11.6189C68.9354 11.5259 68.8157 11.4408 68.6906 11.3641C68.689 11.3631 68.6875 11.3623 68.6859 11.3615C68.5197 11.2626 68.344 11.1806 68.1615 11.1169L68.16 11.1164C67.6482 10.9113 66.7621 10.9838 66.2179 10.9723C66.3063 10.9739 66.3961 10.9775 66.4841 10.9863Z" fill="url(#paint6_linear_101_667)"/>
<path d="M6.24099 76.0946C6.2347 86.7524 14.2635 96.2897 25.3413 95.7745C16.9149 95.7796 10.1172 89.5038 8.03254 81.5637C6.90518 77.3038 7.11454 72.8002 8.63229 68.6632C9.19438 67.1448 9.93349 65.6979 10.8343 64.3524C11.2869 63.681 11.7804 63.038 12.312 62.4271C12.5273 62.1719 12.7704 61.9418 12.9693 61.6733C13.1434 61.4315 13.2846 61.1677 13.3893 60.8888C13.5158 60.5474 13.5881 60.1883 13.6037 59.8245C13.6037 59.7406 13.6092 23.4223 13.6063 23.3214C13.6063 23.1253 13.6121 22.931 13.6193 22.7361C13.8298 16.3639 18.7314 10.4793 25.3537 10.4738C24.529 10.4738 23.5513 10.453 22.743 10.5836C20.0472 10.9597 17.5611 12.4093 15.7849 14.4553L15.7829 14.4577C15.3254 14.9838 14.911 15.5459 14.5436 16.1384L14.5424 16.1404C13.5644 17.7315 12.9263 19.5077 12.668 21.3573C12.2316 22.5929 12.8577 59.147 12.3699 60.7223C12.2613 61.0694 12.096 61.3962 11.8806 61.6893C11.6851 61.952 11.4462 62.1771 11.2356 62.4275C10.966 62.7355 10.7087 63.0547 10.458 63.3786C9.29156 64.9076 8.34948 66.5954 7.66022 68.3907C6.71467 70.8488 6.23343 73.461 6.24099 76.0946Z" fill="url(#paint7_linear_101_667)"/>
<path d="M28.3412 68.944V23.3221C28.3407 23.0003 28.296 22.6801 28.2086 22.3704C28.0847 21.9383 27.8741 21.536 27.5896 21.188C27.5243 21.1097 27.4563 21.0338 27.3839 20.9624C27.3829 20.9614 27.3819 20.9602 27.3809 20.9593C27.3187 20.8983 27.2537 20.8408 27.188 20.7843C27.186 20.7825 27.1838 20.7811 27.1818 20.7794C26.9198 20.5624 26.6211 20.394 26.2999 20.2819H26.2983C25.7864 20.0766 24.9004 20.1492 24.3558 20.1377C25.5939 20.1249 26.6912 21.0406 27.0745 22.1899C27.1844 22.5061 27.2475 22.8367 27.2618 23.1711C27.2786 23.3274 27.2571 68.78 27.2653 68.9445L28.3412 68.944Z" fill="url(#paint8_linear_101_667)"/>
<path d="M24.8879 4.10881C32.4104 4.33057 38.6536 9.86215 40.8988 16.8736C41.4054 18.427 41.7249 20.0353 41.8505 21.6644C41.8943 22.2158 41.9163 22.7683 41.9164 23.3218V58.2224C49.7618 67.4226 50.4432 81.5707 43.6417 91.542C39.3325 97.9359 32.2726 102.142 24.4788 102.113C32.7334 102.405 39.9416 98.4421 44.6063 91.7047C51.5256 81.7218 50.8835 67.4797 42.9926 58.2224V23.3221C42.9926 23.1675 42.9908 23.0134 42.9873 22.8597C42.9765 22.381 42.9499 21.9032 42.9074 21.4261C42.7556 19.7206 42.3914 18.0408 41.8233 16.4255C39.9014 10.8621 35.3234 6.13775 29.5609 4.63579C28.4799 4.34991 27.3721 4.17738 26.2553 4.12099C25.7147 4.08505 24.8975 4.10432 24.3557 4.09923C24.5335 4.09943 24.7106 4.10292 24.8879 4.10881Z" fill="url(#paint9_linear_101_667)"/>
<path d="M32.5213 75.7506C32.4947 75.082 32.3893 74.4189 32.2072 73.775V73.7744C31.698 71.9808 30.5652 70.3473 28.9798 69.3471L28.3413 68.944H27.2651L27.9041 69.3471C30.9444 71.2577 32.1831 75.354 31.0168 78.6998C30.0868 81.5504 27.4224 83.8083 24.3561 83.7844C25.0336 83.7794 25.9344 83.817 26.5921 83.6788C28.5564 83.3349 30.277 82.0457 31.313 80.3615L31.3137 80.3602C32.161 78.976 32.5811 77.3725 32.5213 75.7506Z" fill="url(#paint10_linear_101_667)"/>
<path d="M66.2174 10.9722C70.0754 11.1458 70.0736 17.1691 66.2174 17.3415H62.8467V21.0302C62.8467 22.7862 61.5422 24.2152 59.938 24.2152C58.3338 24.2152 57.029 22.7864 57.029 21.0302V17.3416H53.6587C52.0549 17.3416 50.7497 15.9127 50.7497 14.1572C50.7497 12.4016 52.0549 10.9721 53.6587 10.9721H57.029V7.28367C57.029 5.52801 58.3338 4.09924 59.938 4.09924C61.5422 4.09924 62.8467 5.52801 62.8467 7.28367V10.9722H66.2174Z" fill="#FFF2DC"/>
<path d="M41.9164 58.2228C55.4898 73.9477 46.3142 101.769 24.4788 102.114C2.57289 101.415 -6.66781 74.1478 6.79542 58.2172V23.3216C6.79542 12.7223 14.6731 4.09872 24.3555 4.09872C34.0378 4.09872 41.9164 12.7223 41.9164 23.3216V58.2228ZM37.3203 89.8471C44.1815 82.3935 43.9972 69.1751 36.8835 61.9563C36.3237 61.3378 36.0139 60.5333 36.0142 59.6992V23.3221C36.0117 16.24 30.7462 10.4763 24.2778 10.4736C17.8009 10.4736 12.5329 16.2372 12.5304 23.3212V59.7052C12.5295 60.5392 12.2182 61.343 11.657 61.96C5.01818 68.9115 4.45327 80.8518 10.2755 88.4918C15.6535 95.9813 26.0026 98.0523 33.5442 92.9515C33.5442 92.9515 35.7095 91.683 37.3203 89.8471Z" fill="#FFF2DC"/>
<path d="M27.9035 69.3471C34.0345 73.2452 31.7084 83.6691 24.3554 83.7846C16.586 83.5227 14.6344 72.5954 21.4472 68.9442V23.3221C21.4472 21.566 22.7517 20.137 24.3555 20.137C25.9593 20.137 27.265 21.5658 27.265 23.3221V68.944L27.9035 69.3471Z" fill="#FFF2DC"/>
<defs>
<filter id="filter0_f_101_667" x="1.90997" y="1.09872" width="74.5938" height="104.015" filterUnits="userSpaceOnUse" color-interpolation-filters="sRGB">
<feFlood flood-opacity="0" result="BackgroundImageFix"/>
<feBlend mode="normal" in="SourceGraphic" in2="BackgroundImageFix" result="shape"/>
<feGaussianBlur stdDeviation="1.5" result="effect1_foregroundBlur_101_667"/>
</filter>
<linearGradient id="paint0_linear_101_667" x1="47.5171" y1="0" x2="47.5171" y2="106.215" gradientUnits="userSpaceOnUse">
<stop stop-color="#D34A0F"/>
<stop offset="1" stop-color="#F87C56"/>
</linearGradient>
<linearGradient id="paint1_linear_101_667" x1="47.5171" y1="0" x2="47.5171" y2="106.215" gradientUnits="userSpaceOnUse">
<stop stop-color="#D34A0F"/>
<stop offset="1" stop-color="#F87C56"/>
</linearGradient>
<linearGradient id="paint2_linear_101_667" x1="47.5171" y1="0" x2="47.5171" y2="106.215" gradientUnits="userSpaceOnUse">
<stop stop-color="#D34A0F"/>
<stop offset="1" stop-color="#F87C56"/>
</linearGradient>
<linearGradient id="paint3_linear_101_667" x1="47.5171" y1="0" x2="47.5171" y2="106.215" gradientUnits="userSpaceOnUse">
<stop stop-color="#D34A0F"/>
<stop offset="1" stop-color="#F87C56"/>
</linearGradient>
<linearGradient id="paint4_linear_101_667" x1="38.2214" y1="4.09613" x2="38.2214" y2="102.128" gradientUnits="userSpaceOnUse">
<stop stop-color="#F7A175"/>
<stop offset="1" stop-color="#FFF2DC"/>
</linearGradient>
<linearGradient id="paint5_linear_101_667" x1="38.2214" y1="4.09613" x2="38.2214" y2="102.128" gradientUnits="userSpaceOnUse">
<stop stop-color="#F7A175"/>
<stop offset="1" stop-color="#FFF2DC"/>
</linearGradient>
<linearGradient id="paint6_linear_101_667" x1="38.2214" y1="4.09613" x2="38.2214" y2="102.128" gradientUnits="userSpaceOnUse">
<stop stop-color="#F7A175"/>
<stop offset="1" stop-color="#FFF2DC"/>
</linearGradient>
<linearGradient id="paint7_linear_101_667" x1="38.2214" y1="4.09613" x2="38.2214" y2="102.128" gradientUnits="userSpaceOnUse">
<stop stop-color="#F7A175"/>
<stop offset="1" stop-color="#FFF2DC"/>
</linearGradient>
<linearGradient id="paint8_linear_101_667" x1="38.2214" y1="4.09613" x2="38.2214" y2="102.128" gradientUnits="userSpaceOnUse">
<stop stop-color="#F7A175"/>
<stop offset="1" stop-color="#FFF2DC"/>
</linearGradient>
<linearGradient id="paint9_linear_101_667" x1="38.2214" y1="4.09613" x2="38.2214" y2="102.128" gradientUnits="userSpaceOnUse">
<stop stop-color="#F7A175"/>
<stop offset="1" stop-color="#FFF2DC"/>
</linearGradient>
<linearGradient id="paint10_linear_101_667" x1="38.2214" y1="4.09613" x2="38.2214" y2="102.128" gradientUnits="userSpaceOnUse">
<stop stop-color="#F7A175"/>
<stop offset="1" stop-color="#FFF2DC"/>
</linearGradient>
</defs>
</svg>
