<svg width="94" height="80" viewBox="0 0 94 80" fill="none" xmlns="http://www.w3.org/2000/svg">
<path d="M14.2577 60.9477C14.2736 61.3027 14.3305 61.6547 14.4274 61.9967C14.6258 62.6941 14.9982 63.3297 15.5096 63.8438C16.0963 64.4345 16.8659 64.8088 17.6927 64.9056L17.6996 64.9067C17.7457 64.9474 22.2174 64.9179 22.3894 64.9267C19.878 64.9249 18.2044 62.3607 18.6324 60.0051C18.8644 58.5126 19.9349 57.1324 21.4109 56.7119C22.1424 56.4916 22.9223 56.6287 23.6609 56.4372C25.4268 56.0698 26.9603 54.8886 27.8986 53.3644C28.5268 52.3419 28.906 51.1862 29.0056 49.9903C29.0602 49.1416 29.0316 48.2862 29.1446 47.4414C29.355 45.5469 29.8913 43.7029 30.7297 41.991C33.0617 37.1668 37.9221 33.6902 43.3652 33.7215C42.2832 33.7397 38.6618 33.6633 37.6588 33.7951C36.5503 33.912 35.4609 34.1687 34.4169 34.5593C29.7429 36.2866 26.3118 40.5999 25.1854 45.3974C24.9334 46.4517 24.7829 47.5277 24.7361 48.6107C24.7101 49.319 24.7312 50.0341 24.5891 50.7323C24.2245 52.7682 22.9977 54.6624 21.2013 55.7133C20.4766 56.141 19.6724 56.4164 18.8377 56.5227C18.2813 56.6026 17.7077 56.5291 17.1632 56.6929C16.2202 56.9596 15.4139 57.5746 14.9074 58.4135L14.9069 58.4144C14.4427 59.1752 14.2166 60.0574 14.2577 60.9477Z" fill="url(#paint0_linear_101_665)"/>
<path d="M40.0421 19.1142C41.3815 19.1542 42.7159 19.2967 44.0335 19.5404H48.3504C47.2336 19.3339 46.1046 19.2 44.9705 19.1396C44.002 19.0703 40.2987 19.1118 39.2694 19.1013C39.5273 19.1015 39.7848 19.1047 40.0421 19.1142Z" fill="url(#paint1_linear_101_665)"/>
<path d="M56.6127 64.9354C56.6812 64.9394 56.7508 64.9434 56.8169 64.9466H56.821C56.9064 64.9506 56.9893 64.9539 57.0733 64.9558H57.0742C57.1258 64.9568 57.174 64.9573 57.2229 64.9573H61.5398C61.4089 64.9573 61.2753 64.9532 61.1426 64.9468H61.1326C61.0138 64.9408 60.8964 64.9338 60.7749 64.926H56.458C56.5133 64.9295 56.5611 64.9325 56.6127 64.9354Z" fill="url(#paint2_linear_101_665)"/>
<path d="M57.4649 27.0288C60.1084 29.6231 62.2566 32.6777 63.8043 36.0427C64.4519 36.3178 65.0853 36.6252 65.7021 36.9638C65.7743 36.9662 65.846 36.9663 65.9184 36.9663H70.2353C70.1629 36.9663 70.0914 36.9663 70.0191 36.9638C70.0027 36.9548 69.986 36.9463 69.9692 36.9374H71.4157L70.9873 36.9292H69.9539C69.3583 36.6039 68.7473 36.3084 68.1208 36.0427C66.4591 32.4261 64.1028 29.1713 61.186 26.4633C61.139 24.8036 61.4294 23.1517 62.0393 21.6074H57.7227C57.6894 21.6905 57.6571 21.7739 57.6258 21.8577C57.0823 23.3306 56.8255 24.8939 56.8693 26.4633C57.0705 26.6486 57.2691 26.8371 57.4649 27.0288Z" fill="url(#paint3_linear_101_665)"/>
<path d="M63.2127 0.69748C64.9555 0.795727 66.6034 1.68394 67.7242 3.00998C69.0783 4.51543 69.7123 6.59529 69.5649 8.60306C69.5338 9.15091 69.4079 9.68388 69.3109 10.2222C69.2018 10.867 69.1426 11.5192 69.1336 12.1731C69.1236 14.7065 69.9435 17.1734 71.4682 19.1967C72.8746 21.0515 74.9107 22.4462 77.1926 22.9547C77.7915 23.0888 78.4021 23.1636 79.0156 23.178C79.0873 23.1807 79.159 23.1806 79.231 23.1809H83.5478C78.6472 23.1997 74.6517 19.2992 73.7053 14.6289C73.4512 13.4342 73.3891 12.2066 73.5215 10.9923C73.6028 10.1037 73.8766 9.24267 73.8963 8.34726C73.9744 6.42086 73.3371 4.45103 72.041 3.00998C71.0526 1.84499 69.6628 1.00959 68.1481 0.767371C67.4974 0.613511 63.5863 0.712356 62.8523 0.686197C62.9728 0.686097 63.0926 0.692188 63.2127 0.69748Z" fill="url(#paint4_linear_101_665)"/>
<path d="M83.3086 22.7047C83.4048 22.7101 83.5008 22.7176 83.5964 22.7274C83.5995 22.7274 83.6026 22.7274 83.6057 22.7283C85.1374 22.8856 86.5697 23.6541 87.6116 24.7784C89.3103 26.5191 89.9879 29.1217 89.5565 31.494C88.0188 39.1356 83.041 46.1317 75.8544 49.3696C77.8694 55.5162 77.3242 62.4779 74.2919 68.2003C70.8184 74.8361 64.0617 79.5114 56.4581 79.4832C58.0485 79.4632 61.4529 79.5631 62.9734 79.3545C65.5266 79.0525 67.9929 78.2397 70.2255 76.9647C79.7069 71.5551 83.5258 59.5496 80.1713 49.3699C87.358 46.132 92.336 39.1359 93.8733 31.4945C94.305 29.1223 93.6272 26.5194 91.9285 24.7789C91.3946 24.2042 90.765 23.7266 90.0677 23.3673C89.3976 23.0265 88.6713 22.8102 87.9239 22.7289H87.9226C87.9195 22.7289 87.9164 22.7284 87.9133 22.728C87.6188 22.6631 83.3686 22.7057 82.9536 22.6943C83.0724 22.6939 83.1903 22.6994 83.3086 22.7047Z" fill="url(#paint5_linear_101_665)"/>
<path d="M87.6115 24.7785C89.2441 26.4403 90.0063 29.0324 89.5563 31.494C87.8756 39.6404 82.7395 46.2426 75.8544 49.3696C80.665 63.3696 70.7969 79.6314 56.4579 79.4827H18.0721C-1.14734 78.8902 -5.40691 50.8816 11.9661 43.2546C14.8608 27.5119 29.101 16.6419 44.0334 19.5406C46.0989 10.27 52.8397 2.9309 61.4932 0.837959C63.803 0.315972 66.1515 1.16505 67.7241 3.01008C69.2848 4.74737 69.9317 7.27743 69.4054 9.72511C69.2348 10.5303 69.1437 11.3502 69.1335 12.1732C69.0966 19.0272 75.0736 24.5296 81.4407 22.8834C81.935 22.7569 82.4433 22.6932 82.9535 22.6937C84.7037 22.6937 86.358 23.4345 87.6115 24.7785ZM64.5308 57.5409C64.8408 53.1204 61.8111 49.2485 57.7736 48.9087C55.1241 48.4243 53.1372 46.556 52.3632 43.9995C51.3547 40.8573 49.3694 38.0875 46.7843 36.2457C37.1649 29.3564 24.612 37.4239 24.7186 49.3044C24.7186 53.3071 21.7361 56.5717 18.0718 56.5717C15.9651 56.5717 14.2527 58.4457 14.2527 60.7488C14.2527 63.0519 15.9652 64.926 18.0718 64.926H56.4578C60.6013 65.357 64.2088 61.9969 64.5305 57.5409H64.5308ZM67.0989 36.9374C68.4118 36.9358 69.7096 36.6577 70.908 36.1214C64.9014 33.4944 60.0921 28.2015 57.7226 21.6074C57.112 23.1515 56.8217 24.8036 56.8693 26.4633C59.7877 29.1698 62.1442 32.4249 63.8041 36.0426C64.4521 36.3169 65.0855 36.6244 65.7019 36.9638C65.9946 36.9711 66.2875 36.9633 66.5794 36.9403L66.6706 36.9292L67.099 36.9374" fill="#F87C56"/>
<g style="mix-blend-mode:multiply" opacity="0.4" filter="url(#filter0_f_101_665)">
<path d="M85.3075 27.7006C85.6825 28.0894 85.9598 28.5618 86.1165 29.0788C86.2732 29.5958 86.3049 30.1426 86.2089 30.6743C84.5182 38.9253 78.5984 45.0688 70.9799 46.9022L71.7197 48.4352C72.9896 51.0891 73.6404 53.9966 73.6233 56.9386C73.6233 67.116 66.065 75.3893 56.7741 75.3893H18.3873C15.451 75.385 12.6607 74.3543 10.3212 72.4096C1.44851 65.0663 4.16268 49.3008 15.5964 46.4077C17.2358 30.4038 31.8545 19.1787 47.3968 24.526C47.896 15.1793 54.0581 6.82902 62.6049 4.83942C63.0986 4.73853 63.6105 4.77436 64.0853 4.94303C64.5601 5.1117 64.9798 5.40681 65.2992 5.79653C65.6568 6.19763 65.914 6.6779 66.0498 7.19783C66.1855 7.71775 66.1958 8.26247 66.0799 8.78717C63.706 19.0747 72.5515 29.5202 82.5967 26.8738C82.8164 26.8171 83.0423 26.7882 83.2692 26.7878C83.6537 26.7901 84.0336 26.8724 84.3845 27.0295C84.7354 27.1867 85.0498 27.4152 85.3075 27.7006ZM68.5757 57.8552C69.1521 51.7078 64.6648 45.3068 58.4454 44.8361C57.4086 44.6207 56.5616 43.8117 56.2276 42.7126C53.9271 35.2679 47.1256 29.599 39.3798 29.6303C29.1425 29.4766 21.1106 39.1954 21.297 49.2888C21.297 51.05 19.9914 52.4778 18.3873 52.4778C14.2214 52.4778 10.8318 56.1893 10.8318 60.7495C10.8318 65.3097 14.2214 69.0212 18.3873 69.0212H56.7264C62.9744 69.5962 68.2654 64.0335 68.5757 57.8552ZM77.7821 35.924L79.3489 33.9857C74.0083 33.3634 69.7424 31.6937 65.9354 27.5358C62.1538 23.4338 60.5718 18.5273 60.05 12.9039L58.2894 14.5529C55.2114 17.4338 53.4469 21.6293 53.4469 26.0622V28.4469C56.9428 31.2482 59.7052 35.0348 61.4129 39.34C62.6603 39.7624 63.8587 40.3174 64.9878 40.9953C65.693 41.0713 66.4037 41.0821 67.1108 41.0274C71.186 41.1289 75.0889 39.2546 77.7827 35.9244" fill="#D34A0F"/>
</g>
<path d="M6.44734 61.1429C6.55398 64.3843 8.61129 67.5877 11.7405 68.6456C11.7423 68.6463 11.7442 68.6467 11.7461 68.6474C12.4699 68.8941 13.2292 69.0203 13.9938 69.0212H15.0699C14.5576 69.0199 14.0469 68.9632 13.5467 68.8523C8.48737 67.666 6.21392 61.7099 8.26782 57.1517C9.17311 55.0897 10.9507 53.3799 13.1349 52.754C13.6072 52.6171 14.0927 52.5309 14.5833 52.4967C14.884 52.4667 15.1902 52.4952 15.4895 52.4441C16.3168 52.3176 17.045 51.7818 17.4795 51.0755L17.4804 51.0739C17.7364 50.6565 17.8981 50.1883 17.9542 49.7019C18.0053 49.0637 17.977 48.4197 18.0361 47.7811C18.1662 45.9404 18.5359 44.1246 19.1357 42.3795C21.6158 35.1054 28.2106 29.5917 36.0624 29.6305C34.8589 29.6256 33.594 29.6271 32.4102 29.8262C28.4894 30.4053 24.8612 32.4621 22.2047 35.3833C19.8881 37.9284 18.2618 41.0243 17.4807 44.376C17.1702 45.6894 16.9844 47.029 16.9255 48.3773C16.887 49.0762 16.9609 49.7979 16.6984 50.463C16.3067 51.5949 15.2166 52.4913 13.9938 52.4779C9.43559 52.4888 6.21001 56.7788 6.44734 61.1429Z" fill="url(#paint6_linear_101_665)"/>
<path d="M35.7787 23.2055C37.2369 23.2432 38.688 23.421 40.112 23.7367C40.9714 23.9178 42.1488 24.2798 43.0029 24.526H44.079C42.3394 23.996 40.4946 23.4992 38.685 23.3262H38.6814C37.5556 23.1973 36.3271 23.1895 35.1902 23.1973C35.3867 23.1972 35.5828 23.1995 35.7787 23.2055Z" fill="url(#paint7_linear_101_665)"/>
<path d="M52.8011 69.0458C53.0394 69.0587 53.967 69.0507 54.2209 69.0528C53.9507 69.0514 53.6788 69.041 53.409 69.0212H52.3329C52.4886 69.0331 52.6447 69.0413 52.8011 69.0458Z" fill="url(#paint8_linear_101_665)"/>
<path d="M50.0638 29.3089C53.141 32.0346 55.4972 35.5283 57.0188 39.3396C58.2655 39.7631 59.4637 40.3179 60.5932 40.9948C61.2842 41.0761 62.2149 41.0631 62.9173 41.0621C62.5048 41.061 62.0804 41.0356 61.6692 40.9948C60.5398 40.3179 59.3416 39.763 58.0948 39.3396C56.4163 35.1102 53.6837 31.2979 50.1288 28.4465C50.1433 27.2384 50.0766 25.3431 50.2381 24.1679C50.4996 21.8369 51.2696 19.5916 52.4937 17.5907C52.9817 16.8003 53.5416 16.0566 54.1663 15.3691C54.6971 14.7673 56.1389 13.4715 56.7323 12.9036H55.6559C54.5112 13.9819 52.9518 15.3386 52.0634 16.6278C50.6553 18.5808 49.7105 20.8288 49.3007 23.2014C48.9898 24.7635 49.0552 26.8465 49.0527 28.4467C49.3557 28.7007 49.7737 29.0481 50.0638 29.3089Z" fill="url(#paint9_linear_101_665)"/>
<path d="M59.0306 4.7926C59.762 4.87231 60.434 5.23211 60.9059 5.79653C61.495 6.4587 61.8019 7.32501 61.7608 8.21037C61.6943 8.96609 61.4734 9.72871 61.4151 10.5052C61.2158 12.3532 61.3412 14.2218 61.7858 16.0266C62.9089 20.764 66.366 25.0107 71.034 26.5907C72.1219 26.9626 73.255 27.1856 74.4027 27.2537C74.8808 27.2871 75.7414 27.2737 76.2291 27.2762C70.1394 27.2998 65.0056 22.8741 63.1974 17.2067C62.418 14.8257 62.2063 12.2955 62.5793 9.81817C62.6451 9.27162 62.809 8.73875 62.8389 8.18841C62.8735 7.31024 62.5665 6.45281 61.9824 5.79613C61.7738 5.55139 61.5275 5.34145 61.2528 5.1742C61.0854 5.07461 60.9085 4.99186 60.7248 4.92719C60.7224 4.92639 60.7201 4.92529 60.7177 4.92449C60.5884 4.88135 60.4563 4.84706 60.3223 4.82185C60.0028 4.74986 59.1108 4.7875 58.7747 4.77892C58.8594 4.78071 58.9453 4.78441 59.0306 4.7926Z" fill="url(#paint10_linear_101_665)"/>
<path d="M63.7932 41.027H62.7171C62.8212 41.0298 62.9247 41.0314 63.0291 41.0313H64.1053C64.0004 41.0313 63.8969 41.0298 63.7932 41.027Z" fill="url(#paint11_linear_101_665)"/>
<path d="M79.162 26.8031C79.835 26.8813 80.4572 27.2 80.9139 27.7006C81.2879 28.0902 81.5645 28.5626 81.7211 29.0794C81.8777 29.5962 81.91 30.1427 81.8152 30.6744C80.647 36.4306 77.133 41.7683 72.0105 44.7292C71.0813 45.2703 70.107 45.7299 69.0984 46.1027C68.4471 46.3509 67.2581 46.6918 66.5867 46.9022C67.3026 48.3527 68.0716 49.9422 68.4879 51.4999C69.5236 55.2062 69.4774 59.1314 68.3548 62.8123C66.2262 69.8693 59.9314 75.4111 52.3809 75.3892C53.5372 75.3992 54.7715 75.3915 55.908 75.1935C59.6821 74.6035 63.1492 72.5442 65.6412 69.6711C69.6696 65.0791 71.1643 58.5248 69.8399 52.5941C69.6045 51.5309 69.2792 50.4897 68.8676 49.4816C68.588 48.7732 67.9919 47.5962 67.6629 46.9021C68.966 46.5081 70.4497 46.0746 71.6648 45.4772C75.1295 43.8472 78.0391 41.1353 80.0418 37.8834C81.4041 35.6647 82.3685 33.2252 82.8914 30.6747C82.9862 30.143 82.954 29.5965 82.7973 29.0797C82.6407 28.5629 82.3641 28.0904 81.9901 27.7009C81.9596 27.6682 81.9286 27.6362 81.8971 27.6051C81.6845 27.3955 81.4415 27.2194 81.1762 27.0825C80.8835 26.9343 80.5666 26.8398 80.2406 26.8036H80.2386C80.044 26.776 79.0891 26.7925 78.876 26.7883C78.9712 26.7896 79.0673 26.7931 79.162 26.8031Z" fill="url(#paint12_linear_101_665)"/>
<path d="M80.9139 27.7006C81.289 28.0894 81.5662 28.5618 81.7229 29.0788C81.8796 29.5958 81.9113 30.1426 81.8152 30.6743C80.1246 38.9253 74.2048 45.0688 66.5863 46.9022L67.3261 48.4352C68.5959 51.0891 69.2468 53.9966 69.2297 56.9385C69.2297 67.116 61.6709 75.3893 52.3806 75.3893H13.9938C11.0574 75.385 8.26711 74.3543 5.92756 72.4096C-2.94502 65.0663 -0.230851 49.3008 11.2028 46.4076C12.8422 30.4038 27.4609 19.1787 43.0033 24.526C43.5025 15.1793 49.6644 6.82901 58.2113 4.83941C58.705 4.73852 59.2169 4.77434 59.6917 4.94301C60.1665 5.11168 60.5863 5.40679 60.9057 5.79652C61.2633 6.19763 61.5205 6.6779 61.6562 7.19782C61.7919 7.71774 61.8023 8.26246 61.6864 8.78716C59.3125 19.0747 68.158 29.5202 78.2031 26.8738C78.4228 26.8171 78.6487 26.7882 78.8756 26.7878C79.2601 26.79 79.64 26.8724 79.9909 27.0295C80.3418 27.1867 80.6562 27.4152 80.9139 27.7006ZM64.1826 57.8552C64.759 51.7078 60.2717 45.3068 54.0523 44.8361C53.0155 44.6207 52.1684 43.8117 51.8344 42.7126C49.5339 35.2679 42.7324 29.599 34.9866 29.6303C24.7493 29.4766 16.7174 39.1954 16.9037 49.2888C16.9037 51.05 15.5983 52.4778 13.9942 52.4778C9.82818 52.4778 6.43865 56.1893 6.43865 60.7495C6.43865 65.3097 9.82818 69.0212 13.9942 69.0212H52.3331C58.5811 69.5962 63.8723 64.0335 64.1826 57.8552ZM73.3882 35.924L74.9546 33.9857C69.6139 33.3634 65.3481 31.6937 61.541 27.5358C57.7594 23.4337 56.1775 18.5273 55.6557 12.9038L53.8949 14.5529C50.8171 17.4338 49.0525 21.6293 49.0525 26.0621V28.4469C52.5484 31.2482 55.3107 35.0348 57.0184 39.34C58.2656 39.7625 59.464 40.3174 60.5929 40.9953C61.2981 41.0713 62.0088 41.0821 62.716 41.0274C66.791 41.1289 70.6935 39.2546 73.3878 35.9244" fill="#FFF2DC"/>
<defs>
<filter id="filter0_f_101_665" x="2.05188" y="1.78339" width="87.2113" height="76.6059" filterUnits="userSpaceOnUse" color-interpolation-filters="sRGB">
<feFlood flood-opacity="0" result="BackgroundImageFix"/>
<feBlend mode="normal" in="SourceGraphic" in2="BackgroundImageFix" result="shape"/>
<feGaussianBlur stdDeviation="1.5" result="effect1_foregroundBlur_101_665"/>
</filter>
<linearGradient id="paint0_linear_101_665" x1="54.1264" y1="0.67868" x2="54.1264" y2="79.49" gradientUnits="userSpaceOnUse">
<stop stop-color="#D34A0F"/>
<stop offset="1" stop-color="#F87C56"/>
</linearGradient>
<linearGradient id="paint1_linear_101_665" x1="54.1264" y1="0.67868" x2="54.1264" y2="79.49" gradientUnits="userSpaceOnUse">
<stop stop-color="#D34A0F"/>
<stop offset="1" stop-color="#F87C56"/>
</linearGradient>
<linearGradient id="paint2_linear_101_665" x1="54.1264" y1="0.67868" x2="54.1264" y2="79.49" gradientUnits="userSpaceOnUse">
<stop stop-color="#D34A0F"/>
<stop offset="1" stop-color="#F87C56"/>
</linearGradient>
<linearGradient id="paint3_linear_101_665" x1="54.1264" y1="0.67868" x2="54.1264" y2="79.49" gradientUnits="userSpaceOnUse">
<stop stop-color="#D34A0F"/>
<stop offset="1" stop-color="#F87C56"/>
</linearGradient>
<linearGradient id="paint4_linear_101_665" x1="54.1264" y1="0.67868" x2="54.1264" y2="79.49" gradientUnits="userSpaceOnUse">
<stop stop-color="#D34A0F"/>
<stop offset="1" stop-color="#F87C56"/>
</linearGradient>
<linearGradient id="paint5_linear_101_665" x1="54.1264" y1="0.67868" x2="54.1264" y2="79.49" gradientUnits="userSpaceOnUse">
<stop stop-color="#D34A0F"/>
<stop offset="1" stop-color="#F87C56"/>
</linearGradient>
<linearGradient id="paint6_linear_101_665" x1="44.6898" y1="4.77657" x2="44.6898" y2="75.3919" gradientUnits="userSpaceOnUse">
<stop stop-color="#F7A175"/>
<stop offset="1" stop-color="#FFF2DC"/>
</linearGradient>
<linearGradient id="paint7_linear_101_665" x1="44.6898" y1="4.77657" x2="44.6898" y2="75.3919" gradientUnits="userSpaceOnUse">
<stop stop-color="#F7A175"/>
<stop offset="1" stop-color="#FFF2DC"/>
</linearGradient>
<linearGradient id="paint8_linear_101_665" x1="44.6898" y1="4.77657" x2="44.6898" y2="75.3919" gradientUnits="userSpaceOnUse">
<stop stop-color="#F7A175"/>
<stop offset="1" stop-color="#FFF2DC"/>
</linearGradient>
<linearGradient id="paint9_linear_101_665" x1="44.6898" y1="4.77657" x2="44.6898" y2="75.3919" gradientUnits="userSpaceOnUse">
<stop stop-color="#F7A175"/>
<stop offset="1" stop-color="#FFF2DC"/>
</linearGradient>
<linearGradient id="paint10_linear_101_665" x1="44.6898" y1="4.77657" x2="44.6898" y2="75.3919" gradientUnits="userSpaceOnUse">
<stop stop-color="#F7A175"/>
<stop offset="1" stop-color="#FFF2DC"/>
</linearGradient>
<linearGradient id="paint11_linear_101_665" x1="44.6898" y1="4.77657" x2="44.6898" y2="75.3919" gradientUnits="userSpaceOnUse">
<stop stop-color="#F7A175"/>
<stop offset="1" stop-color="#FFF2DC"/>
</linearGradient>
<linearGradient id="paint12_linear_101_665" x1="44.6898" y1="4.77657" x2="44.6898" y2="75.3919" gradientUnits="userSpaceOnUse">
<stop stop-color="#F7A175"/>
<stop offset="1" stop-color="#FFF2DC"/>
</linearGradient>
</defs>
</svg>
