<svg width="94" height="98" viewBox="0 0 94 98" fill="none" xmlns="http://www.w3.org/2000/svg">
<path d="M13.0974 66.1748C12.5459 66.3304 11.9758 66.41 11.4027 66.4114C11.4785 66.4141 16.1534 66.4159 16.0396 66.4028C16.6099 66.3722 17.1733 66.264 17.7144 66.0813C19.8047 65.3713 21.397 63.5374 22.0287 61.4469C22.8713 58.7212 22.1385 55.5174 20.0088 53.5748L19.9974 53.5657C17.1579 50.779 17.4466 45.6314 20.7077 43.2926C21.4934 42.7183 22.4161 42.3602 23.3836 42.2543C23.9986 42.2035 24.6225 42.2355 25.2272 42.0885C27.1642 41.6863 28.8116 40.3093 29.7202 38.5724C30.1699 37.7135 30.4541 36.7778 30.5581 35.8139C30.625 35.2094 30.5947 34.5991 30.628 33.9928C30.6777 32.8635 30.8155 31.7399 31.0399 30.6321C32.7427 21.9542 40.016 14.7684 49.1139 14.7792C48.3856 14.785 44.505 14.7582 43.874 14.8047C43.0722 14.8487 42.2744 14.9484 41.4864 15.1031C37.5749 15.8665 34.0099 18.055 31.4049 21.0516C28.6167 24.2417 26.8913 28.3132 26.4271 32.5178C26.3577 33.1196 26.3162 33.7252 26.2986 34.3311C26.2833 34.9081 26.2971 35.4893 26.2104 36.0614C25.9466 37.9696 24.9458 39.7837 23.3981 40.9454C22.4913 41.6347 21.4142 42.0645 20.2819 42.1889C19.879 42.2364 19.4704 42.2088 19.0673 42.2543C18.5876 42.3056 18.1169 42.4202 17.6673 42.5951C16.4494 43.0839 15.4229 43.9545 14.7418 45.0763C13.1124 47.686 13.4681 51.3965 15.6804 53.5655C19.6949 57.2434 18.4546 64.5558 13.0974 66.1748Z" fill="url(#paint0_linear_101_673)"/>
<path d="M34.6527 81.1163C34.538 84.7069 31.7393 88.0511 28.0115 88.0455H32.3285C32.7994 88.0443 33.2686 87.9895 33.7272 87.8822C35.441 87.4869 36.9212 86.3265 37.8376 84.8399L37.8394 84.8368C38.5881 83.612 38.9821 82.2035 38.9776 80.768V57.8567C38.9776 57.7406 38.976 57.6254 38.9696 57.5104C38.9422 56.8913 38.8431 56.2775 38.6746 55.6812C38.0683 53.5301 36.4529 51.6359 34.3133 50.9097L34.3076 50.9078C33.76 50.7204 33.1884 50.6122 32.6102 50.5865C32.5163 50.5815 32.4222 50.5783 32.328 50.5787H28.0115C28.4626 50.5799 28.9123 50.6298 29.3527 50.7274C31.6849 51.2409 33.5445 53.1476 34.2671 55.3896C34.492 56.0755 34.6218 56.7891 34.6528 57.5104C34.6577 57.6252 34.6609 57.7406 34.6609 57.8567V80.7683C34.6609 80.885 34.6578 81.001 34.6527 81.1163Z" fill="url(#paint1_linear_101_673)"/>
<path d="M51.397 90.2818C51.2823 93.8722 48.4833 97.2172 44.7558 97.212H49.0726C49.5435 97.2108 50.0126 97.156 50.4711 97.0487C52.1862 96.653 53.6672 95.4911 54.5834 94.0029C55.1424 93.0928 55.505 92.076 55.648 91.0175C55.6844 90.7615 55.7026 90.5034 55.716 90.2451C55.7436 89.955 55.7085 49.0041 55.722 48.694C55.7219 47.8561 55.589 47.0234 55.3282 46.2271C54.6685 44.1963 53.0938 42.4373 51.0515 41.7456C50.4144 41.5283 49.7458 41.417 49.0726 41.4161H44.7558C47.5133 41.3883 49.9668 43.3686 50.8969 45.905C51.1271 46.5096 51.2797 47.1408 51.3513 47.7837C51.3866 48.0857 51.4046 48.3895 51.4051 48.6935C51.381 49.2573 51.4323 89.6325 51.397 90.2818Z" fill="url(#paint2_linear_101_673)"/>
<path d="M68.14 81.1164C68.0253 84.7066 65.2274 88.051 61.5004 88.0456H65.8172C66.2879 88.0443 66.7568 87.9895 67.2151 87.8824C68.9298 87.4867 70.4109 86.3248 71.3267 84.8371C72.0754 83.6123 72.4694 82.2037 72.4649 80.7681V57.8567C72.4649 57.7406 72.4633 57.6254 72.4569 57.5104C72.4294 56.8912 72.3304 56.2773 72.1618 55.6809C71.5552 53.5282 69.9376 51.6323 67.7954 50.9077C67.2482 50.7204 66.6771 50.6123 66.0994 50.5866C66.0054 50.5814 65.9111 50.5784 65.8166 50.5787H61.5004C64.387 50.5517 66.9019 52.7002 67.7548 55.3895C67.9798 56.0755 68.1096 56.7891 68.1405 57.5104C68.1455 57.6251 68.1486 57.7406 68.1486 57.8567V80.7683C68.1482 80.8851 68.1451 81.0011 68.14 81.1164Z" fill="url(#paint3_linear_101_673)"/>
<path d="M93.269 43.2404V43.2395C93.0072 35.8997 89.7363 28.6186 84.0334 23.9149L84.0301 23.9121C83.0266 23.0792 81.9551 22.3318 80.8269 21.6777C79.8665 21.1239 78.8667 20.6415 77.8356 20.2343C76.9556 18.1791 75.8851 16.2108 74.6382 14.355C70.7885 8.61774 65.1305 4.05364 58.5696 1.81553L58.5668 1.81463C56.4567 1.09101 54.2712 0.609768 52.0523 0.380169C50.1553 0.147332 46.6893 0.244388 44.7469 0.225917C55.113 0.198859 64.6183 5.82768 70.3251 14.3606C71.5703 16.2147 72.6395 18.1812 73.5187 20.2343C74.5498 20.6416 75.5495 21.124 76.5099 21.6777C90.1486 29.6347 92.9118 49.0813 83.1978 61.1894C81.9809 62.5318 80.2451 63.4401 78.4104 63.4213C78.9548 63.4062 83.0332 63.4644 83.4645 63.3753C85.0339 63.1969 86.4585 62.3422 87.5146 61.1894C91.5446 56.1713 93.5316 49.6497 93.269 43.2404Z" fill="url(#paint4_linear_101_673)"/>
<path d="M28.0115 50.5787C31.6788 50.5787 34.6611 53.8423 34.6611 57.8567V80.7683C34.6611 84.7821 31.6791 88.0458 28.0115 88.0458C24.3438 88.0458 21.3632 84.7822 21.3632 80.7683V57.8567C21.3629 53.8423 24.3447 50.5787 28.0115 50.5787Z" fill="#F87C56"/>
<path d="M44.7557 41.416C48.4225 41.416 51.4054 44.6797 51.4054 48.6935V89.9339C51.4054 93.9477 48.4228 97.212 44.7557 97.212C41.0887 97.212 38.1069 93.9478 38.1069 89.9339V48.6935C38.1068 44.6793 41.0889 41.416 44.7557 41.416Z" fill="#F87C56"/>
<path d="M61.5004 50.5787C65.1672 50.5787 68.1486 53.8423 68.1486 57.8567V80.7683C68.1486 84.7821 65.1672 88.0458 61.5004 88.0458C57.8336 88.0458 54.8507 84.7822 54.8507 80.7683V57.8567C54.8507 53.8423 57.8331 50.5787 61.5004 50.5787Z" fill="#F87C56"/>
<path d="M80.9951 25.0557C90.7019 34.3554 91.6907 50.5651 83.1971 61.1894C80.757 63.9205 76.9007 64.1548 74.2497 61.8184C71.3879 59.4055 70.9535 54.5521 73.2248 51.5871C78.4595 45.4318 75.2275 34.6687 67.4026 33.2949C64.9811 32.8394 62.9955 30.9701 62.2215 28.4225C54.9728 6.84798 26.6279 12.4836 26.2875 34.9504C26.2875 38.96 23.3059 42.2235 19.6379 42.2235C14.1028 42.2551 11.7649 49.751 15.6801 53.5658C18.614 56.1495 18.8393 61.2898 16.1971 64.1765C13.7809 67.0514 9.32962 67.1529 6.79687 64.382C-3.97635 54.118 -0.487781 33.6924 13.5153 28.7548C19.198 -3.80761 59.5735 -10.8268 73.5174 20.2342C76.3006 21.3383 78.8409 22.9762 80.9951 25.0557Z" fill="#F87C56"/>
<g style="mix-blend-mode:multiply" opacity="0.4" filter="url(#filter0_f_101_673)">
<path d="M28.2141 54.673C29.818 54.673 31.1235 56.1008 31.1235 57.8566V80.768C31.1235 82.5242 29.818 83.9531 28.2141 83.9531C26.6102 83.9531 25.3057 82.5246 25.3057 80.768V57.8566C25.3057 56.1005 26.6098 54.673 28.2141 54.673Z" fill="#D34A0F"/>
<path d="M44.9588 45.508C46.5631 45.508 47.8672 46.9364 47.8672 48.693V89.9333C47.8672 91.6889 46.5631 93.1169 44.9588 93.1169C43.3545 93.1169 42.0495 91.6891 42.0495 89.9333V48.693C42.0495 46.9365 43.3549 45.508 44.9588 45.508Z" fill="#D34A0F"/>
<path d="M61.703 54.673C63.3069 54.673 64.6124 56.1008 64.6124 57.8566V80.768C64.6124 82.5242 63.3069 83.9531 61.703 83.9531C60.0991 83.9531 58.7938 82.5246 58.7938 80.768V57.8566C58.7938 56.1005 60.0991 54.673 61.703 54.673Z" fill="#D34A0F"/>
<path d="M85.4031 42.8968C85.7513 48.6116 84.0521 54.1327 80.6181 58.4513C80.3612 58.7264 80.0509 58.9461 79.706 59.097C79.3612 59.2479 78.9892 59.3267 78.6128 59.3286C76.0938 59.3227 74.8826 56.1127 76.3264 54.1758C83.3241 45.7533 78.9761 31.181 68.2404 29.2607C67.1789 29.0619 66.3097 28.2439 65.9706 27.1273C56.7861 0.735729 23.1307 8.2578 22.7508 34.9424C22.7508 36.7015 21.4462 38.1305 19.8423 38.1305C10.82 38.1877 6.98073 50.365 13.3766 56.6042C15.4933 58.3621 14.4874 62.2763 11.606 62.319C11.2273 62.3166 10.8532 62.2367 10.5066 62.084C10.1601 61.9313 9.84854 61.7091 9.59126 61.4313C0.256408 52.4314 3.94406 34.8705 17.0603 32.0004C20.1075 1.56545 57.7035 -6.82758 70.5564 22.5008V23.4287C79.0958 25.8306 84.9297 33.9535 85.4031 42.8968Z" fill="#D34A0F"/>
</g>
<path d="M27.8029 57.7049C27.7909 57.4351 27.7478 57.1675 27.6744 56.9076V56.9054C27.5506 56.4734 27.3399 56.0712 27.0554 55.7234C26.99 55.6453 26.9221 55.5693 26.8497 55.498L26.8469 55.4951C26.6802 55.3312 26.4952 55.1869 26.2956 55.0652L26.2904 55.0623C25.8698 54.8092 25.3885 54.6746 24.8976 54.6729H23.8205C25.3069 54.6561 26.5292 55.9546 26.6977 57.3846C26.7185 57.5411 26.7292 57.6988 26.7299 57.8566C26.7265 58.0034 26.7364 80.7795 26.7265 80.9142C26.7036 81.4923 26.5332 82.055 26.2314 82.5486C25.7264 83.3789 24.8046 83.9607 23.8205 83.9525C24.1356 83.9449 25.02 83.9771 25.3164 83.9189C26.1441 83.792 26.8723 83.2561 27.3071 82.5494L27.3077 82.5485C27.5722 82.1167 27.736 81.6307 27.7869 81.1268C27.7994 81.0076 27.8058 80.8878 27.8059 80.7679C27.8029 80.6161 27.8129 57.8445 27.8029 57.7049Z" fill="url(#paint5_linear_101_673)"/>
<path d="M28.085 15.7375C28.4919 15.3942 28.9097 15.063 29.339 14.749C29.3411 14.7475 29.3432 14.746 29.3452 14.7444C32.9231 12.1124 37.2475 10.6907 41.6892 10.6861C36.7798 10.5297 32.2467 11.8386 28.2677 14.7455L28.265 14.7474C22.7525 18.766 19.2507 25.2359 18.5255 31.985C18.4159 32.9671 18.3597 33.9544 18.3573 34.9425C18.3639 36.0594 17.7933 37.186 16.8176 37.7547C16.4577 37.9675 16.0532 38.0936 15.6361 38.1233C15.1262 38.1243 14.6169 38.1607 14.112 38.2324C12.7232 38.4483 11.4033 38.9828 10.2555 39.794C9.5997 40.2566 9.00155 40.796 8.4738 41.4007C8.09743 41.8336 7.7564 42.2961 7.45399 42.7836L7.45289 42.7856C7.32309 42.9963 7.20015 43.2113 7.08406 43.4305L7.08286 43.4328C4.84775 47.6296 5.56233 53.2492 8.9832 56.6043C11.092 58.3845 10.1171 62.2482 7.21266 62.3191C7.8274 62.3083 8.72101 62.3897 9.29042 62.1266C10.8017 61.5294 11.5192 59.689 11.0629 58.1749L11.0617 58.1712C10.9131 57.6483 10.6349 57.1712 10.2529 56.7843C10.2515 56.7828 10.2501 56.7813 10.2485 56.7799C10.1867 56.7191 10.1268 56.6647 10.0597 56.6043C6.45434 53.0718 5.86696 47.0354 8.52931 42.7858C9.90716 40.5393 12.181 38.8131 14.7867 38.3028C15.2273 38.2149 15.6739 38.1607 16.1228 38.1405C16.4145 38.1245 16.7119 38.1448 17.0005 38.0875C17.3988 38.0089 17.7762 37.8479 18.1085 37.6148C18.4409 37.3817 18.7208 37.0816 18.9303 36.7339C18.9315 36.7321 18.9328 36.7304 18.934 36.7285L18.935 36.7267C19.163 36.3553 19.3163 35.9429 19.3864 35.5127C19.4608 35.0792 19.4238 34.6357 19.4463 34.1984C19.4839 32.8699 19.6211 31.546 19.857 30.2381C20.8466 24.6577 23.7435 19.4038 28.085 15.7375Z" fill="url(#paint6_linear_101_673)"/>
<path d="M43.4703 90.0794C43.4475 90.6592 43.276 91.2234 42.9725 91.7179C42.4676 92.546 41.5469 93.1248 40.5652 93.1166C40.8802 93.109 41.7647 93.1412 42.0611 93.0829C42.8867 92.9565 43.6142 92.4229 44.0485 91.7182C44.0496 91.7166 44.0506 91.715 44.0516 91.7134C44.1273 91.5889 44.1956 91.4601 44.2559 91.3275C44.4499 90.8882 44.55 90.4132 44.5499 89.9329V48.693C44.5494 48.3719 44.5049 48.0524 44.4178 47.7433C44.2947 47.3126 44.0855 46.9114 43.8029 46.5639C43.5871 46.3013 43.3287 46.077 43.0385 45.9002C43.037 45.8992 43.0353 45.8983 43.0338 45.8974C42.8676 45.7986 42.6918 45.7167 42.5093 45.6529H42.5077C42.2286 45.5581 41.9361 45.5091 41.6413 45.508H40.5652C41.8027 45.4952 42.8998 46.4104 43.2829 47.5595C43.4093 47.9239 43.4738 48.307 43.4737 48.6927C43.4576 48.8354 43.4893 89.9461 43.4703 90.0794Z" fill="url(#paint7_linear_101_673)"/>
<path d="M60.2155 80.9146C60.1925 81.4943 60.0211 82.0585 59.7176 82.5529C59.2125 83.3817 58.2916 83.9607 57.3095 83.9526C58.4764 83.9526 59.2954 84.066 60.2417 83.2184C60.4559 83.0216 60.6424 82.7965 60.796 82.5494L60.7966 82.5485C61.1001 82.0518 61.2708 81.4854 61.2924 80.9037C61.3001 80.8039 61.2924 57.9754 61.295 57.8564C61.2945 57.5357 61.2501 57.2166 61.163 56.9079C61.012 56.3756 60.728 55.8905 60.3377 55.4983L60.335 55.4954C60.1669 55.33 59.9802 55.1848 59.7785 55.0626C59.3578 54.8095 58.8766 54.6749 58.3857 54.6732H57.3095C58.6119 54.6591 59.7457 55.669 60.0827 56.8946C60.1727 57.2075 60.2185 57.5314 60.2188 57.8569C60.2155 58.0035 60.2252 80.7796 60.2155 80.9146Z" fill="url(#paint8_linear_101_673)"/>
<path d="M82.0507 42.4073C81.3746 33.7046 75.772 25.875 67.2391 23.4286V22.5008C63.0801 12.1824 53.4829 4.54989 42.1645 4.32623H42.1576C41.8037 4.31745 40.9224 4.32195 40.5562 4.32085C52.0894 4.31356 61.9284 11.9999 66.163 22.5009V23.4287C80.0039 27.4778 85.0177 44.493 77.7056 56.3438C77.2531 57.0743 76.7586 57.778 76.2248 58.4514C76.0585 58.6243 75.8722 58.777 75.67 58.9061C75.236 59.1808 74.7331 59.3274 74.2194 59.3287C74.4291 59.3247 75.3763 59.3404 75.5645 59.315C75.9847 59.2717 76.3892 59.1316 76.7462 58.9057C76.9484 58.7766 77.1347 58.624 77.3009 58.451C77.8344 57.7782 78.3285 57.0751 78.7807 56.3452L78.7818 56.3434C81.1597 52.5052 82.2931 47.9425 82.1128 43.4386C82.0998 43.0954 82.079 42.7499 82.0507 42.4073Z" fill="url(#paint9_linear_101_673)"/>
<path d="M23.8206 54.673C25.4245 54.673 26.7298 56.1008 26.7298 57.8566V80.768C26.7298 82.5242 25.4245 83.9531 23.8206 83.9531C22.2167 83.9531 20.9121 82.5246 20.9121 80.768V57.8566C20.9121 56.1005 22.2162 54.673 23.8206 54.673Z" fill="#FFF2DC"/>
<path d="M40.5653 45.508C42.1696 45.508 43.4737 46.9364 43.4737 48.693V89.9333C43.4737 91.6889 42.1696 93.1169 40.5653 93.1169C38.961 93.1169 37.6559 91.6891 37.6559 89.9333V48.693C37.6559 46.9365 38.9614 45.508 40.5653 45.508Z" fill="#FFF2DC"/>
<path d="M57.3095 54.673C58.9134 54.673 60.2188 56.1008 60.2188 57.8566V80.768C60.2188 82.5242 58.9134 83.9531 57.3095 83.9531C55.7056 83.9531 54.4003 82.5246 54.4003 80.768V57.8566C54.4003 56.1005 55.7056 54.673 57.3095 54.673Z" fill="#FFF2DC"/>
<path d="M81.01 42.8968C81.358 48.6116 79.6589 54.1327 76.2249 58.4513C75.968 58.7264 75.6577 58.9461 75.3128 59.097C74.968 59.2479 74.5959 59.3267 74.2196 59.3286C71.7005 59.3227 70.4895 56.1127 71.9331 54.1758C78.9307 45.7533 74.5828 31.181 63.8471 29.2607C62.7857 29.0619 61.9164 28.2439 61.5774 27.1273C52.3926 0.735729 18.737 8.2578 18.3576 34.9424C18.3576 36.7015 17.0529 38.1305 15.449 38.1305C6.42668 38.1877 2.58746 50.365 8.98339 56.6042C11.1001 58.3621 10.0943 62.2763 7.21285 62.319C6.83417 62.3166 6.45999 62.2367 6.11345 62.084C5.76691 61.9313 5.45537 61.7091 5.19809 61.4313C-4.13737 52.4314 -0.449411 34.8705 12.6665 32.0004C15.7137 1.56545 53.3096 -6.82758 66.1631 22.5008V23.4287C74.7022 25.8306 80.5361 33.9535 81.01 42.8968Z" fill="#FFF2DC"/>
<defs>
<filter id="filter0_f_101_673" x="1.39355" y="1.34354" width="87.0542" height="94.7733" filterUnits="userSpaceOnUse" color-interpolation-filters="sRGB">
<feFlood flood-opacity="0" result="BackgroundImageFix"/>
<feBlend mode="normal" in="SourceGraphic" in2="BackgroundImageFix" result="shape"/>
<feGaussianBlur stdDeviation="1.5" result="effect1_foregroundBlur_101_673"/>
</filter>
<linearGradient id="paint0_linear_101_673" x1="52.3474" y1="0.221054" x2="52.3474" y2="97.212" gradientUnits="userSpaceOnUse">
<stop stop-color="#D34A0F"/>
<stop offset="1" stop-color="#F87C56"/>
</linearGradient>
<linearGradient id="paint1_linear_101_673" x1="52.3474" y1="0.221054" x2="52.3474" y2="97.212" gradientUnits="userSpaceOnUse">
<stop stop-color="#D34A0F"/>
<stop offset="1" stop-color="#F87C56"/>
</linearGradient>
<linearGradient id="paint2_linear_101_673" x1="52.3474" y1="0.221054" x2="52.3474" y2="97.212" gradientUnits="userSpaceOnUse">
<stop stop-color="#D34A0F"/>
<stop offset="1" stop-color="#F87C56"/>
</linearGradient>
<linearGradient id="paint3_linear_101_673" x1="52.3474" y1="0.221054" x2="52.3474" y2="97.212" gradientUnits="userSpaceOnUse">
<stop stop-color="#D34A0F"/>
<stop offset="1" stop-color="#F87C56"/>
</linearGradient>
<linearGradient id="paint4_linear_101_673" x1="52.3474" y1="0.221054" x2="52.3474" y2="97.212" gradientUnits="userSpaceOnUse">
<stop stop-color="#D34A0F"/>
<stop offset="1" stop-color="#F87C56"/>
</linearGradient>
<linearGradient id="paint5_linear_101_673" x1="43.9652" y1="4.32065" x2="43.9652" y2="93.1187" gradientUnits="userSpaceOnUse">
<stop stop-color="#F7A175"/>
<stop offset="1" stop-color="#FFF2DC"/>
</linearGradient>
<linearGradient id="paint6_linear_101_673" x1="43.9652" y1="4.32065" x2="43.9652" y2="93.1187" gradientUnits="userSpaceOnUse">
<stop stop-color="#F7A175"/>
<stop offset="1" stop-color="#FFF2DC"/>
</linearGradient>
<linearGradient id="paint7_linear_101_673" x1="43.9652" y1="4.32065" x2="43.9652" y2="93.1187" gradientUnits="userSpaceOnUse">
<stop stop-color="#F7A175"/>
<stop offset="1" stop-color="#FFF2DC"/>
</linearGradient>
<linearGradient id="paint8_linear_101_673" x1="43.9652" y1="4.32065" x2="43.9652" y2="93.1187" gradientUnits="userSpaceOnUse">
<stop stop-color="#F7A175"/>
<stop offset="1" stop-color="#FFF2DC"/>
</linearGradient>
<linearGradient id="paint9_linear_101_673" x1="43.9652" y1="4.32065" x2="43.9652" y2="93.1187" gradientUnits="userSpaceOnUse">
<stop stop-color="#F7A175"/>
<stop offset="1" stop-color="#FFF2DC"/>
</linearGradient>
</defs>
</svg>
