<svg width="103" height="105" viewBox="0 0 103 105" fill="none" xmlns="http://www.w3.org/2000/svg">
<path d="M16.6294 56.7259C18.7225 56.5961 20.6262 55.304 21.7075 53.5351C23.4048 50.8234 23.1975 47.0562 21.1409 44.5902C20.082 43.295 18.5307 42.3943 16.8575 42.2219C16.359 42.1491 12.4563 42.2007 11.884 42.1861C15.7579 42.1848 18.5822 45.7438 18.5322 49.4678C18.5707 53.1785 15.7466 56.7438 11.8839 56.7425C12.0796 56.7365 16.5794 56.7588 16.6294 56.7259Z" fill="url(#paint0_linear_101_694)"/>
<path d="M32.6466 75.071C32.5539 71.7197 30.1128 68.5023 26.6683 68.1468H26.6666C26.354 68.0797 22.1231 68.1237 21.6928 68.1119C26.4417 68.1566 29.27 73.1353 28.0605 77.4673C27.8197 78.363 27.4148 79.2063 26.8664 79.9543C26.6328 80.3176 23.7819 83.3763 23.4335 83.7737C22.2443 85.0896 20.5154 85.914 18.7322 85.903H23.0491C23.1543 85.903 23.2587 85.8999 23.3634 85.8946C24.0298 85.8593 24.6861 85.7173 25.3075 85.4741C26.2399 85.0993 27.0751 84.5179 27.7503 83.7737C28.2782 83.1593 30.9893 80.3284 31.3674 79.694C32.27 78.3262 32.7177 76.7083 32.6466 75.071Z" fill="url(#paint1_linear_101_694)"/>
<path d="M32.6466 23.2261C32.5904 21.5667 31.9961 19.9705 30.9534 18.6782C30.6484 18.3194 27.8406 15.2406 27.5074 14.9005L27.5052 14.8981C26.4843 13.873 25.1454 13.2252 23.708 13.061H23.7066C23.3933 12.994 19.163 13.0379 18.7322 13.0261C20.5146 13.0146 22.2439 13.8377 23.4335 15.1528C23.8199 15.5921 26.6272 18.5975 26.8865 19.0032C27.4182 19.7342 27.8126 20.5558 28.0504 21.4279C29.2874 25.763 26.4519 30.775 21.6928 30.8174C21.8625 30.8126 26.4172 30.8318 26.426 30.8017C27.1681 30.7521 27.8951 30.5683 28.5717 30.2594C31.2297 29.0557 32.7873 26.0905 32.6466 23.2261Z" fill="url(#paint2_linear_101_694)"/>
<path d="M47.9592 88.0676C47.8654 85.3356 46.2135 82.6316 43.6374 81.5932C43.0138 81.3373 42.3521 81.1865 41.6793 81.1469C41.6005 81.1439 41.5219 81.1391 41.4428 81.1369C41.4012 81.1361 41.3595 81.1357 41.3175 81.1357H37.0008C40.8702 81.1333 43.6919 84.6975 43.6504 88.4144C43.6936 92.1302 40.8675 95.6944 37.0008 95.693H41.3176C41.7886 95.6918 42.2579 95.637 42.7164 95.5298C44.4316 95.1341 45.9128 93.9722 46.8289 92.4845C47.6387 91.1583 48.0324 89.6198 47.9592 88.0676Z" fill="url(#paint3_linear_101_694)"/>
<path d="M50.1192 77.3443C53.195 77.1557 55.6592 74.5494 56.1929 71.5952C56.896 68.1587 55.0777 64.2976 51.6683 63.1363C51.1462 62.9581 50.6025 62.8512 50.0518 62.8185C49.3981 62.801 48.7419 62.7947 48.0948 62.6929C46.2803 62.4257 44.556 61.7282 43.0659 60.6588C37.3574 56.6034 35.8943 48.3466 39.3752 42.3733C41.4825 38.6591 45.4642 36.0887 49.7847 36.1212C49.378 36.128 45.1319 36.1053 44.8656 36.1372C44.1027 36.1768 43.3458 36.2931 42.6063 36.4842C39.2415 37.3374 36.4009 39.7757 34.805 42.8306L34.8042 42.832C31.7274 48.619 33.1136 56.3373 38.3687 60.3772C39.9416 61.603 41.805 62.4008 43.7776 62.6929C44.4247 62.7944 45.0812 62.8016 45.7345 62.8184C46.2851 62.8515 46.8288 62.9584 47.351 63.1363C49.9157 64.003 51.6905 66.5241 51.9667 69.1758C52.4805 73.1851 49.604 77.3485 45.3735 77.3611C45.5731 77.355 50.0645 77.3775 50.1192 77.3443Z" fill="url(#paint4_linear_101_694)"/>
<path d="M63.8298 33.4336C63.8627 36.389 62.0508 39.3938 59.1957 40.3675C59.1924 40.3686 59.1891 40.3699 59.1857 40.3709C58.5406 40.5926 57.8634 40.7063 57.1813 40.7072H61.4982C61.5861 40.7072 61.6738 40.7045 61.7613 40.7008C62.3581 40.6753 62.948 40.563 63.5124 40.3675C68.5279 38.5688 69.6599 31.6771 65.9617 28.0338L65.9609 28.0331C61.5983 23.9438 55.6802 21.5446 49.6907 21.5675H45.3738C50.1459 21.5762 54.8048 23.0224 58.743 25.7176C59.476 26.2177 60.182 26.7562 60.8582 27.3308C61.3153 27.6983 61.7376 28.1072 62.1197 28.5522C63.2474 29.9089 63.8313 31.6762 63.8298 33.4336Z" fill="url(#paint5_linear_101_694)"/>
<path d="M81.446 97.0552C81.2748 89.2482 75.6259 81.8825 67.5882 81.1853C66.8036 81.0949 62.9763 81.1499 62.1187 81.1359C62.5036 81.1375 62.8878 81.154 63.2713 81.1853C68.2261 81.5758 72.6328 84.7943 74.979 89.1086C76.1408 91.2238 76.8507 93.5572 77.0638 95.961C77.205 97.4429 77.1842 98.9763 76.6254 100.377C75.6923 102.908 73.2419 104.882 70.489 104.855C70.7055 104.848 75.1622 104.872 75.2346 104.838C75.9789 104.786 76.7076 104.599 77.3849 104.285C80.1118 103.032 81.638 99.9924 81.446 97.0552Z" fill="url(#paint6_linear_101_694)"/>
<path d="M77.1993 15.746C79.3085 18.573 79.1196 22.8532 76.7148 25.4476C76.2191 25.9578 73.5724 28.98 73.054 29.3524C71.9302 30.2875 70.518 30.8059 69.0561 30.8201C69.6197 30.8171 73.6678 30.8561 74.1145 30.772C74.9881 30.661 75.8285 30.3673 76.5812 29.9101C77.134 29.5765 77.636 29.1652 78.0717 28.6888L81.0317 25.448C81.0701 25.406 81.1079 25.3636 81.1453 25.3208C81.498 24.914 81.8051 24.4699 82.061 23.9962C83.5222 21.3179 83.2253 17.7729 81.264 15.4207C81.1146 15.2394 80.956 15.0658 80.7887 14.9008L80.7866 14.8985C79.7657 13.8734 78.4268 13.2256 76.9894 13.0614H76.9879C76.7699 13.0391 76.5499 13.0274 76.3305 13.0265H72.0136C74.0573 13.0098 76.0155 14.0997 77.1993 15.746Z" fill="url(#paint7_linear_101_694)"/>
<path d="M98.1783 42.0501C98.0248 39.387 96.38 36.784 93.8701 35.7707C93.2472 35.5149 92.5862 35.3641 91.914 35.3245C91.9515 35.3 87.3576 35.3194 87.236 35.3134C89.8562 35.2863 92.2326 37.0912 93.2346 39.4611C93.9449 41.0211 93.9679 42.773 93.7838 44.4486C93.5407 46.8309 92.8079 49.1371 91.6312 51.2227C89.0633 55.8223 84.2063 59.0578 78.865 59.0328C79.5478 59.0262 83.4714 59.0575 84.0524 59.0028C84.8909 58.9492 85.7228 58.8188 86.5376 58.6134C90.3265 57.6699 93.5901 55.0803 95.6215 51.7751C95.8238 51.4466 96.0155 51.1115 96.1965 50.7697L96.1981 50.7666C97.6067 48.0833 98.2893 45.0785 98.1783 42.0501Z" fill="url(#paint8_linear_101_694)"/>
<path d="M102.386 79.2492C102.444 70.7981 96.1578 62.8441 87.3659 62.8074H83.049C91.8407 62.843 98.1283 70.802 98.0686 79.2492C98.1285 87.696 91.8393 95.6581 83.049 95.6923C84.2761 95.6714 87.818 95.7622 88.9693 95.5985C90.4307 95.4267 91.8556 95.024 93.1907 94.4052C98.9575 91.7499 102.428 85.5033 102.386 79.2492Z" fill="url(#paint9_linear_101_694)"/>
<path d="M45.6565 0.954639C48.3034 1.04829 50.6167 2.99685 51.5128 5.43565C51.7867 6.15656 51.9512 6.91443 52.0007 7.68405C52.0384 7.77391 52.0152 12.5424 52.0207 12.8076C52.0683 16.5218 49.245 20.0884 45.3786 20.083C46.1101 20.0688 49.9976 20.1419 50.6304 20.0106C52.2145 19.7741 53.6604 18.8798 54.6597 17.6386C55.5257 16.5655 56.0799 15.2749 56.2617 13.9079C56.4014 13.1906 56.315 9.03226 56.3371 8.22442C56.3765 4.50661 53.5607 0.946439 49.6901 0.946838H45.3732C45.4687 0.946838 45.5626 0.950345 45.6565 0.954639Z" fill="url(#paint10_linear_101_694)"/>
<path d="M18.5327 49.4678C18.5276 53.4789 15.546 56.7425 11.8842 56.7425H7.69735C-1.11891 56.3475 -1.11682 42.5805 7.69735 42.1861H11.8841C15.6492 42.1371 18.6237 45.7446 18.5327 49.4678Z" fill="#F87C56"/>
<path d="M21.6927 68.1116C27.8502 68.1579 30.4028 76.2731 26.3913 80.5332L23.4334 83.7734C20.9537 86.5937 16.5133 86.5931 14.0316 83.776C11.439 80.9354 11.439 76.3184 14.0316 73.4821L16.9919 70.2406C18.247 68.8674 19.916 68.1116 21.6927 68.1116Z" fill="#F87C56"/>
<path d="M16.9919 28.6883L14.0313 25.4476C11.4387 22.6103 11.4387 17.9932 14.0313 15.1553C16.5118 12.3347 20.9519 12.3357 23.4331 15.1526L26.3912 18.3954C30.4015 22.6541 27.8508 30.7728 21.6923 30.8169C19.916 30.817 18.247 30.0619 16.9919 28.6883Z" fill="#F87C56"/>
<path d="M37.0007 81.1358C40.6689 81.1358 43.6503 84.3994 43.6503 88.4145C43.2858 98.0694 30.716 98.0688 30.3524 88.4145C30.3522 84.3994 33.3337 81.1358 37.0007 81.1358Z" fill="#F87C56"/>
<path d="M52.0209 70.0857C52.0209 74.0975 49.0387 77.3611 45.3737 77.3611C11.5664 75.8435 11.578 23.0791 45.3737 21.5675C51.2821 21.5675 56.924 23.7794 61.3915 27.796C62.7673 29.0253 63.6211 30.7705 63.7966 32.705C64.2516 36.6479 61.2219 40.7682 57.1811 40.7071C55.6223 40.6966 54.1225 40.1095 52.9708 39.059C44.9385 31.8662 33.006 38.8026 33.1854 49.4651C33.1854 56.8216 38.653 62.8074 45.3735 62.8074C49.0387 62.8074 52.0209 66.0718 52.0209 70.0857Z" fill="#F87C56"/>
<path d="M62.1182 81.1358C70.3932 81.1469 77.1283 88.5194 77.1378 97.5748C76.7736 107.231 64.208 107.233 63.8424 97.5768C63.8304 96.5507 63.0582 95.7054 62.0872 95.6923H53.7446C44.93 95.3008 44.9238 81.5304 53.7446 81.1358H62.1182Z" fill="#F87C56"/>
<path d="M69.056 30.8197C62.8933 30.7647 60.3446 22.6583 64.3543 18.3954L67.3149 15.1553C71.7757 10.4281 78.7098 14.1535 78.6631 20.3014C78.6799 22.2 77.9848 24.0361 76.7148 25.4476L73.7548 28.6883C72.5209 30.0404 70.808 30.8197 69.056 30.8197Z" fill="#F87C56"/>
<path d="M51.2823 51.7545C51.2874 47.7408 54.267 44.479 57.9269 44.479H78.8627C79.8001 44.4658 80.5742 43.6186 80.5862 42.5542C80.5862 38.5771 83.5677 35.3134 87.2358 35.3134C90.9001 35.3134 93.8817 38.5771 93.8817 42.5921C93.8722 51.6495 87.1364 59.0228 78.8651 59.0331H57.9314C54.2645 59.0327 51.2823 55.7683 51.2823 51.7545Z" fill="#F87C56"/>
<path d="M83.0489 62.8074C102.97 63.7004 102.968 94.8002 83.0489 95.6923C74.2238 95.2947 74.2366 81.5265 83.0489 81.1358C85.3343 81.0323 85.3371 77.4667 83.0489 77.3611H62.1182C58.4514 77.3611 55.4686 74.0975 55.4686 70.0857C55.4686 66.0719 58.4514 62.807 62.1182 62.807L83.0489 62.8074Z" fill="#F87C56"/>
<path d="M45.3788 20.083C41.6074 20.1385 38.6358 16.5269 38.7255 12.8044V8.22412C39.0896 -1.42804 51.6554 -1.43084 52.021 8.22412V12.807C52.1084 16.5225 49.1361 20.1373 45.3788 20.083Z" fill="#F87C56"/>
<g style="mix-blend-mode:multiply" opacity="0.4" filter="url(#filter0_f_101_694)">
<path d="M22.0141 72.2029C24.7085 72.2237 25.8258 75.774 24.0709 77.6385L21.1109 80.8781C20.8527 81.1693 20.5362 81.4028 20.1818 81.5635C19.8274 81.7242 19.4432 81.8084 19.0541 81.8108C16.3606 81.7893 15.2418 78.2396 16.9981 76.3751L19.9571 73.1355C20.2153 72.8443 20.5319 72.6108 20.8863 72.4501C21.2407 72.2894 21.6249 72.2052 22.0141 72.2029Z" fill="#D34A0F"/>
<path d="M19.9572 25.7927L16.9972 22.5525C16.442 21.9349 16.1384 21.1317 16.1462 20.3013C16.1076 18.6752 17.409 17.0933 19.0542 17.1181C19.4434 17.1201 19.8277 17.2043 20.1821 17.365C20.5365 17.5257 20.8531 17.7593 21.111 18.0507L24.0711 21.2897C25.8252 23.1527 24.709 26.706 22.0143 26.7248C21.6252 26.7227 21.2409 26.6386 20.8864 26.478C20.532 26.3174 20.2154 26.0839 19.9572 25.7927Z" fill="#D34A0F"/>
<path d="M45.6958 66.9005C49.5503 67.0702 49.5581 73.0931 45.6958 73.2688C25.4466 72.9783 17.197 46.7087 30.3197 32.6321C37.7797 24.1105 51.1097 23.3121 59.3412 30.9585C59.9544 31.5158 60.3327 32.2854 60.3995 33.1113C60.6001 34.8393 59.2713 36.6398 57.5027 36.613C56.8208 36.6115 56.1642 36.3546 55.6623 35.8929C52.8867 33.4015 49.3789 32.0283 45.7877 32.0283C24.5543 32.921 24.5612 65.9572 45.6958 66.9005Z" fill="#D34A0F"/>
<path d="M62.4403 85.229C68.6529 85.236 73.7146 90.7768 73.7216 97.5792C73.7216 99.3335 72.4162 100.762 70.8119 100.762C69.2076 100.762 67.9039 99.3334 67.9039 97.5774C67.9338 94.5246 65.5307 91.6031 62.4569 91.5985L54.068 91.5973C52.4638 91.5973 51.1589 90.1695 51.1589 88.4135C51.1589 86.6574 52.4638 85.229 54.068 85.229H62.4403Z" fill="#D34A0F"/>
<path d="M55.3455 51.7564C55.3461 49.9974 56.6499 48.5709 58.2515 48.5709H79.2019C80.6484 48.5497 82.0086 47.9219 83.0312 46.8012C84.0665 45.6499 84.6419 44.1579 84.6478 42.6096C84.6478 40.8346 85.9532 39.4068 87.5569 39.4068C89.1606 39.4068 90.4655 40.8346 90.4655 42.5907C90.4591 49.3919 85.3979 54.9326 79.1831 54.9397H58.2536C56.6084 54.9621 55.3049 53.3847 55.3455 51.7564Z" fill="#D34A0F"/>
<path d="M83.3703 66.9005C98.3329 67.5701 98.3334 90.9276 83.3703 91.5973C79.5079 91.4213 79.5187 85.4001 83.3703 85.2289C86.3829 85.2289 88.8332 82.5467 88.8332 79.2489C88.8332 75.951 86.3829 73.2688 83.3702 73.2688H62.4403C60.8366 73.2688 59.5311 71.8399 59.5311 70.0837C59.5311 68.3276 60.8366 66.9005 62.4403 66.9005H83.3703Z" fill="#D34A0F"/>
<path d="M37.3241 85.229C38.9278 85.229 40.2322 86.6579 40.2322 88.4135C40.0724 92.6383 34.574 92.6355 34.4144 88.4135C34.4147 86.6579 35.7198 85.229 37.3241 85.229Z" fill="#D34A0F"/>
<path d="M12.2074 46.2791C16.0676 46.4508 16.0599 52.4795 12.2095 52.6486H8.02075C4.16326 52.476 4.16316 46.4519 8.02075 46.2791H12.2074Z" fill="#D34A0F"/>
<path d="M45.699 15.9904C44.0475 16.0144 42.7487 14.4371 42.7872 12.8065V8.2236C42.9461 4.00098 48.4447 3.99928 48.6049 8.2236V12.8065C48.6038 14.5638 47.3005 15.9904 45.699 15.9904Z" fill="#D34A0F"/>
<path d="M69.3773 26.7254C67.7328 26.7491 66.4319 25.1678 66.4687 23.5421C66.4613 22.7113 66.7652 21.9077 67.3207 21.2897L70.2803 18.0507C70.5382 17.7594 70.8548 17.5257 71.2092 17.365C71.5636 17.2043 71.9479 17.1202 72.337 17.1181C75.0302 17.138 76.1486 20.6885 74.3939 22.5525L71.4343 25.7927C71.1767 26.0846 70.8602 26.3186 70.5057 26.4793C70.1511 26.6401 69.7666 26.7239 69.3773 26.7254Z" fill="#D34A0F"/>
</g>
<path d="M21.6011 75.2628C21.5779 74.4215 21.2358 73.6204 20.6439 73.0219C20.1975 72.5742 19.6125 72.291 18.9844 72.2186H18.9837C18.7881 72.1914 17.8342 72.2074 17.6202 72.2034C17.7152 72.2051 17.8106 72.2086 17.9046 72.2185C20.2182 72.4837 21.2154 75.3376 20.0143 77.1953C19.9824 77.3738 16.912 80.6412 16.7172 80.8787C16.4583 81.1689 16.1416 81.4018 15.7874 81.5624C15.4332 81.7231 15.0494 81.8078 14.6605 81.8114C14.8819 81.8098 15.8124 81.8214 16.0105 81.7972C16.6976 81.7208 17.3323 81.3938 17.7932 80.8786C17.8252 80.8356 21.0863 77.2989 20.9644 77.3807C21.2639 76.9684 21.4647 76.4929 21.5513 75.9908C21.5927 75.7504 21.6094 75.5065 21.6011 75.2628Z" fill="url(#paint11_linear_101_694)"/>
<path d="M21.6011 23.4029C21.5781 22.7515 21.3665 22.1209 20.9921 21.5874C20.8905 21.4028 17.8803 18.1544 17.6843 17.9377C17.4735 17.7286 17.2321 17.5528 16.9685 17.4161C16.8523 17.3577 16.7325 17.3066 16.6099 17.2632C16.42 17.1992 16.2238 17.1557 16.0246 17.1335H16.0226C15.9281 17.124 15.8319 17.1193 15.7365 17.1183H14.6604C14.7558 17.1201 14.8519 17.1235 14.9465 17.1335H14.9485C15.6302 17.213 16.2592 17.5394 16.7168 18.0508L19.6769 21.2899C19.9151 21.5526 20.1084 21.8528 20.2488 22.1785C21.1196 24.1231 19.8809 26.7114 17.6198 26.7245C18.1697 26.7124 19.0405 26.786 19.5568 26.5832C20.8666 26.1493 21.67 24.7487 21.6011 23.4029Z" fill="url(#paint12_linear_101_694)"/>
<path d="M45.284 69.9324C45.272 69.6625 45.2289 69.395 45.1555 69.135C44.8899 68.1924 44.1833 67.3642 43.2465 67.0453C42.8514 66.9001 42.4286 66.897 42.0132 66.8955C41.6068 66.8846 41.2003 66.8594 40.7964 66.8148C39.3531 66.6569 37.9411 66.2864 36.6061 65.7153C27.1793 61.6103 23.8753 49.6524 28.5657 40.7941L28.5665 40.7925C31.2606 35.6199 36.557 31.9987 42.4691 32.0287C41.0392 32.0056 39.5544 32.0549 38.1608 32.3827C33.9722 33.2987 30.3278 36.0969 28.0991 39.7281C27.8856 40.0765 27.6826 40.4313 27.4901 40.7925L27.4894 40.7939C23.683 47.9633 25.0857 57.4239 31.1644 62.9032C33.7911 65.2994 37.2525 66.7918 40.8194 66.8918C41.3911 66.8931 41.9802 66.904 42.4968 67.1824C44.0302 67.9271 44.6174 69.9574 43.9204 71.4721C43.4768 72.4999 42.4427 73.2805 41.3026 73.2693C41.6177 73.2616 42.502 73.2939 42.7983 73.2358C43.6263 73.1088 44.3549 72.5724 44.7894 71.8652C45.1434 71.2847 45.3157 70.6116 45.284 69.9324Z" fill="url(#paint13_linear_101_694)"/>
<path d="M56.0172 33.5594C55.9922 35.1211 54.73 36.6318 53.1084 36.613C53.4461 36.6026 54.3218 36.642 54.6408 36.5731C55.4566 36.4391 56.1716 35.9064 56.5998 35.2077C57.3994 33.931 57.2189 32.1203 56.1337 31.0619L56.1329 31.0612C53.2143 28.3728 49.5777 26.59 45.6651 25.9292C44.2439 25.6809 42.745 25.6413 41.3019 25.6596C45.1838 25.6628 48.9826 26.7852 52.2429 28.8924C53.0704 29.4255 53.86 30.0154 54.6057 30.6579C55.5231 31.3546 56.0703 32.3966 56.0172 33.5594Z" fill="url(#paint14_linear_101_694)"/>
<path d="M70.3933 97.0456C70.3249 95.2878 69.9069 93.5612 69.1638 91.9668C67.8496 89.1456 65.4416 86.8002 62.4749 85.7901L62.473 85.7895C61.6158 85.4959 60.7238 85.316 59.8198 85.2542C59.3692 85.2157 58.5077 85.2326 58.0466 85.2292C58.808 85.2309 59.5668 85.3156 60.3098 85.4818C63.7503 86.2422 66.6207 88.8024 68.0877 91.9668L68.0883 91.9682C68.7131 93.3064 69.108 94.7402 69.2565 96.2096C69.3107 96.8675 69.3805 97.5394 69.2726 98.1953C69.0499 99.5667 67.8495 100.78 66.4181 100.763C66.733 100.755 67.6176 100.787 67.914 100.729C68.7408 100.602 69.469 100.067 69.9038 99.3612L69.9053 99.3589C70.345 98.6731 70.4501 97.8441 70.3933 97.0456Z" fill="url(#paint15_linear_101_694)"/>
<path d="M87.1393 42.3549C87.1235 42.1133 87.0822 41.8741 87.0161 41.6413C86.8652 41.109 86.5813 40.6239 86.1911 40.2317L86.1881 40.2286C86.1259 40.1678 86.0611 40.1102 85.9954 40.0538C85.8805 39.9594 85.7591 39.8733 85.6321 39.7961C85.2953 39.5938 84.919 39.4665 84.5287 39.4227C84.3285 39.3945 83.3811 39.411 83.1634 39.4069C84.7087 39.3892 85.9534 40.7863 86.0577 42.2762C86.1362 44.8198 85.4661 47.3305 84.1307 49.4968C82.1682 52.7185 78.6093 54.9662 74.7896 54.9398C75.5905 54.9393 76.5533 54.9609 77.3377 54.8328C79.9269 54.4685 82.314 53.073 84.0191 51.1069C84.4592 50.6005 84.8579 50.0596 85.2113 49.4894L85.2125 49.4875C85.3645 49.2404 85.5085 48.9886 85.6447 48.7318L85.6456 48.7298C86.6758 46.7658 87.1898 44.5721 87.1393 42.3549Z" fill="url(#paint16_linear_101_694)"/>
<path d="M91.3251 78.759C91.1895 73.6297 87.8306 68.6202 82.7637 67.2617C82.0837 67.077 81.3864 66.9626 80.683 66.9201C80.2458 66.8867 79.4184 66.9053 78.9767 66.9001C85.5678 66.9171 90.3119 72.916 90.2587 79.2485C90.3129 85.58 85.5655 91.5819 78.9767 91.597C79.95 91.6024 81.0372 91.6148 81.9875 91.4147C85.0727 90.8435 87.7719 88.8102 89.4001 86.1569C90.759 83.9354 91.4289 81.361 91.3251 78.759Z" fill="url(#paint17_linear_101_694)"/>
<path d="M36.9109 88.2625C36.8988 87.9924 36.8557 87.7247 36.7823 87.4645C36.5168 86.5219 35.8105 85.6932 34.8736 85.3741H34.8721C34.3604 85.1689 33.4742 85.2413 32.9302 85.2299C34.6014 85.2142 35.8702 86.8097 35.8382 88.4144C35.8671 90.0233 34.6057 91.6113 32.9302 91.5982C33.2451 91.5907 34.1295 91.6227 34.4258 91.5647C35.253 91.4378 35.981 90.9025 36.4154 90.1961L36.416 90.195C36.7701 89.6146 36.9424 88.9416 36.9109 88.2625Z" fill="url(#paint18_linear_101_694)"/>
<path d="M11.7947 49.3103C11.7669 48.5893 11.5067 47.8967 11.0529 47.3357C10.9851 47.2548 10.9147 47.176 10.8397 47.1019C10.6729 46.938 10.488 46.7938 10.2884 46.672C10.1204 46.5719 9.94267 46.4889 9.75806 46.4243H9.75675C9.56701 46.3603 9.37097 46.3167 9.17197 46.2944C8.98057 46.268 8.02376 46.2829 7.81409 46.2793C8.11212 46.2807 8.40792 46.3307 8.68982 46.4274C10.2307 46.9512 11.0262 48.7695 10.6197 50.2997C10.3239 51.5796 9.16518 52.6645 7.81618 52.6488C8.37252 52.6371 9.24515 52.7115 9.76664 52.5015C11.07 52.0566 11.8693 50.6559 11.7947 49.3103Z" fill="url(#paint19_linear_101_694)"/>
<path d="M44.2079 12.952C44.1732 14.505 42.9194 16.0072 41.3054 15.9905C41.7995 15.9784 42.6581 16.0435 43.1254 15.8843C44.2498 15.5633 45.0636 14.511 45.2401 13.3743C45.3307 13.2352 45.2722 8.52768 45.2876 8.22375C45.2871 7.90276 45.2426 7.58333 45.1554 7.2744V7.2724C44.9492 6.50459 44.4554 5.84559 43.7765 5.43191L43.7713 5.42908C43.6051 5.33022 43.4294 5.2483 43.2468 5.18449C42.7341 4.97881 41.8481 5.05118 41.3026 5.0398C42.6889 5.02422 43.8686 6.16403 44.1322 7.48677C44.292 8.05638 44.1841 12.2981 44.2079 12.952Z" fill="url(#paint20_linear_101_694)"/>
<path d="M71.9241 20.1771C71.9023 19.4466 71.6423 18.7433 71.1837 18.1743L71.1816 18.1719C70.844 17.7564 70.3983 17.442 69.8936 17.2633C69.7037 17.1993 69.5075 17.1558 69.3083 17.1336H69.3064C69.2119 17.1242 69.116 17.1195 69.0208 17.1185H67.9445C68.0399 17.1203 68.1358 17.1238 68.2303 17.1336H68.2326C70.527 17.3995 71.5264 20.2149 70.3607 22.0735C70.2902 22.3084 67.2728 25.5162 67.0416 25.7931C66.7879 26.0783 66.4782 26.3083 66.1318 26.4688C65.7854 26.6292 65.4096 26.7166 65.028 26.7256C65.1678 26.7209 66.1733 26.7356 66.2826 26.7166C66.9895 26.6533 67.6457 26.323 68.1177 25.7931C68.1513 25.7482 71.408 22.2154 71.2886 22.2943C71.5877 21.8827 71.7883 21.4079 71.875 20.9065C71.9163 20.6657 71.9328 20.4213 71.9241 20.1771Z" fill="url(#paint21_linear_101_694)"/>
<path d="M17.6202 72.2029C20.3147 72.2237 21.4321 75.774 19.677 77.6385L16.7169 80.8781C16.4588 81.1693 16.1423 81.4028 15.7879 81.5635C15.4335 81.7242 15.0492 81.8085 14.6601 81.8108C11.9666 81.7893 10.8478 78.2396 12.6042 76.3751L15.5631 73.1355C15.8213 72.8443 16.1379 72.6108 16.4924 72.4501C16.8468 72.2894 17.2311 72.2052 17.6202 72.2029Z" fill="#FFF2DC"/>
<path d="M15.5641 25.7927L12.6039 22.5525C12.0488 21.9348 11.7452 21.1317 11.753 20.3013C11.7144 18.6752 13.0158 17.0933 14.6611 17.1181C15.0502 17.1201 15.4346 17.2042 15.789 17.3649C16.1434 17.5257 16.4599 17.7593 16.7179 18.0507L19.6781 21.2897C21.4322 23.1527 20.316 26.706 17.6213 26.7248C17.2321 26.7227 16.8478 26.6387 16.4933 26.4781C16.1389 26.3175 15.8222 26.084 15.5641 25.7927Z" fill="#FFF2DC"/>
<path d="M41.3022 66.9005C45.1567 67.0702 45.1644 73.0931 41.3022 73.2688C21.053 72.9783 12.8034 46.7087 25.9257 32.6321C33.3856 24.1105 46.7156 23.3121 54.9471 30.9585C55.5602 31.5158 55.9386 32.2854 56.0054 33.1113C56.2061 34.8393 54.8772 36.6398 53.1086 36.613C52.4267 36.6116 51.7701 36.3547 51.2683 35.8929C48.4926 33.4015 44.9848 32.0283 41.3937 32.0283C20.1608 32.921 20.1675 65.9572 41.3022 66.9005Z" fill="#FFF2DC"/>
<path d="M58.0467 85.229C64.2594 85.236 69.3211 90.7768 69.3281 97.5792C69.3281 99.3335 68.0227 100.762 66.4184 100.762C64.8141 100.762 63.5103 99.3334 63.5103 97.5774C63.5403 94.5246 61.1371 91.6031 58.0633 91.5985L49.6745 91.5973C48.0702 91.5973 46.7653 90.1695 46.7653 88.4135C46.7653 86.6574 48.0702 85.229 49.6745 85.229H58.0467Z" fill="#FFF2DC"/>
<path d="M50.952 51.7564C50.9525 49.9974 52.2563 48.5709 53.8575 48.5709H74.8079C76.2545 48.5497 77.6146 47.9219 78.6373 46.8012C79.6725 45.6499 80.2479 44.1579 80.2538 42.6096C80.2538 40.8346 81.5592 39.4068 83.163 39.4068C84.7668 39.4068 86.0716 40.8346 86.0716 42.5907C86.0652 49.3919 81.004 54.9326 74.7892 54.9397H53.8601C52.2148 54.9621 50.9113 53.3847 50.952 51.7564Z" fill="#FFF2DC"/>
<path d="M78.9767 66.9005C93.9392 67.5701 93.9397 90.9276 78.9767 91.5973C75.1143 91.4213 75.125 85.4001 78.9767 85.2289C81.9894 85.2289 84.4398 82.5467 84.4398 79.2489C84.4398 75.951 81.9894 73.2688 78.9767 73.2688H58.0467C56.4429 73.2688 55.1376 71.8399 55.1376 70.0837C55.1376 68.3276 56.4429 66.9005 58.0467 66.9005H78.9767Z" fill="#FFF2DC"/>
<path d="M32.9306 85.229C34.5343 85.229 35.8386 86.6579 35.8386 88.4135C35.6789 92.6383 30.1805 92.6355 30.0209 88.4135C30.0209 86.6579 31.3263 85.229 32.9306 85.229Z" fill="#FFF2DC"/>
<path d="M7.81388 46.2791C11.6741 46.4508 11.6664 52.4795 7.81598 52.6486H3.6272C-0.230289 52.476 -0.230489 46.4519 3.6272 46.2791H7.81388Z" fill="#FFF2DC"/>
<path d="M41.3054 15.9904C39.654 16.0144 38.3552 14.4371 38.3936 12.8065V8.2236C38.5525 4.00098 44.051 3.99928 44.2114 8.2236V12.8065C44.2103 14.5638 42.907 15.9904 41.3054 15.9904Z" fill="#FFF2DC"/>
<path d="M64.9836 26.7254C63.3392 26.7491 62.0382 25.1678 62.075 23.5421C62.0676 22.7112 62.3716 21.9077 62.9271 21.2897L65.8866 18.0507C66.1446 17.7594 66.4611 17.5257 66.8155 17.365C67.1699 17.2043 67.5543 17.1202 67.9434 17.1181C70.6365 17.138 71.755 20.6885 70.0002 22.5525L67.0406 25.7927C66.783 26.0846 66.4665 26.3186 66.112 26.4793C65.7574 26.6401 65.3729 26.7239 64.9836 26.7254Z" fill="#FFF2DC"/>
<defs>
<filter id="filter0_f_101_694" x="2.12759" y="2.056" width="95.4648" height="101.706" filterUnits="userSpaceOnUse" color-interpolation-filters="sRGB">
<feFlood flood-opacity="0" result="BackgroundImageFix"/>
<feBlend mode="normal" in="SourceGraphic" in2="BackgroundImageFix" result="shape"/>
<feGaussianBlur stdDeviation="1.5" result="effect1_foregroundBlur_101_694"/>
</filter>
<linearGradient id="paint0_linear_101_694" x1="57.1349" y1="0.946838" x2="57.1349" y2="104.857" gradientUnits="userSpaceOnUse">
<stop stop-color="#D34A0F"/>
<stop offset="1" stop-color="#F87C56"/>
</linearGradient>
<linearGradient id="paint1_linear_101_694" x1="57.1349" y1="0.946838" x2="57.1349" y2="104.857" gradientUnits="userSpaceOnUse">
<stop stop-color="#D34A0F"/>
<stop offset="1" stop-color="#F87C56"/>
</linearGradient>
<linearGradient id="paint2_linear_101_694" x1="57.1349" y1="0.946838" x2="57.1349" y2="104.857" gradientUnits="userSpaceOnUse">
<stop stop-color="#D34A0F"/>
<stop offset="1" stop-color="#F87C56"/>
</linearGradient>
<linearGradient id="paint3_linear_101_694" x1="57.1349" y1="0.946838" x2="57.1349" y2="104.857" gradientUnits="userSpaceOnUse">
<stop stop-color="#D34A0F"/>
<stop offset="1" stop-color="#F87C56"/>
</linearGradient>
<linearGradient id="paint4_linear_101_694" x1="57.1349" y1="0.946838" x2="57.1349" y2="104.857" gradientUnits="userSpaceOnUse">
<stop stop-color="#D34A0F"/>
<stop offset="1" stop-color="#F87C56"/>
</linearGradient>
<linearGradient id="paint5_linear_101_694" x1="57.1349" y1="0.946838" x2="57.1349" y2="104.857" gradientUnits="userSpaceOnUse">
<stop stop-color="#D34A0F"/>
<stop offset="1" stop-color="#F87C56"/>
</linearGradient>
<linearGradient id="paint6_linear_101_694" x1="57.1349" y1="0.946838" x2="57.1349" y2="104.857" gradientUnits="userSpaceOnUse">
<stop stop-color="#D34A0F"/>
<stop offset="1" stop-color="#F87C56"/>
</linearGradient>
<linearGradient id="paint7_linear_101_694" x1="57.1349" y1="0.946838" x2="57.1349" y2="104.857" gradientUnits="userSpaceOnUse">
<stop stop-color="#D34A0F"/>
<stop offset="1" stop-color="#F87C56"/>
</linearGradient>
<linearGradient id="paint8_linear_101_694" x1="57.1349" y1="0.946838" x2="57.1349" y2="104.857" gradientUnits="userSpaceOnUse">
<stop stop-color="#D34A0F"/>
<stop offset="1" stop-color="#F87C56"/>
</linearGradient>
<linearGradient id="paint9_linear_101_694" x1="57.1349" y1="0.946838" x2="57.1349" y2="104.857" gradientUnits="userSpaceOnUse">
<stop stop-color="#D34A0F"/>
<stop offset="1" stop-color="#F87C56"/>
</linearGradient>
<linearGradient id="paint10_linear_101_694" x1="57.1349" y1="0.946838" x2="57.1349" y2="104.857" gradientUnits="userSpaceOnUse">
<stop stop-color="#D34A0F"/>
<stop offset="1" stop-color="#F87C56"/>
</linearGradient>
<linearGradient id="paint11_linear_101_694" x1="49.5748" y1="5.03635" x2="49.5748" y2="100.765" gradientUnits="userSpaceOnUse">
<stop stop-color="#F7A175"/>
<stop offset="1" stop-color="#FFF2DC"/>
</linearGradient>
<linearGradient id="paint12_linear_101_694" x1="49.5748" y1="5.03635" x2="49.5748" y2="100.765" gradientUnits="userSpaceOnUse">
<stop stop-color="#F7A175"/>
<stop offset="1" stop-color="#FFF2DC"/>
</linearGradient>
<linearGradient id="paint13_linear_101_694" x1="49.5748" y1="5.03635" x2="49.5748" y2="100.765" gradientUnits="userSpaceOnUse">
<stop stop-color="#F7A175"/>
<stop offset="1" stop-color="#FFF2DC"/>
</linearGradient>
<linearGradient id="paint14_linear_101_694" x1="49.5748" y1="5.03635" x2="49.5748" y2="100.765" gradientUnits="userSpaceOnUse">
<stop stop-color="#F7A175"/>
<stop offset="1" stop-color="#FFF2DC"/>
</linearGradient>
<linearGradient id="paint15_linear_101_694" x1="49.5748" y1="5.03635" x2="49.5748" y2="100.765" gradientUnits="userSpaceOnUse">
<stop stop-color="#F7A175"/>
<stop offset="1" stop-color="#FFF2DC"/>
</linearGradient>
<linearGradient id="paint16_linear_101_694" x1="49.5748" y1="5.03635" x2="49.5748" y2="100.765" gradientUnits="userSpaceOnUse">
<stop stop-color="#F7A175"/>
<stop offset="1" stop-color="#FFF2DC"/>
</linearGradient>
<linearGradient id="paint17_linear_101_694" x1="49.5748" y1="5.03635" x2="49.5748" y2="100.765" gradientUnits="userSpaceOnUse">
<stop stop-color="#F7A175"/>
<stop offset="1" stop-color="#FFF2DC"/>
</linearGradient>
<linearGradient id="paint18_linear_101_694" x1="49.5748" y1="5.03635" x2="49.5748" y2="100.765" gradientUnits="userSpaceOnUse">
<stop stop-color="#F7A175"/>
<stop offset="1" stop-color="#FFF2DC"/>
</linearGradient>
<linearGradient id="paint19_linear_101_694" x1="49.5748" y1="5.03635" x2="49.5748" y2="100.765" gradientUnits="userSpaceOnUse">
<stop stop-color="#F7A175"/>
<stop offset="1" stop-color="#FFF2DC"/>
</linearGradient>
<linearGradient id="paint20_linear_101_694" x1="49.5748" y1="5.03635" x2="49.5748" y2="100.765" gradientUnits="userSpaceOnUse">
<stop stop-color="#F7A175"/>
<stop offset="1" stop-color="#FFF2DC"/>
</linearGradient>
<linearGradient id="paint21_linear_101_694" x1="49.5748" y1="5.03635" x2="49.5748" y2="100.765" gradientUnits="userSpaceOnUse">
<stop stop-color="#F7A175"/>
<stop offset="1" stop-color="#FFF2DC"/>
</linearGradient>
</defs>
</svg>
