<svg width="94" height="80" viewBox="0 0 94 80" fill="none" xmlns="http://www.w3.org/2000/svg">
<path d="M48.0843 78.3219C48.713 77.8771 49.2636 77.3312 49.7138 76.7065H45.3969C44.8273 77.4989 44.0963 78.1616 43.2518 78.6507C42.3115 79.1938 41.2456 79.4818 40.1598 79.4862C40.8571 79.4634 44.7842 79.5492 45.384 79.4173C46.3569 79.2665 47.2813 78.8915 48.0843 78.3219Z" fill="url(#paint0_linear_101_682)"/>
<path d="M49.4452 47.4838C49.1654 47.1427 48.8541 46.8288 48.5152 46.5463C48.2553 46.3313 47.98 46.1357 47.6915 45.9611C47.4313 45.8055 47.1608 45.6677 46.8821 45.5486H46.8813C46.2427 45.278 45.5634 45.116 44.8713 45.0694C44.7401 45.061 44.6083 45.0567 44.4767 45.0564H40.1598C41.6415 45.0672 43.0728 45.5964 44.205 46.5522C44.6552 46.9286 45.0565 47.3597 45.3996 47.8356H49.7165C49.6293 47.7149 49.5388 47.5976 49.4452 47.4838Z" fill="url(#paint1_linear_101_682)"/>
<path d="M45.4383 14.3105C38.5999 14.2805 32.5008 18.494 29.3859 24.4676C28.1478 26.829 27.3617 29.4008 27.068 32.0508C26.9987 32.6532 26.9571 33.2589 26.9395 33.8657C26.9243 34.4421 26.9378 35.0225 26.8513 35.5943C26.5873 37.502 25.5863 39.3155 24.0388 40.4767C23.132 41.166 22.055 41.5958 20.9228 41.7203C20.52 41.7677 20.1113 41.7402 19.7083 41.7857C19.2288 41.837 18.7583 41.9516 18.3088 42.1263C17.0922 42.6146 16.0665 43.484 15.3854 44.6042L15.3835 44.6078C15.2288 44.8597 15.0903 45.1213 14.969 45.391C13.6963 48.2275 14.4621 51.9694 17.0627 53.792L17.0645 53.7931C17.5067 54.1051 17.9908 54.3531 18.5023 54.5298C18.7556 54.6159 19.0146 54.6845 19.2773 54.7351C22.5522 55.0456 24.9744 58.2062 25.1622 61.3716C25.4923 65.0859 22.8858 68.9175 19.0309 69.2415C18.6195 69.2404 17.7155 69.2415 17.312 69.2492H18.9339C18.7986 69.2607 18.6638 69.2643 18.5274 69.2646C19.2498 69.2473 23.1442 69.3255 23.7667 69.1928C25.3068 68.9557 26.72 68.1054 27.7178 66.9177C30.7492 63.379 29.8197 57.5008 25.619 55.3267L25.6158 55.325C24.9866 54.999 24.3 54.7987 23.5942 54.7351C19.344 53.9108 17.5736 48.8376 19.3935 45.1634C20.1024 43.7157 21.3703 42.5196 22.9157 42.0232C23.337 41.8853 23.7738 41.8001 24.216 41.7698C24.706 41.7449 25.2002 41.7552 25.6838 41.6561C27.5249 41.3341 29.1383 40.1256 30.1085 38.5467C30.7373 37.523 31.1167 36.3658 31.2159 35.1686C31.2638 34.6233 31.2379 34.0733 31.2693 33.5272C31.2993 32.8268 31.3664 32.1272 31.4627 31.4335C31.8023 29.0127 32.5543 26.6681 33.6862 24.5015C36.7928 18.5108 42.9069 14.2798 49.7557 14.3107L45.4383 14.3105Z" fill="url(#paint2_linear_101_682)"/>
<path d="M57.0032 70.0768C58.2349 74.4247 55.3928 79.4345 50.6343 79.4862H54.9513C57.1678 79.5087 59.3129 78.1816 60.4551 76.2902C60.4551 76.2893 60.4559 76.2883 60.4565 76.2874C61.6988 74.2806 61.9389 71.7082 61.1362 69.4936C62.6294 69.2615 63.9989 68.4507 64.9863 67.3156C65.1231 67.1582 65.2533 66.9952 65.3768 66.8264C65.3775 66.8254 65.3783 66.8244 65.379 66.8233C65.6834 66.4033 65.9437 65.9532 66.156 65.4799V65.4789C66.2845 65.1892 66.3956 64.8921 66.4885 64.5891C67.4799 61.4185 66.2698 57.6422 63.3716 55.9093L63.3694 55.9079C63.1128 55.7545 62.8463 55.6186 62.5714 55.5011L62.5702 55.5006C62.1064 55.3047 61.6206 55.1658 61.1233 55.0869C62.3621 51.8333 61.1784 47.7232 58.1144 45.9344C57.411 45.5164 56.6329 45.2397 55.8235 45.1196C55.2538 44.9978 51.2886 45.0774 50.6339 45.0562C55.669 45.1238 58.4864 50.6343 56.8064 55.0869C57.304 55.1662 57.7903 55.3053 58.2546 55.5011C62.6822 57.4124 63.8232 63.4173 60.8641 67.0816C59.8646 68.3379 58.4135 69.246 56.8188 69.4935C56.8885 69.6857 56.9486 69.8804 57.0032 70.0768Z" fill="url(#paint3_linear_101_682)"/>
<path d="M93.9094 43.3842C93.8726 37.2786 91.7712 31.1674 87.8802 26.4436C86.5276 24.8 84.9627 23.3433 83.2267 22.1116C81.6735 21.0143 79.9886 20.1163 78.2117 19.4387C74.4996 11.0832 67.396 4.18375 58.613 1.40678C56.6798 0.788173 54.6876 0.371957 52.6685 0.164817C50.7488 -0.0675208 47.3362 0.0318168 45.3798 0.0122473C57.9794 0.00226283 68.8576 8.11842 73.8955 19.439C75.2722 19.9637 76.5945 20.6214 77.8436 21.4026C85.9496 26.4434 90.2709 36.2994 89.5154 45.691C88.8636 54.7812 83.5447 63.5363 75.0911 67.3064C74.3622 67.7239 73.1478 68.021 72.2727 68.0015H76.5896C77.4636 68.0215 78.6804 67.7235 79.4079 67.3064C88.6068 63.1973 94.024 53.2789 93.9094 43.3842Z" fill="url(#paint4_linear_101_682)"/>
<path d="M56.8073 55.087C64.3632 56.4519 64.368 68.1198 56.8197 69.4936C58.5249 73.9431 55.5045 79.4951 50.6347 79.4862C48.581 79.4862 46.6501 78.4409 45.3974 76.7064C43.4653 79.4703 39.6631 80.3476 36.8437 78.5147C33.951 76.7675 32.7528 72.6427 33.9729 69.4936C26.421 68.1106 26.4382 56.4468 33.9893 55.087C32.7432 51.9262 33.937 47.7794 36.8464 46.0249C39.6654 44.1957 43.4702 45.0716 45.4 47.8355C46.6554 46.0957 48.5836 45.0563 50.6348 45.0563C55.5227 45.0394 58.5518 50.6528 56.8073 55.087Z" fill="#F87C56"/>
<path d="M87.8402 33.8892C92.741 46.9514 87.0228 61.9416 75.0908 67.3061C74.3596 67.7213 73.1492 68.0224 72.2724 68.0012C64.5407 67.8127 63.2509 56.3524 70.204 53.8033C79.1971 49.54 78.003 34.9106 68.0232 32.7791C65.6492 32.3398 63.6636 30.5 62.8696 27.9803C55.6239 6.37393 27.2726 12.0071 26.9293 34.4849C26.9293 38.4914 23.947 41.7549 20.2797 41.7549C13.0167 41.9623 12.2336 53.2516 19.2773 54.7347C22.8227 55.0093 25.5391 58.9534 25.1641 62.5554C24.8746 66.5111 21.6596 69.5663 17.9911 69.2411L17.3121 69.2488C-2.69592 65.4747 -4.58372 35.4494 14.1603 28.4669C19.8228 -3.71295 59.6002 -11.0258 73.895 19.4385C80.2273 21.8446 85.2792 27.0645 87.8402 33.8892Z" fill="#F87C56"/>
<g style="mix-blend-mode:multiply" opacity="0.4" filter="url(#filter0_f_101_682)">
<path d="M56.0596 59.1087C59.9191 59.2824 59.9175 65.3046 56.0596 65.4769H50.5981L53.3657 70.6027C54.1634 72.1303 53.6792 74.0872 52.2835 74.9653C50.8994 75.8616 49.0485 75.2737 48.2921 73.7853L45.5949 68.6561L42.8972 73.7846C42.1403 75.2735 40.2893 75.8621 38.9053 74.9653C37.5096 74.0872 37.0252 72.1308 37.823 70.6027L40.5905 65.4769H35.129C33.5248 65.4769 32.2196 64.0491 32.2196 62.2929C32.2196 60.5368 33.5248 59.1087 35.129 59.1087H40.5731L37.823 53.9367C37.0235 52.4137 37.5071 50.4541 38.9053 49.5741C40.2888 48.6776 42.1402 49.2657 42.8965 50.754L45.5949 55.9614L48.2955 50.7476C49.0476 49.2666 50.9032 48.6779 52.2835 49.5741C53.6813 50.4541 54.1649 52.4137 53.3618 53.9438L50.6161 59.1085L56.0596 59.1087Z" fill="#D34A0F"/>
<path d="M84.578 35.4448C88.6838 45.665 84.0533 59.1504 73.8679 63.5196C72.2295 64.5021 70.1836 63.5137 69.6836 61.6443C69.2134 60.0841 70.0583 58.1647 71.6253 57.6736C84.4016 51.9071 82.3752 31.4795 68.8879 28.7504C67.8196 28.5535 66.9498 27.7484 66.6014 26.6446C61.628 10.0562 41.4558 4.48461 29.9086 17.3191C25.7161 21.8982 23.3996 27.9915 23.3862 34.475C23.3862 36.2345 22.0818 37.6625 20.478 37.6625C8.7219 38.0325 7.21409 56.146 18.8369 58.7669C20.6141 58.8997 21.7664 60.527 21.6325 62.2262C21.5063 63.9641 20.095 65.3054 18.4861 65.1606L17.8225 65.1558C0.843001 61.4461 0.773929 35.6427 17.6928 31.717C20.8279 1.15458 58.6662 -7.0027 71.2968 22.5712L72.0977 23.0312C77.7751 24.9151 82.3238 29.4394 84.578 35.4448Z" fill="#D34A0F"/>
</g>
<path d="M9.22312 54.3653C6.95765 50.7858 6.92957 45.9166 9.16559 42.3169C10.5475 40.0641 12.8306 38.3356 15.4449 37.8301C16.0724 37.7127 16.7095 37.6542 17.348 37.6554C17.9732 37.6076 18.5639 37.3491 19.0233 36.9223C19.2325 36.7285 19.415 36.5077 19.566 36.2658C19.8297 35.8373 19.9945 35.3554 20.0485 34.8552C20.0914 34.1627 20.0694 33.4657 20.1268 32.7733C20.2534 30.7824 20.6066 28.8125 21.1797 26.9017C23.4879 19.0779 29.8328 12.3975 37.9373 10.6849L37.9404 10.6842C39.3815 10.376 40.8511 10.2202 42.3249 10.2194C40.5036 10.1873 38.6438 10.2868 36.8642 10.6842C32.3033 11.6527 28.1667 14.2441 25.1249 17.756C25.124 17.7571 25.123 17.7581 25.122 17.7593C22.3151 20.9743 20.4026 24.9373 19.5433 29.1128C19.268 30.4474 19.0958 31.8011 19.0282 33.1621C18.9859 33.7362 19.0181 34.3148 18.9677 34.8879C18.9111 35.3767 18.7479 35.847 18.4896 36.2658C18.2801 36.6135 18.0002 36.9136 17.6678 37.1467C17.3354 37.3797 16.9579 37.5407 16.5595 37.6192C16.104 37.6952 15.637 37.6468 15.1798 37.709C13.6379 37.8718 12.1635 38.427 10.8973 39.3216C10.2393 39.7851 9.63932 40.3259 9.11011 40.9323L9.10855 40.934C8.7336 41.3654 8.39389 41.8261 8.09265 42.3119L8.09012 42.3158L8.08943 42.3169C7.95944 42.5278 7.83637 42.743 7.72009 42.9626L7.71941 42.964C7.06604 44.2113 6.6532 45.5704 6.50255 46.9704C5.99644 51.3185 8.02845 55.9093 12.0115 57.9333C12.7788 58.3245 13.5976 58.6052 14.4435 58.7669C14.9592 58.8081 15.4554 58.9825 15.8833 59.2732C16.3113 59.5638 16.6565 59.9607 16.8849 60.4249C17.9119 62.3919 16.6752 65.1395 14.3302 65.1712C14.5818 65.1652 15.4983 65.1885 15.7304 65.1505C16.1209 65.0957 16.4961 64.9617 16.8328 64.7565C17.1696 64.5513 17.4608 64.2794 17.6885 63.9574C17.78 63.8299 17.8631 63.6965 17.9371 63.558C18.0337 63.3723 18.1135 63.1784 18.1756 62.9785L18.1765 62.9752C18.3676 62.3389 18.3738 61.6615 18.1944 61.0218C17.9852 60.2589 17.4974 59.6022 16.8273 59.1817C16.4276 58.9478 15.9807 58.8061 15.5193 58.7668C12.9149 58.2839 10.6192 56.5971 9.22312 54.3653Z" fill="url(#paint5_linear_101_682)"/>
<path d="M38.5036 73.7846C38.3136 74.1442 38.0568 74.4644 37.7471 74.7279L37.7444 74.7302C37.6446 74.8129 37.5398 74.8894 37.4307 74.9593L37.4286 74.9605C37.3197 75.0287 37.2065 75.09 37.0898 75.144L37.0883 75.1447C36.9715 75.1973 36.8514 75.2423 36.7289 75.2794C36.6053 75.3154 36.4794 75.3433 36.3522 75.3629H36.3514C36.2232 75.381 36.0938 75.3904 35.9643 75.3912C36.2539 75.3845 37.1556 75.4123 37.4276 75.3629H37.4284C37.555 75.3434 37.6803 75.3157 37.8034 75.2799H37.8049C37.9275 75.2427 38.0476 75.1976 38.1644 75.145L38.1659 75.1444C38.2825 75.0904 38.3956 75.0291 38.5045 74.9609L38.5069 74.9597C38.6158 74.8897 38.7205 74.8132 38.8203 74.7307L38.8232 74.7284C39.1328 74.4652 39.3894 74.1453 39.5791 73.7859L39.5796 73.785L42.2771 68.6565H41.2011L38.5036 73.7846Z" fill="url(#paint6_linear_101_682)"/>
<path d="M39.5792 50.7542C39.3894 50.3917 39.1306 50.0699 38.8173 49.8067C38.3929 49.4507 37.8733 49.2271 37.3231 49.1634C37.1265 49.1377 36.1784 49.1516 35.9646 49.1484C36.4207 49.1566 36.8682 49.2731 37.2703 49.4885C37.6724 49.7039 38.0175 50.0119 38.2769 50.3871C38.3604 50.5043 38.4358 50.6269 38.503 50.7542L41.2014 55.9615H42.2774L39.5792 50.7542Z" fill="url(#paint7_linear_101_682)"/>
<path d="M49.1648 74.8272C49.4687 74.5975 49.7272 74.3133 49.9271 73.989C50.0034 73.8639 50.0721 73.7342 50.1326 73.6008V73.6C50.1908 73.4677 50.2411 73.3321 50.2833 73.1938C50.3026 73.1308 50.3189 73.0667 50.3353 73.0027C50.3686 72.8599 50.3938 72.7152 50.4107 72.5695C50.4107 72.5681 50.4108 72.5667 50.4114 72.5653C50.4196 72.4846 50.4246 72.4033 50.4294 72.322C50.4502 71.8003 50.3522 71.2806 50.1428 70.8023C50.1142 70.7344 50.0819 70.6684 50.0479 70.6026L47.2803 65.4768H46.204C46.2977 65.6855 49.2755 71.061 49.1886 71.1226C49.4489 71.9351 49.4025 72.8148 49.0582 73.5954C48.6197 74.6225 47.5638 75.4053 46.4365 75.3911H47.5127C48.1101 75.3876 48.69 75.1897 49.1648 74.8272Z" fill="url(#paint8_linear_101_682)"/>
<path d="M49.0678 50.9659C49.3991 51.7304 49.4457 52.5882 49.1994 53.3842C49.2279 53.5739 46.3559 58.8132 46.2219 59.109H47.2981C47.456 58.7629 50.2904 53.6107 50.2825 53.3634C50.283 53.3619 50.2833 53.3605 50.2837 53.3591C50.3451 53.1547 50.3879 52.9453 50.4117 52.7333C50.4622 52.2842 50.4234 51.8296 50.2977 51.3956C50.1719 50.9615 49.9617 50.5566 49.679 50.2041C49.5091 49.9991 49.3135 49.8168 49.0969 49.662L49.0955 49.6612C48.71 49.3885 48.2619 49.2173 47.7928 49.1636C47.5992 49.138 46.648 49.1519 46.4369 49.1487C47.0043 49.1542 47.5566 49.333 48.0196 49.6612C48.481 49.9928 48.8434 50.4439 49.0678 50.9659Z" fill="url(#paint9_linear_101_682)"/>
<path d="M51.9551 59.1244C54.2516 59.3958 55.2562 62.2145 54.0771 64.0733L54.0748 64.0768C53.5697 64.9055 52.6484 65.4851 51.666 65.4769C51.8067 65.4746 52.8165 65.4837 52.9297 65.4696C53.5558 65.4217 54.1471 65.163 54.6071 64.7355C54.818 64.5401 55.0018 64.3174 55.1536 64.0733C55.2295 63.9488 55.2978 63.8198 55.3581 63.687C55.6151 63.1036 55.7061 62.4605 55.6212 61.8287C55.5983 61.665 55.5645 61.5031 55.52 61.344C55.5199 61.3433 55.5196 61.3425 55.5193 61.3418C55.396 60.9121 55.1871 60.5118 54.9051 60.1649C54.838 60.0851 54.7687 60.0069 54.6945 59.9337C54.6934 59.9328 54.6925 59.9317 54.6914 59.9307C54.5247 59.7667 54.3398 59.6225 54.1401 59.5008C53.8021 59.2969 53.424 59.1685 53.0318 59.1244C52.8315 59.0963 51.8843 59.1128 51.6666 59.1087C51.7627 59.11 51.8594 59.1151 51.9551 59.1244Z" fill="url(#paint10_linear_101_682)"/>
<path d="M56.0584 8.7787C60.9701 12.1319 64.7243 17.0558 66.904 22.5715H67.9802C63.8809 12.1137 54.2256 4.33903 42.7922 4.11249H42.7878C42.4326 4.1035 41.5515 4.10807 41.1839 4.10708C46.4685 4.09459 51.7124 5.78507 56.0584 8.7787Z" fill="url(#paint11_linear_101_682)"/>
<path d="M66.904 22.5715C67.0097 22.6067 67.9154 23.1045 68.0203 23.1414C68.8352 23.4271 69.6292 23.7691 70.3966 24.165C73.0215 25.53 75.3092 27.4628 77.0934 29.8229C80.6411 34.4856 82.2072 40.5629 81.506 46.3677C80.6603 53.6476 76.2692 60.4988 69.4748 63.5197C68.9712 63.7893 68.6016 63.8991 68.0732 63.9071H69.1495C69.6787 63.8986 70.047 63.7897 70.5509 63.5197C76.0146 61.0946 80.0243 56.0934 81.7299 50.418C81.7305 50.4162 81.7309 50.4146 81.7314 50.4128C82.7043 47.2233 82.981 43.862 82.5431 40.5563V40.5533C81.7418 34.4416 78.4249 28.5796 73.2177 25.1829C72.2174 24.5252 71.157 23.9637 70.0508 23.5061C69.6914 23.3555 69.3258 23.2217 68.9588 23.0911C68.9001 23.0711 68.0402 22.5912 67.9813 22.5719L66.904 22.5715Z" fill="url(#paint12_linear_101_682)"/>
<path d="M51.6661 59.1087C55.5256 59.2824 55.5239 65.3046 51.6661 65.4769H46.2046L48.9721 70.6027C49.7699 72.1303 49.2855 74.0872 47.8897 74.9653C46.5057 75.8616 44.6548 75.2737 43.8986 73.7853L41.2013 68.6561L38.5036 73.7846C37.7467 75.2735 35.8957 75.8621 34.5117 74.9653C33.116 74.0872 32.6317 72.1308 33.4294 70.6027L36.1969 65.4769H30.7354C29.1312 65.4769 27.826 64.0491 27.826 62.2929C27.826 60.5368 29.1312 59.1087 30.7354 59.1087H36.1796L33.4294 53.9367C32.6299 52.4137 33.1134 50.4541 34.5117 49.5741C35.8952 48.6776 37.7466 49.2657 38.5029 50.754L41.2013 55.9614L43.9018 50.7476C44.654 49.2666 46.5095 48.6779 47.8898 49.5741C49.2877 50.4541 49.7713 52.4137 48.9682 53.9438L46.2225 59.1085L51.6661 59.1087Z" fill="#FFF2DC"/>
<path d="M80.1844 35.4448C84.2902 45.665 79.6597 59.1504 69.4743 63.5196C67.8359 64.5021 65.79 63.5137 65.2901 61.6443C64.8198 60.0841 65.6647 58.1647 67.2316 57.6736C80.0081 51.9071 77.9816 31.4795 64.4942 28.7504C63.4259 28.5535 62.5562 27.7484 62.2083 26.6446C57.2349 10.0562 37.0627 4.48461 25.5155 17.3191C21.323 21.8982 19.0065 27.9915 18.9932 34.475C18.9932 36.2345 17.6886 37.6625 16.0848 37.6625C4.32871 38.0325 2.8209 56.146 14.4438 58.7669C16.221 58.8997 17.3732 60.527 17.2394 62.2262C17.1133 63.9641 15.7019 65.3054 14.0931 65.1606L13.4296 65.1558C-3.55009 61.4461 -3.61916 35.6427 13.2998 31.717C16.4349 1.15458 54.2732 -7.0027 66.9037 22.5712L67.9576 23.1172L67.7047 23.0312C73.3815 24.9151 77.9301 29.4394 80.1844 35.4448Z" fill="#FFF2DC"/>
<defs>
<filter id="filter0_f_101_682" x="2.04565" y="1.13179" width="87.0238" height="77.2573" filterUnits="userSpaceOnUse" color-interpolation-filters="sRGB">
<feFlood flood-opacity="0" result="BackgroundImageFix"/>
<feBlend mode="normal" in="SourceGraphic" in2="BackgroundImageFix" result="shape"/>
<feGaussianBlur stdDeviation="1.5" result="effect1_foregroundBlur_101_682"/>
</filter>
<linearGradient id="paint0_linear_101_682" x1="54.139" y1="0.00735474" x2="54.139" y2="79.4929" gradientUnits="userSpaceOnUse">
<stop stop-color="#D34A0F"/>
<stop offset="1" stop-color="#F87C56"/>
</linearGradient>
<linearGradient id="paint1_linear_101_682" x1="54.139" y1="0.00735474" x2="54.139" y2="79.4929" gradientUnits="userSpaceOnUse">
<stop stop-color="#D34A0F"/>
<stop offset="1" stop-color="#F87C56"/>
</linearGradient>
<linearGradient id="paint2_linear_101_682" x1="54.139" y1="0.00735474" x2="54.139" y2="79.4929" gradientUnits="userSpaceOnUse">
<stop stop-color="#D34A0F"/>
<stop offset="1" stop-color="#F87C56"/>
</linearGradient>
<linearGradient id="paint3_linear_101_682" x1="54.139" y1="0.00735474" x2="54.139" y2="79.4929" gradientUnits="userSpaceOnUse">
<stop stop-color="#D34A0F"/>
<stop offset="1" stop-color="#F87C56"/>
</linearGradient>
<linearGradient id="paint4_linear_101_682" x1="54.139" y1="0.00735474" x2="54.139" y2="79.4929" gradientUnits="userSpaceOnUse">
<stop stop-color="#D34A0F"/>
<stop offset="1" stop-color="#F87C56"/>
</linearGradient>
<linearGradient id="paint5_linear_101_682" x1="44.5856" y1="4.10678" x2="44.5856" y2="75.3931" gradientUnits="userSpaceOnUse">
<stop stop-color="#F7A175"/>
<stop offset="1" stop-color="#FFF2DC"/>
</linearGradient>
<linearGradient id="paint6_linear_101_682" x1="44.5856" y1="4.10678" x2="44.5856" y2="75.3931" gradientUnits="userSpaceOnUse">
<stop stop-color="#F7A175"/>
<stop offset="1" stop-color="#FFF2DC"/>
</linearGradient>
<linearGradient id="paint7_linear_101_682" x1="44.5856" y1="4.10678" x2="44.5856" y2="75.3931" gradientUnits="userSpaceOnUse">
<stop stop-color="#F7A175"/>
<stop offset="1" stop-color="#FFF2DC"/>
</linearGradient>
<linearGradient id="paint8_linear_101_682" x1="44.5856" y1="4.10678" x2="44.5856" y2="75.3931" gradientUnits="userSpaceOnUse">
<stop stop-color="#F7A175"/>
<stop offset="1" stop-color="#FFF2DC"/>
</linearGradient>
<linearGradient id="paint9_linear_101_682" x1="44.5856" y1="4.10678" x2="44.5856" y2="75.3931" gradientUnits="userSpaceOnUse">
<stop stop-color="#F7A175"/>
<stop offset="1" stop-color="#FFF2DC"/>
</linearGradient>
<linearGradient id="paint10_linear_101_682" x1="44.5856" y1="4.10678" x2="44.5856" y2="75.3931" gradientUnits="userSpaceOnUse">
<stop stop-color="#F7A175"/>
<stop offset="1" stop-color="#FFF2DC"/>
</linearGradient>
<linearGradient id="paint11_linear_101_682" x1="44.5856" y1="4.10678" x2="44.5856" y2="75.3931" gradientUnits="userSpaceOnUse">
<stop stop-color="#F7A175"/>
<stop offset="1" stop-color="#FFF2DC"/>
</linearGradient>
<linearGradient id="paint12_linear_101_682" x1="44.5856" y1="4.10678" x2="44.5856" y2="75.3931" gradientUnits="userSpaceOnUse">
<stop stop-color="#F7A175"/>
<stop offset="1" stop-color="#FFF2DC"/>
</linearGradient>
</defs>
</svg>
