<svg width="94" height="96" viewBox="0 0 94 96" fill="none" xmlns="http://www.w3.org/2000/svg">
<path d="M47.9544 80.3902H52.2712C51.1559 80.3938 49.2929 80.3771 48.2181 80.315C46.667 80.2174 45.126 79.9975 43.6094 79.6576C36.8033 78.1474 30.7018 74.0902 26.3563 68.6768C15.7785 55.697 15.8164 35.7941 26.3819 22.8191H22.0653C11.4991 35.7955 11.4618 55.6973 22.0399 68.6771C26.3847 74.0902 32.487 78.1482 39.2931 79.6575C40.8095 79.9978 42.3504 80.2177 43.9015 80.315C45.0077 80.4073 46.8448 80.3645 47.9544 80.3902Z" fill="url(#paint0_linear_101_686)"/>
<path d="M70.1288 52.4032C58.5553 52.0448 48.4925 44.6368 43.3844 34.4466C39.4518 26.6629 38.5068 17.8367 40.4616 9.35797C40.9148 6.92626 40.1532 4.28289 38.3841 2.53681L38.3809 2.53354C38.0647 2.2224 37.7188 1.94295 37.3481 1.69915L37.3456 1.69764C36.5156 1.15589 35.5697 0.817023 34.5845 0.708457C34.5833 0.708457 34.5821 0.708457 34.5808 0.708457C34.2791 0.64246 30.0368 0.68552 29.6159 0.674038C30.8285 0.678861 32.0138 1.03445 33.0288 1.69793L33.0312 1.69944C35.5039 3.31083 36.6862 6.49407 36.1447 9.35831C34.8622 14.9786 34.7941 20.8239 36.1476 26.4373C38.4628 36.3963 45.2126 45.4294 54.5858 49.7262C57.3835 51.0212 60.3688 51.8644 63.4306 52.2245C65.5319 52.5177 68.9394 52.3987 71.0757 52.4218C70.7594 52.4208 70.4444 52.4145 70.1288 52.4032Z" fill="url(#paint1_linear_101_686)"/>
<path d="M71.2081 67.1603C72.4371 67.1603 73.6661 67.1033 74.895 66.9894H70.5782C69.3513 67.1026 68.1223 67.1595 66.8912 67.1603H71.2081Z" fill="url(#paint2_linear_101_686)"/>
<path d="M93.688 56.0334C93.6869 55.6803 93.6636 55.3276 93.6181 54.9774V54.9766C93.3835 53.2026 92.5306 51.489 91.1457 50.337C91.0736 50.2716 91.0003 50.2081 90.926 50.1464C90.0267 49.3951 88.938 48.9056 87.7792 48.7316C87.2266 48.6118 83.2338 48.689 82.5918 48.6685C84.1619 48.6813 85.6715 49.2758 86.8288 50.337C88.637 51.842 89.5214 54.2751 89.3508 56.5961C89.2871 57.5281 89.0225 58.4312 88.804 59.3351C88.4637 60.6629 88.0738 61.9765 87.6343 63.2759C86.2243 67.4468 84.2756 71.4158 81.8375 75.082C73.8625 87.1702 60.1454 95.2776 45.5976 95.2069C55.6003 95.5503 63.7493 94.0154 72.4224 88.5636C78.0722 84.9969 82.8832 80.1467 86.5095 74.5421C88.809 70.985 90.6528 67.1531 91.9976 63.1365C92.4199 61.8842 92.7943 60.6171 93.1209 59.335C93.3886 58.251 93.7013 57.1596 93.688 56.0334Z" fill="url(#paint3_linear_101_686)"/>
<path d="M86.8287 50.3369C88.8965 52.0586 89.8371 55.0596 89.147 57.913C85.8143 72.6144 76.6403 84.6436 63.9862 90.8717C58.1423 93.7481 51.9549 95.2065 45.5971 95.2065C-4.22077 93.9512 -15.365 22.2164 27.1506 1.1975C32.3918 -1.02354 37.1631 4.13982 36.1443 9.35759C29.58 35.9656 54.9422 61.5745 79.84 49.3211C80.6935 48.8915 81.6358 48.6678 82.5914 48.6681C84.1621 48.6784 85.6728 49.2733 86.8287 50.3369ZM47.9543 80.3901C56.9796 79.6924 65.1723 74.77 70.5781 66.989C45.7389 69.2271 24.3761 48.9598 22.0652 22.8191C4.19012 44.7233 18.0857 81.7231 47.9543 80.3901Z" fill="#F87C56"/>
<g style="mix-blend-mode:multiply" opacity="0.4" filter="url(#filter0_f_101_686)">
<path d="M85.0521 53.4909C85.5294 53.8971 85.884 54.4284 86.0759 55.025C86.2678 55.6217 86.2894 56.26 86.1383 56.8683C82.2251 75.5566 65.5745 91.3302 46.2016 91.1127C22.9118 91.2634 5.14556 69.782 5.00438 47.066C4.51145 29.9991 13.7501 12.4522 29.249 4.95347C31.4057 4.0995 33.5214 6.25446 33.0866 8.5368C30.077 21.3283 33.5208 35.6254 42.4388 45.2347C52.2292 56.2621 68.8531 59.8606 82.0016 53.0426C82.4957 52.7997 83.0518 52.7126 83.5965 52.7927C84.1412 52.8727 84.6488 53.1162 85.0521 53.4909ZM77.2832 64.1101L78.5637 61.4572C57.5925 67.6176 37.0713 55.5215 29.4386 35.5332C26.7006 28.755 25.9657 21.2027 26.1928 13.8358C12.3174 24.7597 7.38379 44.1193 13.6691 60.5814C18.4664 73.6669 30.7686 83.9173 44.8206 84.4325L46.1398 84.6501C59.4116 84.74 71.5842 76.1751 77.2829 64.1101" fill="#D34A0F"/>
</g>
<path d="M28.7266 7.62193C28.7552 7.92705 28.7439 8.23461 28.693 8.53681C26.9122 16.3658 27.3619 24.5958 30.1325 32.1415C34.1299 43.2143 43.1522 52.4054 54.6666 55.4341C57.7158 56.2542 60.8902 56.5731 64.044 56.5147C51.5245 56.5371 40.3657 49.2292 34.1934 38.5255C28.9503 29.498 27.4452 18.6929 29.7692 8.53681C29.8524 8.0588 29.8325 7.56854 29.7107 7.09887C29.589 6.6292 29.3683 6.19093 29.0634 5.81351C28.9975 5.73434 28.9285 5.65788 28.8552 5.5857C28.7941 5.52579 28.7298 5.46927 28.6654 5.41336C28.5526 5.32109 28.4337 5.23654 28.3095 5.16033C28.1421 5.06079 27.9652 4.97827 27.7814 4.91394C27.7198 4.8935 27.6575 4.87461 27.5946 4.85724C27.4658 4.82359 27.3348 4.7993 27.2026 4.78455C27.2002 4.78455 27.1979 4.78373 27.1954 4.78343H27.1939C27.0007 4.75607 26.045 4.77236 25.8334 4.76827C25.9282 4.76997 26.0231 4.77345 26.1177 4.78343C27.5419 4.92122 28.615 6.23709 28.7266 7.62193Z" fill="url(#paint4_linear_101_686)"/>
<path d="M23.3797 78.7114C28.4034 82.1197 34.3538 84.1697 40.4272 84.4325L41.7466 84.65H42.8229L41.5036 84.4325C29.7919 83.9246 19.4412 76.99 13.4862 67.0484C6.2298 55.0588 5.76405 39.4514 12.1165 26.9828C13.6163 24.0273 15.4865 21.275 17.682 18.7922C19.172 17.0599 21.1579 15.3495 22.8756 13.8358H21.7995C19.9988 15.4139 17.9762 17.1755 16.4352 18.9856C13.4162 22.4508 11.0287 26.419 9.3815 30.7096C3.23718 46.5965 7.37071 65.6252 20.615 76.637L20.6176 76.6391C21.5061 77.3725 22.4256 78.0667 23.3797 78.7114Z" fill="url(#paint5_linear_101_686)"/>
<path d="M64.1968 63.0674C67.8811 63.1196 71.6745 62.3697 75.2463 61.4573H74.1702L71.4907 62.0901C68.7478 62.7384 65.9391 63.0663 63.1207 63.0674H64.1968Z" fill="url(#paint6_linear_101_686)"/>
<path d="M82.9149 55.9271C82.8981 55.4613 82.7845 55.0042 82.5813 54.5847C82.3782 54.1653 82.0898 53.7928 81.7348 53.4909C81.7036 53.4627 81.672 53.4353 81.6399 53.4087L81.6382 53.4075C81.3743 53.1888 81.0734 53.0191 80.7496 52.9066H80.7485C80.6258 52.8651 80.5005 52.832 80.3734 52.8076C80.3035 52.7943 80.2322 52.7853 80.1612 52.7759C80.158 52.7759 80.1548 52.7759 80.1512 52.7754C79.9681 52.7491 79.0055 52.7654 78.8033 52.761C79.4905 52.7671 80.1511 53.0272 80.658 53.4912C81.045 53.8207 81.3522 54.2338 81.5566 54.6992C81.761 55.1646 81.8572 55.6702 81.8381 56.1782C81.8026 56.8471 81.5859 57.4914 81.437 58.141C81.0709 59.566 80.6416 60.9725 80.149 62.3607C78.8641 65.9813 77.1395 69.4304 75.0139 72.6307C67.6709 83.7289 55.2336 91.1652 41.8082 91.113C54.3082 91.4724 66.1796 85.4119 73.9173 75.6132C78.2605 70.1505 81.2737 63.6651 82.8209 56.8683L82.8214 56.8664C82.8942 56.5589 82.9257 56.2429 82.9149 55.9271Z" fill="url(#paint7_linear_101_686)"/>
<path d="M80.6585 53.4909C81.1359 53.8971 81.4904 54.4284 81.6823 55.025C81.8742 55.6217 81.8958 56.26 81.7447 56.8683C77.8315 75.5566 61.1809 91.3302 41.808 91.1127C18.5182 91.2634 0.751912 69.782 0.610831 47.066C0.117799 29.9991 9.35653 12.4522 24.8555 4.95347C27.0121 4.0995 29.1278 6.25446 28.693 8.5368C25.6834 21.3283 29.1272 35.6254 38.0452 45.2347C47.8356 56.2621 64.4595 59.8606 77.608 53.0426C78.1021 52.7997 78.6582 52.7126 79.2029 52.7927C79.7476 52.8727 80.2552 53.1162 80.6585 53.4909ZM72.8896 64.1101L74.1702 61.4572C53.1989 67.6176 32.6778 55.5215 25.045 35.5332C22.3069 28.755 21.572 21.2027 21.7993 13.8358C7.92377 24.7597 2.99025 44.1193 9.27546 60.5814C14.0728 73.6669 26.3749 83.9173 40.4269 84.4325L41.7463 84.6501C55.0181 84.74 67.1906 76.1751 72.8893 64.1101" fill="#FFF2DC"/>
<defs>
<filter id="filter0_f_101_686" x="1.9856" y="1.76248" width="87.252" height="92.3525" filterUnits="userSpaceOnUse" color-interpolation-filters="sRGB">
<feFlood flood-opacity="0" result="BackgroundImageFix"/>
<feBlend mode="normal" in="SourceGraphic" in2="BackgroundImageFix" result="shape"/>
<feGaussianBlur stdDeviation="1.5" result="effect1_foregroundBlur_101_686"/>
</filter>
<linearGradient id="paint0_linear_101_686" x1="53.9059" y1="0.670685" x2="53.9059" y2="95.2525" gradientUnits="userSpaceOnUse">
<stop stop-color="#D34A0F"/>
<stop offset="1" stop-color="#F87C56"/>
</linearGradient>
<linearGradient id="paint1_linear_101_686" x1="53.9059" y1="0.670685" x2="53.9059" y2="95.2525" gradientUnits="userSpaceOnUse">
<stop stop-color="#D34A0F"/>
<stop offset="1" stop-color="#F87C56"/>
</linearGradient>
<linearGradient id="paint2_linear_101_686" x1="53.9059" y1="0.670685" x2="53.9059" y2="95.2525" gradientUnits="userSpaceOnUse">
<stop stop-color="#D34A0F"/>
<stop offset="1" stop-color="#F87C56"/>
</linearGradient>
<linearGradient id="paint3_linear_101_686" x1="53.9059" y1="0.670685" x2="53.9059" y2="95.2525" gradientUnits="userSpaceOnUse">
<stop stop-color="#D34A0F"/>
<stop offset="1" stop-color="#F87C56"/>
</linearGradient>
<linearGradient id="paint4_linear_101_686" x1="44.7558" y1="4.76712" x2="44.7558" y2="91.1281" gradientUnits="userSpaceOnUse">
<stop stop-color="#F7A175"/>
<stop offset="1" stop-color="#FFF2DC"/>
</linearGradient>
<linearGradient id="paint5_linear_101_686" x1="44.7558" y1="4.76712" x2="44.7558" y2="91.1281" gradientUnits="userSpaceOnUse">
<stop stop-color="#F7A175"/>
<stop offset="1" stop-color="#FFF2DC"/>
</linearGradient>
<linearGradient id="paint6_linear_101_686" x1="44.7558" y1="4.76712" x2="44.7558" y2="91.1281" gradientUnits="userSpaceOnUse">
<stop stop-color="#F7A175"/>
<stop offset="1" stop-color="#FFF2DC"/>
</linearGradient>
<linearGradient id="paint7_linear_101_686" x1="44.7558" y1="4.76712" x2="44.7558" y2="91.1281" gradientUnits="userSpaceOnUse">
<stop stop-color="#F7A175"/>
<stop offset="1" stop-color="#FFF2DC"/>
</linearGradient>
</defs>
</svg>
