<svg width="94" height="70" viewBox="0 0 94 70" fill="none" xmlns="http://www.w3.org/2000/svg">
<path d="M45.3941 0.384988C57.8333 0.687516 68.4582 8.9123 73.3149 20.1473C85.964 25.0596 91.5475 39.7381 87.7425 52.334C84.8131 62.1842 76.1143 69.8967 65.5863 69.8973C67.187 69.8873 70.5777 69.9637 72.1087 69.778C74.4883 69.5286 76.8098 68.8856 78.9786 67.8752C87.9946 63.6635 93.3095 54.0226 93.2312 44.2199C93.2519 34.7611 88.3356 25.4453 79.7681 21.0988L79.7662 21.0979C79.071 20.7455 78.3585 20.4282 77.6315 20.1473C75.5048 15.2709 72.283 10.8588 68.1853 7.45567L68.1806 7.45168C64.101 4.05597 59.1491 1.68936 53.9082 0.797545C52.7402 0.596175 51.5609 0.466733 50.3771 0.409949C49.3452 0.343852 45.7255 0.385186 44.646 0.374303C44.8959 0.374603 45.1448 0.376701 45.3941 0.384988Z" fill="url(#paint0_linear_101_663)"/>
<path d="M13.6302 49.1813C13.7134 51.5875 15.1544 53.9652 17.4083 54.9108C17.9815 55.1537 18.592 55.2968 19.2134 55.3341C19.1589 55.3459 23.7401 55.3459 23.8513 55.3441C20.7483 55.364 18.2862 52.6682 17.9877 49.6819C17.7274 47.5378 18.5151 45.2656 20.1522 43.8347C20.9962 43.0804 22.0481 42.5982 23.1704 42.4508C23.82 42.3764 24.4823 42.4303 25.1225 42.2711C26.8874 41.9041 28.4198 40.7235 29.358 39.2007L29.3596 39.1979C29.9882 38.174 30.3675 37.0168 30.467 35.8195C30.5151 35.2716 30.4892 34.7193 30.5209 34.1705C30.5517 33.468 30.6193 32.7666 30.716 32.0708C31.0569 29.6553 31.8082 27.3159 32.9376 25.1537C36.0443 19.1623 42.1571 14.9314 49.0066 14.962C47.638 14.9742 44.1864 14.8998 42.8947 15.0572C41.4627 15.2086 40.0556 15.5407 38.707 16.0457C32.6685 18.2795 28.2389 23.8542 26.7836 30.0525C26.423 31.562 26.2231 33.1055 26.1872 34.6571C26.2646 36.883 25.5097 39.1168 23.8558 40.6516C22.9609 41.5056 21.8369 42.0809 20.6209 42.3077C20.0751 42.422 19.515 42.3864 18.9635 42.4375C17.1739 42.6152 15.5664 43.7389 14.6367 45.2573L14.6356 45.2592C13.9159 46.4366 13.5657 47.8028 13.6302 49.1813Z" fill="url(#paint1_linear_101_663)"/>
<path d="M73.3149 20.1473C97.3211 29.7016 92.554 68.9289 65.587 69.8975H19.4988C-2.76592 69.2823 -6.60454 36.4934 13.4074 28.9319C19.0364 -3.51584 59.2114 -10.7013 73.3149 20.1473ZM75.3637 46.2966C76.4361 40.7474 72.8737 34.4641 67.2672 33.4251C64.9037 32.9928 62.9171 31.1532 62.1217 28.6292C59.5678 20.4719 52.563 14.9804 44.6897 14.9624C34.4866 14.9624 26.2045 24.0123 26.1806 35.1334C26.1806 39.1421 23.1991 42.4064 19.5344 42.4064C11.7045 42.7516 11.6852 54.9868 19.5344 55.344H65.5793C70.3644 55.2835 74.4911 51.4771 75.3641 46.2966" fill="#F87C56"/>
<g style="mix-blend-mode:multiply" opacity="0.4" filter="url(#filter0_f_101_663)">
<path d="M81.6049 31.4203C90.8605 44.645 82.8506 65.5841 65.9103 65.8051H19.8313C16.3717 65.8051 12.97 64.5129 10.2537 62.1676C-0.084219 53.2543 3.91445 34.9133 17.0858 32.1843C20.2083 1.18594 58.6659 -6.65195 70.9246 23.4953C75.2428 24.7917 78.9434 27.5095 81.6049 31.4203ZM79.3761 47.0405C80.841 39.4375 75.9634 30.8264 68.2804 29.3991C67.2083 29.2025 66.339 28.3972 65.991 27.2939C62.9226 17.492 54.4989 10.8899 45.0315 10.8674C32.4359 10.6809 22.5237 22.6916 22.7769 35.1243C22.7769 36.8827 21.4712 38.3116 19.8672 38.3116C7.07912 38.879 7.05995 58.8586 19.8672 59.4359H65.9285C72.524 59.3531 78.1795 54.1403 79.3761 47.0405Z" fill="#D34A0F"/>
</g>
<path d="M5.83212 49.2929C5.93197 52.5877 7.54446 55.8526 10.2621 57.7597C11.7842 58.8442 13.6051 59.4299 15.474 59.4363H16.5502C13.9612 59.4523 11.4482 58.2455 9.72516 56.3337C6.02223 52.3078 5.96212 45.6889 9.5728 41.5853C11.028 39.9079 13.0645 38.7171 15.2739 38.4046C15.8523 38.2985 16.4457 38.3502 17.0256 38.2687C17.4242 38.1899 17.802 38.0285 18.1345 37.795C18.4671 37.5615 18.7471 37.261 18.9566 36.9128C18.9576 36.9112 18.9587 36.9098 18.9597 36.9082C19.2158 36.4907 19.3778 36.0224 19.4341 35.5359C19.4831 35.0223 19.4524 34.5027 19.4858 33.9883C19.556 32.3479 19.7788 30.7176 20.1511 29.1185C21.7598 22.0821 26.5412 15.6925 33.1791 12.7014L33.1812 12.7004C34.5112 12.1011 35.9003 11.6429 37.3258 11.3331H37.3268C38.7688 11.0245 40.2394 10.8684 41.7141 10.8676C39.8918 10.8355 38.0312 10.9352 36.2506 11.3331H36.2495C34.8241 11.6429 33.435 12.1011 32.105 12.7004L32.103 12.7014C29.1935 14.0148 26.6074 16.001 24.5142 18.4056C21.7058 21.6206 19.7922 25.5844 18.9329 29.761C18.6577 31.0956 18.4856 32.4495 18.4182 33.8105C18.3758 34.3847 18.4089 34.9632 18.3583 35.5364C18.302 36.0224 18.1404 36.4902 17.8846 36.9073L17.8808 36.9133C17.3757 37.7409 16.4555 38.3197 15.4745 38.3117C12.808 38.2939 10.2296 39.5759 8.49947 41.582C8.12307 42.015 7.78204 42.4775 7.47966 42.965C7.34866 43.1775 7.22469 43.3943 7.10774 43.6155C6.19508 45.3645 5.75535 47.3216 5.83212 49.2929Z" fill="url(#paint2_linear_101_663)"/>
<path d="M41.2122 4.47521C52.866 4.75967 62.5301 12.7883 66.531 23.4956C72.5969 25.2857 77.2711 30.0087 79.5456 35.8469C81.1964 40.0685 81.5425 44.7781 80.6027 49.2077C78.7223 58.2974 71.0641 65.8019 61.5168 65.8054C62.3655 65.8117 63.3372 65.8118 64.1718 65.7315C65.7623 65.5893 67.3271 65.2378 68.8256 64.6858C75.235 62.3432 79.9627 56.4408 81.5269 49.8756C82.5982 45.4686 82.3761 40.8462 80.8871 36.5622C79.0036 31.1739 74.9663 26.4597 69.6563 24.2366C69.0012 23.9571 68.2877 23.7132 67.6072 23.4953C63.5919 12.7513 53.8856 4.71834 42.1934 4.47222H42.1889C41.834 4.46313 40.9527 4.46773 40.5855 4.46673C40.7947 4.46713 41.0034 4.46842 41.2122 4.47521Z" fill="url(#paint3_linear_101_663)"/>
<path d="M77.2113 31.4203C86.4669 44.645 78.4569 65.5841 61.5166 65.8051H15.4377C11.9782 65.8051 8.57642 64.5129 5.86006 62.1676C-4.47784 53.2543 -0.479068 34.9133 12.6923 32.1843C15.8147 1.18644 54.2718 -6.65145 66.531 23.4958C70.8493 24.7917 74.5498 27.5095 77.2113 31.4203ZM74.9826 47.0405C76.4475 39.4375 71.5699 30.8264 63.8868 29.3991C62.8147 29.2025 61.9454 28.3972 61.5974 27.2939C58.529 17.492 50.1056 10.8899 40.638 10.8674C28.0424 10.6809 18.13 22.6916 18.3832 35.1243C18.3832 36.8827 17.0777 38.3116 15.4736 38.3116C2.6855 38.879 2.66633 58.8586 15.4736 59.4359H61.5348C68.1302 59.3531 73.7858 54.1403 74.9826 47.0405Z" fill="#FFF2DC"/>
<defs>
<filter id="filter0_f_101_663" x="1.39359" y="1.49588" width="87.1111" height="67.3092" filterUnits="userSpaceOnUse" color-interpolation-filters="sRGB">
<feFlood flood-opacity="0" result="BackgroundImageFix"/>
<feBlend mode="normal" in="SourceGraphic" in2="BackgroundImageFix" result="shape"/>
<feGaussianBlur stdDeviation="1.5" result="effect1_foregroundBlur_101_663"/>
</filter>
<linearGradient id="paint0_linear_101_663" x1="53.4273" y1="0.371368" x2="53.4273" y2="69.9046" gradientUnits="userSpaceOnUse">
<stop stop-color="#D34A0F"/>
<stop offset="1" stop-color="#F87C56"/>
</linearGradient>
<linearGradient id="paint1_linear_101_663" x1="53.4273" y1="0.371368" x2="53.4273" y2="69.9046" gradientUnits="userSpaceOnUse">
<stop stop-color="#D34A0F"/>
<stop offset="1" stop-color="#F87C56"/>
</linearGradient>
<linearGradient id="paint2_linear_101_663" x1="44.0089" y1="4.46643" x2="44.0089" y2="65.8079" gradientUnits="userSpaceOnUse">
<stop stop-color="#F7A175"/>
<stop offset="1" stop-color="#FFF2DC"/>
</linearGradient>
<linearGradient id="paint3_linear_101_663" x1="44.0089" y1="4.46643" x2="44.0089" y2="65.8079" gradientUnits="userSpaceOnUse">
<stop stop-color="#F7A175"/>
<stop offset="1" stop-color="#FFF2DC"/>
</linearGradient>
</defs>
</svg>
