<svg width="94" height="98" viewBox="0 0 94 98" fill="none" xmlns="http://www.w3.org/2000/svg">
<path d="M22.2413 53.446C22.274 50.4773 20.4467 47.4694 17.577 46.5003L17.5722 46.4986C17.0257 46.3116 16.4552 46.2035 15.8782 46.1777C15.784 46.1725 15.6897 46.1694 15.5951 46.1699H11.2783C14.1338 46.1433 16.6311 48.25 17.5042 50.902C17.7456 51.6113 17.8844 52.3514 17.9163 53.1C17.9213 53.2147 17.9244 53.3296 17.9244 53.446V62.6855L21.3726 64.5726H25.6895L22.2413 62.6855V53.446Z" fill="url(#paint0_linear_101_697)"/>
<path d="M28.3835 23.2704C31.0925 23.4038 33.4194 25.465 34.2506 27.9907C34.492 28.6998 34.6307 29.4398 34.6627 30.1882C34.6677 30.303 34.6708 30.4183 34.6708 30.5345V55.4093H38.9877V30.5345C38.9877 30.4183 38.9861 30.3033 38.9796 30.1884C38.9521 29.57 38.8532 28.9569 38.6848 28.3612C38.0782 26.2086 36.4601 24.3133 34.318 23.5886C33.7707 23.4014 33.1995 23.2932 32.6216 23.2675C32.5276 23.2624 32.4333 23.2592 32.3389 23.2597H28.022C28.1433 23.2593 28.263 23.2652 28.3835 23.2704Z" fill="url(#paint1_linear_101_697)"/>
<path d="M52.0715 64.5146C54.0215 63.4503 55.3232 61.4004 55.6399 59.2205C55.6997 58.826 55.7304 58.4277 55.7319 58.0288V39.7C55.731 39.0759 55.6576 38.454 55.513 37.8469C54.9785 35.5632 53.3152 33.5158 51.0676 32.7529L51.0619 32.751C50.5145 32.5638 49.9432 32.4556 49.3652 32.4298C49.2712 32.4247 49.1769 32.4216 49.0825 32.422H44.7657C48.6354 32.4202 51.4561 35.9833 51.4153 39.7V58.0288C51.4143 58.3023 51.3989 58.5746 51.3713 58.8464C51.264 59.9059 50.9389 60.9319 50.4164 61.8599C49.7939 62.9754 48.872 63.8949 47.7549 64.5146L34.6711 71.6981V82.8274H38.988V71.6981L52.0715 64.5146Z" fill="url(#paint2_linear_101_697)"/>
<path d="M55.7256 76.0388C55.6393 73.2978 53.9874 70.5805 51.4024 69.539C50.7788 69.2831 50.1171 69.1323 49.4442 69.0927C49.4876 69.0576 44.8844 69.0954 44.7658 69.0817C47.3869 69.0536 49.7651 70.8582 50.7681 73.2287C51.1252 74.0487 51.3372 74.9245 51.3948 75.817C51.4422 75.829 51.4025 82.6038 51.4147 82.8276H55.7316V76.3577C55.7318 76.2508 55.7298 76.1446 55.7256 76.0388Z" fill="url(#paint3_linear_101_697)"/>
<path d="M68.2813 89.7586C68.1876 87.0267 66.5351 84.3232 63.9593 83.2849C63.3358 83.0289 62.6743 82.8782 62.0015 82.8386C62.0574 82.8056 57.4356 82.8396 57.3232 82.8275C61.1916 82.8252 64.0139 86.3892 63.9729 90.1049C64.0161 93.8202 61.1898 97.3852 57.3232 97.3836C57.5387 97.3768 61.9975 97.4007 62.0684 97.3669C62.8129 97.3143 63.5416 97.1269 64.2191 96.8139C66.8725 95.5971 68.436 92.6284 68.2813 89.7586Z" fill="url(#paint4_linear_101_697)"/>
<path d="M69.7719 27.838C69.8089 27.8388 69.8459 27.8393 69.8831 27.8393H74.2C70.7674 27.8448 68.2492 24.6683 68.2892 21.3711C68.2475 18.0747 70.7691 14.8963 74.2 14.9012C73.4492 14.9292 69.5708 14.8222 68.9174 14.989C67.2806 15.2758 65.8472 16.3509 64.9848 17.7547C62.8463 21.1614 64.206 26.1769 68.1199 27.545L68.1248 27.5466C68.6557 27.7275 69.2112 27.8258 69.7719 27.838Z" fill="url(#paint5_linear_101_697)"/>
<path d="M93.4059 21.3711C93.4526 13.3716 89.048 5.42843 81.6842 2.00985C79.9122 1.18452 78.0164 0.656465 76.0729 0.446811C74.7431 0.27428 71.2555 0.371712 69.8835 0.347649C76.0445 0.313203 81.7792 3.68355 85.2141 8.7222C87.7674 12.4086 89.0954 16.8947 89.0894 21.3712C89.0957 25.7936 87.7992 30.2252 85.3063 33.8866C81.87 39.003 76.1127 42.4271 69.8835 42.3959C71.2769 42.3772 74.7408 42.4638 76.0621 42.2967C78.0434 42.0861 79.975 41.5429 81.7757 40.6899C89.0864 37.2504 93.4532 29.3327 93.4059 21.3711Z" fill="url(#paint6_linear_101_697)"/>
<path d="M57.3232 82.8274C60.99 82.8274 63.9729 86.091 63.9729 90.1049C63.9729 94.1189 60.9903 97.3836 57.3232 97.3836H7.0915C3.42411 97.3836 0.441895 94.1195 0.441895 90.1049C0.441895 86.0904 3.42431 82.8274 7.0915 82.8274H21.3725V80.8631L8.28914 73.6796C6.03795 72.4377 4.63582 69.9546 4.62873 67.2015V53.446C4.62873 49.4345 7.61069 46.1698 11.2784 46.1698C14.9427 46.1698 17.9245 49.4347 17.9245 53.446V62.6854L21.3728 64.5725V30.5344C21.7374 20.8857 34.3054 20.8822 34.6709 30.5344V55.4093L38.117 53.5222V39.7C38.4798 30.049 51.0494 30.042 51.4152 39.7V58.0287C51.4076 60.7925 50.0053 63.2744 47.7548 64.5145L34.6709 71.698V82.8273H38.117V76.3574C38.117 72.3448 41.0984 69.0813 44.7658 69.0813C48.4332 69.0813 51.4155 72.3448 51.4155 76.3574V82.8273L57.3232 82.8274Z" fill="#F87C56"/>
<path d="M69.883 0.347839C80.4734 0.347839 89.0888 9.77935 89.0888 21.3713C88.0305 49.2642 51.7318 49.257 50.6771 21.3713C50.6771 9.77915 59.2921 0.347839 69.883 0.347839ZM69.883 27.8393C73.1413 27.8393 75.7908 24.9379 75.7908 21.3713C75.465 12.7868 64.2987 12.7917 63.9726 21.3713C63.9726 24.9378 66.6247 27.8392 69.8834 27.8392" fill="#F87C56"/>
<g style="mix-blend-mode:multiply" opacity="0.4" filter="url(#filter0_f_101_697)">
<path d="M57.6463 86.9211C61.4903 87.0871 61.5186 93.1109 57.6463 93.2904H7.41272C3.56661 93.1237 3.54465 87.0992 7.41272 86.9211H25.4346V78.3371L10.2882 70.0233C9.30745 69.482 8.69421 68.3958 8.69071 67.1901V53.4476C8.69071 51.6915 9.9961 50.2626 11.6 50.2626C13.2039 50.2626 14.5085 51.6911 14.5085 53.4476V65.2174L25.4349 71.198V30.5368C25.4349 28.7796 26.7404 27.3517 28.3443 27.3517C29.9482 27.3517 31.2536 28.7796 31.2536 30.5368V62.0327L42.1801 56.0521V39.7007C42.1801 37.9451 43.4842 36.5157 45.0885 36.5157C46.6928 36.5157 47.9979 37.9447 47.9979 39.7007V58.0306C47.9943 59.2307 47.3811 60.3176 46.3976 60.8603L31.2536 69.1731V86.9211H42.1801V76.3594C42.1801 74.6038 43.4842 73.1744 45.0885 73.1744C46.6928 73.1744 47.9979 74.6034 47.9979 76.3594V86.9217L57.6463 86.9211Z" fill="#D34A0F"/>
<path d="M70.2043 4.44077C78.7336 4.44077 85.6721 12.0364 85.6721 21.3718C84.8191 43.8339 55.5877 43.8291 54.7375 21.3718C54.7375 12.0364 61.676 4.44077 70.2043 4.44077ZM70.2043 31.9341C75.526 31.9341 79.8543 27.1959 79.8543 21.3718C79.3226 7.36064 61.086 7.36273 60.5556 21.3718C60.5556 27.1958 64.8842 31.9341 70.2043 31.9341Z" fill="#D34A0F"/>
</g>
<path d="M11.1903 53.4477C11.2044 52.1479 10.4052 50.8327 9.14978 50.4077L9.14807 50.4072C8.63627 50.2019 7.75024 50.2744 7.20569 50.263C8.51365 50.2486 9.6483 51.2667 9.98198 52.4979C10.0691 52.807 10.1135 53.1265 10.114 53.4477V65.2174L21.0406 71.1981H22.1168L11.1903 65.2174V53.4477Z" fill="url(#paint7_linear_101_697)"/>
<path d="M24.2172 27.3658C25.4159 27.475 26.4059 28.4374 26.7233 29.5731C26.8134 29.8863 26.8593 30.2106 26.8597 30.5364V62.0328H27.9358V30.5368C27.9353 30.2158 27.8909 29.8963 27.8038 29.5873L27.8032 29.585C27.5971 28.8171 27.1032 28.1579 26.4241 27.7443C26.0861 27.5405 25.7081 27.4121 25.3159 27.368C25.1155 27.3397 24.1685 27.3563 23.9506 27.3522C24.0393 27.3537 24.129 27.3573 24.2172 27.3658Z" fill="url(#paint8_linear_101_697)"/>
<path d="M43.0796 60.8603C43.9083 60.406 44.4682 59.5467 44.6277 58.6231C44.6603 58.4272 44.6777 58.2292 44.6799 58.0306V39.7008C44.6794 39.3799 44.635 39.0606 44.5478 38.7518C44.3968 38.2192 44.1126 37.7338 43.7222 37.3414C43.5536 37.1746 43.366 37.0283 43.1631 36.9054C42.9968 36.8065 42.821 36.7246 42.6384 36.6607H42.6369C42.1251 36.4554 41.2391 36.528 40.6946 36.5165C42.3662 36.5015 43.6358 38.0955 43.6039 39.7016C43.5959 40.1245 43.6172 57.732 43.598 58.2028C43.5717 58.7482 43.4133 59.2791 43.1364 59.7498C42.8976 60.1575 42.5667 60.5037 42.1704 60.761C42.116 60.7959 42.0606 60.8297 42.0037 60.8608L26.8597 69.1737V86.9217H27.9358V69.1732L43.0796 60.8603Z" fill="url(#paint9_linear_101_697)"/>
<path d="M44.6771 76.2197C44.6488 75.3861 44.3079 74.5936 43.7223 73.9997C43.4164 73.6946 43.0459 73.462 42.6382 73.3191L42.6366 73.3186C42.4476 73.2549 42.2523 73.2115 42.0541 73.1894C41.8615 73.163 40.9059 73.1781 40.6944 73.1744C42.0024 73.1601 43.1375 74.1787 43.4716 75.4099C43.5587 75.7188 43.6032 76.0381 43.6037 76.3591V86.9213H44.6799V76.3595C44.6799 76.3125 44.679 76.2659 44.6771 76.2197Z" fill="url(#paint10_linear_101_697)"/>
<path d="M57.2348 89.9544C57.2227 89.6838 57.1794 89.4154 57.1058 89.1547C56.954 88.6216 56.669 88.1359 56.2776 87.7434C55.9722 87.4399 55.6029 87.2084 55.1966 87.0659L55.1951 87.0654C54.6832 86.8602 53.7973 86.9327 53.2528 86.9212C54.9241 86.9056 56.1942 88.5008 56.1621 90.1063C56.1944 91.7108 54.924 93.3074 53.2528 93.2908C53.5124 93.285 54.4243 93.3085 54.6639 93.2691C55.5231 93.1667 56.2883 92.6208 56.7372 91.8913L56.7393 91.8882C57.0938 91.3075 57.2664 90.634 57.2348 89.9544Z" fill="url(#paint11_linear_101_697)"/>
<path d="M65.2723 31.9173C65.6339 31.9445 66.5129 31.9311 66.887 31.934C61.2585 31.9262 57.1868 26.7789 57.2383 21.3718C57.1861 15.9657 61.2605 10.8172 66.887 10.8101C66.1627 10.8133 65.2421 10.785 64.5348 10.9026C62.3268 11.2151 60.292 12.4042 58.837 14.0802C58.8361 14.0811 58.8354 14.0822 58.8345 14.083C58.459 14.5152 58.1188 14.9767 57.8171 15.4632C57.6873 15.6745 57.5641 15.8907 57.4476 16.1099C57.4469 16.1111 57.4463 16.1125 57.4457 16.1136C56.9086 17.1386 56.5337 18.2407 56.3347 19.3806C55.8847 21.9255 56.3122 24.5479 57.5472 26.8181C59.0782 29.6467 62.0193 31.7469 65.2723 31.9173Z" fill="url(#paint12_linear_101_697)"/>
<path d="M82.3547 21.3718C82.4066 14.0204 77.7536 6.80212 70.4668 4.89948C69.5329 4.6558 68.5763 4.50855 67.6123 4.46013C67.1189 4.42688 66.3059 4.44626 65.8108 4.44097C74.8645 4.47761 81.3398 12.673 81.2785 21.372C81.3384 30.0741 74.8654 38.2657 65.8108 38.3035C67.3676 38.3345 68.9705 38.2584 70.4751 37.8426C77.7581 35.9367 82.4065 28.7189 82.3547 21.3718Z" fill="url(#paint13_linear_101_697)"/>
<path d="M53.2528 86.9211C57.0968 87.0871 57.125 93.1109 53.2528 93.2904H3.01907C-0.82694 93.1237 -0.849005 87.0992 3.01907 86.9211H21.041V78.3371L5.89457 70.0233C4.9138 69.482 4.30065 68.3958 4.29706 67.1901V53.4476C4.29706 51.6915 5.60244 50.2626 7.20634 50.2626C8.81024 50.2626 10.1147 51.6911 10.1147 53.4476V65.2174L21.0413 71.198V30.5368C21.0413 28.7796 22.3467 27.3517 23.9505 27.3517C25.5543 27.3517 26.8599 28.7796 26.8599 30.5368V62.0327L37.7864 56.0521V39.7007C37.7864 37.9451 39.0904 36.5157 40.6948 36.5157C42.2992 36.5157 43.6041 37.9447 43.6041 39.7007V58.0306C43.6005 59.2307 42.9874 60.3176 42.0039 60.8603L26.8599 69.1731V86.9211H37.7864V76.3594C37.7864 74.6038 39.0904 73.1744 40.6948 73.1744C42.2992 73.1744 43.6041 74.6034 43.6041 76.3594V86.9217L53.2528 86.9211Z" fill="#FFF2DC"/>
<path d="M65.8107 4.44077C74.34 4.44077 81.2785 12.0364 81.2785 21.3718C80.4256 43.8339 51.1942 43.8291 50.3438 21.3718C50.3439 12.0364 57.2824 4.44077 65.8107 4.44077ZM65.8107 31.9341C71.1324 31.9341 75.4607 27.1959 75.4607 21.3718C74.9289 7.36064 56.6924 7.36273 56.1621 21.3718C56.1621 27.1958 60.4906 31.9341 65.8107 31.9341Z" fill="#FFF2DC"/>
<defs>
<filter id="filter0_f_101_697" x="1.5199" y="1.44077" width="87.1522" height="94.8496" filterUnits="userSpaceOnUse" color-interpolation-filters="sRGB">
<feFlood flood-opacity="0" result="BackgroundImageFix"/>
<feBlend mode="normal" in="SourceGraphic" in2="BackgroundImageFix" result="shape"/>
<feGaussianBlur stdDeviation="1.5" result="effect1_foregroundBlur_101_697"/>
</filter>
<linearGradient id="paint0_linear_101_697" x1="52.3423" y1="0.341553" x2="52.3423" y2="97.3855" gradientUnits="userSpaceOnUse">
<stop stop-color="#D34A0F"/>
<stop offset="1" stop-color="#F87C56"/>
</linearGradient>
<linearGradient id="paint1_linear_101_697" x1="52.3423" y1="0.341553" x2="52.3423" y2="97.3855" gradientUnits="userSpaceOnUse">
<stop stop-color="#D34A0F"/>
<stop offset="1" stop-color="#F87C56"/>
</linearGradient>
<linearGradient id="paint2_linear_101_697" x1="52.3423" y1="0.341553" x2="52.3423" y2="97.3855" gradientUnits="userSpaceOnUse">
<stop stop-color="#D34A0F"/>
<stop offset="1" stop-color="#F87C56"/>
</linearGradient>
<linearGradient id="paint3_linear_101_697" x1="52.3423" y1="0.341553" x2="52.3423" y2="97.3855" gradientUnits="userSpaceOnUse">
<stop stop-color="#D34A0F"/>
<stop offset="1" stop-color="#F87C56"/>
</linearGradient>
<linearGradient id="paint4_linear_101_697" x1="52.3423" y1="0.341553" x2="52.3423" y2="97.3855" gradientUnits="userSpaceOnUse">
<stop stop-color="#D34A0F"/>
<stop offset="1" stop-color="#F87C56"/>
</linearGradient>
<linearGradient id="paint5_linear_101_697" x1="52.3423" y1="0.341553" x2="52.3423" y2="97.3855" gradientUnits="userSpaceOnUse">
<stop stop-color="#D34A0F"/>
<stop offset="1" stop-color="#F87C56"/>
</linearGradient>
<linearGradient id="paint6_linear_101_697" x1="52.3423" y1="0.341553" x2="52.3423" y2="97.3855" gradientUnits="userSpaceOnUse">
<stop stop-color="#D34A0F"/>
<stop offset="1" stop-color="#F87C56"/>
</linearGradient>
<linearGradient id="paint7_linear_101_697" x1="44.7804" y1="4.44006" x2="44.7804" y2="93.2925" gradientUnits="userSpaceOnUse">
<stop stop-color="#F7A175"/>
<stop offset="1" stop-color="#FFF2DC"/>
</linearGradient>
<linearGradient id="paint8_linear_101_697" x1="44.7804" y1="4.44006" x2="44.7804" y2="93.2925" gradientUnits="userSpaceOnUse">
<stop stop-color="#F7A175"/>
<stop offset="1" stop-color="#FFF2DC"/>
</linearGradient>
<linearGradient id="paint9_linear_101_697" x1="44.7804" y1="4.44006" x2="44.7804" y2="93.2925" gradientUnits="userSpaceOnUse">
<stop stop-color="#F7A175"/>
<stop offset="1" stop-color="#FFF2DC"/>
</linearGradient>
<linearGradient id="paint10_linear_101_697" x1="44.7804" y1="4.44006" x2="44.7804" y2="93.2925" gradientUnits="userSpaceOnUse">
<stop stop-color="#F7A175"/>
<stop offset="1" stop-color="#FFF2DC"/>
</linearGradient>
<linearGradient id="paint11_linear_101_697" x1="44.7804" y1="4.44006" x2="44.7804" y2="93.2925" gradientUnits="userSpaceOnUse">
<stop stop-color="#F7A175"/>
<stop offset="1" stop-color="#FFF2DC"/>
</linearGradient>
<linearGradient id="paint12_linear_101_697" x1="44.7804" y1="4.44006" x2="44.7804" y2="93.2925" gradientUnits="userSpaceOnUse">
<stop stop-color="#F7A175"/>
<stop offset="1" stop-color="#FFF2DC"/>
</linearGradient>
<linearGradient id="paint13_linear_101_697" x1="44.7804" y1="4.44006" x2="44.7804" y2="93.2925" gradientUnits="userSpaceOnUse">
<stop stop-color="#F7A175"/>
<stop offset="1" stop-color="#FFF2DC"/>
</linearGradient>
</defs>
</svg>
