<svg width="95" height="90" viewBox="0 0 95 90" fill="none" xmlns="http://www.w3.org/2000/svg">
<path d="M37.1399 86.5537C36.5751 87.3279 35.8547 87.9755 35.025 88.4551C34.086 88.9961 33.0223 89.2829 31.9387 89.2874C32.5842 89.2674 36.5603 89.3436 37.1048 89.2268C37.8924 89.1134 38.6514 88.8515 39.3414 88.4552L39.3421 88.4546C40.189 87.9646 40.922 87.3001 41.4926 86.5052H37.1757C37.164 86.5216 37.1518 86.5376 37.1399 86.5537Z" fill="url(#paint0_linear_101_691)"/>
<path d="M41.212 57.2729C41.0586 57.0887 40.8979 56.9114 40.728 56.7431L40.7249 56.7403C40.5851 56.6031 40.4404 56.472 40.2907 56.3469L40.2891 56.3456C39.7966 55.9365 39.2474 55.601 38.6586 55.3495L38.6569 55.3488C38.0189 55.0785 37.3402 54.9168 36.6489 54.8703C36.7288 54.8555 32.0441 54.8545 31.9383 54.8574C34.0082 54.8451 35.9864 55.9644 37.1758 57.6369H41.4927C41.4029 57.5115 41.3083 57.3916 41.212 57.2729Z" fill="url(#paint1_linear_101_691)"/>
<path d="M29.3202 48.5312C29.5513 41.8353 34.0683 35.4392 40.7614 33.9512L40.7648 33.9504C41.7123 33.7407 42.6798 33.6345 43.6503 33.6336C43.1503 33.6398 39.0192 33.6165 38.6343 33.6523C37.8987 33.6915 37.1676 33.7912 36.4483 33.9504L36.4451 33.9512C31.9707 34.9277 28.25 38.2955 26.4238 42.4447C26.2197 42.9046 26.0361 43.3731 25.873 43.8501L25.8721 43.8528C25.4188 45.1965 25.137 46.5921 25.0335 48.0064C24.9758 48.663 25.0112 49.3268 24.9478 49.9833C24.8352 51.1421 24.4599 52.2601 23.8504 53.2522C22.8791 54.8308 21.2666 56.0391 19.4254 56.3616C18.8264 56.4941 18.2061 56.4108 17.6083 56.5379C16.5946 56.7486 15.7154 57.4265 15.1764 58.3007L15.1758 58.3016C14.3321 59.6595 14.299 61.4812 15.119 62.8578C15.3511 63.2474 15.6488 63.594 15.9988 63.8823C18.7025 65.8509 19.6086 69.7175 18.3792 72.7752C17.4233 75.2784 15.0005 77.2061 12.267 77.181C12.5166 77.1791 16.9104 77.1952 17.0268 77.1633C17.7429 77.1115 18.4444 76.9349 19.0998 76.6416C21.7775 75.4558 23.3677 72.4801 23.2298 69.6031C23.1588 67.41 22.1286 65.236 20.3594 63.912L20.3583 63.9111C20.3421 63.8998 20.3277 63.89 20.3157 63.8825C18.6904 62.5702 18.3986 60.0406 19.4926 58.3019C20.0503 57.3961 20.9747 56.702 22.0316 56.5172C22.5974 56.421 23.179 56.486 23.7423 56.3617C25.5833 56.0393 27.1963 54.8314 28.1673 53.2529V53.2524C28.7246 52.346 29.0866 51.3333 29.2301 50.2789C29.317 49.701 29.2956 49.1134 29.3202 48.5312Z" fill="url(#paint2_linear_101_691)"/>
<path d="M46.1681 19.1354C44.46 18.9176 40.9756 19.0148 39.2176 18.9957C40.2734 18.9963 41.3281 19.0637 42.3754 19.1974H46.6923C46.5179 19.1745 46.3429 19.1554 46.1681 19.1354Z" fill="url(#paint3_linear_101_691)"/>
<path d="M56.091 9.13623C55.9499 9.01582 55.8009 8.90388 55.6507 8.79535C54.8448 8.22248 53.916 7.84599 52.9387 7.6959C52.3641 7.56799 48.3884 7.65088 47.7254 7.62881C49.335 7.64333 50.8792 8.26774 52.0464 9.37609L53.2416 10.6585H57.5584L56.3633 9.37609C56.2749 9.29332 56.1833 9.21391 56.091 9.13623Z" fill="url(#paint4_linear_101_691)"/>
<path d="M58.5978 71.7651C58.5139 69.3503 57.2399 66.9655 55.1492 65.7121L55.148 65.7114C54.8914 65.5581 54.6248 65.4221 54.3499 65.3046L54.3483 65.3038C53.8844 65.1082 53.3984 64.9696 52.9011 64.8911C53.5368 63.1525 53.5467 61.2467 52.9291 59.5016C52.1066 57.1031 49.9411 55.1467 47.3761 54.8922L47.3726 54.8917C47.078 54.826 42.8284 54.8689 42.4134 54.8575C45.2398 54.8385 47.7115 56.8779 48.6105 59.4971C49.2296 61.2434 49.2203 63.1509 48.5842 64.8911C49.0817 64.9699 49.5678 65.1085 50.032 65.304L50.0332 65.3045C50.3119 65.4238 50.5821 65.562 50.8419 65.7182C51.8851 66.3601 52.7432 67.2625 53.3316 68.3367C53.9067 69.3957 54.2313 70.5724 54.2805 71.7764C54.3298 72.9804 54.1023 74.1797 53.6156 75.2821C53.6149 75.2837 53.6141 75.2853 53.6133 75.2869C52.7159 77.3256 50.8258 78.9555 48.5963 79.2978C49.5831 81.9987 48.9858 85.2496 46.9589 87.3203C45.7822 88.5405 44.0915 89.2993 42.4129 89.2873H46.7297C48.4083 89.2989 50.0993 88.5402 51.2758 87.3203L51.2765 87.3196C53.3026 85.2491 53.8997 81.9979 52.9129 79.2978C54.4057 79.0645 55.7746 78.2536 56.7617 77.1186C57.2401 76.5674 57.6346 75.9485 57.9323 75.282V75.2812C58.4216 74.1759 58.6493 72.9727 58.5978 71.7651Z" fill="url(#paint5_linear_101_691)"/>
<path d="M61.8982 23.1574C60.0611 23.244 58.2991 24.0876 57.0222 25.4022C56.8888 25.5535 56.7644 25.7086 56.6445 25.8727C59.7765 28.5853 62.2925 31.9833 64.0553 35.7288C65.0042 36.1222 65.9204 36.5903 66.7952 37.1288H71.1121C70.2374 36.5903 69.3212 36.1221 68.3723 35.7288C66.6094 31.9836 64.0937 28.585 60.9614 25.8727C61.0806 25.7089 61.2069 25.5532 61.339 25.4022C62.6969 24.0023 64.6079 23.1407 66.5662 23.1484H62.2493C62.1319 23.1484 62.0149 23.1517 61.8982 23.1574Z" fill="url(#paint6_linear_101_691)"/>
<path d="M73.2506 7.62339C73.1649 4.76175 71.3552 1.92845 68.5917 0.994604L68.5863 0.992898C68.0393 0.805608 67.4683 0.697469 66.8906 0.671719C66.7966 0.666527 66.7021 0.663521 66.6077 0.663821H62.2908C65.1471 0.637362 67.6462 2.74351 68.5195 5.39707C68.7411 6.04448 68.8757 6.71845 68.9197 7.40132C68.9581 7.8001 68.9332 9.15592 68.9396 9.57167C69.7679 9.88133 70.5753 10.2444 71.3565 10.6586H75.6734C74.8923 10.2439 74.085 9.88083 73.2565 9.57167C73.2546 9.33384 73.2627 7.82597 73.2506 7.62339Z" fill="url(#paint7_linear_101_691)"/>
<path d="M94.1788 30.37C94.0852 27.5184 92.2761 24.7001 89.5229 23.7696L89.5173 23.7677C88.9949 23.5895 88.4508 23.4826 87.8998 23.45C87.6544 23.43 86.2797 23.4418 86.008 23.4388C85.7393 22.5844 85.4226 21.7458 85.0595 20.927L86.2277 19.6404C87.0933 18.5231 87.6311 17.1872 87.7811 15.7819C88.0857 13.1407 86.9823 10.3326 84.7798 8.79017C83.9722 8.21725 83.0415 7.84176 82.0624 7.69388C81.5082 7.57068 77.5073 7.65026 76.8616 7.62919C77.1574 7.63065 77.4527 7.65227 77.7455 7.69388C83.2209 8.59528 85.1959 15.4685 81.9108 19.6408L80.7427 20.9274C81.1181 21.7729 81.444 22.6395 81.7188 23.5228H84.2239C87.0807 23.9742 89.2715 26.5096 89.7428 29.2999C90.3802 32.6217 88.6718 36.3331 85.4396 37.5778C84.8669 37.8011 84.2637 37.9362 83.6506 37.9787C83.3292 38.0166 82.0669 37.9855 81.7291 37.9955C81.4524 38.8814 81.1248 39.7507 80.748 40.5989C81.0937 40.9823 81.8209 41.76 82.1357 42.1451C82.7876 42.9598 83.2552 43.9062 83.5062 44.919C84.6227 49.1887 81.8309 54.0695 77.1775 54.1703C77.2198 54.5869 77.2531 55.0044 77.2773 55.4228C77.8231 64.4121 73.2286 73.5586 64.9515 77.4984C64.1277 77.9176 63.2164 78.1357 62.2921 78.1347H66.6089C67.5332 78.1357 68.4445 77.9176 69.2683 77.4984C72.9176 75.7648 75.9843 72.903 78.0991 69.4719C78.1001 69.4704 78.1009 69.4687 78.1019 69.4672C78.3783 69.0184 78.6396 68.5608 78.8859 68.0946L78.8869 68.0927C81.1271 63.8504 81.9986 58.9328 81.4943 54.1705C86.1494 54.0691 88.9395 49.1883 87.8231 44.9193C87.5682 43.8922 87.091 42.9337 86.4252 42.1112C86.1226 41.7417 85.388 40.9614 85.065 40.5992C85.4419 39.751 85.7695 38.8817 86.0461 37.9957C86.3897 37.993 87.6542 38.0086 87.9675 37.979C88.5806 37.9365 89.1837 37.8014 89.7563 37.5782C92.614 36.4842 94.3445 33.3677 94.1788 30.37Z" fill="url(#paint8_linear_101_691)"/>
<path d="M48.5838 64.891C56.141 66.2532 56.142 77.9206 48.5961 79.2977C50.3017 83.7415 47.2825 89.3 42.4128 89.2875C40.3599 89.2875 38.429 88.2421 37.1758 86.5054C35.923 88.2421 33.9923 89.2876 31.9383 89.2876C27.0681 89.3028 24.0378 83.7219 25.7512 79.295C18.2013 77.9115 18.2153 66.2519 25.7683 64.891C24.021 60.4494 27.0493 54.8384 31.9387 54.8574C33.9926 54.8574 35.9233 55.9001 37.1761 57.6369C38.4334 55.8969 40.3627 54.8574 42.4132 54.8574C47.3024 54.839 50.3284 60.4605 48.5838 64.891Z" fill="#F87C56"/>
<path d="M83.2213 37.995H81.7285C81.4535 38.8816 81.1259 39.751 80.7473 40.5985L81.6585 41.5985C85.822 45.7321 83.4157 54.0152 77.1762 54.1698C78.2845 63.8173 73.2688 73.6245 64.9503 77.4978C59.1357 80.2102 53.9863 73.779 56.0962 68.1605C56.7529 66.3525 58.0127 64.9336 59.6431 64.165C61.9418 63.0857 63.558 60.8302 63.9647 58.129C64.666 54.1101 62.0211 49.6261 57.957 48.9553C55.5451 48.5105 53.5595 46.6713 52.7632 44.1514C47.1299 27.5081 25.2813 31.8871 24.9865 49.1956C24.9865 53.1962 22.0041 56.4608 18.3369 56.4608C16.2331 56.4608 14.5208 58.3341 14.5208 60.637C14.5163 61.9194 15.0665 63.1283 15.9974 63.8828C19.2671 66.2116 19.8581 71.4284 17.3734 74.5618C15.1378 77.6087 10.7518 78.0711 8.01158 75.4918C-2.61856 66.9762 -0.315464 48.0985 12.2434 42.9171C15.0958 27.8406 28.0054 17.3888 42.375 19.1973C39.2655 14.6494 42.0619 7.67333 47.7251 7.6288C49.3352 7.64038 50.8804 8.26522 52.046 9.37608L53.2411 10.6584C54.0152 10.2392 54.8184 9.87602 55.6443 9.57148V7.94291C55.6443 3.92917 58.6256 0.664215 62.2904 0.664215C65.9571 0.664215 68.9401 3.92917 68.9401 7.94291V9.57226C69.7695 9.87919 70.5769 10.2423 71.3568 10.6591L72.3978 9.51931C74.9424 7.03568 78.6752 7.02085 81.1847 9.38018C83.9682 11.8816 84.2755 16.7468 81.9104 19.6408L80.7422 20.9275C81.1176 21.773 81.4436 22.6396 81.7184 23.5229L83.2212 23.4392C92.0432 23.834 92.0357 37.6029 83.2213 37.995ZM67.4869 36.4757C70.2139 33.3758 70.1804 28.3975 67.4057 25.3261C64.6379 22.4254 59.8044 22.439 57.0218 25.4022C56.8881 25.5526 56.762 25.7097 56.6441 25.8728C59.7749 28.6052 62.2993 31.9625 64.0549 35.7288C65.0044 36.121 65.9207 36.5892 66.7948 37.1288C67.0431 36.9307 67.2744 36.7122 67.4865 36.4757" fill="#F87C56"/>
<g style="mix-blend-mode:multiply" opacity="0.4" filter="url(#filter0_f_101_691)">
<path d="M47.9627 68.9098C51.822 69.0838 51.8205 75.1058 47.9627 75.2788H42.5012L45.2687 80.4036C46.0667 81.933 45.5828 83.8882 44.1869 84.7668C42.8029 85.6647 40.951 85.0763 40.1955 83.587L37.4981 78.4578L34.8005 83.5861C34.0436 85.0763 32.1928 85.6649 30.808 84.7668C29.4129 83.8888 28.9282 81.9326 29.727 80.4036L32.4937 75.2788H27.0322C25.4284 75.2788 24.124 73.8501 24.124 72.0945C24.124 70.3389 25.4284 68.9095 27.0322 68.9095H32.4767L29.7264 63.7386C28.9268 62.215 29.4106 60.2548 30.8083 59.3764C32.1923 58.4778 34.044 59.0669 34.7999 60.5562L37.4983 65.7624L40.1998 60.549C40.9501 59.0682 42.8076 58.4776 44.1871 59.3764C45.5849 60.255 46.0685 62.215 45.2654 63.7453L42.5183 68.9095L47.9627 68.9098Z" fill="#D34A0F"/>
</g>
<g style="mix-blend-mode:multiply" opacity="0.4" filter="url(#filter1_f_101_691)">
<path d="M84.3913 27.6691C87.5175 28.7674 86.9314 33.8043 83.544 33.9011H79.1818C78.7633 36.1476 78.0655 38.3804 76.9334 40.3368L76.4005 41.2775L79.4792 44.6476C81.2248 46.5163 80.105 50.0562 77.4152 50.0759C77.0271 50.0742 76.6437 49.9911 76.2896 49.8322C75.9356 49.6733 75.6188 49.442 75.3595 49.1531L74.8196 48.5608L72.7287 50.0634C76.0727 58.8179 72.0681 70 63.7785 73.7449C63.4213 73.9364 63.0229 74.0383 62.6176 74.0417C59.3327 73.9624 58.6599 69.247 61.4454 67.9248C64.9184 66.2929 67.3599 62.8793 67.9758 58.7951C69.0382 52.7145 65.0352 45.9284 58.8864 44.9172C57.838 44.7247 56.9693 43.9196 56.6209 42.8159C52.5572 29.3969 36.2208 24.9151 26.8773 35.2844C23.4763 38.9901 21.5906 43.9232 21.5685 49.1764C21.5685 50.9387 20.2642 52.3675 18.66 52.3675C11.354 52.4182 8.4271 62.5766 14.0891 67.1681C15.6315 68.1721 15.9503 70.5129 14.8253 71.9415C13.8543 73.272 11.9206 73.4757 10.7282 72.3493C1.56777 65.0083 4.50603 48.9172 15.8602 46.0674C17.4262 30.7612 31.8826 19.0948 46.8736 24.3573C47.365 23.338 47.8321 22.1301 48.3214 21.1376L48.7959 20.2135L45.8052 16.9393C44.2848 15.0198 45.4804 11.7348 48.0458 11.7209C48.7363 11.7255 49.3998 11.9888 49.9056 12.4588L52.9761 15.7603C54.7103 14.4979 56.6488 13.4615 58.7108 12.971L59.7041 12.7229V7.94289C59.7041 6.18692 61.0095 4.75781 62.6137 4.75781C64.2179 4.75781 65.5222 6.18663 65.5222 7.94289V12.7215L66.5129 12.9711C68.5896 13.4704 70.5477 14.5036 72.3059 15.7596L75.3244 12.4553C75.8308 11.9875 76.4937 11.7256 77.1831 11.7211C79.7414 11.7316 80.9333 15.0167 79.4217 16.9395L76.4022 20.2443L76.9302 21.184C78.0632 23.1566 78.7617 25.4075 79.1787 27.669L84.3913 27.6691ZM70.3645 39.4677C74.6422 35.0027 74.6125 26.9396 70.3874 22.4477C66.1501 17.961 59.0234 17.9552 54.7941 22.4078C53.822 23.4896 53.0632 24.7454 52.5577 26.1092L52.1622 27.1698C56.3912 30.0272 59.7189 34.1413 61.6952 39.058C63.3617 39.5828 64.9311 40.3769 66.341 41.409L66.9176 41.8322C68.2065 41.2751 69.3959 40.5342 70.3649 39.4677" fill="#D34A0F"/>
</g>
<path d="M31.3962 60.4031C31.2169 60.1019 30.9881 59.833 30.7196 59.6076C30.2955 59.2518 29.7764 59.0283 29.2265 58.9646C29.0295 58.939 28.0817 58.9528 27.8676 58.9497C28.3226 58.9576 28.7692 59.0736 29.1705 59.2882C29.5718 59.5027 29.9164 59.8095 30.1758 60.1834C30.2609 60.3024 30.3378 60.427 30.406 60.5564L33.1043 65.7627H34.1805L31.4822 60.5564C31.4547 60.5043 31.426 60.4532 31.3962 60.4031Z" fill="url(#paint9_linear_101_691)"/>
<path d="M30.4068 83.5857C30.2168 83.9457 29.96 84.2662 29.6501 84.5301L29.6491 84.5309C29.5489 84.6141 29.4436 84.691 29.3339 84.7612L29.333 84.7618C29.2238 84.8302 29.1104 84.8917 28.9935 84.946H28.9927C28.8757 84.9986 28.7555 85.0437 28.6328 85.081H28.6321C28.5087 85.1169 28.383 85.1446 28.256 85.164C28.1276 85.1821 27.998 85.1916 27.8683 85.1924C28.1579 85.1858 29.0598 85.2134 29.3323 85.164C29.4593 85.1446 29.5849 85.1168 29.7083 85.0808C29.8311 85.0435 29.9514 84.9985 30.0685 84.9459H30.0693C30.1862 84.8916 30.2996 84.8301 30.4088 84.7617L30.4097 84.7611C30.5194 84.6909 30.6247 84.614 30.7249 84.5308L30.7258 84.53C31.0354 84.2667 31.2918 83.9467 31.4814 83.5872L31.4825 83.5856L34.18 78.4572H33.1037L30.4068 83.5857Z" fill="url(#paint10_linear_101_691)"/>
<path d="M34.6307 29.6263C35.2036 29.569 35.7783 29.5401 36.3548 29.5394C35.5445 29.535 34.6035 29.5294 33.8087 29.6029C32.2506 29.7343 30.7186 30.0828 29.257 30.6384C23.2278 32.9087 18.8875 38.6139 17.6263 44.8527C17.3933 45.9795 17.2503 47.1229 17.1986 48.2723C17.163 48.7796 17.2095 49.294 17.1202 49.7966C17.0488 50.2152 16.8954 50.6155 16.6686 50.9745C16.4417 51.3336 16.1461 51.6441 15.7987 51.8884C15.4418 52.1339 15.0315 52.2907 14.6018 52.3458C14.0781 52.3857 13.5492 52.3709 13.0322 52.4798C10.9411 52.8456 9.10905 54.2184 8.00637 56.0113C6.94588 57.7537 6.51514 59.8072 6.7862 61.8289V61.8302C7.05768 63.8845 8.07924 65.8555 9.69612 67.1682C9.7695 67.2213 9.83929 67.2731 9.90868 67.3279L9.90985 67.3288C10.2725 67.6271 10.5668 67.9999 10.773 68.4218C10.9791 68.8437 11.0922 69.305 11.1046 69.7744V69.7761C11.1981 71.4297 9.92234 73.1021 8.19533 73.0873C8.52941 73.0773 9.40616 73.1157 9.72157 73.0487C10.5403 72.9162 11.2583 72.3825 11.6872 71.6814C12.0362 71.1091 12.208 70.4463 12.1808 69.7765C12.1808 69.776 12.1808 69.7754 12.1808 69.7749V69.7742C12.1607 69.2077 12.0002 68.6551 11.7138 68.1659C11.6309 68.0287 11.5385 67.8974 11.4374 67.7729C11.3184 67.629 11.1867 67.4961 11.0438 67.3758L11.04 67.3726C11.0226 67.3585 11.0056 67.3444 10.987 67.3296L10.9847 67.3278C10.9153 67.2729 10.8458 67.2213 10.7723 67.1681C7.416 64.4534 6.85837 59.2255 9.27461 55.7159C10.2148 54.3311 11.5918 53.2241 13.1931 52.71C13.8875 52.4841 14.613 52.3684 15.3432 52.3671C16.0345 52.3618 16.6988 52.0978 17.205 51.627C17.4158 51.4318 17.5995 51.2093 17.7513 50.9653L17.7524 50.9632C17.9369 50.6619 18.0731 50.3335 18.1561 49.99C18.2624 49.5776 18.2507 49.1499 18.2587 48.7274C18.2731 48.2017 18.3019 47.676 18.3541 47.153C18.5315 45.2996 18.953 43.4778 19.6076 41.7348C21.9876 35.336 27.7155 30.2751 34.6307 29.6263Z" fill="url(#paint11_linear_101_691)"/>
<path d="M42.138 23.9228C40.3543 23.4107 38.5118 23.1317 36.6565 23.0925C36.3604 23.0846 35.4608 23.0883 35.1511 23.0875C36.8096 23.0896 38.4622 23.2833 40.0762 23.6649C40.8289 23.8354 41.7382 24.127 42.4812 24.3574H43.5574C43.2619 24.2675 42.4215 24.0024 42.138 23.9228Z" fill="url(#paint12_linear_101_691)"/>
<path d="M42.3331 81.8725C42.3187 81.4164 42.2137 80.9678 42.0242 80.5527C42.0011 80.5028 41.9768 80.4529 41.9511 80.4036L39.1837 75.2789H38.1075L40.8749 80.4036C40.9006 80.4529 40.9249 80.5027 40.9479 80.5527C41.1701 81.0399 41.2758 81.5721 41.2568 82.1072C41.2349 83.6827 39.9725 85.2078 38.3406 85.1929H39.4168C40.3866 85.2037 41.3299 84.6183 41.8307 83.79C41.9069 83.665 41.9754 83.5355 42.0359 83.4023V83.4014C42.2488 82.9206 42.3504 82.398 42.3331 81.8725Z" fill="url(#paint13_linear_101_691)"/>
<path d="M40.9712 60.7675C41.3028 61.533 41.3492 62.3919 41.1021 63.1887C41.1365 63.369 38.2543 68.6202 38.1246 68.9097H39.2009C39.3579 68.5657 42.195 63.4108 42.1863 63.1659C42.1863 63.1643 42.187 63.1626 42.1875 63.161C42.2486 62.9575 42.2913 62.7489 42.3152 62.5378V62.5358C42.3638 62.0808 42.3236 61.6207 42.1971 61.181C42.0038 60.4932 41.5848 59.8904 41.0075 59.4696C41.0054 59.4681 41.0035 59.4663 41.0014 59.4649L40.9994 59.4636C40.614 59.19 40.1657 59.0183 39.6961 58.9643C39.5028 58.9388 38.5515 58.9526 38.3406 58.9495C39.4872 58.9444 40.5332 59.7267 40.9712 60.7675Z" fill="url(#paint14_linear_101_691)"/>
<path d="M43.9249 11.7353C44.2562 11.7704 44.5783 11.8658 44.8753 12.0168L44.8801 12.0193C45.1094 12.1373 45.3221 12.285 45.5129 12.4586L48.5833 15.7602H49.6596L46.5891 12.4586C46.5558 12.428 46.5217 12.3984 46.4868 12.3695L46.4842 12.3673C46.4821 12.3655 46.4799 12.3642 46.4779 12.3624C46.4186 12.3135 46.3581 12.268 46.2956 12.2237C46.1871 12.148 46.0738 12.0796 45.9562 12.0191C45.9549 12.0184 45.9538 12.0176 45.9525 12.017H45.9517C45.8369 11.9594 45.7186 11.9094 45.5973 11.8672L45.5962 11.8667L45.5915 11.8654C45.4029 11.8017 45.208 11.7584 45.0102 11.7364C45.0072 11.7364 45.004 11.7364 45.001 11.7358C44.8178 11.7096 43.8552 11.7258 43.6531 11.7214C43.7438 11.7222 43.8345 11.726 43.9249 11.7353Z" fill="url(#paint15_linear_101_691)"/>
<path d="M47.5512 71.9432C47.5462 71.8386 47.5366 71.7342 47.5239 71.6304C47.4305 70.9128 47.1038 70.2459 46.5941 69.7322C46.2887 69.4287 45.9193 69.1973 45.513 69.0548L45.5114 69.0543C44.9996 68.8491 44.1136 68.9215 43.5692 68.91C43.8676 68.911 44.1638 68.9611 44.446 69.0582C45.9836 69.5827 46.7815 71.3985 46.3769 72.9275C46.0807 74.209 44.9192 75.2947 43.5692 75.2791C43.8842 75.2714 44.7688 75.3037 45.0651 75.2455C45.8914 75.1187 46.6193 74.5842 47.054 73.8787L47.0558 73.8758V73.8749C47.41 73.2949 47.5825 72.6221 47.5512 71.9432Z" fill="url(#paint16_linear_101_691)"/>
<path d="M62.2028 7.8031C62.191 7.52901 62.1475 7.25723 62.073 6.99318C61.9216 6.45914 61.6364 5.97256 61.2444 5.57956C61.0765 5.41424 60.8899 5.26905 60.6884 5.14693C60.5221 5.04818 60.3464 4.9663 60.1639 4.90244H60.1625C59.6507 4.69726 58.7647 4.76966 58.2203 4.75828C59.5282 4.744 60.6628 5.76249 60.9967 6.99357C61.0838 7.30253 61.1283 7.622 61.1288 7.94302V12.7217C62.2129 12.9839 63.3654 13.2864 64.3851 13.7335C65.6255 14.2442 66.8102 14.9963 67.9126 15.7603H68.9886C67.8849 14.9959 66.7022 14.245 65.4609 13.7335C64.4425 13.2868 63.287 12.9833 62.2051 12.7218V7.94292C62.2056 7.89593 62.2048 7.84929 62.2028 7.8031Z" fill="url(#paint17_linear_101_691)"/>
<path d="M58.5155 39.4995C59.958 40.065 61.2941 40.8942 62.5238 41.8323H63.6C62.9136 41.3044 62.1932 40.8223 61.4434 40.3892C60.4685 39.8439 59.4413 39.398 58.3773 39.0582C56.3904 34.1692 53.2095 30.1448 48.8441 27.17C49.078 26.5504 49.3833 25.6723 49.6759 25.0884C50.1482 24.1153 50.7543 23.2131 51.4766 22.4079C53.4953 20.3242 56.3402 19.0395 59.2544 19.0552C58.4756 19.0566 57.5253 19.0334 56.7622 19.1516C54.3496 19.4711 52.0929 20.6706 50.4002 22.4079C49.6778 23.213 49.0717 24.1153 48.5995 25.0884C48.3086 25.6693 47.9995 26.555 47.7677 27.17C52.1335 30.1453 55.314 34.1699 57.3009 39.0582C57.6782 39.1894 58.1511 39.3471 58.5155 39.4995Z" fill="url(#paint18_linear_101_691)"/>
<path d="M69.7041 50.9399C69.6131 50.6456 69.5156 50.3534 69.4116 50.0635L71.5025 48.5609H70.4263L68.3354 50.0635C71.5411 58.858 68.0359 69.6049 59.3851 73.7449C59.028 73.9365 58.6296 74.0384 58.2243 74.0419H59.3004C59.7057 74.0384 60.1041 73.9365 60.4613 73.7449C63.4466 72.3261 65.9559 69.9853 67.6862 67.1779C67.9135 66.8101 68.1281 66.4345 68.33 66.0512L68.3316 66.0481C68.8927 64.9783 69.3531 63.8585 69.7067 62.7033C70.8724 58.8687 70.8715 54.774 69.7041 50.9399Z" fill="url(#paint19_linear_101_691)"/>
<path d="M75.2198 13.1548C75.9167 14.3042 75.8465 15.8681 75.0289 16.9389L72.0094 20.2438C72.6471 21.3507 73.2869 22.535 73.7252 23.7331C74.211 24.979 74.524 26.3558 74.7859 27.6686H75.862C75.5995 26.3541 75.2875 24.9802 74.8014 23.7331C74.3635 22.5362 73.7226 21.349 73.0857 20.2438L76.1051 16.9389C76.1658 16.858 76.2224 16.7736 76.2767 16.6887C76.2773 16.6877 76.2777 16.6866 76.2784 16.6857C77.167 15.2726 76.8341 13.2004 75.4457 12.231L75.4446 12.2301C75.3343 12.153 75.2189 12.0833 75.0994 12.0214C75.097 12.0202 75.0947 12.0188 75.0923 12.0175C74.9791 11.9607 74.8623 11.9111 74.7429 11.869C74.7405 11.8681 74.7382 11.867 74.7357 11.8662C74.5428 11.8008 74.3432 11.7569 74.1406 11.7352C73.956 11.7086 72.9944 11.7247 72.7908 11.7206C73.7848 11.715 74.7219 12.3061 75.2198 13.1548Z" fill="url(#paint20_linear_101_691)"/>
<path d="M77.0028 46.7567C77.0029 46.7558 77.0029 46.755 77.0028 46.7541V46.7529C76.9775 46.0275 76.7178 45.3298 76.2626 44.7644L76.2614 44.7629C76.2294 44.7239 76.1961 44.6854 76.1615 44.6476L73.0828 41.2776C73.7391 40.1493 74.3916 38.944 74.8366 37.7191C75.3032 36.511 75.6075 35.1719 75.8643 33.9012H74.788C74.5307 35.1737 74.2275 36.5099 73.7604 37.7188C73.3161 38.9426 72.6622 40.1514 72.0068 41.2776C72.2695 41.6 75.3787 44.8748 75.4619 45.1588C75.7175 45.6003 75.8725 46.0926 75.9159 46.6008C75.9594 47.109 75.8902 47.6205 75.7133 48.0988L75.7119 48.1022C75.3101 49.2159 74.2304 50.0913 73.0215 50.076C73.4392 50.0628 74.2981 50.1178 74.6949 50.0087C75.6651 49.7944 76.4487 49.0218 76.7882 48.1022L76.7892 48.0993C76.8613 47.9032 76.916 47.7012 76.9527 47.4956C76.9946 47.2516 77.0114 47.0041 77.0028 46.7567Z" fill="url(#paint21_linear_101_691)"/>
<path d="M83.1272 30.4769C83.0554 29.2522 82.2585 28.0613 81.0739 27.6692H79.9981C81.5524 28.1826 82.3667 30.0099 81.9586 31.5501C81.6623 32.8315 80.5008 33.917 79.151 33.9012C79.4106 33.8953 80.3224 33.9189 80.5624 33.8794C81.423 33.7768 82.1886 33.2292 82.6376 32.4981L82.6382 32.4972C83.0077 31.8912 83.1787 31.1848 83.1272 30.4769Z" fill="url(#paint22_linear_101_691)"/>
<path d="M43.5692 68.9098C47.4286 69.0838 47.427 75.1058 43.5692 75.2788H38.1077L40.8751 80.4036C41.6731 81.933 41.1892 83.8882 39.7932 84.7668C38.4093 85.6647 36.5574 85.0763 35.8021 83.587L33.1045 78.4578L30.407 83.5861C29.6501 85.0763 27.7992 85.6649 26.4144 84.7668C25.0193 83.8888 24.5347 81.9326 25.3335 80.4036L28.1001 75.2788H22.6386C21.0348 75.2788 19.7304 73.8501 19.7304 72.0945C19.7304 70.3389 21.0348 68.9095 22.6386 68.9095H28.0831L25.3329 63.7386C24.5333 62.215 25.0171 60.2548 26.4147 59.3764C27.7988 58.4778 29.6505 59.0669 30.4064 60.5562L33.1047 65.7624L35.8064 60.549C36.5565 59.0682 38.4141 58.4776 39.7934 59.3764C41.1912 60.255 41.6751 62.215 40.8718 63.7453L38.1247 68.9095L43.5692 68.9098Z" fill="#FFF2DC"/>
<path d="M79.9981 27.6691C83.1244 28.7674 82.5382 33.8043 79.151 33.9011H74.7888C74.3702 36.1476 73.6724 38.3803 72.5403 40.3368L72.0074 41.2775L75.0862 44.6476C76.8317 46.5163 75.712 50.0562 73.0222 50.0759C72.6341 50.0742 72.2506 49.9911 71.8966 49.8322C71.5425 49.6733 71.2257 49.442 70.9665 49.1531L70.4265 48.5608L68.3355 50.0633C71.6796 58.8179 67.6751 70 59.3853 73.7449C59.0282 73.9364 58.6298 74.0383 58.2245 74.0417C54.9396 73.9624 54.2668 69.247 57.0522 67.9248C60.5252 66.2929 62.9667 62.8793 63.5828 58.7951C64.645 52.7145 60.6422 45.9284 54.4933 44.9172C53.445 44.7247 52.5763 43.9196 52.2277 42.8159C48.1641 29.3969 31.8277 24.9151 22.4841 35.2844C19.0831 38.9901 17.1976 43.9232 17.1755 49.1764C17.1755 50.9387 15.8711 52.3675 14.2669 52.3675C6.96082 52.4182 4.03396 62.5766 9.69603 67.1681C11.2384 68.1721 11.5572 70.5129 10.4323 71.9415C9.4612 73.272 7.5275 73.4757 6.33506 72.3493C-2.82527 65.0083 0.112993 48.9172 11.4671 46.0674C13.0332 30.7612 27.4895 19.0948 42.4805 24.3573C42.9718 23.338 43.439 22.1301 43.9282 21.1376L44.4027 20.2135L41.412 16.9393C39.8916 15.0198 41.0872 11.7348 43.6527 11.7209C44.3431 11.7255 45.0066 11.9888 45.5124 12.4588L48.583 15.7603C50.3171 14.4979 52.2555 13.4615 54.3175 12.971L55.311 12.7229V7.94289C55.311 6.18692 56.6162 4.75781 58.2204 4.75781C59.8246 4.75781 61.129 6.18663 61.129 7.94289V12.7215L62.1196 12.9711C64.1964 13.4704 66.1546 14.5036 67.9128 15.7596L70.9313 12.4553C71.4377 11.9875 72.1005 11.7256 72.7899 11.7211C75.3481 11.7316 76.5402 15.0167 75.0284 16.9395L72.009 20.2443L72.5371 21.184C73.6699 23.1566 74.3686 25.4075 74.7855 27.669L79.9981 27.6691ZM65.9714 39.4677C70.2491 35.0027 70.2194 26.9396 65.9943 22.4477C61.7571 17.961 54.6304 17.9552 50.4011 22.4078C49.4289 23.4895 48.6701 24.7454 48.1646 26.1092L47.769 27.1698C51.9981 30.0272 55.3257 34.1413 57.3021 39.058C58.9687 39.5828 60.538 40.3769 61.9478 41.409L62.5246 41.8322C63.8135 41.2751 65.0028 40.5342 65.9718 39.4676" fill="#FFF2DC"/>
<defs>
<filter id="filter0_f_101_691" x="21.124" y="55.9514" width="32.7327" height="32.24" filterUnits="userSpaceOnUse" color-interpolation-filters="sRGB">
<feFlood flood-opacity="0" result="BackgroundImageFix"/>
<feBlend mode="normal" in="SourceGraphic" in2="BackgroundImageFix" result="shape"/>
<feGaussianBlur stdDeviation="1.5" result="effect1_foregroundBlur_101_691"/>
</filter>
<filter id="filter1_f_101_691" x="2.30701" y="1.75781" width="87.1327" height="75.2838" filterUnits="userSpaceOnUse" color-interpolation-filters="sRGB">
<feFlood flood-opacity="0" result="BackgroundImageFix"/>
<feBlend mode="normal" in="SourceGraphic" in2="BackgroundImageFix" result="shape"/>
<feGaussianBlur stdDeviation="1.5" result="effect1_foregroundBlur_101_691"/>
</filter>
<linearGradient id="paint0_linear_101_691" x1="53.2283" y1="0.663574" x2="53.2283" y2="89.2936" gradientUnits="userSpaceOnUse">
<stop stop-color="#D34A0F"/>
<stop offset="1" stop-color="#F87C56"/>
</linearGradient>
<linearGradient id="paint1_linear_101_691" x1="53.2283" y1="0.663574" x2="53.2283" y2="89.2936" gradientUnits="userSpaceOnUse">
<stop stop-color="#D34A0F"/>
<stop offset="1" stop-color="#F87C56"/>
</linearGradient>
<linearGradient id="paint2_linear_101_691" x1="53.2283" y1="0.663574" x2="53.2283" y2="89.2936" gradientUnits="userSpaceOnUse">
<stop stop-color="#D34A0F"/>
<stop offset="1" stop-color="#F87C56"/>
</linearGradient>
<linearGradient id="paint3_linear_101_691" x1="53.2283" y1="0.663574" x2="53.2283" y2="89.2936" gradientUnits="userSpaceOnUse">
<stop stop-color="#D34A0F"/>
<stop offset="1" stop-color="#F87C56"/>
</linearGradient>
<linearGradient id="paint4_linear_101_691" x1="53.2283" y1="0.663574" x2="53.2283" y2="89.2936" gradientUnits="userSpaceOnUse">
<stop stop-color="#D34A0F"/>
<stop offset="1" stop-color="#F87C56"/>
</linearGradient>
<linearGradient id="paint5_linear_101_691" x1="53.2283" y1="0.663574" x2="53.2283" y2="89.2936" gradientUnits="userSpaceOnUse">
<stop stop-color="#D34A0F"/>
<stop offset="1" stop-color="#F87C56"/>
</linearGradient>
<linearGradient id="paint6_linear_101_691" x1="53.2283" y1="0.663574" x2="53.2283" y2="89.2936" gradientUnits="userSpaceOnUse">
<stop stop-color="#D34A0F"/>
<stop offset="1" stop-color="#F87C56"/>
</linearGradient>
<linearGradient id="paint7_linear_101_691" x1="53.2283" y1="0.663574" x2="53.2283" y2="89.2936" gradientUnits="userSpaceOnUse">
<stop stop-color="#D34A0F"/>
<stop offset="1" stop-color="#F87C56"/>
</linearGradient>
<linearGradient id="paint8_linear_101_691" x1="53.2283" y1="0.663574" x2="53.2283" y2="89.2936" gradientUnits="userSpaceOnUse">
<stop stop-color="#D34A0F"/>
<stop offset="1" stop-color="#F87C56"/>
</linearGradient>
<linearGradient id="paint9_linear_101_691" x1="44.9216" y1="4.75479" x2="44.9216" y2="85.1942" gradientUnits="userSpaceOnUse">
<stop stop-color="#F7A175"/>
<stop offset="1" stop-color="#FFF2DC"/>
</linearGradient>
<linearGradient id="paint10_linear_101_691" x1="44.9216" y1="4.75479" x2="44.9216" y2="85.1942" gradientUnits="userSpaceOnUse">
<stop stop-color="#F7A175"/>
<stop offset="1" stop-color="#FFF2DC"/>
</linearGradient>
<linearGradient id="paint11_linear_101_691" x1="44.9216" y1="4.75479" x2="44.9216" y2="85.1942" gradientUnits="userSpaceOnUse">
<stop stop-color="#F7A175"/>
<stop offset="1" stop-color="#FFF2DC"/>
</linearGradient>
<linearGradient id="paint12_linear_101_691" x1="44.9216" y1="4.75479" x2="44.9216" y2="85.1942" gradientUnits="userSpaceOnUse">
<stop stop-color="#F7A175"/>
<stop offset="1" stop-color="#FFF2DC"/>
</linearGradient>
<linearGradient id="paint13_linear_101_691" x1="44.9216" y1="4.75479" x2="44.9216" y2="85.1942" gradientUnits="userSpaceOnUse">
<stop stop-color="#F7A175"/>
<stop offset="1" stop-color="#FFF2DC"/>
</linearGradient>
<linearGradient id="paint14_linear_101_691" x1="44.9216" y1="4.75479" x2="44.9216" y2="85.1942" gradientUnits="userSpaceOnUse">
<stop stop-color="#F7A175"/>
<stop offset="1" stop-color="#FFF2DC"/>
</linearGradient>
<linearGradient id="paint15_linear_101_691" x1="44.9216" y1="4.75479" x2="44.9216" y2="85.1942" gradientUnits="userSpaceOnUse">
<stop stop-color="#F7A175"/>
<stop offset="1" stop-color="#FFF2DC"/>
</linearGradient>
<linearGradient id="paint16_linear_101_691" x1="44.9216" y1="4.75479" x2="44.9216" y2="85.1942" gradientUnits="userSpaceOnUse">
<stop stop-color="#F7A175"/>
<stop offset="1" stop-color="#FFF2DC"/>
</linearGradient>
<linearGradient id="paint17_linear_101_691" x1="44.9216" y1="4.75479" x2="44.9216" y2="85.1942" gradientUnits="userSpaceOnUse">
<stop stop-color="#F7A175"/>
<stop offset="1" stop-color="#FFF2DC"/>
</linearGradient>
<linearGradient id="paint18_linear_101_691" x1="44.9216" y1="4.75479" x2="44.9216" y2="85.1942" gradientUnits="userSpaceOnUse">
<stop stop-color="#F7A175"/>
<stop offset="1" stop-color="#FFF2DC"/>
</linearGradient>
<linearGradient id="paint19_linear_101_691" x1="44.9216" y1="4.75479" x2="44.9216" y2="85.1942" gradientUnits="userSpaceOnUse">
<stop stop-color="#F7A175"/>
<stop offset="1" stop-color="#FFF2DC"/>
</linearGradient>
<linearGradient id="paint20_linear_101_691" x1="44.9216" y1="4.75479" x2="44.9216" y2="85.1942" gradientUnits="userSpaceOnUse">
<stop stop-color="#F7A175"/>
<stop offset="1" stop-color="#FFF2DC"/>
</linearGradient>
<linearGradient id="paint21_linear_101_691" x1="44.9216" y1="4.75479" x2="44.9216" y2="85.1942" gradientUnits="userSpaceOnUse">
<stop stop-color="#F7A175"/>
<stop offset="1" stop-color="#FFF2DC"/>
</linearGradient>
<linearGradient id="paint22_linear_101_691" x1="44.9216" y1="4.75479" x2="44.9216" y2="85.1942" gradientUnits="userSpaceOnUse">
<stop stop-color="#F7A175"/>
<stop offset="1" stop-color="#FFF2DC"/>
</linearGradient>
</defs>
</svg>
