<svg width="99" height="98" viewBox="0 0 99 98" fill="none" xmlns="http://www.w3.org/2000/svg">
<path d="M18.4885 80.601C18.3736 77.0105 15.5774 73.6612 11.8476 73.6685H7.53076C11.3994 73.6663 14.221 77.2318 14.1796 80.9472C14.2228 84.6614 11.3965 88.2274 7.53076 88.2258C7.74613 88.219 12.2052 88.243 12.276 88.2092C13.0204 88.1566 13.749 87.9692 14.4264 87.656C17.0791 86.4391 18.643 83.4707 18.4885 80.601Z" fill="url(#paint0_linear_101_695)"/>
<path d="M22.5519 52.616C23.1702 53.5656 23.8519 54.4724 24.5926 55.33C25.353 55.35 28.7509 55.2649 29.429 55.4079C30.3328 55.5543 31.1932 55.8981 31.9491 56.4147C35.1327 58.5514 36.0037 63.1321 34.1274 66.4116C33.0092 68.4484 30.8164 69.9071 28.4615 69.8862C28.594 69.8654 33.1242 69.9081 33.1017 69.8772C33.7505 69.8419 34.3895 69.7041 34.9952 69.4689C37.2678 68.5964 38.8791 66.4091 39.2968 64.0407C39.8989 60.9377 38.4481 57.451 35.5726 56.0042C34.9075 55.6651 34.1865 55.4491 33.4445 55.3666C33.0461 55.2967 29.393 55.3419 28.9091 55.33C21.1012 46.3832 20.6075 32.2578 27.6143 22.7047C28.2424 21.8446 28.9237 21.0245 29.6541 20.2493H25.3372C24.6068 21.0244 23.9255 21.8444 23.2974 22.7046L23.296 22.7064C16.9944 31.2853 16.7296 43.7245 22.5519 52.616Z" fill="url(#paint1_linear_101_695)"/>
<path d="M64.5351 89.581C64.3877 83.0021 60.3271 76.5723 53.983 74.4047C53.5085 74.2433 53.026 74.1066 52.5373 73.9953C51.6949 73.8061 50.8367 73.6962 49.9737 73.6671C46.4692 73.643 27.3789 73.6663 24.2748 73.6585H45.2053C45.3562 73.6585 45.5062 73.6619 45.6567 73.6671C46.5195 73.6963 47.3778 73.8062 48.2202 73.9953C52.6366 74.9738 56.3613 78.1805 58.3612 82.1919C59.3807 84.221 59.995 86.4294 60.1696 88.6935C60.2817 90.0064 60.2586 91.3549 59.8189 92.6107C58.9527 95.2793 56.4474 97.4039 53.5775 97.3781C53.7937 97.3713 58.2512 97.3951 58.323 97.3614C59.0675 97.3088 59.7963 97.1213 60.4738 96.8081C63.1993 95.5556 64.7273 92.5173 64.5351 89.581Z" fill="url(#paint2_linear_101_695)"/>
<path d="M54.2447 18.7102C57.9689 19.115 60.4568 22.7778 60.2142 26.3849C60.0668 29.9365 57.2642 33.2373 53.5777 33.2266C54.3291 33.2082 58.1999 33.2911 58.8539 33.1499C59.8714 32.9846 60.8328 32.572 61.6536 31.9483C64.7294 29.6541 65.4193 25.0309 63.3752 21.8341C62.2213 19.9585 60.122 18.6536 57.8946 18.6732H53.5777C53.8005 18.6742 54.0231 18.6866 54.2447 18.7102Z" fill="url(#paint3_linear_101_695)"/>
<path d="M64.5691 38.1341C57.2095 37.9279 50.513 33.6788 46.5744 27.5541C43.8047 23.3043 42.362 18.2341 42.3585 13.1684C42.3771 12.13 42.4432 11.0916 42.5609 10.0589C42.6572 9.14085 42.8613 8.22716 42.8105 7.29921C42.7316 5.21735 41.7954 3.16015 40.1854 1.82054C39.588 1.32122 38.9051 0.934433 38.1696 0.679003L38.166 0.677638C37.523 0.458055 36.8486 0.344587 36.1692 0.341736H31.8523C35.2795 0.330952 37.9779 3.19989 38.4186 6.48817C38.5879 7.51916 38.4579 8.55974 38.3019 9.58334C38.1494 10.7727 38.0628 11.9695 38.0423 13.1684C38.0081 22.7141 43.3048 32.1481 52.1004 36.1959C54.1723 37.1536 56.3856 37.7698 58.6543 38.0207C60.2271 38.2295 63.6499 38.1218 65.2608 38.1468C65.0294 38.1465 64.7996 38.1421 64.5691 38.1341Z" fill="url(#paint4_linear_101_695)"/>
<path d="M78.4846 54.5576C79.6736 51.6921 80.5426 48.7041 81.0757 45.6479C81.7503 42.6576 80.7768 39.4119 78.2278 37.6033C77.4172 37.0295 76.4823 36.6557 75.4996 36.5125C74.9583 36.3957 70.9543 36.4713 70.3223 36.4512C73.6779 36.437 76.3484 39.205 76.8602 42.4145C77.1576 44.0248 76.7746 45.6429 76.4521 47.2188C75.8591 50.0044 74.9833 52.7222 73.8382 55.3299H78.1551C78.2675 55.0737 78.3773 54.8163 78.4846 54.5576Z" fill="url(#paint5_linear_101_695)"/>
<path d="M98.0316 71.7715C98.0764 65.5325 94.6117 59.2884 88.8648 56.6298C87.4874 55.9884 86.0142 55.5767 84.5038 55.411C83.4246 55.2628 79.8247 55.3538 78.6952 55.33C87.4871 55.3655 93.7742 63.3241 93.7146 71.7715C93.7745 80.2192 87.4859 88.1807 78.6952 88.2149C79.9224 88.1939 83.4643 88.2847 84.616 88.121C86.0773 87.9492 87.5021 87.5464 88.8372 86.9277C94.6039 84.2726 98.0742 78.0255 98.0316 71.7715Z" fill="url(#paint6_linear_101_695)"/>
<path d="M98.0235 16.4387C97.93 13.5871 96.1206 10.7691 93.3676 9.8384L93.362 9.83669C92.8149 9.6494 92.2438 9.54122 91.6661 9.51547C91.572 9.51037 91.4777 9.50732 91.3832 9.50772H87.0663C89.6872 9.48026 92.0649 11.2844 93.0675 13.655C93.778 15.2152 93.8007 16.9674 93.6166 18.6433C93.3736 21.0253 92.6408 23.3314 91.4643 25.4168C88.8964 30.0162 84.0396 33.2516 78.6984 33.2266C79.3806 33.22 83.3049 33.2514 83.8854 33.1972C84.724 33.1435 85.5558 33.0132 86.3706 32.8078C90.1583 31.8647 93.421 29.2765 95.4527 25.9728C97.2092 23.1084 98.1019 19.7979 98.0235 16.4387Z" fill="url(#paint7_linear_101_695)"/>
<path d="M7.53074 73.6685C11.1973 73.6685 14.1796 76.9334 14.1796 80.9472C13.8135 90.6037 1.24643 90.6012 0.881897 80.9472C0.881897 76.9327 3.86356 73.6685 7.53074 73.6685Z" fill="#F87C56"/>
<path d="M45.2052 73.6586C53.4767 73.6686 60.2146 81.0415 60.2269 90.0994C60.2269 94.1132 57.2453 97.3781 53.5773 97.3781C49.9093 97.3781 46.929 94.1131 46.929 90.1018C46.9166 89.091 46.1279 88.2283 45.1739 88.2147H24.2747C20.6076 88.2147 17.6251 84.9508 17.6251 80.9361C17.6251 76.9213 20.6074 73.6586 24.2747 73.6586H45.2052Z" fill="#F87C56"/>
<path d="M53.5777 33.2265C49.9111 33.2265 46.9295 29.9621 46.9295 25.9485C47.2951 16.2961 59.8629 16.2998 60.2271 25.9485C60.2271 29.9621 57.2455 33.2265 53.5777 33.2265Z" fill="#F87C56"/>
<path d="M78.6952 55.33C98.6135 56.2211 98.6161 87.3224 78.6952 88.2148C69.8678 87.8155 69.8839 74.0496 78.6952 73.6586C79.6452 73.6586 80.4169 72.8108 80.4169 71.7716C80.4169 70.7323 79.6452 69.8863 78.6952 69.8863H45.2052C36.3972 69.4994 36.3756 55.7278 45.2052 55.3301H57.8965C58.62 54.494 59.2863 53.6101 59.8907 52.6842C42.7093 52.1317 28.3889 38.4195 25.3376 20.2491C16.3837 29.3201 16.0781 45.873 24.5926 55.3298H28.4613C32.128 55.3298 35.1097 58.5931 35.1097 62.6085C35.1097 66.6222 32.128 69.8859 28.4613 69.8859H7.53074C3.86356 69.8859 0.881897 66.6221 0.881897 62.6085C0.881897 58.593 3.86356 55.3298 7.53074 55.3298H8.64222C-0.805761 34.3425 9.23289 7.98775 29.7335 0.72377C30.4113 0.4711 31.1288 0.341649 31.8521 0.341553C35.9757 0.348242 39.041 4.38997 38.4219 8.72541C38.194 10.196 38.0672 11.6805 38.0425 13.1685C37.9073 29.6512 53.2558 42.4221 68.1903 36.8358C68.8727 36.5817 69.595 36.4516 70.3232 36.4515C74.5019 36.4564 77.5703 40.6061 76.874 44.9636C76.3119 48.5352 75.2918 52.0194 73.8387 55.3301L78.6952 55.33Z" fill="#F87C56"/>
<path d="M70.3223 33.2265C61.5068 32.833 61.5011 19.0686 70.3223 18.6735H78.6952C79.6328 18.6598 80.4055 17.8148 80.4169 16.751C80.4169 12.7709 83.3991 9.50759 87.0665 9.50759C90.7339 9.50759 93.7147 12.7709 93.7147 16.7851C93.7058 25.843 86.9702 33.2161 78.6982 33.2265H70.3223Z" fill="#F87C56"/>
<g style="mix-blend-mode:multiply" opacity="0.4" filter="url(#filter0_f_101_695)">
<path d="M7.86489 77.7604C9.46879 77.7604 10.7743 79.1895 10.7743 80.9454C10.6137 85.1707 5.11509 85.1689 4.95514 80.9454C4.95514 79.1892 6.26069 77.7604 7.86489 77.7604Z" fill="#D34A0F"/>
<path d="M45.5395 77.7505C51.7533 77.7578 56.8142 83.2987 56.8208 90.1013C56.8208 91.8564 55.5163 93.2838 53.912 93.2838C52.3077 93.2838 51.0027 91.856 51.0027 90.1003C51.0005 88.5457 50.425 87.0465 49.3865 85.8896C48.3637 84.769 47.0031 84.1407 45.5571 84.12H24.6091C23.0048 84.12 21.7002 82.6915 21.7002 80.935C21.7002 79.1784 23.0048 77.7499 24.6091 77.7499L45.5395 77.7505Z" fill="#D34A0F"/>
<path d="M53.9116 29.1326C52.3078 29.1326 51.0023 27.704 51.0023 25.9476C51.1632 21.7228 56.6606 21.7235 56.8204 25.9476C56.8208 27.704 55.5163 29.1326 53.9116 29.1326Z" fill="#D34A0F"/>
<path d="M79.0287 59.4218C93.9879 60.0914 93.9919 83.4482 79.0287 84.1198C75.1629 83.942 75.1773 77.9212 79.0287 77.7505C82.0406 77.7505 84.4919 75.0683 84.4919 71.7698C84.4919 68.4714 82.0406 65.7897 79.0287 65.7897H45.5395C43.9357 65.7897 42.6302 64.3619 42.6302 62.606C42.6302 60.8502 43.9357 59.421 45.5395 59.421H59.7757C62.3078 56.8165 64.3305 53.7616 65.7397 50.4137L66.6832 48.1906C46.0989 51.5795 28.7711 34.472 28.7388 12.6283C12.7382 22.6634 10.3018 45.9988 23.3815 59.421H28.7954C32.6481 59.5914 32.6583 65.615 28.7954 65.7893H7.86499C6.26078 65.7893 4.95524 64.3615 4.95524 62.6056C4.95524 60.8497 6.26078 59.4206 7.86499 59.4206H15.497C8.33515 48.523 7.04128 34.183 12.5532 22.3632C16.4153 13.903 23.0557 7.59564 31.252 4.6034C31.6912 4.43788 32.1665 4.39231 32.6292 4.47134C34.248 4.71965 35.3199 6.48726 35.0605 8.09016C34.8074 9.74568 34.6654 11.4163 34.6354 13.0908C34.3349 31.5943 51.681 47.392 69.7262 40.7077C71.8538 39.9166 73.9166 42.0094 73.5223 44.2675C72.6999 49.7689 70.542 54.7945 67.6495 59.4204L79.0287 59.4218Z" fill="#D34A0F"/>
<path d="M70.6562 29.1326C66.8006 28.9605 66.795 22.9382 70.6562 22.7633H79.0453C82.1082 22.7639 84.5225 19.8352 84.4909 16.8026C84.4919 15.0278 85.7965 13.5987 87.4003 13.5987C89.0041 13.5987 90.3095 15.0278 90.3095 16.7837C90.3029 23.5851 85.2416 29.125 79.0271 29.1328L70.6562 29.1326Z" fill="#D34A0F"/>
</g>
<path d="M7.45338 80.7935C7.42235 79.9627 7.08076 79.1738 6.49615 78.5826C6.19075 78.2791 5.82143 78.0477 5.41515 77.9052L5.41364 77.9046C5.13462 77.8102 4.84217 77.7615 4.5476 77.7605H3.47137C5.14267 77.745 6.41259 79.34 6.38064 80.9455C6.41279 82.55 5.14257 84.1468 3.47137 84.1306C3.78648 84.123 4.6708 84.155 4.96724 84.097C5.79475 83.9699 6.52321 83.4342 6.95784 82.7274L6.95835 82.7267C7.14382 82.4241 7.28039 82.0941 7.36302 81.749C7.43676 81.4362 7.46717 81.1147 7.45338 80.7935Z" fill="url(#paint8_linear_101_695)"/>
<path d="M19.2757 58.573C11.3054 49.8129 9.48879 36.3919 14.2435 25.6329C15.7994 22.0727 18.0555 18.8618 20.8775 16.1912C22.1895 14.9161 23.9328 13.6986 25.4222 12.6291H24.3459C23.1314 13.5095 21.5319 14.6139 20.4359 15.6133C18.8991 16.9725 17.5157 18.4959 16.3106 20.1562C7.77926 31.8317 8.81974 49.0612 18.9887 59.4218H20.0644C19.8236 59.1666 19.506 58.831 19.2757 58.573Z" fill="url(#paint9_linear_101_695)"/>
<path d="M28.3833 62.4553C28.3712 62.1853 28.3281 61.9176 28.2548 61.6574L28.2541 61.6551C28.0413 60.8903 27.5491 60.2332 26.875 59.8139C26.7073 59.7141 26.53 59.6313 26.3458 59.5668H26.3443C26.0653 59.4722 25.7728 59.4234 25.4782 59.4225H24.402C26.0734 59.4068 27.3429 61.002 27.3108 62.6075C27.3432 64.212 26.0728 65.808 24.402 65.791C24.717 65.7835 25.6015 65.8156 25.8978 65.7576C26.7238 65.6309 27.4518 65.0971 27.8862 64.3918C27.8868 64.3908 27.8876 64.3898 27.8882 64.3888C28.2426 63.8082 28.415 63.1348 28.3833 62.4553Z" fill="url(#paint10_linear_101_695)"/>
<path d="M53.4923 89.5672C53.424 87.8094 53.0062 86.083 52.2632 84.4885V84.4876C50.949 81.6667 48.5412 79.3216 45.5749 78.3117L45.573 78.3111C44.7154 78.0174 43.8231 77.8374 42.9188 77.7756C42.4684 77.7372 41.607 77.7541 41.1461 77.7506C45.5093 77.7282 49.3917 80.5938 51.187 84.4876V84.4885C51.8563 85.9225 52.2619 87.4652 52.3842 89.043C52.4318 89.5313 52.4378 90.0227 52.402 90.512C52.3456 90.9985 52.1835 91.4668 51.9268 91.884C51.4218 92.7127 50.5005 93.2918 49.5182 93.2837C49.8334 93.2761 50.7177 93.3082 51.0142 93.2501C51.8419 93.1232 52.5707 92.5876 53.0052 91.8805C53.4446 91.1945 53.5491 90.3656 53.4923 89.5672Z" fill="url(#paint11_linear_101_695)"/>
<path d="M49.8075 22.7792C51.4038 22.939 52.52 24.5482 52.4239 26.0941C52.3892 27.648 51.1327 29.1493 49.5184 29.132C49.778 29.1261 50.6899 29.1498 50.9296 29.1104C51.7883 29.0079 52.5533 28.4626 53.0019 27.7332L53.0044 27.7296L53.005 27.7285C53.0808 27.604 53.149 27.4752 53.2094 27.3425C53.5343 26.6037 53.5916 25.7747 53.3714 24.9982C53.2199 24.4642 52.9347 23.9777 52.5427 23.5847C52.3761 23.4207 52.1911 23.2765 51.9916 23.1548C51.8239 23.0548 51.6466 22.972 51.4624 22.9075L51.4609 22.907C50.949 22.7018 50.0631 22.7743 49.5185 22.7628C49.6151 22.7647 49.7118 22.7698 49.8075 22.7792Z" fill="url(#paint12_linear_101_695)"/>
<path d="M57.3593 42.2299C47.8841 42.0329 39.5986 36.2759 35.1093 28.0826C32.5907 23.5164 31.3244 18.299 31.3179 13.0919C31.3433 11.7352 31.4416 10.3807 31.6123 9.03445C31.6656 8.51346 31.7951 7.99777 31.7732 7.47209C31.7579 7.01511 31.6478 6.56631 31.4499 6.15417C31.2519 5.74203 30.9703 5.37554 30.6232 5.07801C30.6218 5.07672 30.6202 5.0757 30.6187 5.07441C30.1994 4.72617 29.687 4.50887 29.1453 4.4495C28.9541 4.42424 28.002 4.43773 27.7933 4.43463C29.5122 4.42385 30.7834 6.07967 30.6971 7.72721C30.6498 8.38089 30.5191 9.02776 30.4584 9.68124C30.3373 10.8142 30.2627 11.9528 30.2417 13.0919C30.2493 18.0326 31.3854 22.9835 33.6583 27.3778C37.1552 34.2117 43.4802 39.7143 51.0107 41.5288C52.0806 41.7901 53.1666 41.9805 54.2616 42.0986C55.1331 42.1899 56.0086 42.2365 56.8849 42.2383H57.961C57.76 42.2381 57.5595 42.2349 57.3593 42.2299Z" fill="url(#paint13_linear_101_695)"/>
<path d="M62.2896 48.1914C60.6142 48.3757 58.5812 48.6308 56.909 48.6075H57.9853C59.6534 48.6312 61.6949 48.3753 63.3659 48.1914H62.2896Z" fill="url(#paint14_linear_101_695)"/>
<path d="M66.0014 56.5427C67.8193 53.252 69.1284 49.705 69.8842 46.0224C69.9613 45.6446 70.0338 45.2656 70.1017 44.8854C70.1889 44.3871 70.2905 43.8809 70.2281 43.3734C70.1215 42.2651 69.4312 41.199 68.3909 40.7597L68.3872 40.758C68.1386 40.6533 67.8759 40.586 67.6076 40.5583C67.4244 40.5316 66.4619 40.5478 66.2597 40.5438C67.669 40.5272 68.8556 41.7009 69.102 43.0477C69.2527 43.7131 69.1168 44.3901 68.9951 45.0482C68.8402 45.9102 68.6559 46.7661 68.4421 47.6157C67.8714 49.89 67.0873 52.1053 66.1001 54.2321C65.3461 55.9066 64.1864 57.8258 63.2553 59.4221H64.3315C64.6464 58.8784 65.7182 57.0619 66.0014 56.5427Z" fill="url(#paint15_linear_101_695)"/>
<path d="M86.9826 71.2804C86.8469 66.1516 83.488 61.1417 78.4215 59.7831C77.7414 59.5983 77.0442 59.4838 76.3407 59.4414C75.9038 59.408 75.0766 59.4267 74.6351 59.4215C81.2254 59.4386 85.9692 65.4384 85.916 71.77C85.9703 78.1001 81.2233 84.1043 74.6351 84.1195C75.8559 84.1394 77.1503 84.1158 78.3286 83.7832C83.8057 82.3548 87.2316 76.7919 86.9826 71.2804Z" fill="url(#paint16_linear_101_695)"/>
<path d="M86.9886 16.6313C86.9765 16.3615 86.9334 16.094 86.8601 15.8341C86.7369 15.4034 86.5276 15.0022 86.245 14.6547C86.178 14.5748 86.1088 14.4967 86.0345 14.4236C86.0334 14.4226 86.0325 14.4215 86.0314 14.4205C85.8635 14.2551 85.6769 14.11 85.4753 13.9879C85.3091 13.8889 85.1334 13.8069 84.9507 13.7432L84.9491 13.7427C84.4372 13.5375 83.5513 13.6099 83.0068 13.5984C83.3052 13.5995 83.6014 13.6496 83.8836 13.7466C84.8167 14.0677 85.5191 14.8948 85.7839 15.8342C86.031 16.7557 85.8856 17.7319 85.7833 18.6652C85.4317 21.2242 84.315 23.6172 82.5796 25.5304C80.5674 27.7469 77.6451 29.1477 74.6337 29.1325C75.4344 29.1325 76.3973 29.1538 77.1814 29.0256C79.7708 28.6611 82.1578 27.2655 83.863 25.2994C84.4942 24.5729 85.0397 23.7761 85.4886 22.9247C86.5042 20.9843 87.0198 18.8212 86.9886 16.6313Z" fill="url(#paint17_linear_101_695)"/>
<path d="M3.47136 77.7604C5.07516 77.7604 6.38062 79.1895 6.38062 80.9454C6.22017 85.1707 0.721535 85.1689 0.561584 80.9454C0.561584 79.1892 1.86706 77.7604 3.47136 77.7604Z" fill="#FFF2DC"/>
<path d="M41.1459 77.7505C47.3598 77.7578 52.4206 83.2987 52.4273 90.1013C52.4273 91.8564 51.1227 93.2838 49.5184 93.2838C47.9141 93.2838 46.6091 91.856 46.6091 90.1003C46.6069 88.5457 46.0314 87.0465 44.993 85.8896C43.9702 84.769 42.6096 84.1407 41.1634 84.12H20.2155C18.6112 84.12 17.3067 82.6915 17.3067 80.935C17.3067 79.1784 18.6112 77.7499 20.2155 77.7499L41.1459 77.7505Z" fill="#FFF2DC"/>
<path d="M49.5185 29.1326C47.9147 29.1326 46.6092 27.704 46.6092 25.9476C46.7702 21.7228 52.2674 21.7235 52.4274 25.9476C52.4273 27.704 51.1227 29.1326 49.5185 29.1326Z" fill="#FFF2DC"/>
<path d="M74.6351 59.4218C89.5943 60.0914 89.5984 83.4482 74.6351 84.1198C70.7693 83.942 70.7837 77.9212 74.6351 77.7505C77.6469 77.7505 80.0983 75.0683 80.0983 71.7699C80.0983 68.4714 77.6469 65.7897 74.635 65.7897H41.1459C39.5421 65.7897 38.2366 64.3619 38.2366 62.6061C38.2366 60.8502 39.5421 59.421 41.1459 59.421H55.3822C57.9142 56.8165 59.9369 53.7616 61.3461 50.4137L62.2896 48.1906C41.7054 51.5795 24.3776 34.472 24.3452 12.6283C8.34466 22.6634 5.90826 45.9988 18.9879 59.421H24.4017C28.2544 59.5914 28.2646 65.615 24.4017 65.7893H3.47136C1.86706 65.7893 0.561584 64.3615 0.561584 62.6056C0.561584 60.8498 1.86706 59.4206 3.47136 59.4206H11.1033C3.94142 48.523 2.64753 34.183 8.15944 22.3632C12.0215 13.903 18.662 7.59565 26.8583 4.60341C27.2975 4.43788 27.7729 4.39231 28.2356 4.47134C29.8543 4.71965 30.9263 6.48726 30.6669 8.09016C30.4138 9.74569 30.2718 11.4163 30.2417 13.0908C29.9412 31.5943 47.2873 47.392 65.3326 40.7077C67.4602 39.9166 69.5229 42.0094 69.1286 44.2675C68.3062 49.7689 66.1483 54.7945 63.2559 59.4204L74.6351 59.4218Z" fill="#FFF2DC"/>
<path d="M66.2624 29.1326C62.4068 28.9605 62.4012 22.9382 66.2624 22.7633H74.6516C77.7144 22.7639 80.1287 19.8352 80.0972 16.8026C80.0982 15.0278 81.4028 13.5987 83.0066 13.5987C84.6104 13.5987 85.9158 15.0278 85.9158 16.7837C85.9091 23.5851 80.8478 29.125 74.6334 29.1328L66.2624 29.1326Z" fill="#FFF2DC"/>
<defs>
<filter id="filter0_f_101_695" x="1.95514" y="1.43359" width="91.3544" height="94.8502" filterUnits="userSpaceOnUse" color-interpolation-filters="sRGB">
<feFlood flood-opacity="0" result="BackgroundImageFix"/>
<feBlend mode="normal" in="SourceGraphic" in2="BackgroundImageFix" result="shape"/>
<feGaussianBlur stdDeviation="1.5" result="effect1_foregroundBlur_101_695"/>
</filter>
<linearGradient id="paint0_linear_101_695" x1="52.7814" y1="0.341705" x2="52.7814" y2="97.38" gradientUnits="userSpaceOnUse">
<stop stop-color="#D34A0F"/>
<stop offset="1" stop-color="#F87C56"/>
</linearGradient>
<linearGradient id="paint1_linear_101_695" x1="52.7814" y1="0.341705" x2="52.7814" y2="97.38" gradientUnits="userSpaceOnUse">
<stop stop-color="#D34A0F"/>
<stop offset="1" stop-color="#F87C56"/>
</linearGradient>
<linearGradient id="paint2_linear_101_695" x1="52.7814" y1="0.341705" x2="52.7814" y2="97.38" gradientUnits="userSpaceOnUse">
<stop stop-color="#D34A0F"/>
<stop offset="1" stop-color="#F87C56"/>
</linearGradient>
<linearGradient id="paint3_linear_101_695" x1="52.7814" y1="0.341705" x2="52.7814" y2="97.38" gradientUnits="userSpaceOnUse">
<stop stop-color="#D34A0F"/>
<stop offset="1" stop-color="#F87C56"/>
</linearGradient>
<linearGradient id="paint4_linear_101_695" x1="52.7814" y1="0.341705" x2="52.7814" y2="97.38" gradientUnits="userSpaceOnUse">
<stop stop-color="#D34A0F"/>
<stop offset="1" stop-color="#F87C56"/>
</linearGradient>
<linearGradient id="paint5_linear_101_695" x1="52.7814" y1="0.341705" x2="52.7814" y2="97.38" gradientUnits="userSpaceOnUse">
<stop stop-color="#D34A0F"/>
<stop offset="1" stop-color="#F87C56"/>
</linearGradient>
<linearGradient id="paint6_linear_101_695" x1="52.7814" y1="0.341705" x2="52.7814" y2="97.38" gradientUnits="userSpaceOnUse">
<stop stop-color="#D34A0F"/>
<stop offset="1" stop-color="#F87C56"/>
</linearGradient>
<linearGradient id="paint7_linear_101_695" x1="52.7814" y1="0.341705" x2="52.7814" y2="97.38" gradientUnits="userSpaceOnUse">
<stop stop-color="#D34A0F"/>
<stop offset="1" stop-color="#F87C56"/>
</linearGradient>
<linearGradient id="paint8_linear_101_695" x1="45.2333" y1="4.43375" x2="45.2333" y2="93.2858" gradientUnits="userSpaceOnUse">
<stop stop-color="#F7A175"/>
<stop offset="1" stop-color="#FFF2DC"/>
</linearGradient>
<linearGradient id="paint9_linear_101_695" x1="45.2333" y1="4.43375" x2="45.2333" y2="93.2858" gradientUnits="userSpaceOnUse">
<stop stop-color="#F7A175"/>
<stop offset="1" stop-color="#FFF2DC"/>
</linearGradient>
<linearGradient id="paint10_linear_101_695" x1="45.2333" y1="4.43375" x2="45.2333" y2="93.2858" gradientUnits="userSpaceOnUse">
<stop stop-color="#F7A175"/>
<stop offset="1" stop-color="#FFF2DC"/>
</linearGradient>
<linearGradient id="paint11_linear_101_695" x1="45.2333" y1="4.43375" x2="45.2333" y2="93.2858" gradientUnits="userSpaceOnUse">
<stop stop-color="#F7A175"/>
<stop offset="1" stop-color="#FFF2DC"/>
</linearGradient>
<linearGradient id="paint12_linear_101_695" x1="45.2333" y1="4.43375" x2="45.2333" y2="93.2858" gradientUnits="userSpaceOnUse">
<stop stop-color="#F7A175"/>
<stop offset="1" stop-color="#FFF2DC"/>
</linearGradient>
<linearGradient id="paint13_linear_101_695" x1="45.2333" y1="4.43375" x2="45.2333" y2="93.2858" gradientUnits="userSpaceOnUse">
<stop stop-color="#F7A175"/>
<stop offset="1" stop-color="#FFF2DC"/>
</linearGradient>
<linearGradient id="paint14_linear_101_695" x1="45.2333" y1="4.43375" x2="45.2333" y2="93.2858" gradientUnits="userSpaceOnUse">
<stop stop-color="#F7A175"/>
<stop offset="1" stop-color="#FFF2DC"/>
</linearGradient>
<linearGradient id="paint15_linear_101_695" x1="45.2333" y1="4.43375" x2="45.2333" y2="93.2858" gradientUnits="userSpaceOnUse">
<stop stop-color="#F7A175"/>
<stop offset="1" stop-color="#FFF2DC"/>
</linearGradient>
<linearGradient id="paint16_linear_101_695" x1="45.2333" y1="4.43375" x2="45.2333" y2="93.2858" gradientUnits="userSpaceOnUse">
<stop stop-color="#F7A175"/>
<stop offset="1" stop-color="#FFF2DC"/>
</linearGradient>
<linearGradient id="paint17_linear_101_695" x1="45.2333" y1="4.43375" x2="45.2333" y2="93.2858" gradientUnits="userSpaceOnUse">
<stop stop-color="#F7A175"/>
<stop offset="1" stop-color="#FFF2DC"/>
</linearGradient>
</defs>
</svg>
