<svg width="94" height="84" viewBox="0 0 94 84" fill="none" xmlns="http://www.w3.org/2000/svg">
<path d="M14.0413 49.2356C14.1244 51.3554 15.2322 53.4516 17.0708 54.5539C17.0726 54.5549 17.0744 54.5561 17.0762 54.5573C17.7963 54.9911 18.6045 55.2575 19.4414 55.3369C23.7521 55.7976 26.2598 60.1455 25.3914 64.2176C24.7879 67.2748 22.1166 69.8978 18.9104 69.8797C19.6303 69.8633 23.5279 69.9396 24.1483 69.808C25.3151 69.6185 26.4064 69.1088 27.3005 68.3356C31.917 64.3825 30.0617 56.0732 23.7583 55.3369C20.4395 55.0382 18.1914 51.8523 18.3575 48.6389C18.4487 45.6036 20.7479 42.6956 23.8808 42.4931C26.4632 42.5562 28.6622 41.245 29.9257 39.0044C30.4448 38.0775 30.7656 37.0527 30.8676 35.9952C30.9275 35.4155 30.8976 34.8304 30.9309 34.2491C30.9609 33.5527 31.0275 32.8574 31.123 32.1676C32.3711 22.9475 39.8134 15.0364 49.4167 15.0337C48.0488 15.0458 44.5966 14.9715 43.3052 15.1288C41.8733 15.2802 40.4664 15.6123 39.118 16.1173C33.1073 18.3418 28.6842 23.8788 27.214 30.0456C26.8397 31.581 26.6329 33.1524 26.5971 34.7324C26.6742 36.957 25.9182 39.1894 24.2662 40.723C23.3394 41.6075 22.1676 42.1923 20.9036 42.4011C20.3622 42.501 19.8079 42.451 19.264 42.5221C17.5168 42.7302 15.9583 43.8434 15.0471 45.3289L15.0457 45.3314C14.3286 46.5033 13.9788 47.8631 14.0413 49.2356Z" fill="url(#paint0_linear_101_669)"/>
<path d="M44.9179 58.9718C43.379 61.1327 42.4902 63.7275 42.2792 66.3664C42.2865 67.273 42.7819 68.1405 43.5154 68.6613C43.8358 68.8891 44.2013 69.0457 44.5873 69.1206C44.6537 69.1313 44.72 69.1426 44.7869 69.1498C44.8768 69.1576 44.9677 69.1638 45.0582 69.1643H49.3751C47.8969 69.1743 46.6025 67.8307 46.5957 66.3661C46.8116 63.6388 47.7595 60.965 49.3854 58.7586H45.0684C45.0165 58.8285 44.9676 58.9004 44.9179 58.9718Z" fill="url(#paint1_linear_101_669)"/>
<path d="M45.3826 41.6719C46.6132 41.7416 47.7958 42.1734 48.7817 42.9131C48.7826 42.9131 48.7868 42.9165 48.7916 42.9202C54.1409 46.9997 58.5902 53.1343 60.2937 59.6801C61.7858 65.4197 61.4095 71.4544 58.0445 76.4766C55.1911 80.8161 50.3086 83.7505 45.0586 83.7184C45.7958 83.7113 49.6679 83.7442 50.3076 83.6885C51.2059 83.6323 52.0972 83.4939 52.9702 83.2748C57.023 82.2703 60.5157 79.504 62.6888 75.9699C64.1897 73.5259 65.1046 70.7679 65.3623 67.9115C65.6419 64.5986 65.1726 61.2353 64.1389 58.0826C62.1865 52.1818 58.0584 46.7063 53.1382 42.9413C53.1252 42.932 53.1182 42.9268 53.1088 42.9205C53.1035 42.9167 53.0995 42.9139 53.0989 42.9134C52.686 42.6076 52.2387 42.351 51.7663 42.1489C51.1468 41.8869 50.4886 41.7283 49.8177 41.6796C49.7221 41.6476 45.2833 41.6684 45.0589 41.6629C45.1668 41.6628 45.2747 41.6663 45.3826 41.6719Z" fill="url(#paint2_linear_101_669)"/>
<path d="M45.7972 0.493412C58.2424 0.795641 68.8725 9.02582 73.7248 20.2697C83.6652 24.1431 89.5666 34.5764 89.2789 45.0343C89.0822 55.1938 83.0464 65.1478 73.2998 68.6875C72.6775 68.8933 72.0267 69 71.3713 69.0037H75.6882C76.3436 69 76.9944 68.8933 77.6167 68.6875C87.3647 65.146 93.3989 55.1945 93.5957 45.0343C93.8846 34.5782 87.98 24.1404 78.0417 20.2697C73.1643 8.96871 62.4642 0.729145 49.9564 0.48882C49.7385 0.477038 45.4013 0.484826 45.0498 0.482729C45.2995 0.483028 45.5482 0.485025 45.7972 0.493412Z" fill="url(#paint3_linear_101_669)"/>
<path d="M48.7817 42.9131C48.8488 42.9542 61.1274 51.6654 61.1274 66.1317C61.1274 75.8293 53.9186 83.7185 45.0587 83.7185C36.1988 83.7185 28.9937 75.8293 28.9937 66.1317C28.9937 53.1965 39.1979 44.579 41.2447 42.984C43.5385 41.2415 46.5186 41.229 48.7817 42.9131ZM45.0587 69.1645C46.5857 69.1645 47.8293 67.8032 47.8293 66.1317C47.6214 63.4633 46.6646 60.9078 45.0689 58.7589C43.4483 60.9853 42.4822 63.6202 42.2793 66.3664C42.2893 67.8032 43.5317 69.1645 45.0587 69.1645Z" fill="#F87C56"/>
<path d="M88.0813 36.2919C92.1669 49.6858 85.5348 64.2184 73.2998 68.6877C72.6776 68.8935 72.0269 69.0002 71.3715 69.0039C63.7733 68.786 62.3443 57.6632 69.0721 54.8949C78.8091 51.1691 78.0402 35.8328 67.6821 33.5439C65.2893 33.0994 63.3012 31.2302 62.5247 28.6774C59.9782 20.5434 52.9733 15.0524 45.0999 15.0337C34.8994 15.0337 26.6148 24.0836 26.5908 35.2053C26.5908 39.2143 23.6095 42.4782 19.9448 42.4782C12.4465 42.7508 11.9572 54.3869 19.4415 55.3369C23.3403 55.7374 25.8548 59.4339 25.5351 63.1946C25.2513 67.0786 22.1504 70.0565 18.5613 69.8801C-2.7596 67.5461 -5.34154 36.2824 13.8173 29.0174C19.4633 -3.42568 59.643 -10.5788 73.7249 20.2701C80.4801 22.8991 85.8014 28.8087 88.0813 36.2919Z" fill="#F87C56"/>
<g style="mix-blend-mode:multiply" opacity="0.4" filter="url(#filter0_f_101_669)">
<path d="M46.9157 46.3023C47.0512 46.3976 57.614 54.1291 57.614 66.1309C57.614 73.5721 52.0844 79.6253 45.2862 79.6253C38.488 79.6253 32.9588 73.5721 32.9588 66.1309C32.9588 55.2191 41.8549 47.7123 43.6378 46.3174C44.1072 45.9565 44.6821 45.7595 45.2742 45.7568C45.8664 45.7541 46.443 45.9457 46.9157 46.3023ZM51.7962 66.074C51.6384 63.5787 50.9803 61.1407 49.861 58.9049C48.7418 56.6691 47.1843 54.6812 45.2812 53.0596C43.3919 54.6917 41.8444 56.6817 40.728 58.9148C39.6116 61.148 38.9484 63.58 38.7766 66.0707C39.0861 75.6067 51.485 75.6049 51.7962 66.074Z" fill="#D34A0F"/>
<path d="M84.7632 37.5866C88.2122 48.0304 82.8316 61.1504 72.3713 64.7942C70.9042 65.2451 69.3713 64.3412 68.8686 62.8245C68.3152 61.1819 69.0838 59.3534 70.5803 58.7414C83.8102 53.6158 82.752 32.6335 68.5811 29.5178C67.5077 29.3169 66.6383 28.4994 66.2982 27.3822C57.1172 0.993346 23.4582 8.50844 23.0793 35.1974C23.0793 36.9565 21.7736 38.3848 20.1695 38.3848C11.6263 38.4183 7.50255 49.5881 13.0838 56.0573C14.7205 57.9965 16.9458 59.188 19.3494 59.4127C21.0235 59.5357 22.1914 61.217 22.0365 62.8526C21.9086 64.6233 20.4735 65.9197 18.8449 65.7865C0.795621 63.4722 0.0456953 36.2316 17.3886 32.2516C20.5459 1.27241 58.9852 -6.52295 71.2264 23.6133C77.6119 25.5293 82.6781 30.752 84.7632 37.5866Z" fill="#D34A0F"/>
</g>
<path d="M6.13553 49.3276C6.24975 52.8436 8.08595 56.33 11.1377 58.1522C11.7832 58.539 12.4733 58.846 13.1929 59.0663L13.1954 59.0671C13.6377 59.2005 14.0896 59.2998 14.5471 59.3642C15.1761 59.4208 15.811 59.5279 16.3288 59.9177C18.6699 61.6038 17.7474 65.6897 14.7436 65.7867C15.0479 65.7794 15.9371 65.8097 16.2227 65.7553C17.0558 65.6289 17.7903 65.0905 18.2277 64.3793C19.1255 62.964 18.7919 60.8861 17.399 59.9131C17.2373 59.7998 17.0643 59.7034 16.8828 59.6254L16.8784 59.6232C16.693 59.5461 16.5002 59.4881 16.3031 59.4502C15.6182 59.3684 14.9322 59.2753 14.2719 59.0671L14.2694 59.0663C8.10734 57.1488 5.56301 49.6624 8.30744 44.0463C9.47971 41.5824 11.6445 39.5577 14.2781 38.7675C14.9838 38.5529 15.7136 38.4277 16.4505 38.3948C17.6502 38.4416 18.6061 38.0201 19.2603 36.9862C19.2612 36.9849 19.2621 36.9835 19.263 36.982C19.519 36.5648 19.6806 36.0966 19.7367 35.6103C19.7811 35.227 19.7543 34.838 19.7747 34.4531C19.8136 33.0781 19.9593 31.7083 20.2104 30.3559C21.313 24.3021 24.682 18.6422 29.6709 15.0009L29.6733 14.9993C30.8642 14.1299 32.1408 13.3844 33.4832 12.7746L33.4851 12.7739C34.8148 12.1747 36.2035 11.7165 37.6286 11.4068H37.6308C39.0722 11.0984 40.5422 10.9425 42.0162 10.9416C40.1946 10.9096 38.3346 11.0092 36.5547 11.4068H36.5525C35.1267 11.7167 33.7373 12.1751 32.4071 12.7747C31.0645 13.3845 29.7878 14.13 28.5969 14.9995L28.5947 15.001C23.7505 18.5369 20.4293 23.9784 19.2359 29.8346C18.9607 31.1692 18.7885 32.523 18.721 33.8841C18.6786 34.4582 18.7115 35.0369 18.6611 35.6099C18.6047 36.0981 18.4417 36.5679 18.1838 36.9862C17.9742 37.3345 17.694 37.635 17.3612 37.8685C17.0285 38.1019 16.6505 38.2632 16.2517 38.3418C15.6516 38.4239 15.0381 38.3718 14.4403 38.4868C12.2549 38.8108 10.2443 39.9951 8.80237 41.6553C8.42569 42.0883 8.08448 42.551 7.78199 43.0387C7.65112 43.251 7.52712 43.4678 7.4101 43.689C6.50289 45.426 6.06364 47.3693 6.13553 49.3276Z" fill="url(#paint4_linear_101_669)"/>
<path d="M40.0573 53.8479C36.701 57.0116 34.7191 61.4904 34.3832 66.0707C34.3285 68.9982 36.1205 71.9768 38.9513 72.9329L38.9561 72.9344C39.4674 73.1089 39.9998 73.2137 40.539 73.2458C40.7886 73.2644 41.7048 73.2543 41.9689 73.2566C41.5275 73.2555 41.0876 73.2066 40.6567 73.111C37.4894 72.4121 35.3976 69.2281 35.4592 66.0707C35.7413 62.3213 37.1009 58.6406 39.4474 55.691C40.171 54.7553 41.0981 53.8687 41.9635 53.0596H40.8874L40.0573 53.8479Z" fill="url(#paint5_linear_101_669)"/>
<path d="M42.5531 46.3249C44.4514 47.7843 46.14 49.5222 47.6384 51.3899C50.7647 55.3008 52.9702 60.092 53.1953 65.1428C53.3637 67.9369 52.7678 70.7866 51.3758 73.224C49.2791 76.9922 45.2645 79.6581 40.8927 79.6253C41.9577 79.6353 43.1179 79.6353 44.1576 79.4121C47.4983 78.7677 50.4157 76.5589 52.1819 73.6811C52.3483 73.411 52.5058 73.1356 52.6545 72.8548C54.2932 69.7849 54.5948 66.3097 54.0414 62.9134C53.1663 57.3876 50.0749 52.4218 46.1431 48.53L46.1415 48.5284C45.404 47.796 44.6255 47.1061 43.8096 46.4622L43.8067 46.46C43.7362 46.4055 43.6721 46.3565 43.6031 46.3062L43.5981 46.3025C43.4184 46.171 43.2246 46.0599 43.0204 45.9712L43.0164 45.9694C42.763 45.8626 42.4948 45.7951 42.221 45.7692C42.0513 45.7461 41.0815 45.7592 40.8923 45.7561C41.4819 45.7604 42.0547 45.9532 42.527 46.3062C42.5338 46.3106 42.5448 46.3187 42.5531 46.3249Z" fill="url(#paint6_linear_101_669)"/>
<path d="M41.5125 4.58344C53.1744 4.87139 62.8301 12.8992 66.8331 23.6138C75.9827 26.3641 81.574 35.4815 81.3865 44.816C81.2723 53.3762 76.1923 61.8143 67.9774 64.7948C67.7264 64.871 67.4656 64.9098 67.2034 64.9101C67.7082 64.8975 68.5742 64.9668 69.0536 64.7948C77.2683 61.8133 82.3465 53.3793 82.4621 44.819C82.6495 35.4802 77.0614 26.3666 67.9085 23.6139C63.8948 12.8651 54.1882 4.82716 42.4915 4.58074H42.4869C42.132 4.57175 41.2506 4.57635 40.8834 4.57525C41.0939 4.57525 41.3032 4.57655 41.5125 4.58344Z" fill="url(#paint7_linear_101_669)"/>
<path d="M42.5223 46.3023C42.6578 46.3976 53.2205 54.1291 53.2205 66.1309C53.2205 73.5721 47.6908 79.6253 40.8927 79.6253C34.0946 79.6253 28.5652 73.5721 28.5652 66.1309C28.5652 55.2191 37.4614 47.7123 39.2444 46.3174C39.7138 45.9565 40.2887 45.7595 40.8808 45.7568C41.4729 45.7541 42.0496 45.9457 42.5223 46.3023ZM47.4027 66.074C47.2448 63.5787 46.5867 61.1406 45.4674 58.9048C44.3481 56.669 42.7905 54.6812 40.8873 53.0596C38.998 54.6917 37.4505 56.6817 36.3341 58.9148C35.2176 61.148 34.5545 63.58 34.3826 66.0707C34.6921 75.6067 47.0911 75.6049 47.4023 66.074" fill="#FFF2DC"/>
<path d="M80.3697 37.5866C83.8187 48.0304 78.4381 61.1504 67.9778 64.7942C66.5107 65.2451 64.9778 64.3412 64.4751 62.8245C63.9217 61.1819 64.6904 59.3534 66.1867 58.7414C79.4161 53.6158 78.3584 32.6335 64.1876 29.5178C63.1142 29.3169 62.2447 28.4994 61.9047 27.3822C52.7238 0.993346 19.0648 8.50844 18.6859 35.1974C18.6859 36.9565 17.38 38.3848 15.776 38.3848C7.23284 38.4183 3.10909 49.5881 8.69019 56.0573C10.3269 57.9965 12.5523 59.188 14.9559 59.4127C16.6299 59.5357 17.7978 61.217 17.643 62.8526C17.5151 64.6233 16.0799 65.9197 14.4514 65.7865C-3.59795 63.4722 -4.34787 36.2316 12.995 32.2516C16.1523 1.27241 54.5918 -6.52295 66.8329 23.6133C73.2184 25.5293 78.2846 30.752 80.3697 37.5866Z" fill="#FFF2DC"/>
<defs>
<filter id="filter0_f_101_669" x="1.83179" y="1.60426" width="86.9717" height="81.0211" filterUnits="userSpaceOnUse" color-interpolation-filters="sRGB">
<feFlood flood-opacity="0" result="BackgroundImageFix"/>
<feBlend mode="normal" in="SourceGraphic" in2="BackgroundImageFix" result="shape"/>
<feGaussianBlur stdDeviation="1.5" result="effect1_foregroundBlur_101_669"/>
</filter>
<linearGradient id="paint0_linear_101_669" x1="53.82" y1="0.482117" x2="53.82" y2="83.7217" gradientUnits="userSpaceOnUse">
<stop stop-color="#D34A0F"/>
<stop offset="1" stop-color="#F87C56"/>
</linearGradient>
<linearGradient id="paint1_linear_101_669" x1="53.82" y1="0.482117" x2="53.82" y2="83.7217" gradientUnits="userSpaceOnUse">
<stop stop-color="#D34A0F"/>
<stop offset="1" stop-color="#F87C56"/>
</linearGradient>
<linearGradient id="paint2_linear_101_669" x1="53.82" y1="0.482117" x2="53.82" y2="83.7217" gradientUnits="userSpaceOnUse">
<stop stop-color="#D34A0F"/>
<stop offset="1" stop-color="#F87C56"/>
</linearGradient>
<linearGradient id="paint3_linear_101_669" x1="53.82" y1="0.482117" x2="53.82" y2="83.7217" gradientUnits="userSpaceOnUse">
<stop stop-color="#D34A0F"/>
<stop offset="1" stop-color="#F87C56"/>
</linearGradient>
<linearGradient id="paint4_linear_101_669" x1="44.2973" y1="4.57503" x2="44.2973" y2="79.6285" gradientUnits="userSpaceOnUse">
<stop stop-color="#F7A175"/>
<stop offset="1" stop-color="#FFF2DC"/>
</linearGradient>
<linearGradient id="paint5_linear_101_669" x1="44.2973" y1="4.57503" x2="44.2973" y2="79.6285" gradientUnits="userSpaceOnUse">
<stop stop-color="#F7A175"/>
<stop offset="1" stop-color="#FFF2DC"/>
</linearGradient>
<linearGradient id="paint6_linear_101_669" x1="44.2973" y1="4.57503" x2="44.2973" y2="79.6285" gradientUnits="userSpaceOnUse">
<stop stop-color="#F7A175"/>
<stop offset="1" stop-color="#FFF2DC"/>
</linearGradient>
<linearGradient id="paint7_linear_101_669" x1="44.2973" y1="4.57503" x2="44.2973" y2="79.6285" gradientUnits="userSpaceOnUse">
<stop stop-color="#F7A175"/>
<stop offset="1" stop-color="#FFF2DC"/>
</linearGradient>
</defs>
</svg>
