<svg width="81" height="107" viewBox="0 0 81 107" fill="none" xmlns="http://www.w3.org/2000/svg">
<path d="M12.8211 77.746C13.1691 83.4105 16.6251 88.9186 21.9346 91.1421C22.98 91.584 24.077 91.8923 25.1996 92.0597L25.2029 92.0603C26.4975 92.2945 30.0677 92.1701 31.4232 92.1992C30.7862 92.1982 30.1501 92.1518 29.5198 92.0603L29.5163 92.0597C25.4617 91.4817 21.8374 88.9324 19.6691 85.4916C15.5238 79.0486 16.4451 70.0257 22.0065 64.7004C22.3217 64.3587 22.6038 63.9878 22.849 63.5928V63.5921C23.4074 62.68 23.7724 61.6629 23.9216 60.6039C23.9715 60.2455 23.9977 59.8842 24 59.5224V23.3234C23.9952 21.5966 24.4701 19.9025 25.3715 18.4298C25.6221 18.0255 25.9047 17.6421 26.2168 17.2832C27.6527 15.617 29.7938 14.5537 32.0078 14.5681C31.144 14.594 27.3569 14.4945 26.5809 14.6526C24.7683 14.9215 23.1004 15.9022 21.9038 17.2791L21.9013 17.2818C21.5901 17.6397 21.3081 18.0219 21.058 18.4249L21.0555 18.4287L21.0549 18.4298C20.9472 18.6046 20.8452 18.783 20.7488 18.965L20.7481 18.9665C20.2066 20.0003 19.8645 21.1267 19.7397 22.2871C19.7031 22.6313 19.6844 22.9772 19.6836 23.3234V59.5224C19.6809 59.8848 19.6546 60.2466 19.6049 60.6056C19.3955 62.1329 18.7276 63.5607 17.6896 64.7004C14.2063 68.0437 12.4599 72.9527 12.8211 77.746Z" fill="url(#paint0_linear_101_668)"/>
<path d="M34.9687 67.215C38.6237 70.7614 39.6021 76.5745 37.5167 81.1881C35.8393 85.0415 32.0512 87.9076 27.7712 87.8789H32.0877C32.2047 87.8789 32.3211 87.8769 32.4372 87.872C33.1364 87.8479 33.8311 87.7499 34.5097 87.5798C37.2407 86.903 39.5934 85.0384 41.0579 82.6574C44.2068 77.6153 43.2867 70.5991 38.7337 66.7112V23.3234C38.7337 23.2072 38.7321 23.0921 38.7257 22.9772C38.6983 22.358 38.5992 21.7441 38.4306 21.1478C37.8244 18.9966 36.2092 17.1018 34.0694 16.3752L34.0647 16.3737C33.518 16.1865 32.9474 16.0783 32.3702 16.0526C32.2761 16.0474 32.1818 16.0443 32.0873 16.0447H27.7705C30.5277 16.0168 32.9794 17.999 33.9088 20.5347C34.1826 21.2556 34.347 22.0133 34.3965 22.7828C34.4104 22.9625 34.4165 23.1422 34.4165 23.3234V66.7112C34.607 66.8726 34.7901 67.0418 34.9687 67.215Z" fill="url(#paint1_linear_101_668)"/>
<path d="M28.4167 0.0177677C37.2803 0.278961 44.7013 6.62587 47.6007 14.8127C48.3184 16.8165 48.7773 18.9037 48.9662 21.0237C49.0173 21.6019 49.0498 22.1814 49.0633 22.7623C49.0673 22.9487 49.0698 23.1357 49.0698 23.3232V56.6874C56.51 66.4022 57.5151 80.3206 51.7641 91.0878C47.0956 99.9715 38.0826 106.236 27.8888 106.209C29.7313 106.194 33.0907 106.284 34.8661 106.067C37.6749 105.767 40.4142 105.001 42.9713 103.801C49.8438 100.601 55.1219 94.4498 57.7451 87.3856C60.1649 80.9275 60.4254 73.6991 58.5463 67.0681V67.0669C57.4902 63.3151 55.7403 59.7945 53.3871 56.6874V23.3234C53.3871 23.0754 53.3836 22.8293 53.3753 22.5823C53.3582 21.9607 53.3177 21.3403 53.2537 20.7213C53.0293 18.4899 52.5039 16.2992 51.6917 14.2089C49.3832 8.2092 44.526 3.10825 38.3784 1.04447C37.0123 0.580958 35.5993 0.269557 34.1649 0.115915C32.7119 -0.0707941 29.264 0.0302486 27.7718 0.00608626C27.9872 0.0063858 28.2015 0.0104791 28.4167 0.0177677Z" fill="url(#paint2_linear_101_668)"/>
<path d="M80.5877 13.8112C80.494 10.959 78.6844 8.14 75.931 7.20925L75.9263 7.20766C75.3797 7.02058 74.8092 6.91249 74.232 6.88666C74.1379 6.88157 74.0434 6.87837 73.949 6.87877H69.6321C73.4998 6.87687 76.3204 10.4432 76.2788 14.1574C76.3221 17.8716 73.497 21.4368 69.6321 21.4355H73.949C74.4194 21.4342 74.8881 21.3794 75.3462 21.2722C77.0596 20.8767 78.5392 19.7162 79.4552 18.23C80.2662 16.9035 80.6607 15.3642 80.5877 13.8112Z" fill="url(#paint3_linear_101_668)"/>
<path d="M34.4174 66.7112C42.3535 73.4062 38.2486 87.7738 27.7709 87.8793C17.2719 87.7688 13.1951 73.4018 21.1213 66.7112V23.3234C21.1213 19.3096 24.1035 16.0447 27.7709 16.0447C31.4352 16.0447 34.4173 19.3096 34.4173 23.3234L34.4174 66.7112Z" fill="#F87C56"/>
<path d="M49.0696 23.3234V56.6873C63.7077 75.4742 51.702 106.124 27.8887 106.209C3.38963 105.593 -7.73314 75.3095 6.46993 56.6973V23.3234C7.6457 -7.61023 47.8998 -7.60295 49.0696 23.3234ZM38.6785 86.2396C43.4933 80.2653 43.0835 70.3715 37.6974 64.8968C36.4225 63.5311 35.6969 61.6485 35.6893 59.7165V23.3234C35.6873 18.4981 32.0996 14.5709 27.6918 14.5681C23.2766 14.5681 19.6864 18.4954 19.6843 23.3234V59.5224C19.6772 61.4643 18.9505 63.3464 17.6902 64.7004C11.6896 70.2952 11.1612 80.6945 16.3856 86.9247C21.4012 93.3178 30.873 93.9918 36.6041 88.2526L38.6791 86.2392" fill="#F87C56"/>
<path d="M69.632 6.87898C78.4456 7.27356 78.4493 21.04 69.632 21.4363H57.0716C53.4044 21.4363 50.4227 18.1725 50.4227 14.1576C50.4227 10.1428 53.4044 6.87898 57.072 6.87898H69.632Z" fill="#F87C56"/>
<g style="mix-blend-mode:multiply" opacity="0.4" filter="url(#filter0_f_101_668)">
<path d="M70.0904 10.9726C71.6942 10.9726 72.9989 12.4014 72.9989 14.1576C72.9989 15.9139 71.6942 17.3421 70.0904 17.3421H57.5321C53.6756 17.1701 53.6712 11.1469 57.5321 10.9728L70.0904 10.9726Z" fill="#D34A0F"/>
<path d="M31.7769 69.3475C37.9069 73.2453 35.5818 83.6697 28.2288 83.785C20.4593 83.5234 18.5082 72.5972 25.3194 68.9446V23.3225C25.3194 21.5664 26.6246 20.1374 28.2289 20.1374C29.8332 20.1374 31.138 21.5662 31.138 23.3225V68.9444L31.7769 69.3475Z" fill="#D34A0F"/>
<path d="M45.7899 58.2232C59.3617 73.9498 50.1883 101.769 28.3518 102.114C6.44537 101.414 -2.79472 74.1485 10.6684 58.2176V23.322C10.6684 12.7227 18.5461 4.09911 28.2289 4.09911C37.9117 4.09911 45.7899 12.7227 45.7899 23.322V58.2232ZM41.1935 89.8475C48.0552 82.3934 47.87 69.176 40.7566 61.9567C40.1968 61.3382 39.887 60.5337 39.8874 59.6996V23.3225C39.8848 16.2404 34.6198 10.4767 28.1501 10.474C21.6739 10.474 16.4061 16.2376 16.4027 23.3216V59.5226C16.4021 60.3462 16.0988 61.1409 15.5505 61.7556C8.14004 68.6874 7.49787 81.898 14.0453 89.6381C19.6895 96.8357 30.1232 98.4611 37.4174 93.0888C37.4174 93.0888 40.6614 90.4494 41.1935 89.8475Z" fill="#D34A0F"/>
</g>
<path d="M69.6782 14.0063C69.6661 13.736 69.6229 13.4679 69.5495 13.2075L69.549 13.2054C69.3973 12.6723 69.1123 12.1866 68.721 11.7941C68.5531 11.6288 68.3664 11.4836 68.1649 11.3615C68.0014 11.264 67.8285 11.1832 67.6489 11.1203C67.646 11.1192 67.6432 11.1179 67.6404 11.1169H67.639C67.1272 10.9116 66.2411 10.9842 65.6968 10.9727C68.1578 11.0067 69.3495 13.9764 68.107 15.9382C68.1061 15.9397 68.105 15.9412 68.1041 15.9426C67.5992 16.7713 66.6785 17.3504 65.6968 17.342C65.9564 17.3361 66.8681 17.3597 67.108 17.3201C67.9685 17.2176 68.7336 16.6699 69.1826 15.9392L69.1832 15.9382C69.5371 15.3579 69.7095 14.6852 69.6782 14.0063Z" fill="url(#paint4_linear_101_668)"/>
<path d="M6.12731 83.1084C8.22634 89.719 13.7929 95.1097 20.7699 96.1167H20.7712C21.8874 96.2935 23.114 96.3021 24.2465 96.292C23.4436 96.2908 22.6419 96.2322 21.8474 96.1167H21.8458C16.5108 95.3578 11.8015 91.9018 9.09329 87.2947C4.29756 79.3164 5.48889 68.2681 12.233 61.7556C12.6576 61.2813 12.9372 60.6952 13.0386 60.0668C13.0687 59.8869 13.0843 59.7049 13.0852 59.5226V23.3216C13.0852 23.1258 13.0908 22.9322 13.098 22.7376C13.1396 21.7164 13.294 20.703 13.5582 19.7157C14.892 14.5916 19.3992 10.4512 24.8326 10.474C23.7067 10.461 22.4932 10.4682 21.3979 10.7343C18.0219 11.4762 15.1576 13.888 13.5721 16.9258L13.5708 16.9284C12.7826 18.4324 12.2826 20.0705 12.0963 21.7583C12.0387 22.2774 12.0093 22.7993 12.0084 23.3216V59.5226C12.0068 60.346 11.7037 61.1404 11.1564 61.7556C10.3743 62.5197 9.6574 63.3477 9.01309 64.231L9.01202 64.2326C5.10431 69.583 4.09567 76.8309 6.12731 83.1084Z" fill="url(#paint5_linear_101_668)"/>
<path d="M27.8206 68.9444V23.3225C27.8201 23.1646 27.8094 23.007 27.7885 22.8505C27.6944 22.137 27.3693 21.474 26.8629 20.9626C26.8619 20.9616 26.861 20.9605 26.8599 20.9595C26.6932 20.7956 26.5082 20.6513 26.3086 20.5295C26.1409 20.4296 25.9636 20.3467 25.7794 20.2822L25.778 20.2817C25.2661 20.0766 24.3802 20.1491 23.8356 20.1376C25.0737 20.1248 26.1707 21.0407 26.5539 22.1898C26.6638 22.506 26.7269 22.8366 26.7413 23.171C26.7581 23.3274 26.7365 68.7799 26.7448 68.9444H27.8206Z" fill="url(#paint6_linear_101_668)"/>
<path d="M24.3677 4.1092C31.89 4.33105 38.1332 9.86253 40.3785 16.8737C40.8853 18.4272 41.2048 20.0357 41.3303 21.6649C41.3741 22.2164 41.3961 22.7689 41.3962 23.3224V58.223C49.2401 67.424 49.923 81.5709 43.1213 91.5425C38.812 97.9364 31.7521 102.142 23.9582 102.114C32.2135 102.406 39.4212 98.4424 44.0868 91.7047C51.006 81.7214 50.3622 67.4812 42.473 58.223V23.3225C42.4722 22.7687 42.4502 22.2158 42.4069 21.6639C42.2814 20.0352 41.962 18.4272 41.4554 16.8741C39.7265 11.4825 35.5565 6.8051 30.1413 4.96986C28.8717 4.5357 27.553 4.26119 26.2157 4.15263C25.498 4.08683 24.5632 4.10001 23.8358 4.09961C24.0134 4.09981 24.19 4.10331 24.3677 4.1092Z" fill="url(#paint7_linear_101_668)"/>
<path d="M32.0003 75.7503C31.9739 75.0817 31.8686 74.4186 31.6866 73.7748V73.7739C31.1774 71.9808 30.0446 70.3476 28.4597 69.3475L27.8206 68.9444L26.7446 68.9444L27.3836 69.3475C30.4239 71.2583 31.6614 75.3545 30.4957 78.7004C29.5661 81.551 26.9018 83.8087 23.8361 83.7848C24.5134 83.7798 25.4136 83.8172 26.0718 83.6793C28.0359 83.3353 29.7561 82.0466 30.7924 80.3624L30.7932 80.3609C31.6406 78.9763 32.0605 77.3725 32.0003 75.7503Z" fill="url(#paint8_linear_101_668)"/>
<path d="M65.6968 10.9726C67.3006 10.9726 68.6054 12.4014 68.6054 14.1576C68.6054 15.9139 67.3006 17.3421 65.6968 17.3421H53.1386C49.2821 17.1701 49.2777 11.1469 53.1386 10.9728L65.6968 10.9726Z" fill="#FFF2DC"/>
<path d="M27.3834 69.3475C33.5133 73.2453 31.1882 83.6697 23.8352 83.785C16.0657 83.5234 14.1146 72.5972 20.9258 68.9446V23.3225C20.9258 21.5664 22.2311 20.1374 23.8353 20.1374C25.4395 20.1374 26.7445 21.5662 26.7445 23.3225V68.9444L27.3834 69.3475Z" fill="#FFF2DC"/>
<path d="M41.3962 58.2232C54.9681 73.9498 45.7948 101.769 23.9582 102.114C2.05233 101.414 -7.18826 74.1485 6.27487 58.2176V23.322C6.27487 12.7227 14.1526 4.09911 23.8353 4.09911C33.518 4.09911 41.3962 12.7227 41.3962 23.322V58.2232ZM36.8003 89.8475C43.6619 82.3934 43.4769 69.176 36.3634 61.9567C35.8037 61.3382 35.4939 60.5337 35.4941 59.6996V23.3225C35.4916 16.2404 30.2266 10.4767 23.7569 10.474C17.2808 10.474 12.0128 16.2376 12.0095 23.3216V59.5226C12.0089 60.3462 11.7056 61.1409 11.1573 61.7556C3.74689 68.6874 3.10473 81.898 9.65212 89.6381C15.2963 96.8357 25.7301 98.4611 33.0243 93.0888C34.4401 92.2062 35.7134 91.1133 36.8003 89.8475Z" fill="#FFF2DC"/>
<defs>
<filter id="filter0_f_101_668" x="1.38928" y="1.09911" width="74.6096" height="104.015" filterUnits="userSpaceOnUse" color-interpolation-filters="sRGB">
<feFlood flood-opacity="0" result="BackgroundImageFix"/>
<feBlend mode="normal" in="SourceGraphic" in2="BackgroundImageFix" result="shape"/>
<feGaussianBlur stdDeviation="1.5" result="effect1_foregroundBlur_101_668"/>
</filter>
<linearGradient id="paint0_linear_101_668" x1="46.6854" y1="0" x2="46.6854" y2="106.215" gradientUnits="userSpaceOnUse">
<stop stop-color="#D34A0F"/>
<stop offset="1" stop-color="#F87C56"/>
</linearGradient>
<linearGradient id="paint1_linear_101_668" x1="46.6854" y1="0" x2="46.6854" y2="106.215" gradientUnits="userSpaceOnUse">
<stop stop-color="#D34A0F"/>
<stop offset="1" stop-color="#F87C56"/>
</linearGradient>
<linearGradient id="paint2_linear_101_668" x1="46.6854" y1="0" x2="46.6854" y2="106.215" gradientUnits="userSpaceOnUse">
<stop stop-color="#D34A0F"/>
<stop offset="1" stop-color="#F87C56"/>
</linearGradient>
<linearGradient id="paint3_linear_101_668" x1="46.6854" y1="0" x2="46.6854" y2="106.215" gradientUnits="userSpaceOnUse">
<stop stop-color="#D34A0F"/>
<stop offset="1" stop-color="#F87C56"/>
</linearGradient>
<linearGradient id="paint4_linear_101_668" x1="37.3928" y1="4.09879" x2="37.3928" y2="102.129" gradientUnits="userSpaceOnUse">
<stop stop-color="#F7A175"/>
<stop offset="1" stop-color="#FFF2DC"/>
</linearGradient>
<linearGradient id="paint5_linear_101_668" x1="37.3928" y1="4.09879" x2="37.3928" y2="102.129" gradientUnits="userSpaceOnUse">
<stop stop-color="#F7A175"/>
<stop offset="1" stop-color="#FFF2DC"/>
</linearGradient>
<linearGradient id="paint6_linear_101_668" x1="37.3928" y1="4.09879" x2="37.3928" y2="102.129" gradientUnits="userSpaceOnUse">
<stop stop-color="#F7A175"/>
<stop offset="1" stop-color="#FFF2DC"/>
</linearGradient>
<linearGradient id="paint7_linear_101_668" x1="37.3928" y1="4.09879" x2="37.3928" y2="102.129" gradientUnits="userSpaceOnUse">
<stop stop-color="#F7A175"/>
<stop offset="1" stop-color="#FFF2DC"/>
</linearGradient>
<linearGradient id="paint8_linear_101_668" x1="37.3928" y1="4.09879" x2="37.3928" y2="102.129" gradientUnits="userSpaceOnUse">
<stop stop-color="#F7A175"/>
<stop offset="1" stop-color="#FFF2DC"/>
</linearGradient>
</defs>
</svg>
