<svg width="94" height="98" viewBox="0 0 94 98" fill="none" xmlns="http://www.w3.org/2000/svg">
<path d="M31.2845 82.9559C35.0087 83.361 37.4961 87.0239 37.2536 90.631C37.1063 94.1828 34.3048 97.4835 30.6178 97.473C31.3707 97.454 35.239 97.5379 35.8942 97.3963C36.8068 97.2489 37.6755 96.9011 38.4376 96.3779C40.5988 94.9165 41.7609 92.2302 41.5627 89.6536C41.4063 86.8708 39.6039 84.1587 36.9192 83.2501L36.9134 83.2482C36.366 83.061 35.7946 82.9529 35.2166 82.9271C35.1226 82.922 35.0286 82.9188 34.9342 82.9193H30.6174C30.8402 82.9202 31.0629 82.9324 31.2845 82.9559Z" fill="url(#paint0_linear_101_685)"/>
<path d="M18.5481 78.435C20.9199 78.3271 23.043 76.7311 24.067 74.6281C25.23 72.3117 25.1279 69.4111 23.7964 67.1859C23.2434 66.2514 22.4792 65.4595 21.5651 64.8736C21.2389 64.6556 20.8761 64.5034 20.5341 64.3136C20.2327 64.1366 19.957 63.9192 19.7147 63.6673C18.3686 62.2741 18.1997 59.9641 19.2147 58.3356C19.7723 57.4293 20.6973 56.7355 21.7545 56.5506C22.3199 56.4545 22.9014 56.5193 23.4644 56.3952C25.304 56.0731 26.9156 54.8659 27.8856 53.2884C28.5159 52.2624 28.8962 51.1026 28.9958 49.9026C29.0508 49.0386 29.0193 48.1679 29.1328 47.3074C29.3421 45.4091 29.8775 43.5611 30.7156 41.8449C33.0335 37.0401 37.8644 33.5523 43.2888 33.5823C41.5905 33.6197 38.1498 33.4441 36.5255 33.8136C33.4743 34.3849 30.6921 36.0891 28.6653 38.4235C28.1099 39.0627 27.6066 39.7455 27.1602 40.4652C25.8602 42.5804 25.0544 44.9618 24.8028 47.4318C24.653 48.6327 24.8014 49.8636 24.4964 51.0451C23.9465 53.4328 22.1539 55.5687 19.7638 56.2509C19.3481 56.3713 18.9208 56.4472 18.489 56.4771C18.201 56.5037 17.9084 56.481 17.6212 56.5225C16.8706 56.6219 16.1694 56.9518 15.6143 57.4666C15.3378 57.7226 15.0968 58.0145 14.8977 58.3345L14.8971 58.3356C14.4771 59.0305 14.2513 59.8255 14.2434 60.6375C14.2355 61.4495 14.4457 62.2487 14.8521 62.9518L14.8527 62.9527C15.1852 63.5141 15.6543 63.9821 16.2165 64.3132C16.8854 64.6489 17.5498 65.0061 18.1035 65.5188C19.5134 66.7631 20.3616 68.5804 20.5238 70.4447C20.9265 74.3939 18.0593 78.4296 13.9097 78.4437C14.0141 78.4402 18.618 78.4537 18.5481 78.435Z" fill="url(#paint1_linear_101_685)"/>
<path d="M41.5773 71.547C41.4917 68.6856 39.6827 65.852 36.9192 64.9183L36.9138 64.9166C36.3668 64.7292 35.7957 64.6211 35.218 64.5954C35.1237 64.5902 35.0293 64.5871 34.9347 64.5875H30.6178C34.487 64.5851 37.3081 68.1502 37.2666 71.8661C37.3099 75.5814 34.4842 79.1459 30.6178 79.1441H34.9347C35.4056 79.1428 35.8748 79.0881 36.3333 78.9809C38.047 78.5856 39.5269 77.4253 40.4432 75.9389L40.4451 75.9355C41.2497 74.6175 41.6438 73.0898 41.5773 71.547Z" fill="url(#paint2_linear_101_685)"/>
<path d="M40.0299 19.0389C41.3693 19.0786 42.7037 19.2213 44.0212 19.4655H48.3381C47.2213 19.2585 46.0922 19.1244 44.9579 19.0642C43.9905 18.9951 40.2863 19.0364 39.2582 19.026C39.5155 19.0262 39.7728 19.0293 40.0299 19.0389Z" fill="url(#paint3_linear_101_685)"/>
<path d="M48.0571 73.7696C51.7826 74.1749 54.269 77.839 54.0265 81.4469C53.8791 84.9986 51.0769 88.2997 47.3901 88.2891C48.1428 88.2701 52.0114 88.3539 52.6664 88.2124C53.6413 88.0545 54.5651 87.6688 55.3628 87.0866C57.4289 85.6029 58.5279 82.9848 58.3361 80.47C58.18 77.6843 56.3754 74.9685 53.6865 74.0621C53.1392 73.8748 52.5679 73.7666 51.9899 73.7409C51.8959 73.7358 51.8015 73.7326 51.7071 73.7331H47.3901C47.6129 73.734 47.8355 73.7462 48.0571 73.7696Z" fill="url(#paint4_linear_101_685)"/>
<path d="M58.3483 62.3594C58.2548 59.5072 56.4452 56.6888 53.6917 55.7579C53.6899 55.7575 53.6881 55.7569 53.6863 55.7563C53.1391 55.5691 52.568 55.4609 51.9903 55.4351C51.8961 55.4299 51.8016 55.4268 51.7071 55.4273H47.3901C51.2592 55.4247 54.0809 58.9899 54.0397 62.706C54.0831 66.4216 51.257 69.986 47.3901 69.984C47.6067 69.9772 52.0634 70.0011 52.1358 69.9673C52.8803 69.9148 53.6091 69.7274 54.2866 69.4144C56.94 68.1977 58.503 65.2289 58.3483 62.3594Z" fill="url(#paint5_linear_101_685)"/>
<path d="M64.3386 36.1321C64.78 36.3691 65.2129 36.6213 65.6375 36.8887H69.9544C69.3702 36.5198 68.769 36.1801 68.1507 35.8695C66.4851 32.2194 64.1141 28.9346 61.1742 26.2041C61.1264 24.5437 61.4179 22.8911 62.0308 21.3472H57.7139C57.1009 22.891 56.8094 24.5437 56.8574 26.2041C59.7971 28.9347 62.1681 32.2194 63.8338 35.8695C64.0027 35.9547 64.1719 36.0416 64.3386 36.1321Z" fill="url(#paint6_linear_101_685)"/>
<path d="M72.32 75.6855C80.3575 69.7174 83.2293 58.6663 80.1621 49.2941C87.3443 46.0531 92.3253 39.0618 93.8618 31.4214C94.2967 29.0501 93.6212 26.4449 91.9209 24.7059C90.8803 23.5736 89.4425 22.8011 87.9061 22.6433H87.9055C87.5952 22.5764 83.3626 22.6202 82.9338 22.6085C84.7011 22.5975 86.4172 23.4082 87.6041 24.7059C89.3043 26.4451 89.9797 29.0499 89.5448 31.4214C88.0072 39.0616 83.0278 46.0533 75.8452 49.2941C78.9127 58.6674 76.0397 69.7172 68.0031 75.6855C66.9347 76.4704 65.6452 76.8968 64.3195 76.9036H68.6364C69.9621 76.8968 71.2516 76.4704 72.32 75.6855Z" fill="url(#paint7_linear_101_685)"/>
<path d="M69.5 6.54919C69.6803 7.6285 69.6358 8.73347 69.3692 9.79477C68.2403 15.0042 71.0578 20.844 76.2112 22.6048C77.0942 22.9063 78.0175 23.0737 78.9501 23.1014H78.9545C79.0426 23.104 79.1309 23.1053 79.2195 23.1052H83.5369C76.7575 23.0678 72.3176 16.134 73.6866 9.79467C74.6602 6.10842 72.6538 1.78954 68.8416 0.783906L68.8353 0.782395C68.6881 0.744554 68.5401 0.710207 68.3908 0.68255C67.642 0.49005 63.7912 0.60976 62.9592 0.578708C66.3196 0.567526 68.9896 3.3331 69.5 6.54919Z" fill="url(#paint8_linear_101_685)"/>
<path d="M30.6178 82.9192C34.2852 82.9192 37.2667 86.1829 37.2667 90.1943C36.9021 99.8514 24.3317 99.8483 23.9685 90.1943C23.9685 86.1829 26.9499 82.9192 30.6178 82.9192Z" fill="#F87C56"/>
<path d="M30.6178 64.5875C34.2852 64.5875 37.2667 67.8516 37.2667 71.8662C36.9019 81.5223 24.3318 81.5193 23.9685 71.8662C23.9685 67.8516 26.9499 64.5875 30.6178 64.5875Z" fill="#F87C56"/>
<path d="M47.3901 73.7331C51.0581 73.7331 54.0397 76.9966 54.0397 81.0105C53.6745 90.6654 41.1092 90.6662 40.7443 81.0105C40.744 76.9966 43.7254 73.7331 47.3901 73.7331Z" fill="#F87C56"/>
<path d="M47.3901 55.4272C51.0581 55.4272 54.0397 58.6921 54.0397 62.7059C53.6751 72.3599 41.1085 72.3608 40.7443 62.7059C40.744 58.692 43.7254 55.4272 47.3901 55.4272Z" fill="#F87C56"/>
<path d="M87.604 24.7058C89.2345 26.3619 89.9993 28.9572 89.5448 31.4214C87.8658 39.5596 82.732 46.1618 75.8451 49.2941C79.0025 58.6037 75.8146 70.0511 68.0031 75.6856C66.9346 76.4705 65.6452 76.8969 64.3195 76.9037C57.4589 76.7965 55.3582 67.2353 60.664 63.5057C66.415 59.6916 64.7901 49.8326 57.7548 48.8232C55.2036 48.3517 53.2142 46.4825 52.4376 43.9297C46.5837 27.5979 25.1051 31.6659 24.709 49.2156C24.709 53.2293 21.7276 56.4942 18.0608 56.4942C15.9564 56.4942 14.2438 58.3676 14.2438 60.6705C14.2338 62.3401 15.1241 63.8248 16.5112 64.4688C23.0389 67.5569 21.2089 78.3001 13.9096 78.444C13.0092 78.4346 12.1197 78.2449 11.2937 77.8863C-2.94252 71.1875 -2.08265 48.9188 11.9571 43.1765C14.8516 27.4371 29.0915 16.5658 44.0212 19.4655C46.1588 9.88305 53.6386 1.75871 62.9588 0.578247C63.5584 0.579214 64.1547 0.668034 64.7286 0.84185C68.2631 1.91019 70.346 5.92802 69.369 9.7948C67.8983 16.3031 72.8599 23.2361 79.2196 23.1053C79.9482 23.0919 80.6727 22.9932 81.3783 22.8112C83.6126 22.2142 85.9993 22.9538 87.604 24.7058ZM66.7293 36.8514C68.2081 36.8598 69.6701 36.5387 71.0093 35.9115C64.9493 33.3001 60.0946 27.9807 57.7139 21.3472C57.1003 22.8909 56.8088 24.5437 56.8573 26.2041C59.7988 28.9331 62.17 32.2182 63.8337 35.8696C64.4468 36.1774 65.0502 36.517 65.6374 36.8887C65.9153 36.8902 66.1938 36.8853 66.4687 36.8597L66.7293 36.8514Z" fill="#F87C56"/>
<g style="mix-blend-mode:multiply" opacity="0.4" filter="url(#filter0_f_101_685)">
<path d="M30.9434 68.6818C32.5482 68.6818 33.8526 70.1096 33.8526 71.8655C33.6924 76.09 28.1949 76.0898 28.0349 71.8655C28.0349 70.1093 29.3395 68.6818 30.9434 68.6818Z" fill="#D34A0F"/>
<path d="M47.7179 59.5203C49.3218 59.5203 50.6272 60.9493 50.6272 62.7054C50.4668 66.9288 44.9684 66.9279 44.8085 62.7054C44.8086 60.9493 46.114 59.5203 47.7179 59.5203Z" fill="#D34A0F"/>
<path d="M85.3041 27.6187C85.6796 28.008 85.9574 28.4808 86.1146 28.9983C86.2717 29.5159 86.3038 30.0634 86.2081 30.5958C84.5162 38.8476 78.5966 44.9907 70.9783 46.823C75.7566 55.2509 73.961 66.5576 66.2375 72.2917C65.7747 72.6262 65.2186 72.8072 64.6476 72.8092C61.6372 72.7644 60.7128 68.5821 63.027 66.9361C71.6036 61.1679 69.1444 46.2996 58.549 44.7613C57.5032 44.5527 56.6466 43.7406 56.3103 42.6334C53.9422 35.1617 47.1114 29.4926 39.3267 29.4886C29.3805 29.4886 21.296 38.3381 21.296 49.2147C21.296 50.9709 19.9907 52.3998 18.3868 52.3998C10.138 52.5335 7.98296 64.7213 15.375 68.2351C18.2301 69.5952 17.4346 74.2784 14.2352 74.3494C13.8157 74.3425 13.4016 74.2543 13.0156 74.0898C1.14413 68.2895 2.98876 49.4437 15.5948 46.332C17.2323 30.3286 31.8537 19.1008 47.3953 24.4483C47.8952 15.097 54.0633 6.74473 62.6156 4.75833C64.8252 4.18582 66.6841 6.49757 66.0915 8.70403C63.6805 18.9622 72.5454 29.4431 82.5596 26.7945C82.7875 26.7331 83.0224 26.7017 83.2585 26.7012C83.6445 26.7032 84.0259 26.7859 84.3782 26.9439C84.7305 27.1019 85.0458 27.3317 85.3041 27.6187ZM77.7958 35.6433L79.3003 33.7156C73.9973 33.1044 69.7086 31.403 65.9346 27.2736C62.1475 23.1618 60.5757 18.2735 60.0481 12.642L58.2876 14.29C55.2099 17.1716 53.4451 21.367 53.4456 25.8002V28.1851C56.9293 30.9759 59.6813 34.743 61.3925 39.0301C62.5985 39.5362 63.748 40.1677 64.8219 40.9142C65.5528 40.9908 66.2891 41.0014 67.0219 40.9459C71.169 41.0304 75.1079 39.0855 77.7958 35.6433Z" fill="#D34A0F"/>
<path d="M47.7179 77.8261C49.3218 77.8261 50.6272 79.2545 50.6272 81.0102C50.4665 85.2357 44.9687 85.2346 44.8085 81.0102C44.8086 79.2545 46.114 77.8261 47.7179 77.8261Z" fill="#D34A0F"/>
<path d="M30.9434 87.0102C32.5482 87.0102 33.8526 88.4392 33.8526 90.1953C33.6929 94.4187 28.1941 94.4187 28.0349 90.1953C28.0349 88.4392 29.3395 87.0102 30.9434 87.0102Z" fill="#D34A0F"/>
</g>
<path d="M6.44284 61.0541C6.51902 63.176 7.37499 65.2783 8.89302 66.7759L8.89412 66.777C9.34611 67.2237 9.85265 67.6115 10.4018 67.9312C10.6949 68.1123 11.0208 68.2337 11.3113 68.4189C11.6231 68.6185 11.8947 68.875 12.1119 69.1748C13.2901 70.7399 12.7837 73.266 10.9649 74.1009C10.6126 74.2634 10.2295 74.3481 9.84154 74.3493C10.155 74.3416 11.0402 74.3737 11.3349 74.316C12.1617 74.1886 12.8892 73.6531 13.3244 72.9481C13.4017 72.8222 13.471 72.6916 13.5321 72.5571L13.5327 72.5558C13.7526 72.0564 13.851 71.512 13.8197 70.9672C13.7885 70.4225 13.6285 69.8929 13.353 69.4219C13.1346 69.0564 12.8434 68.7397 12.4975 68.4914C12.2502 68.334 11.9926 68.1931 11.7266 68.0699C11.1721 67.7754 10.657 67.4124 10.1933 66.9892C7.61141 64.6551 6.85339 60.6969 8.09466 57.4893C8.94144 55.2428 10.8013 53.3441 13.1333 52.6768C13.6058 52.5399 14.0916 52.4537 14.5824 52.4196C14.8831 52.3897 15.1892 52.4182 15.4884 52.3671C16.3159 52.2403 17.0445 51.7041 17.4791 50.9976L17.4796 50.9967C17.7353 50.5802 17.8968 50.1128 17.953 49.6273C18.0042 49.0151 17.9715 48.3966 18.026 47.7837C18.1478 45.9051 18.5199 44.0511 19.1326 42.271C21.5895 35.0275 28.1898 29.467 36.0089 29.4898C34.7371 29.4756 33.4008 29.4978 32.1512 29.7246C28.1743 30.3876 24.5297 32.569 21.8966 35.5998C19.6205 38.2329 18.0568 41.4052 17.3547 44.8142C17.1176 45.9522 16.9733 47.1075 16.9231 48.2689C16.8932 48.7209 16.9241 49.1774 16.8768 49.6277C16.8204 50.1148 16.6579 50.5837 16.4007 51.0012C16.191 51.3497 15.9107 51.6504 15.5777 51.884C15.2448 52.1176 14.8667 52.279 14.4677 52.3577C14.1907 52.4133 13.9052 52.3945 13.6252 52.411C13.2626 52.4313 12.9021 52.4792 12.5468 52.5544C10.539 52.9719 8.79557 54.315 7.72943 56.0484C6.81306 57.5522 6.36516 59.2948 6.44284 61.0541Z" fill="url(#paint9_linear_101_685)"/>
<path d="M30.5326 71.726C30.5043 70.8927 30.1636 70.1005 29.5782 69.5068C29.4096 69.3401 29.2219 69.1939 29.0191 69.0712C28.8529 68.9723 28.6772 68.8904 28.4947 68.8267L28.4928 68.8261C27.9806 68.6209 27.095 68.6935 26.5497 68.682C28.2262 68.6695 29.4878 70.2553 29.4591 71.8656C29.4912 73.4703 28.221 75.0669 26.5497 75.0506C26.8648 75.043 27.7492 75.0751 28.0457 75.017C28.8732 74.8901 29.6017 74.3545 30.0362 73.6477L30.0369 73.6467C30.3887 73.0697 30.5612 72.4012 30.5326 71.726Z" fill="url(#paint10_linear_101_685)"/>
<path d="M35.7762 23.1268C37.2351 23.1645 38.6869 23.3426 40.1116 23.6585C40.971 23.8398 42.1484 24.2014 43.0019 24.4479H44.0784C42.6735 24.0291 41.1384 23.5817 39.6915 23.3796C38.2222 23.141 36.6786 23.1012 35.1895 23.1185C35.3849 23.1185 35.5806 23.1208 35.7762 23.1268Z" fill="url(#paint11_linear_101_685)"/>
<path d="M47.3071 62.5657C47.2786 61.732 46.9378 60.9396 46.3522 60.3456L46.3492 60.3424C46.1823 60.1785 45.9972 60.0343 45.7976 59.9124L45.7928 59.9097C45.6266 59.8108 45.4508 59.7289 45.2681 59.6651H45.2666C44.9876 59.5706 44.6951 59.5219 44.4005 59.521H43.3244C45.785 59.5551 46.9781 62.5235 45.7353 64.4856C45.7346 64.4866 45.7338 64.4877 45.7331 64.4889C45.2279 65.3176 44.3068 65.8974 43.3244 65.8892C43.6394 65.8816 44.5238 65.9136 44.8201 65.8557C45.6479 65.7287 46.3764 65.193 46.8111 64.4862V64.4855C47.163 63.9088 47.3356 63.2406 47.3071 62.5657Z" fill="url(#paint12_linear_101_685)"/>
<path d="M51.8263 30.7791C54.047 33.1754 55.7784 36.0037 56.9983 39.0306C58.2039 39.5375 59.3533 40.169 60.4277 40.9147C61.1339 40.994 62.0731 40.9846 62.7903 40.9825C62.3672 40.9817 61.9262 40.954 61.5038 40.9147C60.4295 40.1691 59.2802 39.5377 58.0747 39.031C57.0405 36.4381 55.6144 34.0193 53.8463 31.8591C52.732 30.5141 51.4865 29.2836 50.128 28.1859C50.1424 26.9768 50.0756 25.0808 50.2371 23.9051C50.4986 21.5745 51.2685 19.3298 52.4925 17.3293C53.0205 16.4728 53.6336 15.6718 54.3224 14.9385C54.7681 14.447 56.2358 13.1171 56.7307 12.6428H55.6545C55.0494 13.2203 53.6215 14.505 53.0892 15.107C52.4644 15.7947 51.9045 16.5385 51.4165 17.3292C50.1773 19.3561 49.4033 21.6326 49.15 23.9948C49.0035 25.1239 49.0639 27.0331 49.0521 28.1858C50.0369 28.9837 50.964 29.8503 51.8263 30.7791Z" fill="url(#paint13_linear_101_685)"/>
<path d="M62.873 7.66842C62.8175 6.50024 62.1172 5.34871 61.0224 4.88823L61.0206 4.88745C60.764 4.7789 60.4921 4.71072 60.2146 4.68542C60.0504 4.66246 59.0764 4.67604 58.8927 4.67265C59.2546 4.67492 59.6125 4.74818 59.9462 4.88823C61.3829 5.49119 62.087 7.23287 61.6982 8.70357C60.0508 15.9133 63.8718 24.049 71.0258 26.5106C72.354 26.9653 73.7482 27.1977 75.1521 27.1985H76.2283C66.8101 27.1222 60.786 17.4747 62.7745 8.70357C62.8591 8.36541 62.8923 8.01647 62.873 7.66842Z" fill="url(#paint14_linear_101_685)"/>
<path d="M62.6476 40.9469C62.8017 40.9517 63.7866 40.9486 63.961 40.9494C63.8757 40.9494 63.7904 40.9484 63.7041 40.9465H62.628L62.6476 40.9469Z" fill="url(#paint15_linear_101_685)"/>
<path d="M73.4791 44.4157C75.1775 43.3662 76.7071 42.0654 78.0158 40.5576C78.7632 39.6969 79.4399 38.7774 80.0393 37.8078L80.0409 37.8051C81.2764 35.7946 82.1848 33.6006 82.7323 31.3052C82.7885 31.0705 82.8413 30.8342 82.8907 30.5963C82.9852 30.0639 82.9525 29.5168 82.7954 28.9995C82.6383 28.4821 82.3612 28.0092 81.9867 27.6192C81.7522 27.3653 81.4751 27.1542 81.168 26.9954C80.875 26.847 80.5577 26.7523 80.2313 26.7159H80.2294C80.0343 26.6884 79.0797 26.7047 78.8661 26.7006C78.9619 26.7023 79.0583 26.7059 79.1532 26.7159H79.1553C79.8304 26.7948 80.4541 27.1156 80.9111 27.6187C81.2856 28.0087 81.5626 28.4816 81.7197 28.999C81.8768 29.5163 81.9095 30.0634 81.8151 30.5958C80.6469 36.3517 77.1324 41.6894 72.0104 44.6503C71.0812 45.1913 70.107 45.6508 69.0985 46.0237C68.4469 46.2718 67.2574 46.6127 66.5858 46.823C66.9236 47.526 67.5104 48.7009 67.7914 49.403C68.26 50.5504 68.6166 51.7404 68.856 52.9565C70.2638 60.0776 67.7598 67.9019 61.8451 72.2917C61.3823 72.6262 60.8262 72.8072 60.2552 72.8092H61.3313C61.9024 72.8072 62.4584 72.6262 62.9212 72.2917C68.8366 67.9014 71.3405 60.0771 69.932 52.9559C69.6926 51.74 69.3362 50.5501 68.8677 49.4029C68.5865 48.6905 67.992 47.5199 67.6621 46.823C68.3582 46.6054 69.5741 46.2566 70.2386 45.9995C71.3675 45.5776 72.4527 45.0472 73.4791 44.4157Z" fill="url(#paint16_linear_101_685)"/>
<path d="M43.6133 77.8419C45.9115 78.1135 46.9161 80.9371 45.7321 82.7957C45.2271 83.6244 44.3062 84.2035 43.3244 84.1954C43.6393 84.1877 44.5238 84.22 44.8201 84.1618C45.646 84.035 46.3737 83.501 46.8081 82.796L46.8107 82.7922L46.8113 82.7911C47.6115 81.5165 47.4339 79.711 46.3521 78.6512C46.3511 78.6502 46.3502 78.6491 46.3491 78.6481C46.2869 78.5872 46.2219 78.5297 46.1563 78.4731C45.8924 78.254 45.5915 78.0838 45.2676 77.9708C44.9881 77.876 44.695 77.8271 44.3998 77.8261H43.3237C43.4209 77.8275 43.5178 77.8326 43.6133 77.8419Z" fill="url(#paint17_linear_101_685)"/>
<path d="M26.839 87.0262C29.1368 87.2974 30.1411 90.1214 28.9584 91.9794C28.4533 92.8081 27.532 93.3872 26.5498 93.3787C26.8651 93.3711 27.7493 93.4032 28.046 93.3451C28.8737 93.2182 29.6027 92.6826 30.0371 91.9755C30.2828 91.5698 30.4421 91.1177 30.505 90.6476C30.5679 90.1775 30.5331 89.6995 30.4027 89.2435C30.2514 88.7119 29.9676 88.2275 29.5778 87.8356C29.5768 87.8346 29.5758 87.8334 29.5748 87.8325C29.5126 87.7715 29.4476 87.7141 29.382 87.6575C29.1676 87.4799 28.9288 87.3339 28.6731 87.2238C28.614 87.2 28.5546 87.1766 28.4943 87.1553L28.4927 87.1548C27.9808 86.9495 27.0949 87.0221 26.55 87.0106C26.6465 87.0117 26.7433 87.0167 26.839 87.0262Z" fill="url(#paint18_linear_101_685)"/>
<path d="M26.5498 68.6818C28.1546 68.6818 29.4591 70.1096 29.4591 71.8655C29.2989 76.09 23.8012 76.0898 23.6414 71.8655C23.6414 70.1093 24.9459 68.6818 26.5498 68.6818Z" fill="#FFF2DC"/>
<path d="M43.3243 59.5203C44.9282 59.5203 46.2336 60.9493 46.2336 62.7054C46.0732 66.9288 40.5749 66.9279 40.415 62.7054C40.415 60.9493 41.7204 59.5203 43.3243 59.5203Z" fill="#FFF2DC"/>
<path d="M80.911 27.6187C81.2865 28.0079 81.5643 28.4808 81.7215 28.9983C81.8787 29.5159 81.9107 30.0634 81.815 30.5958C80.1231 38.8476 74.2035 44.9907 66.5852 46.823C71.3634 55.2509 69.5679 66.5576 61.8445 72.2917C61.3816 72.6262 60.8256 72.8072 60.2546 72.8092C57.2441 72.7644 56.3198 68.5821 58.634 66.9361C67.2106 61.1679 64.7513 46.2996 54.1559 44.7613C53.1102 44.5527 52.2536 43.7406 51.9171 42.6334C49.5491 35.1617 42.7184 29.4926 34.9336 29.4886C24.9875 29.4886 16.903 38.3381 16.903 49.2147C16.903 50.9709 15.5975 52.3998 13.9936 52.3998C5.74487 52.5335 3.58982 64.7213 10.982 68.2351C13.8371 69.5952 13.0416 74.2784 9.84218 74.3494C9.42266 74.3424 9.00847 74.2543 8.62249 74.0898C-3.24901 68.2895 -1.40438 49.4437 11.2018 46.332C12.8392 30.3286 27.4605 19.1008 43.0022 24.4483C43.5021 15.097 49.6702 6.74473 58.2226 4.75833C60.4322 4.18582 62.2911 6.49757 61.6985 8.70403C59.2875 18.9622 68.1523 29.4431 78.1665 26.7945C78.3944 26.7331 78.6294 26.7017 78.8654 26.7012C79.2515 26.7032 79.6329 26.7858 79.9851 26.9438C80.3374 27.1018 80.6527 27.3317 80.911 27.6187ZM73.4027 35.6433L74.9071 33.7156C69.6042 33.1044 65.3155 31.403 61.5414 27.2736C57.7543 23.1618 56.1826 18.2735 55.655 12.642L53.8945 14.29C50.8167 17.1716 49.052 21.367 49.052 25.8002V28.1851C52.5356 30.9759 55.2877 34.743 56.9988 39.0301C58.2049 39.5362 59.3544 40.1677 60.4283 40.9142C61.1592 40.9908 61.8955 41.0014 62.6283 40.9459C66.7754 41.0304 70.7141 39.0855 73.4022 35.6433" fill="#FFF2DC"/>
<path d="M43.3243 77.8261C44.9282 77.8261 46.2336 79.2545 46.2336 81.0102C46.073 85.2357 40.5751 85.2346 40.415 81.0102C40.415 79.2545 41.7204 77.8261 43.3243 77.8261Z" fill="#FFF2DC"/>
<path d="M26.5498 87.0102C28.1546 87.0102 29.4591 88.4392 29.4591 90.1953C29.2994 94.4187 23.8005 94.4187 23.6414 90.1953C23.6414 88.4392 24.9459 87.0102 26.5498 87.0102Z" fill="#FFF2DC"/>
<defs>
<filter id="filter0_f_101_685" x="2.05145" y="1.66992" width="87.2106" height="94.6929" filterUnits="userSpaceOnUse" color-interpolation-filters="sRGB">
<feFlood flood-opacity="0" result="BackgroundImageFix"/>
<feBlend mode="normal" in="SourceGraphic" in2="BackgroundImageFix" result="shape"/>
<feGaussianBlur stdDeviation="1.5" result="effect1_foregroundBlur_101_685"/>
</filter>
<linearGradient id="paint0_linear_101_685" x1="53.9499" y1="0.569946" x2="53.9499" y2="97.4806" gradientUnits="userSpaceOnUse">
<stop stop-color="#D34A0F"/>
<stop offset="1" stop-color="#F87C56"/>
</linearGradient>
<linearGradient id="paint1_linear_101_685" x1="53.9499" y1="0.569946" x2="53.9499" y2="97.4806" gradientUnits="userSpaceOnUse">
<stop stop-color="#D34A0F"/>
<stop offset="1" stop-color="#F87C56"/>
</linearGradient>
<linearGradient id="paint2_linear_101_685" x1="53.9499" y1="0.569946" x2="53.9499" y2="97.4806" gradientUnits="userSpaceOnUse">
<stop stop-color="#D34A0F"/>
<stop offset="1" stop-color="#F87C56"/>
</linearGradient>
<linearGradient id="paint3_linear_101_685" x1="53.9499" y1="0.569946" x2="53.9499" y2="97.4806" gradientUnits="userSpaceOnUse">
<stop stop-color="#D34A0F"/>
<stop offset="1" stop-color="#F87C56"/>
</linearGradient>
<linearGradient id="paint4_linear_101_685" x1="53.9499" y1="0.569946" x2="53.9499" y2="97.4806" gradientUnits="userSpaceOnUse">
<stop stop-color="#D34A0F"/>
<stop offset="1" stop-color="#F87C56"/>
</linearGradient>
<linearGradient id="paint5_linear_101_685" x1="53.9499" y1="0.569946" x2="53.9499" y2="97.4806" gradientUnits="userSpaceOnUse">
<stop stop-color="#D34A0F"/>
<stop offset="1" stop-color="#F87C56"/>
</linearGradient>
<linearGradient id="paint6_linear_101_685" x1="53.9499" y1="0.569946" x2="53.9499" y2="97.4806" gradientUnits="userSpaceOnUse">
<stop stop-color="#D34A0F"/>
<stop offset="1" stop-color="#F87C56"/>
</linearGradient>
<linearGradient id="paint7_linear_101_685" x1="53.9499" y1="0.569946" x2="53.9499" y2="97.4806" gradientUnits="userSpaceOnUse">
<stop stop-color="#D34A0F"/>
<stop offset="1" stop-color="#F87C56"/>
</linearGradient>
<linearGradient id="paint8_linear_101_685" x1="53.9499" y1="0.569946" x2="53.9499" y2="97.4806" gradientUnits="userSpaceOnUse">
<stop stop-color="#D34A0F"/>
<stop offset="1" stop-color="#F87C56"/>
</linearGradient>
<linearGradient id="paint9_linear_101_685" x1="44.6888" y1="4.67169" x2="44.6888" y2="93.3809" gradientUnits="userSpaceOnUse">
<stop stop-color="#F7A175"/>
<stop offset="1" stop-color="#FFF2DC"/>
</linearGradient>
<linearGradient id="paint10_linear_101_685" x1="44.6888" y1="4.67169" x2="44.6888" y2="93.3809" gradientUnits="userSpaceOnUse">
<stop stop-color="#F7A175"/>
<stop offset="1" stop-color="#FFF2DC"/>
</linearGradient>
<linearGradient id="paint11_linear_101_685" x1="44.6888" y1="4.67169" x2="44.6888" y2="93.3809" gradientUnits="userSpaceOnUse">
<stop stop-color="#F7A175"/>
<stop offset="1" stop-color="#FFF2DC"/>
</linearGradient>
<linearGradient id="paint12_linear_101_685" x1="44.6888" y1="4.67169" x2="44.6888" y2="93.3809" gradientUnits="userSpaceOnUse">
<stop stop-color="#F7A175"/>
<stop offset="1" stop-color="#FFF2DC"/>
</linearGradient>
<linearGradient id="paint13_linear_101_685" x1="44.6888" y1="4.67169" x2="44.6888" y2="93.3809" gradientUnits="userSpaceOnUse">
<stop stop-color="#F7A175"/>
<stop offset="1" stop-color="#FFF2DC"/>
</linearGradient>
<linearGradient id="paint14_linear_101_685" x1="44.6888" y1="4.67169" x2="44.6888" y2="93.3809" gradientUnits="userSpaceOnUse">
<stop stop-color="#F7A175"/>
<stop offset="1" stop-color="#FFF2DC"/>
</linearGradient>
<linearGradient id="paint15_linear_101_685" x1="44.6888" y1="4.67169" x2="44.6888" y2="93.3809" gradientUnits="userSpaceOnUse">
<stop stop-color="#F7A175"/>
<stop offset="1" stop-color="#FFF2DC"/>
</linearGradient>
<linearGradient id="paint16_linear_101_685" x1="44.6888" y1="4.67169" x2="44.6888" y2="93.3809" gradientUnits="userSpaceOnUse">
<stop stop-color="#F7A175"/>
<stop offset="1" stop-color="#FFF2DC"/>
</linearGradient>
<linearGradient id="paint17_linear_101_685" x1="44.6888" y1="4.67169" x2="44.6888" y2="93.3809" gradientUnits="userSpaceOnUse">
<stop stop-color="#F7A175"/>
<stop offset="1" stop-color="#FFF2DC"/>
</linearGradient>
<linearGradient id="paint18_linear_101_685" x1="44.6888" y1="4.67169" x2="44.6888" y2="93.3809" gradientUnits="userSpaceOnUse">
<stop stop-color="#F7A175"/>
<stop offset="1" stop-color="#FFF2DC"/>
</linearGradient>
</defs>
</svg>
