<svg width="95" height="98" viewBox="0 0 95 98" fill="none" xmlns="http://www.w3.org/2000/svg">
<path d="M18.5708 77.9541C20.6975 77.8555 22.6444 76.559 23.7454 74.7651C25.586 71.8567 25.19 67.7146 22.7151 65.291L22.7143 65.2903C22.3118 64.8925 21.8605 64.5472 21.3711 64.2627C21.066 64.0773 20.728 63.952 20.4295 63.7556C20.0908 63.5381 19.7885 63.2685 19.5337 62.9569C17.9773 61.0848 18.3796 57.9306 20.4515 56.6023C20.9255 56.2904 21.4669 56.0958 22.031 56.0344C22.4737 56.0003 22.9207 56.0183 23.3589 55.9378C25.1445 55.6629 26.7377 54.5554 27.7396 53.0684C28.4368 52.0333 28.8702 50.8433 29.0021 49.6023C29.0762 48.9034 29.0326 48.196 29.0938 47.4961C29.5843 39.9352 35.4732 33.1117 43.3276 33.1041C41.629 33.1414 38.188 32.9663 36.5632 33.3347C33.5079 33.9044 30.7217 35.6075 28.6909 37.943C28.1339 38.5838 27.6292 39.2682 27.1817 39.9898C25.9043 42.0681 25.104 44.4041 24.8385 46.8291C24.6999 47.8307 24.7856 48.8486 24.6544 49.8497C24.3905 51.7588 23.3899 53.5739 21.8414 54.7366C20.9684 55.4007 19.9364 55.8241 18.8486 55.9647C18.2687 56.0446 17.6704 55.9701 17.1054 56.1544C16.1927 56.4332 15.4149 57.039 14.921 57.8556L14.9203 57.8568C13.8833 59.5167 14.0853 61.88 15.4958 63.2654C15.7093 63.4725 15.9447 63.6558 16.1978 63.812C16.4474 63.9591 16.7153 64.0698 16.9666 64.2128C17.4853 64.5048 17.9631 64.8642 18.3874 65.2817C20.0183 66.8799 20.7774 69.2531 20.5357 71.5084C20.2232 74.9001 17.4573 77.9775 13.9321 77.9635C14.037 77.9592 18.6413 77.9728 18.5708 77.9541Z" fill="url(#paint0_linear_101_675)"/>
<path d="M37.282 90.3243C37.1673 93.9151 34.369 97.2601 30.6408 97.255H34.9575C35.4284 97.2537 35.8975 97.1989 36.356 97.0917C38.0699 96.6963 39.55 95.5358 40.4665 94.0493C41.0266 93.138 41.3899 92.1196 41.5329 91.0596C41.5815 90.7006 41.6062 90.3387 41.6069 89.9764V62.4824C41.6125 60.9566 41.1661 59.4634 40.3239 58.191C39.3937 56.7864 37.9393 55.7132 36.2847 55.3498C35.8488 55.2535 35.4039 55.2046 34.9575 55.2039H30.6407C33.4971 55.1773 35.9963 57.2837 36.8697 59.9373C37.1112 60.6469 37.25 61.3874 37.282 62.1363C37.2869 62.251 37.29 62.3659 37.29 62.4824V89.9764C37.2901 90.0931 37.287 90.209 37.282 90.3243Z" fill="url(#paint1_linear_101_675)"/>
<path d="M40.0538 18.5579C41.393 18.5979 42.7272 18.7403 44.0447 18.9839H48.3616C47.245 18.7775 46.1162 18.6437 44.9822 18.5834C44.0137 18.5141 40.3101 18.5556 39.2806 18.5451C39.5384 18.5454 39.7962 18.5484 40.0538 18.5579Z" fill="url(#paint2_linear_101_675)"/>
<path d="M56.7736 90.093C57.8043 88.744 58.3586 87.0912 58.3497 85.3935V57.8997C58.3497 57.7836 58.3481 57.6685 58.3417 57.5537C58.3143 56.9353 58.2153 56.3222 58.0468 55.7266C57.4402 53.574 55.8228 51.6781 53.681 50.9533C53.1344 50.766 52.5638 50.6579 51.9865 50.6322C51.8925 50.627 51.7981 50.6239 51.7037 50.6243H47.3872C50.5187 50.6029 53.1332 53.0775 53.8143 56.0481C53.932 56.5423 54.0026 57.0464 54.0252 57.5539C54.0301 57.6687 54.0332 57.7835 54.0332 57.9V85.3938C54.0326 86.0101 53.9612 86.6243 53.8203 87.2243C53.147 90.2034 50.5269 92.6943 47.3872 92.6725C48.1314 92.6482 52.0142 92.741 52.6627 92.5957C54.2941 92.3428 55.7751 91.3955 56.7736 90.093Z" fill="url(#paint3_linear_101_675)"/>
<path d="M58.7924 27.6598C60.8602 29.966 62.5677 32.5714 63.8572 35.3877C64.4734 35.6979 65.074 36.04 65.6582 36.4069C65.7081 36.4069 65.7555 36.4099 65.8045 36.41H70.1214C70.0731 36.41 70.0238 36.407 69.9751 36.4069C69.391 36.0399 68.7903 35.698 68.1741 35.3877C66.5079 31.7382 64.1372 28.4537 61.1983 25.7228C61.1507 24.0628 61.4416 22.4105 62.0531 20.8665H57.7363C57.7014 20.953 57.6676 21.0404 57.6347 21.1286V21.1291L57.6336 21.132C57.0928 22.6004 56.8375 24.1586 56.8816 25.7228C57.5473 26.3386 58.1843 26.9843 58.7924 27.6598Z" fill="url(#paint4_linear_101_675)"/>
<path d="M73.9129 7.42801C73.9066 5.62083 73.2661 3.80366 72.052 2.45356C71.0635 1.28877 69.6748 0.45248 68.1601 0.210058C67.5093 0.0557985 63.5983 0.155047 62.8642 0.128788C64.7329 0.1213 66.5385 1.03377 67.7351 2.45356C69.0318 3.89392 69.669 5.86295 69.5908 7.78895V7.78966C69.5608 8.79908 69.2386 9.77077 69.1856 10.7788C69.0787 12.1613 69.2205 13.5518 69.6043 14.8843C70.5239 18.1492 72.9821 21.0199 76.2282 22.1219L76.2345 22.124C77.0006 22.3861 77.7977 22.5467 78.6055 22.6019C78.898 22.6455 83.147 22.6167 83.5588 22.6244C78.6396 22.6435 74.6382 18.7127 73.7097 14.0221C73.4605 12.8269 73.4028 11.5996 73.5386 10.3863C73.6441 9.39674 73.9468 8.43085 73.9129 7.42801Z" fill="url(#paint5_linear_101_675)"/>
<path d="M94.0085 29.2093C93.9362 27.3788 93.2381 25.5471 91.9471 24.2302C90.9062 23.0956 89.4674 22.3202 87.929 22.1623C87.6195 22.0955 83.3853 22.1394 82.9575 22.1277C84.7274 22.1168 86.4436 22.9301 87.6302 24.2303C89.3296 25.9691 90.0023 28.5727 89.5684 30.943C88.0308 38.5827 83.0522 45.5759 75.8681 48.8133C78.202 55.9799 77.1294 64.2721 72.7097 70.425C71.768 71.746 70.6806 72.9568 69.4679 74.0344C67.9738 75.3983 66.3954 76.4453 64.3452 76.423H68.662C69.9848 76.4168 71.2718 75.9922 72.3386 75.2101C73.9188 74.0356 75.3299 72.6493 76.5321 71.0901C81.3571 64.884 82.6071 56.2413 80.185 48.8133C87.3692 45.5757 92.3484 38.5827 93.8852 30.943C93.9889 30.3712 94.0302 29.7899 94.0085 29.2093Z" fill="url(#paint6_linear_101_675)"/>
<path d="M30.6408 55.2039C34.3076 55.2039 37.2904 58.4688 37.2904 62.4825V89.9763C37.2904 93.9913 34.3079 97.2549 30.6408 97.2549C26.9765 97.2549 23.9936 93.9913 23.9936 89.9763V62.4825C23.9936 58.4686 26.9761 55.2039 30.6408 55.2039Z" fill="#F87C56"/>
<path d="M47.3872 50.624C51.0514 50.624 54.0332 53.8889 54.0332 57.8997V85.3935C54.0332 89.4086 51.0518 92.6722 47.3872 92.6722C43.7203 92.6722 40.7375 89.4087 40.7375 85.3935V57.8997C40.7378 53.8888 43.7203 50.624 47.3872 50.624Z" fill="#F87C56"/>
<path d="M87.6302 24.2302C89.2576 25.8838 90.0222 28.4763 89.5683 30.9429C87.8892 39.084 82.7528 45.6862 75.8681 48.8132C79.0217 58.1287 75.8632 69.5896 68.0215 75.2099C66.9548 75.9921 65.6679 76.4167 64.3451 76.4229C57.4765 76.3174 55.3837 66.7567 60.6874 63.0249C66.4336 59.1442 64.7759 49.3017 57.679 48.3442C55.0938 47.868 53.1054 45.9987 52.3332 43.4435C51.326 40.2999 49.3393 37.5314 46.7545 35.6882C37.2311 28.6525 24.5377 36.8721 24.7326 48.7372C24.7326 52.751 21.75 56.0144 18.0829 56.0144C15.9791 56.0144 14.2666 57.8891 14.2666 60.1926C14.2574 61.8592 15.149 63.3439 16.5344 63.9908C19.014 65.1434 20.6034 67.7943 20.5791 70.7453C20.5883 75.7818 15.7353 79.4159 11.316 77.4078C-2.7037 70.7739 -2.36023 48.7281 11.9803 42.6926C14.8768 26.9556 29.1147 16.0847 44.0445 18.984C46.1121 9.71324 52.8527 2.37438 61.5049 0.281737C63.8147 -0.243445 66.1627 0.609122 67.7352 2.45355C69.2965 4.19084 69.9437 6.7202 69.4163 9.16909C69.2473 9.97151 69.157 10.7885 69.1468 11.6085C69.1077 18.4406 75.0525 23.9576 81.3968 22.3326C81.9057 22.1966 82.4303 22.1277 82.957 22.1276C84.7173 22.1276 86.3764 22.8743 87.6302 24.2302ZM66.9735 36.3754C68.3853 36.3742 69.7784 36.0539 71.0489 35.4385C64.9819 32.8294 60.1196 27.507 57.7362 20.8659C57.1241 22.4097 56.8332 24.0621 56.8814 25.7222C59.822 28.4517 62.1929 31.7365 63.8572 35.3871C64.4719 35.6955 65.0737 36.0381 65.6582 36.4062C65.9406 36.4126 66.2231 36.4039 66.5045 36.3802L66.9737 36.3749" fill="#F87C56"/>
<g style="mix-blend-mode:multiply" opacity="0.4" filter="url(#filter0_f_101_675)">
<path d="M30.9583 59.2991C32.5625 59.2991 33.8676 60.7277 33.8676 62.4841V89.9777C33.8676 91.7337 32.5625 93.1622 30.9583 93.1622C29.3541 93.1622 28.049 91.7337 28.049 89.9777V62.4836C28.049 60.7275 29.3542 59.2991 30.9583 59.2991Z" fill="#D34A0F"/>
<path d="M47.7024 54.7168C49.3066 54.7168 50.6117 56.1455 50.6117 57.9019V85.3953C50.6117 87.1513 49.3066 88.5804 47.7024 88.5804C46.0982 88.5804 44.7931 87.1517 44.7931 85.3953V57.9019C44.7931 56.1458 46.0987 54.7168 47.7024 54.7168Z" fill="#D34A0F"/>
<path d="M85.3173 27.1407C85.6929 27.5299 85.9707 28.0027 86.1279 28.5203C86.285 29.0378 86.317 29.5853 86.2213 30.1176C84.5298 38.3695 78.6105 44.5127 70.992 46.3447C75.7625 54.77 73.9985 66.0993 66.2516 71.8129C64.9237 72.7894 63.038 72.3237 62.2079 70.8829C61.3373 69.4956 61.6933 67.3951 63.042 66.4565C71.7641 60.508 68.8729 45.6001 58.431 44.2827C57.3877 44.0715 56.534 43.2599 56.1984 42.156C54.9004 38.1023 52.3892 34.5978 49.1169 32.266C37.0331 23.4127 21.1154 33.7111 21.3096 48.7375C21.3096 50.4933 20.0043 51.9219 18.4001 51.9219C10.1529 52.0544 7.9947 64.2427 15.3884 67.7572C18.2439 69.1151 17.4473 73.8015 14.2488 73.8716C13.8291 73.8648 13.4147 73.7762 13.0289 73.6108C1.32279 67.9027 2.76793 49.1272 15.6083 45.854C17.2449 29.8517 31.8687 18.6209 47.4088 23.9702C47.908 14.6242 54.0714 6.27339 62.6168 4.28299C63.1105 4.18202 63.6224 4.21788 64.0973 4.38667C64.5721 4.55545 64.9918 4.85076 65.311 5.24071C65.6688 5.64175 65.9262 6.12201 66.0621 6.64196C66.1981 7.16192 66.2086 7.70673 66.0929 8.23155C63.7178 18.4913 72.5491 28.9618 82.5734 26.3168C82.8012 26.2549 83.0362 26.2234 83.2723 26.2229C83.6583 26.225 84.0396 26.3077 84.3918 26.4658C84.7439 26.6238 85.0592 26.8537 85.3173 27.1407ZM77.809 35.1655L79.3133 33.2377C74.0105 32.6267 69.7214 30.9242 65.9473 26.7959C62.1613 22.6846 60.5874 17.7944 60.0616 12.163L58.3004 13.8118C55.2232 16.6938 53.458 20.8882 53.4589 25.3221V27.707C56.9413 30.4984 59.696 34.2648 61.4053 38.5523C62.6114 39.0581 63.7609 39.6892 64.835 40.4354C65.5658 40.5132 66.3023 40.5239 67.035 40.4672C71.1824 40.5501 75.1201 38.6081 77.809 35.1655Z" fill="#D34A0F"/>
</g>
<path d="M29.4706 90.1235C29.4478 90.7016 29.2773 91.2642 28.9756 91.7577C28.9747 91.7593 28.9737 91.7607 28.9727 91.7622C28.4676 92.5909 27.5468 93.17 26.5647 93.1617C26.8797 93.1541 27.7642 93.1862 28.0605 93.1282C28.8881 93.0013 29.6166 92.4655 30.0512 91.7587L30.0518 91.7577C30.3553 91.261 30.526 90.6946 30.5475 90.113C30.5557 90.0474 30.5475 62.5794 30.5502 62.4836C30.5497 62.1626 30.5052 61.8432 30.4181 61.5343C30.267 61.0018 29.983 60.5165 29.5926 60.1241C29.5916 60.1232 29.5907 60.1221 29.5896 60.121C29.5274 60.0602 29.4625 60.0025 29.3968 59.9461C29.1332 59.727 28.8324 59.5569 28.5088 59.4438H28.5072C27.9953 59.2386 27.1094 59.311 26.5647 59.2996C27.8671 59.2855 29.0004 60.2957 29.3377 61.5212C29.4277 61.8343 29.4736 62.1584 29.474 62.4841C29.4684 62.615 29.4821 90.0097 29.4706 90.1235Z" fill="url(#paint7_linear_101_675)"/>
<path d="M30.7553 29.8674C32.4506 29.2999 34.2265 29.0104 36.0143 29.0099C34.7943 29.0037 33.5141 29.0085 32.3154 29.2195C28.5025 29.8178 24.9721 31.8136 22.3538 34.6303C19.9669 37.1758 18.3034 40.3714 17.4968 43.7615C17.1827 45.0834 16.9953 46.4322 16.9369 47.7896C16.8976 48.4985 16.978 49.2316 16.7115 49.9063C16.3196 51.038 15.2292 51.9343 14.0065 51.9211C10.8428 51.8967 8.06714 54.1576 7.00919 57.0693C5.83962 60.171 6.51546 63.9511 8.90624 66.297L8.90724 66.298C9.35932 66.7448 9.86605 67.1326 10.4154 67.4524C10.8299 67.7009 11.3012 67.8594 11.6619 68.1912C12.418 68.8376 12.8063 69.8539 12.7596 70.8394C12.7248 72.3844 11.4592 73.8881 9.85527 73.8702C9.99795 73.871 11.0035 73.8749 11.1176 73.8629C11.445 73.8397 11.7655 73.7566 12.0629 73.6178C13.7788 72.819 14.3276 70.5226 13.3681 68.9433L13.3669 68.9414C13.0085 68.3521 12.4692 67.8946 11.8293 67.6372C11.2716 67.3503 10.7524 66.9941 10.2839 66.5771C7.73148 64.3348 6.90834 60.5139 7.99026 57.3387C8.78212 54.9495 10.6995 52.8969 13.1475 52.1967C13.6199 52.0598 14.1055 51.9735 14.5962 51.9395C14.897 51.9095 15.2032 51.9379 15.5026 51.8869C16.3286 51.7603 17.0568 51.226 17.4912 50.5209C17.4921 50.5194 17.493 50.5181 17.4939 50.5167C17.7494 50.1001 17.911 49.6328 17.9672 49.1473C18.0141 48.6968 17.9842 48.2403 18.0136 47.7885C18.0735 46.3838 18.2724 44.9886 18.6073 43.6231C20.0856 37.4323 24.635 31.8884 30.7553 29.8674Z" fill="url(#paint8_linear_101_675)"/>
<path d="M36.1008 22.6582C37.52 22.7144 38.9309 22.9033 40.315 23.2223C41.0909 23.3927 42.242 23.7462 43.0152 23.9695H44.0913C42.6882 23.5502 41.154 23.1029 39.7082 22.9012C38.2377 22.6623 36.6928 22.6228 35.2029 22.64C35.5025 22.6398 35.8018 22.6468 36.1008 22.6582Z" fill="url(#paint9_linear_101_675)"/>
<path d="M47.2908 85.5417C47.3018 85.5091 47.2901 57.9771 47.2942 57.9018C47.2948 57.7965 47.2879 57.6921 47.2799 57.5877C47.2601 57.3728 47.2207 57.1601 47.1621 56.9523C46.9877 56.333 46.632 55.7799 46.1409 55.3642C45.7243 55.0147 45.2143 54.7952 44.6741 54.7329C44.4726 54.7047 43.5274 54.7211 43.3088 54.7171C44.7136 54.7025 45.9014 55.8692 46.1488 57.2132C46.1946 57.44 46.2178 57.6708 46.218 57.9022V85.3956C46.2174 85.6025 46.1989 85.8088 46.1628 86.0125C45.9403 87.3839 44.7404 88.5975 43.3088 88.5802C43.5684 88.5744 44.4801 88.5979 44.72 88.5585C45.5809 88.4559 46.3469 87.9079 46.7958 87.1764C47.0977 86.6827 47.2682 86.1199 47.2908 85.5417Z" fill="url(#paint10_linear_101_675)"/>
<path d="M50.146 24.9432C50.2152 21.714 51.2484 18.4996 53.154 15.8844C54.0414 14.5964 55.6024 13.2378 56.744 12.1635H55.6679C54.5241 13.2397 52.9653 14.5968 52.0778 15.8844L52.0762 15.8865C50.668 17.8395 49.723 20.0876 49.3131 22.4602C49.0019 24.0229 49.0679 26.1064 49.0652 27.7075C52.606 30.5487 55.3323 34.342 57.0115 38.5528C58.2172 39.0594 59.3667 39.6905 60.4413 40.4359C61.1475 40.5174 62.0866 40.5058 62.804 40.5046C62.3807 40.5034 61.9397 40.4771 61.5175 40.4359C60.4429 39.6905 59.2934 39.0594 58.0877 38.5528C56.4084 34.3421 53.6823 30.5484 50.1413 27.7075C50.1429 27.4421 50.137 25.1446 50.146 24.9432Z" fill="url(#paint11_linear_101_675)"/>
<path d="M62.8446 7.26447C62.7941 6.51376 62.4946 5.80133 61.9935 5.24002C61.697 4.8893 61.3224 4.61296 60.8998 4.43317C60.6507 4.32865 60.3873 4.26205 60.1184 4.23557C59.9448 4.21111 58.978 4.22561 58.7854 4.22222C59.1932 4.22791 59.5949 4.32182 59.9629 4.49752C60.3309 4.67322 60.6565 4.92651 60.9173 5.24002C61.5079 5.90296 61.8151 6.77107 61.7728 7.65795C61.7409 8.20131 61.5791 8.7275 61.5145 9.26746C61.287 10.7599 61.2746 12.2772 61.4776 13.7731C62.0218 17.9253 64.2408 21.8822 67.6833 24.308C68.7147 25.0383 69.8444 25.6186 71.0387 26.0316C72.1289 26.4049 73.2646 26.6287 74.4149 26.697C74.8932 26.7305 75.7528 26.717 76.2412 26.7195C69.7314 26.7373 64.4078 21.7395 62.902 15.5841C62.4748 13.9021 62.325 12.1618 62.4584 10.4315C62.5022 9.86825 62.5743 9.3075 62.6744 8.75144C62.7651 8.2601 62.8921 7.76799 62.8446 7.26447Z" fill="url(#paint12_linear_101_675)"/>
<path d="M62.8981 40.4697H63.9743C63.889 40.4697 63.8037 40.4687 63.7174 40.4671H62.6413C62.7275 40.469 62.8129 40.4697 62.8981 40.4697Z" fill="url(#paint13_linear_101_675)"/>
<path d="M82.9517 29.339C82.9112 28.5152 82.5729 27.7341 81.9998 27.1408C81.7662 26.8876 81.4902 26.6771 81.1842 26.5187L81.1806 26.5167C80.8876 26.3684 80.5704 26.2739 80.244 26.2377H80.2425C80.0474 26.2101 79.0929 26.2266 78.8792 26.2224C78.975 26.2241 79.0714 26.2277 79.1664 26.2377H79.1681C79.8433 26.3166 80.4671 26.6375 80.924 27.1408C81.2985 27.5307 81.5756 28.0036 81.7327 28.5209C81.8897 29.0382 81.9224 29.5853 81.8279 30.1176C80.6597 35.8736 77.1461 41.2113 72.0232 44.172C71.0939 44.7131 70.1195 45.1727 69.111 45.5455C68.4599 45.7935 67.2698 46.1346 66.5986 46.3443C66.9363 47.0475 67.5227 48.2221 67.8039 48.9244C68.2155 49.9325 68.5408 50.9738 68.7762 52.0371C70.3744 59.2864 67.9275 67.331 61.8582 71.8125C61.3955 72.1477 60.8391 72.3291 60.2677 72.3311H61.3439C61.9153 72.3291 62.4717 72.1477 62.9345 71.8125C63.8061 71.1637 64.6157 70.4356 65.353 69.6375C65.3545 69.6358 65.3561 69.6342 65.3577 69.6325C69.6771 64.976 71.2109 58.1325 69.8422 51.99C69.6073 50.9432 69.2855 49.918 68.8801 48.9247C68.5998 48.2158 68.0041 47.0391 67.6748 46.3446C68.3563 46.1339 69.5406 45.7892 70.1872 45.5458C71.1957 45.1729 72.17 44.7134 73.0992 44.1725C78.2225 41.2111 81.7358 35.8748 82.904 30.1179C82.9484 29.8608 82.9644 29.5996 82.9517 29.339Z" fill="url(#paint14_linear_101_675)"/>
<path d="M26.5647 59.2991C28.1689 59.2991 29.474 60.7277 29.474 62.4841V89.9777C29.474 91.7337 28.1689 93.1622 26.5647 93.1622C24.9605 93.1622 23.6555 91.7337 23.6555 89.9777V62.4836C23.6552 60.7275 24.9605 59.2991 26.5647 59.2991Z" fill="#FFF2DC"/>
<path d="M43.3088 54.7168C44.9129 54.7168 46.2181 56.1455 46.2181 57.9019V85.3953C46.2181 87.1513 44.9129 88.5804 43.3088 88.5804C41.7047 88.5804 40.3996 87.1517 40.3996 85.3953V57.9019C40.3996 56.1458 41.7051 54.7168 43.3088 54.7168Z" fill="#FFF2DC"/>
<path d="M80.9237 27.1407C81.2993 27.5299 81.5771 28.0027 81.7343 28.5203C81.8914 29.0378 81.9234 29.5853 81.8276 30.1177C80.1362 38.3695 74.2168 44.5127 66.5984 46.3447C71.3688 54.77 69.605 66.0993 61.858 71.8129C60.5301 72.7894 58.6444 72.3237 57.8143 70.8829C56.9437 69.4956 57.2996 67.3951 58.6483 66.4566C67.3704 60.508 64.4793 45.6001 54.0374 44.2827C52.9942 44.0715 52.1404 43.2599 51.8047 42.156C50.5073 38.1023 47.9955 34.5978 44.7232 32.266C32.6395 23.4127 16.7217 33.7112 16.9158 48.7375C16.9158 50.4933 15.6106 51.9219 14.0065 51.9219C5.75934 52.0544 3.6011 64.2427 10.9948 67.7572C13.8503 69.1151 13.0536 73.8015 9.85517 73.8716C9.43548 73.8648 9.02114 73.7762 8.63537 73.6108C-3.07079 67.9027 -1.62575 49.1272 11.2147 45.854C12.8512 29.8517 27.4751 18.6209 43.0152 23.9702C43.5144 14.6242 49.6777 6.2734 58.2232 4.283C58.7169 4.18205 59.2288 4.21791 59.7036 4.3867C60.1784 4.55548 60.5981 4.85079 60.9173 5.24071C61.2751 5.64175 61.5325 6.12201 61.6684 6.64197C61.8044 7.16193 61.8149 7.70674 61.6992 8.23156C59.3241 18.4913 68.1555 28.9618 78.1797 26.3168C78.4075 26.255 78.6425 26.2234 78.8786 26.2229C79.2646 26.225 79.6459 26.3077 79.9981 26.4658C80.3503 26.6238 80.6656 26.8537 80.9237 27.1407ZM73.4154 35.1655L74.9198 33.2377C69.617 32.6267 65.3279 30.9242 61.5538 26.7959C57.7678 22.6846 56.1937 17.7944 55.6681 12.163L53.9069 13.8118C50.8297 16.6938 49.0645 20.8882 49.0654 25.3221V27.707C52.5477 30.4985 55.3025 34.2648 57.0117 38.5523C58.2178 39.058 59.3674 39.6892 60.4415 40.4354C61.1723 40.5133 61.9087 40.5239 62.6415 40.4672C66.7889 40.5501 70.7266 38.6081 73.4154 35.1655Z" fill="#FFF2DC"/>
<defs>
<filter id="filter0_f_101_675" x="2.05194" y="1.22691" width="87.2233" height="94.9353" filterUnits="userSpaceOnUse" color-interpolation-filters="sRGB">
<feFlood flood-opacity="0" result="BackgroundImageFix"/>
<feBlend mode="normal" in="SourceGraphic" in2="BackgroundImageFix" result="shape"/>
<feGaussianBlur stdDeviation="1.5" result="effect1_foregroundBlur_101_675"/>
</filter>
<linearGradient id="paint0_linear_101_675" x1="53.9731" y1="0.121201" x2="53.9731" y2="97.255" gradientUnits="userSpaceOnUse">
<stop stop-color="#D34A0F"/>
<stop offset="1" stop-color="#F87C56"/>
</linearGradient>
<linearGradient id="paint1_linear_101_675" x1="53.9731" y1="0.121201" x2="53.9731" y2="97.255" gradientUnits="userSpaceOnUse">
<stop stop-color="#D34A0F"/>
<stop offset="1" stop-color="#F87C56"/>
</linearGradient>
<linearGradient id="paint2_linear_101_675" x1="53.9731" y1="0.121201" x2="53.9731" y2="97.255" gradientUnits="userSpaceOnUse">
<stop stop-color="#D34A0F"/>
<stop offset="1" stop-color="#F87C56"/>
</linearGradient>
<linearGradient id="paint3_linear_101_675" x1="53.9731" y1="0.121201" x2="53.9731" y2="97.255" gradientUnits="userSpaceOnUse">
<stop stop-color="#D34A0F"/>
<stop offset="1" stop-color="#F87C56"/>
</linearGradient>
<linearGradient id="paint4_linear_101_675" x1="53.9731" y1="0.121201" x2="53.9731" y2="97.255" gradientUnits="userSpaceOnUse">
<stop stop-color="#D34A0F"/>
<stop offset="1" stop-color="#F87C56"/>
</linearGradient>
<linearGradient id="paint5_linear_101_675" x1="53.9731" y1="0.121201" x2="53.9731" y2="97.255" gradientUnits="userSpaceOnUse">
<stop stop-color="#D34A0F"/>
<stop offset="1" stop-color="#F87C56"/>
</linearGradient>
<linearGradient id="paint6_linear_101_675" x1="53.9731" y1="0.121201" x2="53.9731" y2="97.255" gradientUnits="userSpaceOnUse">
<stop stop-color="#D34A0F"/>
<stop offset="1" stop-color="#F87C56"/>
</linearGradient>
<linearGradient id="paint7_linear_101_675" x1="44.7025" y1="4.22099" x2="44.7025" y2="93.1639" gradientUnits="userSpaceOnUse">
<stop stop-color="#F7A175"/>
<stop offset="1" stop-color="#FFF2DC"/>
</linearGradient>
<linearGradient id="paint8_linear_101_675" x1="44.7025" y1="4.22099" x2="44.7025" y2="93.1639" gradientUnits="userSpaceOnUse">
<stop stop-color="#F7A175"/>
<stop offset="1" stop-color="#FFF2DC"/>
</linearGradient>
<linearGradient id="paint9_linear_101_675" x1="44.7025" y1="4.22099" x2="44.7025" y2="93.1639" gradientUnits="userSpaceOnUse">
<stop stop-color="#F7A175"/>
<stop offset="1" stop-color="#FFF2DC"/>
</linearGradient>
<linearGradient id="paint10_linear_101_675" x1="44.7025" y1="4.22099" x2="44.7025" y2="93.1639" gradientUnits="userSpaceOnUse">
<stop stop-color="#F7A175"/>
<stop offset="1" stop-color="#FFF2DC"/>
</linearGradient>
<linearGradient id="paint11_linear_101_675" x1="44.7025" y1="4.22099" x2="44.7025" y2="93.1639" gradientUnits="userSpaceOnUse">
<stop stop-color="#F7A175"/>
<stop offset="1" stop-color="#FFF2DC"/>
</linearGradient>
<linearGradient id="paint12_linear_101_675" x1="44.7025" y1="4.22099" x2="44.7025" y2="93.1639" gradientUnits="userSpaceOnUse">
<stop stop-color="#F7A175"/>
<stop offset="1" stop-color="#FFF2DC"/>
</linearGradient>
<linearGradient id="paint13_linear_101_675" x1="44.7025" y1="4.22099" x2="44.7025" y2="93.1639" gradientUnits="userSpaceOnUse">
<stop stop-color="#F7A175"/>
<stop offset="1" stop-color="#FFF2DC"/>
</linearGradient>
<linearGradient id="paint14_linear_101_675" x1="44.7025" y1="4.22099" x2="44.7025" y2="93.1639" gradientUnits="userSpaceOnUse">
<stop stop-color="#F7A175"/>
<stop offset="1" stop-color="#FFF2DC"/>
</linearGradient>
</defs>
</svg>
