<svg width="61" height="108" viewBox="0 0 61 108" fill="none" xmlns="http://www.w3.org/2000/svg">
<path d="M13.3156 77.4858C13.3523 83.5094 16.8027 89.4588 22.4462 91.8353L22.4514 91.8376C23.0349 92.0832 23.6344 92.2887 24.2458 92.4526C24.2486 92.4533 24.2514 92.4543 24.2542 92.4549C25.0976 92.6775 25.9609 92.8167 26.8315 92.8705C27.3073 92.9171 31.3722 92.887 31.9421 92.8949C31.3048 92.8939 30.6685 92.8474 30.0378 92.7559L30.0333 92.7551C25.8245 92.156 22.0886 89.4331 19.9482 85.7979C16.0967 79.4078 17.1227 70.5964 22.5228 65.3978C22.8397 65.0548 23.1232 64.6824 23.3695 64.2857C23.9725 63.3001 24.3497 62.1931 24.4741 61.0444C24.5008 60.7696 24.5206 60.4943 24.5208 60.218V24.2007C24.5214 23.9682 24.5298 23.7365 24.5459 23.5055C24.6029 22.7112 24.7602 21.9273 25.014 21.1724C26.0656 17.956 29.0609 15.4131 32.5232 15.4406C31.4356 15.4777 27.7876 15.3298 26.7832 15.5794C25.0929 15.9089 23.5531 16.8537 22.4268 18.148L22.4224 18.1527L22.4203 18.1552C21.9735 18.6695 21.5874 19.2336 21.2696 19.8363L21.2681 19.8394C20.7267 20.8732 20.3846 21.9996 20.2597 23.1599C20.2229 23.5056 20.2041 23.853 20.2035 24.2007V60.2184C20.2007 60.5805 20.1743 60.9421 20.1246 61.3009C19.9145 62.8294 19.2454 64.2582 18.2056 65.3982C17.2809 66.2989 16.47 67.3094 15.791 68.4073C14.1233 71.1382 13.2649 74.2864 13.3156 77.4858Z" fill="url(#paint0_linear_101_688)"/>
<path d="M28.9714 65.0617C35.1618 65.4976 39.3812 71.3793 39.1156 77.3513C38.9645 83.263 34.4294 88.7524 28.2881 88.7565C29.6937 88.7171 33.2005 88.8863 34.5292 88.5693C36.8235 88.1235 38.9138 86.8391 40.4405 85.0812C40.8631 84.5951 41.246 84.0758 41.5852 83.5282C45.5021 77.2331 43.0365 68.1195 35.8326 65.5745C35.0105 65.2933 34.1551 65.1209 33.2883 65.0617C32.9354 65.0149 28.7509 65.0458 28.2883 65.0376C28.5164 65.0384 28.7445 65.0453 28.9714 65.0617Z" fill="url(#paint1_linear_101_688)"/>
<path d="M31.0732 106.944C30.1881 107.037 29.2988 107.084 28.4089 107.086C30.2554 107.073 33.6108 107.16 35.3899 106.944C38.2114 106.643 40.9627 105.872 43.5297 104.663C49.34 101.948 54.0374 97.1059 56.9 91.3955C62.3203 80.7142 61.2088 67.0986 53.9063 57.5644V24.2006C53.9063 23.9527 53.9028 23.7065 53.8944 23.4595C53.8774 22.8385 53.8369 22.2185 53.773 21.5997C53.5486 19.3682 53.0232 17.1775 52.2109 15.087C49.9019 9.08639 45.0433 3.98535 38.8949 1.92166C37.5288 1.45824 36.1158 1.14682 34.6814 0.99308C33.2284 0.806571 29.7805 0.907453 28.2882 0.88329C37.376 0.858429 45.0758 7.219 48.0827 15.5885C48.8222 17.6228 49.2938 19.7447 49.4857 21.9007C49.5368 22.4789 49.5691 23.0585 49.5827 23.6395C49.5868 23.8259 49.589 24.0128 49.5894 24.2001V57.5643C57.1625 67.4578 58.0625 81.6767 51.9856 92.5233C47.7252 100.266 39.9679 106.039 31.0732 106.944Z" fill="url(#paint2_linear_101_688)"/>
<path d="M28.2882 65.037C34.2637 65.037 39.1245 70.3566 39.1245 76.8955C38.5281 92.6288 18.0501 92.6287 17.4556 76.8955C17.4557 70.357 22.3153 65.037 28.2882 65.037Z" fill="#F87C56"/>
<path d="M49.5893 57.5645C64.2252 76.3573 52.2316 107.006 28.4088 107.086C3.79448 106.387 -7.20348 76.1968 6.98981 57.5752V24.2006C6.98981 11.3445 16.5435 0.883789 28.2882 0.883789C40.0329 0.883789 49.5893 11.3445 49.5893 24.2006V57.5645ZM39.6677 86.477C43.9867 80.2649 43.4696 71.3313 38.2171 65.7742C36.9245 64.3568 36.2084 62.5074 36.2093 60.5892V24.2006C36.2093 19.3707 32.6193 15.4405 28.2062 15.4405C23.7931 15.4405 20.2038 19.3707 20.2038 24.2006V60.2183C20.1964 62.1613 19.4675 64.0455 18.2059 65.3982C8.67148 74.3789 13.8899 92.7375 27.6253 92.8953C31.1261 92.8953 34.4976 91.4927 37.1205 88.9495L39.6679 86.4775" fill="#F87C56"/>
<g style="mix-blend-mode:multiply" opacity="0.4" filter="url(#filter0_f_101_688)">
<path d="M28.6128 69.1293C32.5252 69.1293 35.7087 72.6133 35.7087 76.896C35.3101 87.2023 21.9153 87.2 21.5176 76.896C21.5176 72.6133 24.7012 69.1293 28.6128 69.1293Z" fill="#D34A0F"/>
<path d="M46.499 59.4981C59.6395 75.2572 50.3088 102.708 28.7328 102.991C6.8313 102.289 -2.41162 75.0281 11.0528 59.0949V24.1992C11.0528 13.6004 18.9305 4.97748 28.6128 4.97748C38.2952 4.97748 46.1737 13.6004 46.1737 24.1992V59.1002L46.499 59.4981ZM41.5777 90.7247C48.4804 82.9031 48.2842 70.3921 41.1406 62.8347C40.5812 62.2159 40.2714 61.4115 40.2713 60.5774V24.1993C40.2713 17.1124 35.0045 11.3457 28.529 11.3457C22.0535 11.3457 16.7873 17.1124 16.7873 24.1993V60.2162C16.7865 61.04 16.483 61.8348 15.9344 62.4494C4.065 73.6796 10.7003 96.8159 27.9481 96.9869C31.4693 96.9859 34.8852 95.8636 37.801 93.7826C37.801 93.7826 41.0454 91.3276 41.5775 90.7247" fill="#D34A0F"/>
</g>
<path d="M5.49856 77.3641C5.50126 86.6037 11.7388 95.396 21.153 96.8113H21.1559C21.9501 96.9271 22.7517 96.9857 23.5544 96.9865H24.6306C23.8279 96.9855 23.0264 96.9269 22.2321 96.8113H22.2291C16.8879 96.0525 12.1581 92.5785 9.46129 87.9561C4.7026 79.9759 5.89244 68.9603 12.6173 62.4494C13.0349 61.9829 13.3127 61.4081 13.4189 60.791C13.4512 60.6011 13.4684 60.409 13.4701 60.2163V24.1994C13.4701 24.002 13.4757 23.8067 13.483 23.6103C13.5245 22.5887 13.6787 21.5747 13.9429 20.587C15.2755 15.465 19.7795 11.323 25.2116 11.3455C24.3874 11.3455 23.4099 11.3248 22.6023 11.4553C19.9084 11.8312 17.424 13.2804 15.6493 15.3249C15.6483 15.3262 15.6472 15.3275 15.6461 15.3287C15.1882 15.8556 14.7734 16.4185 14.4057 17.012C14.2471 17.2693 14.0974 17.5328 13.9555 17.7999C13.1674 19.3044 12.6675 20.9429 12.4815 22.631C12.4239 23.1518 12.3947 23.6753 12.394 24.1993V60.2162C12.3921 61.0398 12.0887 61.8342 11.5412 62.4493C7.56634 66.3015 5.44804 71.8595 5.49856 77.3641Z" fill="url(#paint3_linear_101_688)"/>
<path d="M24.9305 69.1685C28.9054 69.6012 31.5601 73.5125 31.3012 77.362C31.1397 81.1561 28.1577 84.6698 24.2193 84.6628C24.84 84.6568 25.716 84.6927 26.3191 84.5809C28.3367 84.2714 30.1154 82.9646 31.1744 81.2406C33.7423 77.1392 32.1183 71.1354 27.4125 69.4823L27.4069 69.4807C27.1789 69.4032 26.9468 69.3379 26.7118 69.2853C25.963 69.0965 24.9923 69.1289 24.2193 69.1294C24.4569 69.1304 24.6942 69.1435 24.9305 69.1685Z" fill="url(#paint4_linear_101_688)"/>
<path d="M25.9788 102.984C36.9257 102.736 45.758 94.3389 48.366 83.9865L48.3666 83.9843C50.5788 75.4238 48.6211 65.8638 42.8564 59.1004V24.1994C42.8556 23.6462 42.8336 23.0937 42.7904 22.542C42.6649 20.9126 42.3455 19.3041 41.8388 17.7505C40.1099 12.3597 35.94 7.6825 30.5251 5.84736C29.2552 5.41307 27.9362 5.13851 26.5984 5.03003C25.8811 4.96433 24.9464 4.97743 24.2193 4.97713C31.9622 4.95657 38.4533 10.5467 40.7626 17.7508C41.2693 19.3043 41.5888 20.9127 41.7142 22.542C41.758 23.0931 41.7801 23.6456 41.7803 24.1994V59.1004C47.5453 65.8641 49.5023 75.4236 47.2903 83.9843C44.6256 94.5505 35.5245 103.016 24.3393 102.992C24.7317 102.99 25.5983 102.996 25.9788 102.984Z" fill="url(#paint5_linear_101_688)"/>
<path d="M24.2193 69.1293C28.1317 69.1293 31.3151 72.6133 31.3151 76.896C30.9165 87.2023 17.5217 87.2 17.1241 76.896C17.1241 72.6133 20.3077 69.1293 24.2193 69.1293Z" fill="#FFF2DC"/>
<path d="M42.1054 59.4981C55.2459 75.2572 45.9152 102.708 24.3392 102.991C2.43771 102.289 -6.80516 75.0281 6.65926 59.0949V24.1992C6.65926 13.6004 14.537 4.97748 24.2193 4.97748C33.9016 4.97748 41.7802 13.6004 41.7802 24.1992V59.1002L42.1054 59.4981ZM37.184 90.7247C44.0869 82.9031 43.8907 70.3921 36.7471 62.8347C36.1877 62.216 35.8778 61.4115 35.8777 60.5774V24.1993C35.8777 17.1124 30.6108 11.3457 24.1353 11.3457C17.6598 11.3457 12.3936 17.1124 12.3936 24.1993V60.2162C12.3928 61.04 12.0893 61.8348 11.5408 62.4494C-0.32874 73.6796 6.3066 96.8159 23.5543 96.9869C27.0755 96.9859 30.4915 95.8636 33.4074 93.7826C33.4074 93.7826 35.6102 92.5861 37.1837 90.7247" fill="#FFF2DC"/>
<defs>
<filter id="filter0_f_101_688" x="1.77332" y="1.97748" width="53.7739" height="104.014" filterUnits="userSpaceOnUse" color-interpolation-filters="sRGB">
<feFlood flood-opacity="0" result="BackgroundImageFix"/>
<feBlend mode="normal" in="SourceGraphic" in2="BackgroundImageFix" result="shape"/>
<feGaussianBlur stdDeviation="1.5" result="effect1_foregroundBlur_101_688"/>
</filter>
<linearGradient id="paint0_linear_101_688" x1="36.8058" y1="0.877258" x2="36.8058" y2="107.092" gradientUnits="userSpaceOnUse">
<stop stop-color="#D34A0F"/>
<stop offset="1" stop-color="#F87C56"/>
</linearGradient>
<linearGradient id="paint1_linear_101_688" x1="36.8058" y1="0.877258" x2="36.8058" y2="107.092" gradientUnits="userSpaceOnUse">
<stop stop-color="#D34A0F"/>
<stop offset="1" stop-color="#F87C56"/>
</linearGradient>
<linearGradient id="paint2_linear_101_688" x1="36.8058" y1="0.877258" x2="36.8058" y2="107.092" gradientUnits="userSpaceOnUse">
<stop stop-color="#D34A0F"/>
<stop offset="1" stop-color="#F87C56"/>
</linearGradient>
<linearGradient id="paint3_linear_101_688" x1="27.3757" y1="4.97626" x2="27.3757" y2="102.992" gradientUnits="userSpaceOnUse">
<stop stop-color="#F7A175"/>
<stop offset="1" stop-color="#FFF2DC"/>
</linearGradient>
<linearGradient id="paint4_linear_101_688" x1="27.3757" y1="4.97626" x2="27.3757" y2="102.992" gradientUnits="userSpaceOnUse">
<stop stop-color="#F7A175"/>
<stop offset="1" stop-color="#FFF2DC"/>
</linearGradient>
<linearGradient id="paint5_linear_101_688" x1="27.3757" y1="4.97626" x2="27.3757" y2="102.992" gradientUnits="userSpaceOnUse">
<stop stop-color="#F7A175"/>
<stop offset="1" stop-color="#FFF2DC"/>
</linearGradient>
</defs>
</svg>
