<svg width="94" height="98" viewBox="0 0 94 98" fill="none" xmlns="http://www.w3.org/2000/svg">
<path d="M14.0102 49.0707C14.0595 63.2307 22.7278 77.1569 36.5786 81.4138H40.8955C27.4089 77.2702 18.8122 63.9352 18.3497 50.1461C17.7779 35.301 26.3743 20.6349 40.8955 16.0676H36.579C22.4429 20.5026 13.8642 34.5983 14.0102 49.0707Z" fill="url(#paint0_linear_101_676)"/>
<path d="M76.8571 48.6015C76.8463 40.3266 74.8921 32.0417 71.0602 24.6987H66.7433C74.4742 39.4628 74.4506 57.9517 66.7671 72.7297H71.084C74.9288 65.3125 76.8764 56.9483 76.8571 48.6015Z" fill="url(#paint1_linear_101_676)"/>
<path d="M45.876 0.234552C46.1367 0.240542 46.3972 0.247923 46.6569 0.258806H46.6612C55.512 0.600174 64.1373 3.99231 71.025 9.52898L71.0288 9.53205C90.703 25.3012 94.8233 54.7279 81.6476 75.9253C73.7584 88.7066 60.1583 97.2915 44.9522 97.2593C47.6217 97.2511 51.1717 97.3392 53.7816 97.0097C56.7761 96.6756 59.7244 96.0104 62.5723 95.0263C75.5222 90.5869 85.5987 79.783 90.3121 67.0612L90.3128 67.0593C97.8311 46.9829 92.2671 23.081 75.3461 9.53205L75.3423 9.52898C68.4548 3.99231 59.8292 0.600074 50.9785 0.258806H50.9742C49.7932 0.198001 46.1812 0.230856 44.9452 0.223168C45.2559 0.223268 45.5656 0.227662 45.876 0.234552Z" fill="url(#paint2_linear_101_676)"/>
<path d="M44.9446 0.223076C103.761 2.86945 103.715 94.6338 44.9521 97.2595C41.6998 97.1707 38.4711 96.6782 35.3403 95.7932H34.7704C-10.9547 83.146 -9.68818 12.9552 35.2032 1.32136H35.7251C38.7461 0.603491 41.8395 0.23498 44.9446 0.223076ZM58.1272 57.3282C62.4005 39.439 52.7549 21.0871 36.579 16.0677C6.75014 25.6793 6.51042 71.6835 36.579 81.4138C47.1234 78.1389 55.3497 68.9711 58.1272 57.3282ZM74.2321 59.6022C78.1245 46.9704 74.8187 33.5452 66.7437 24.6985C74.5476 39.6628 74.3932 58.0206 66.7675 72.7297C70.1912 68.9563 72.7401 64.4739 74.2324 59.6022" fill="#F87C56"/>
<g style="mix-blend-mode:multiply" opacity="0.4" filter="url(#filter0_f_101_676)">
<path d="M82.8636 31.4497C93.6446 58.6508 76.3389 92.8404 45.4849 93.1665C42.4431 93.0774 39.4252 92.6005 36.5041 91.7474L35.7465 91.7C14.5703 86.1123 1.97199 62.3794 5.60782 41.1968C7.9958 24.7376 19.8714 9.54215 36.1578 5.41608H36.6514C56.3488 0.372736 75.9301 12.8535 82.8636 31.4497ZM37.4194 85.5605C60.2174 79.1142 70.0218 50.1585 58.6282 29.5111C54.0953 20.9644 46.3531 14.348 37.0961 11.8298C19.7418 16.2607 8.36244 36.1319 11.1506 54.2071C12.9094 68.5238 23.0095 81.9064 37.0961 85.6535L37.4194 85.5605ZM78.2921 60.9103C84.3182 42.3276 75.2834 19.4824 56.4679 12.6835L55.2267 15.0674C73.9955 32.5244 73.99 64.9777 55.2267 82.4154L56.4679 84.7993C66.9427 80.9795 75.0318 71.6837 78.2921 60.9103Z" fill="#D34A0F"/>
</g>
<path d="M6.42516 50.324C6.9771 66.2042 17.0215 81.3389 32.7025 85.6535H33.7786C22.9333 82.6952 14.4595 74.2759 10.368 63.932C4.58425 49.5432 7.57717 32.1397 18.4835 20.9734L18.4856 20.9712C22.6734 16.6636 27.9753 13.4223 33.7786 11.8303H32.7025C23.5484 14.3219 15.8504 20.9062 11.35 29.187C7.82869 35.6115 6.14999 43.0097 6.42516 50.324Z" fill="url(#paint3_linear_101_676)"/>
<path d="M64.8849 46.213C65.5959 59.5782 60.6634 73.204 50.833 82.4154L52.0743 84.7993H53.1505L51.9092 82.4154C52.9454 81.4399 53.9284 80.41 54.8665 79.3402L54.8674 79.339C70.7446 61.0657 69.5882 31.7323 51.9092 15.0674L53.1505 12.6834H52.0743L50.833 15.0674C59.3695 23.084 64.3218 34.5644 64.8849 46.213Z" fill="url(#paint4_linear_101_676)"/>
<path d="M41.9607 4.32707C55.2177 4.59725 67.078 12.0388 74.1948 23.0528C80.8338 33.2569 83.096 46.0669 80.782 57.9831C77.1233 77.253 61.2814 93.1436 41.0914 93.1665C52.7979 93.5016 63.9244 88.2113 71.5413 79.3779C81.8704 67.5616 85.186 50.6273 80.9367 35.6172V35.6165C76.9783 21.4375 66.1513 9.36961 51.7203 5.55546C48.2589 4.6269 44.6601 4.25369 41.08 4.31649C41.3741 4.31629 41.6671 4.32088 41.9607 4.32707Z" fill="url(#paint5_linear_101_676)"/>
<path d="M78.4697 31.4497C89.2507 58.6508 71.9451 92.8404 41.0911 93.1665C38.0494 93.0774 35.0314 92.6005 32.1103 91.7474L31.3526 91.7C10.1765 86.1123 -2.42188 62.3794 1.21396 41.1968C3.60204 24.7376 15.4776 9.54215 31.764 5.41608H32.2575C51.9551 0.372736 71.5365 12.8535 78.4697 31.4497ZM33.0256 85.5605C55.8236 79.1142 65.628 50.1585 54.2345 29.5111C49.7015 20.9644 41.9593 14.348 32.7023 11.8298C15.3479 16.2607 3.96858 36.1319 6.75674 54.2071C8.5155 68.5238 18.6157 81.9064 32.7023 85.6535L33.0256 85.5605ZM73.8982 60.9103C79.9243 42.3276 70.8895 19.4824 52.0741 12.6835L50.8327 15.0674C69.6017 32.5244 69.5962 64.9777 50.8327 82.4154L52.0741 84.7993C62.5489 80.9795 70.6379 71.6837 73.8982 60.9103Z" fill="#FFF2DC"/>
<defs>
<filter id="filter0_f_101_676" x="1.9859" y="1.29086" width="87.0927" height="94.8756" filterUnits="userSpaceOnUse" color-interpolation-filters="sRGB">
<feFlood flood-opacity="0" result="BackgroundImageFix"/>
<feBlend mode="normal" in="SourceGraphic" in2="BackgroundImageFix" result="shape"/>
<feGaussianBlur stdDeviation="1.5" result="effect1_foregroundBlur_101_676"/>
</filter>
<linearGradient id="paint0_linear_101_676" x1="53.8019" y1="0.221054" x2="53.8019" y2="97.2642" gradientUnits="userSpaceOnUse">
<stop stop-color="#D34A0F"/>
<stop offset="1" stop-color="#F87C56"/>
</linearGradient>
<linearGradient id="paint1_linear_101_676" x1="53.8019" y1="0.221054" x2="53.8019" y2="97.2642" gradientUnits="userSpaceOnUse">
<stop stop-color="#D34A0F"/>
<stop offset="1" stop-color="#F87C56"/>
</linearGradient>
<linearGradient id="paint2_linear_101_676" x1="53.8019" y1="0.221054" x2="53.8019" y2="97.2642" gradientUnits="userSpaceOnUse">
<stop stop-color="#D34A0F"/>
<stop offset="1" stop-color="#F87C56"/>
</linearGradient>
<linearGradient id="paint3_linear_101_676" x1="44.5677" y1="4.30975" x2="44.5677" y2="93.1815" gradientUnits="userSpaceOnUse">
<stop stop-color="#F7A175"/>
<stop offset="1" stop-color="#FFF2DC"/>
</linearGradient>
<linearGradient id="paint4_linear_101_676" x1="44.5677" y1="4.30975" x2="44.5677" y2="93.1815" gradientUnits="userSpaceOnUse">
<stop stop-color="#F7A175"/>
<stop offset="1" stop-color="#FFF2DC"/>
</linearGradient>
<linearGradient id="paint5_linear_101_676" x1="44.5677" y1="4.30975" x2="44.5677" y2="93.1815" gradientUnits="userSpaceOnUse">
<stop stop-color="#F7A175"/>
<stop offset="1" stop-color="#FFF2DC"/>
</linearGradient>
</defs>
</svg>
