<svg width="94" height="89" viewBox="0 0 94 89" fill="none" xmlns="http://www.w3.org/2000/svg">
<path d="M16.3869 56.7145C19.4641 56.5261 21.9295 53.9194 22.463 50.9634C23.1667 47.5263 21.3473 43.667 17.9375 42.506C17.3399 42.3026 16.7147 42.192 16.0835 42.1782C16.0419 42.1774 16.0001 42.177 15.9583 42.1769H11.6414C15.5087 42.1747 18.3324 45.737 18.2911 49.4523C18.3344 53.1679 15.5078 56.7325 11.6414 56.731C11.8375 56.7251 16.3354 56.7475 16.3869 56.7145Z" fill="url(#paint0_linear_101_696)"/>
<path d="M26.1956 30.7796C30.8723 30.4173 33.4044 25.3729 32.0306 21.1379C31.7467 20.2407 31.2958 19.4053 30.7015 18.6757L30.7009 18.675C30.7589 18.708 27.4246 15.089 27.3569 15.0095C27.132 14.8007 26.8939 14.6067 26.6439 14.4286L26.6416 14.427C25.8366 13.8551 24.9093 13.479 23.9334 13.3287C23.358 13.2002 19.3826 13.2835 18.7189 13.2613C20.3164 13.2568 21.8805 13.9189 23.0401 15.0093C23.2098 15.2037 26.3092 18.5583 26.3849 18.6754L26.3881 18.6797C28.5567 21.3005 28.6479 25.3726 26.6223 28.1003C25.439 29.7296 23.4948 30.8097 21.4648 30.7949C21.9648 30.7849 25.7736 30.8168 26.1956 30.7796Z" fill="url(#paint1_linear_101_696)"/>
<path d="M38.5094 55.2221C36.6404 51.1604 36.8928 46.2146 39.1348 42.3506C41.2194 38.6716 45.163 36.0811 49.4487 36.113C49.0551 36.1197 44.7895 36.0971 44.5389 36.1289C43.8189 36.1671 43.1042 36.2745 42.4048 36.4497C39.3306 37.2113 36.6812 39.3094 35.0328 41.9901L35.0307 41.9935C34.867 42.2592 34.7128 42.5311 34.5657 42.8068C34.565 42.8081 34.5643 42.8097 34.5635 42.8111C32.433 46.8336 32.3924 51.897 34.537 55.9227H38.8532C38.7317 55.6928 38.6184 55.4584 38.5094 55.2221Z" fill="url(#paint2_linear_101_696)"/>
<path d="M81.2047 62.8549C81.1111 60.0014 79.2993 57.1805 76.5434 56.2517C75.8023 56.0039 75.0224 55.8925 74.2416 55.9228C76.9879 43.4772 71.5101 29.7828 59.874 23.9988C57.4053 22.778 54.742 21.9988 52.0047 21.6963C50.2833 21.4699 46.8884 21.5819 45.1319 21.5566C54.3051 21.5258 62.4882 27.0097 66.8767 34.9179C70.4249 41.2308 71.4701 48.8615 69.9251 55.9228C73.9468 55.7475 76.93 59.3375 76.8962 63.2014C76.9395 66.9152 74.1147 70.4813 70.2495 70.4801C70.4631 70.4733 74.9256 70.4971 74.994 70.4634C75.7382 70.4109 76.4666 70.2236 77.1438 69.9104C79.7962 68.6931 81.3592 65.7243 81.2047 62.8549Z" fill="url(#paint3_linear_101_696)"/>
<path d="M82.7119 22.0538C83.5314 19.0362 82.3939 15.514 79.7287 13.7895C78.9342 13.2676 78.0313 12.9333 77.0885 12.812C76.6392 12.7152 72.5514 12.7796 72.0026 12.762C73.2145 12.7668 74.399 13.1237 75.4118 13.7893C76.2318 14.3324 76.9283 15.0419 77.4564 15.8716C79.3877 18.8414 78.951 23.1472 76.3253 25.5656C75.9217 25.9867 73.3299 28.9223 72.9405 29.2159C71.8078 30.2207 70.3498 30.7817 68.8357 30.7953H73.1526C73.6701 30.7923 74.1852 30.7244 74.6858 30.5932C75.5749 30.3572 76.402 29.9303 77.1093 29.3421C77.6438 28.955 80.1382 26.0872 80.6423 25.5656C81.4016 24.8513 81.9983 23.982 82.3918 23.0167C82.4799 22.801 82.5571 22.5812 82.6265 22.3585L82.627 22.3566C82.6572 22.2561 82.6855 22.1552 82.7119 22.0538Z" fill="url(#paint4_linear_101_696)"/>
<path d="M93.7638 49.1067C93.6702 46.2554 91.8603 43.4385 89.108 42.5082L89.1024 42.5064C88.505 42.3028 87.8798 42.1923 87.2487 42.1786C87.2071 42.1778 87.1654 42.1774 87.1235 42.1773H82.8067C86.674 42.1751 89.4962 45.7379 89.4549 49.4527C89.4982 53.168 86.6732 56.7329 82.8067 56.7313C83.0229 56.7247 87.4802 56.7484 87.5522 56.7147C88.2965 56.6621 89.025 56.4748 89.7023 56.1617C92.3558 54.945 93.9182 51.976 93.7638 49.1067Z" fill="url(#paint5_linear_101_696)"/>
<path d="M51.9029 81.1835C51.8091 78.4517 50.1572 75.7476 47.5813 74.7089C46.9579 74.4529 46.2963 74.3022 45.6236 74.2626C45.656 74.2374 41.0701 74.2579 40.9453 74.2515C44.8141 74.2492 47.6355 77.8144 47.594 81.5301C47.6372 85.2452 44.8114 88.8098 40.9453 88.8081C41.1604 88.8013 45.62 88.8252 45.6904 88.7913C46.4349 88.7389 47.1636 88.5515 47.8411 88.2384C50.4951 87.0218 52.0577 84.0531 51.9029 81.1835Z" fill="url(#paint6_linear_101_696)"/>
<path d="M72.8342 81.1837C72.7406 78.3314 70.9303 75.5126 68.1769 74.5822C67.5777 74.3777 66.9506 74.2665 66.3176 74.2527C66.2759 74.2518 66.2342 74.2514 66.1924 74.2515H61.8756C65.7443 74.2492 68.5667 77.8142 68.5252 81.5301C68.5683 85.2454 65.7414 88.8098 61.8756 88.8081C62.0901 88.8013 66.5508 88.8252 66.6205 88.7913C67.3651 88.7389 68.0941 88.5515 68.7717 88.2383C71.425 87.0217 72.9887 84.0534 72.8342 81.1837Z" fill="url(#paint7_linear_101_696)"/>
<path d="M51.7731 13.1437C51.6584 16.7346 48.8602 20.0791 45.1319 20.0739H49.4488C49.9198 20.0726 50.389 20.0178 50.8476 19.9106C52.5613 19.5153 54.0414 18.3549 54.9577 16.8685L54.9597 16.8651C55.5133 15.9632 55.8744 14.9567 56.0204 13.9086C56.1636 13.1918 56.0755 9.02287 56.098 8.21314C56.131 5.24366 54.3042 2.23495 51.4336 1.26547C51.4318 1.26487 51.4299 1.26446 51.4281 1.26376C50.8809 1.07646 50.3097 0.968271 49.7319 0.942531C49.6377 0.937339 49.5433 0.934282 49.4488 0.934682H45.1319C47.8899 0.906625 50.3438 2.88771 51.2733 5.42476C51.6095 6.31593 51.7816 7.26064 51.7812 8.21314C51.7821 8.2999 51.7857 13.2663 51.7731 13.1437Z" fill="url(#paint8_linear_101_696)"/>
<path d="M18.2911 49.4527C18.2911 53.4678 15.3084 56.7313 11.6415 56.7313H7.4574C-1.35887 56.338 -1.36126 42.5715 7.4574 42.1775H11.6409C15.3085 42.1774 18.2911 45.4412 18.2911 49.4527Z" fill="#F87C56"/>
<path d="M16.7732 28.6839L13.7939 25.4232C10.0711 20.9327 12.7599 13.314 18.719 13.2615C20.3292 13.2736 21.8743 13.8987 23.04 15.0095L26.1509 18.4053C30.1396 22.6665 27.6039 30.752 21.4644 30.795C19.673 30.7876 18.0218 30.0374 16.7732 28.6839Z" fill="#F87C56"/>
<path d="M70.2491 55.9228C73.9133 55.9228 76.8958 59.1877 76.8958 63.2014C76.8958 67.2152 73.9136 70.4801 70.2491 70.4801H20.0149C16.3478 70.4801 13.3653 67.2157 13.3653 63.2014C13.3643 59.0579 16.5303 55.748 20.3388 55.9228C16.3615 39.165 28.7196 21.2958 45.1313 21.5563C61.5385 21.2952 73.8971 39.1619 69.9242 55.9228H70.2491ZM55.7271 55.9228C60.3109 47.5165 54.5365 36.0492 45.1313 36.1131C35.7373 36.0457 29.9488 47.5172 34.5367 55.9228H55.7269" fill="#F87C56"/>
<path d="M68.7166 30.7924C62.736 30.4688 60.4295 22.566 64.316 18.4106L67.0218 15.2231C68.19 13.7254 70.1307 12.7363 72.0023 12.7617C78.4323 12.8724 80.8348 21.4095 76.3249 25.5653L73.4954 28.6759C72.2305 30.0526 70.5559 30.8041 68.7768 30.7951L68.7166 30.7924Z" fill="#F87C56"/>
<path d="M82.8066 42.1774C91.6263 42.5719 91.6221 56.3384 82.8066 56.7311H78.6197C74.9526 56.7311 71.9701 53.4678 71.9701 49.4524C71.9701 45.441 74.9522 42.1772 78.6197 42.1772L82.8066 42.1774Z" fill="#F87C56"/>
<path d="M40.9454 74.2514C49.7617 74.6446 49.7655 88.4136 40.9454 88.808H28.3883C24.7213 88.808 21.7387 85.544 21.7387 81.53C21.7387 77.5159 24.7214 74.2513 28.3883 74.2513L40.9454 74.2514Z" fill="#F87C56"/>
<path d="M61.8755 74.2514C70.6951 74.6462 70.6947 88.414 61.8755 88.808H57.689C54.022 88.808 51.0403 85.544 51.0403 81.53C51.0403 77.5159 54.022 74.2513 57.689 74.2513L61.8755 74.2514Z" fill="#F87C56"/>
<path d="M45.1315 20.0738C41.4644 20.0738 38.4827 16.8099 38.4827 12.7959V8.21302C38.8475 -1.44243 51.4165 -1.44193 51.7807 8.21302V12.7959C51.7807 16.8099 48.7994 20.0738 45.1315 20.0738Z" fill="#F87C56"/>
<g style="mix-blend-mode:multiply" opacity="0.4" filter="url(#filter0_f_101_696)">
<path d="M83.1288 46.2688C86.9864 46.4413 86.9876 52.4651 83.1288 52.638H78.9428C75.0843 52.4648 75.084 46.4421 78.9428 46.2688H83.1288Z" fill="#D34A0F"/>
<path d="M21.7849 26.7029C21.3968 26.7008 21.0135 26.6174 20.6596 26.4583C20.3056 26.2992 19.9888 26.0677 19.7296 25.7789L16.7991 22.5711C15.2792 20.6506 16.4744 17.3669 19.0401 17.3526C19.7286 17.3576 20.3904 17.6195 20.8959 18.0869L23.8302 21.2984C25.5595 23.152 24.4755 26.6874 21.7849 26.7029Z" fill="#D34A0F"/>
<path d="M70.5703 60.0154C74.4143 60.1807 74.4434 66.205 70.5703 66.3855H20.3369C18.7328 66.3855 17.4286 64.9566 17.4286 63.2004C17.4286 61.4443 18.7328 60.0154 20.3369 60.0154H25.9022L25.2085 58.1024C19.7565 43.6586 29.4268 25.6509 45.4538 25.6485C61.4829 25.6518 71.1517 43.6599 65.6997 58.1025L65.0063 60.0154H70.5703ZM58.42 59.4363C65.8397 48.5221 58.5084 31.9591 45.4534 32.0182C32.0284 32.0409 24.9072 49.0816 32.87 60.0158H58.0381L58.42 59.4367" fill="#D34A0F"/>
<path d="M72.3244 16.8533C75.1673 16.9104 76.1972 20.6786 74.1816 22.492L71.1743 25.7834C70.9215 26.0652 70.6136 26.2921 70.2695 26.4501C69.9255 26.6081 69.5527 26.6938 69.1742 26.702C66.5782 26.5292 65.6014 23.1106 67.2899 21.2957L70.1009 17.988C70.3596 17.6408 70.6947 17.3579 71.0803 17.1612C71.4659 16.9644 71.8916 16.8591 72.3244 16.8533Z" fill="#D34A0F"/>
<path d="M62.1986 78.345C66.0572 78.5178 66.0575 84.5408 62.1986 84.7134H58.0122C54.1551 84.5415 54.1539 78.5177 58.0122 78.345H62.1986Z" fill="#D34A0F"/>
<path d="M41.268 78.345C42.8721 78.345 44.177 79.7728 44.177 81.529C44.177 83.2851 42.8721 84.7134 41.268 84.7134H28.7094C24.8539 84.5424 24.8486 78.5188 28.7094 78.345H41.268Z" fill="#D34A0F"/>
<path d="M11.9651 46.2688C15.8232 46.4418 15.8244 52.4645 11.9651 52.638H7.77859C3.9212 52.4652 3.9209 46.4417 7.77859 46.2688H11.9651Z" fill="#D34A0F"/>
<path d="M45.4536 15.9796C43.8495 15.9796 42.5453 14.5518 42.5453 12.7952V8.21302C42.7051 3.9889 48.2032 3.9888 48.3631 8.21302V12.7952C48.3631 14.552 47.0586 15.9796 45.4536 15.9796Z" fill="#D34A0F"/>
</g>
<path d="M82.717 49.3022C82.6756 48.0535 81.8838 46.8218 80.6794 46.4135H80.6778C80.4905 46.3502 80.297 46.3072 80.1006 46.2851C79.9035 46.2569 78.9507 46.2732 78.7353 46.2692C80.4119 46.2571 81.673 47.844 81.6444 49.4543C81.6765 51.0587 80.4063 52.6555 78.7353 52.6386C79.0505 52.6309 79.9346 52.6632 80.2311 52.6051C81.059 52.4782 81.7878 51.9419 82.2222 51.2348C82.5763 50.6544 82.7485 49.9813 82.717 49.3022Z" fill="url(#paint9_linear_101_696)"/>
<path d="M21.3505 23.4132C21.3287 22.6845 21.0697 21.9828 20.6128 21.4148L20.6121 21.4137C20.5799 21.3747 20.5466 21.3363 20.5122 21.2985L17.5781 18.0871C17.5455 18.0575 17.5125 18.0289 17.479 18.0011C17.316 17.8665 17.139 17.7496 16.9512 17.6526C16.8339 17.5929 16.7126 17.5413 16.5884 17.498H16.5877C16.4656 17.4569 16.3409 17.4239 16.2144 17.3994C16.1445 17.3865 16.0733 17.377 16.0024 17.3679C15.8127 17.3411 14.8548 17.3569 14.6459 17.3529C14.9393 17.3541 15.2305 17.4028 15.5083 17.4971C15.5096 17.4976 15.5109 17.4979 15.5122 17.4983C15.8787 17.6253 16.2155 17.8257 16.5019 18.0874L19.4361 21.2988C19.4706 21.3368 19.504 21.3756 19.5364 21.4151C19.9192 21.8892 20.1641 22.4596 20.2439 23.0637C20.5146 24.8258 19.2665 26.7101 17.3909 26.7033C17.94 26.6913 18.8102 26.7646 19.3256 26.5627C20.6278 26.1374 21.4158 24.7456 21.3505 23.4132Z" fill="url(#paint10_linear_101_696)"/>
<path d="M28.9717 59.126C25.5109 53.6845 25.315 46.4173 28.3427 40.7429C31.0156 35.6228 36.2729 31.9866 42.1365 32.0174C40.8792 32.0074 39.5605 32.0201 38.33 32.2748C34.5297 32.9817 31.1171 35.261 28.8033 38.3313C24.0368 44.6086 23.9081 53.5952 28.4767 60.015H29.5529C29.4124 59.8016 29.1027 59.3372 28.9717 59.126Z" fill="url(#paint11_linear_101_696)"/>
<path d="M63.8829 49.4537C63.9322 40.11 58.718 30.9609 49.9798 27.2373C48.9934 26.8209 47.9757 26.4832 46.936 26.2273L46.9319 26.2262C46.063 26.0142 45.181 25.8598 44.2918 25.7637L44.2851 25.7629C43.2541 25.6444 42.1024 25.6431 41.0602 25.6489C42.6761 25.6493 44.2861 25.8431 45.8559 26.2262L45.8599 26.2273C53.8836 28.163 60.0227 35.0887 61.9948 42.9732C62.956 46.7361 63.0667 50.6658 62.3189 54.4769C61.986 56.3132 61.2566 58.2621 60.6129 60.0157H61.689C62.2028 58.6015 62.8522 56.8963 63.183 55.4419C63.6536 53.4807 63.8886 51.4705 63.8829 49.4537Z" fill="url(#paint12_linear_101_696)"/>
<path d="M70.1588 63.0487C70.128 62.2178 69.7864 61.4288 69.2017 60.8376C68.8963 60.5341 68.527 60.3027 68.1207 60.1602L68.1191 60.1597C67.6073 59.9543 66.7213 60.0269 66.1768 60.0155C67.8483 59.9998 69.1182 61.595 69.0862 63.2005C69.1183 64.8051 67.8482 66.4019 66.1768 66.3855C66.4918 66.3778 67.3762 66.41 67.6724 66.3519C68.5001 66.2251 69.2286 65.6891 69.6633 64.9823L69.6639 64.9813C70.018 64.4009 70.1904 63.7279 70.1588 63.0487Z" fill="url(#paint13_linear_101_696)"/>
<path d="M71.9163 19.9192C71.9052 19.4577 71.797 19.0038 71.5988 18.5868C71.4007 18.1699 71.1169 17.7994 70.7661 17.4994C70.7652 17.4986 70.7643 17.498 70.7634 17.4973C70.5988 17.3622 70.4203 17.245 70.2308 17.1478C69.9369 16.9995 69.6189 16.9048 69.2917 16.8683C69.0953 16.842 68.1449 16.8566 67.9308 16.8531C70.7852 16.9221 71.7976 20.6746 69.7879 22.4918L66.7808 25.7832C66.7058 25.8637 66.6267 25.9404 66.5438 26.0128C66.0562 26.4441 65.4314 26.6883 64.7806 26.7017C64.9122 26.6994 65.9316 26.7096 66.0344 26.6924C66.3927 26.6629 66.7417 26.5622 67.0607 26.3962C67.3592 26.2389 67.6285 26.0315 67.8569 25.7832L70.8641 22.4918C71.0224 22.3457 71.1663 22.1846 71.2935 22.0108C71.7263 21.4015 71.9453 20.666 71.9163 19.9192Z" fill="url(#paint14_linear_101_696)"/>
<path d="M61.7875 81.3775C61.7462 80.1287 60.9531 78.8966 59.7481 78.4893C59.2333 78.2836 58.3521 78.3569 57.8054 78.3451C59.4816 78.333 60.7435 79.9189 60.7149 81.5291C60.7472 83.1338 59.4768 84.7302 57.8054 84.7134C58.1204 84.7057 59.0048 84.7378 59.3011 84.6799C60.1289 84.553 60.8574 84.0174 61.2921 83.3106V83.3098C61.6463 82.7295 61.8188 82.0566 61.7875 81.3775Z" fill="url(#paint15_linear_101_696)"/>
<path d="M40.8562 81.3775C40.8149 80.1295 40.0228 78.8979 38.8187 78.4898H38.8171C38.3052 78.2845 37.4193 78.357 36.8744 78.3456C38.5507 78.3335 39.8122 79.9195 39.7835 81.5296C39.8159 83.1342 38.5454 84.7307 36.8744 84.7139C37.4313 84.702 38.3044 84.7767 38.8264 84.5662C40.1291 84.1217 40.9312 82.7228 40.8562 81.3775Z" fill="url(#paint16_linear_101_696)"/>
<path d="M11.5539 49.3022C11.5124 48.0535 10.7201 46.8218 9.51572 46.4135H9.51411C9.32685 46.3502 9.13337 46.3072 8.93694 46.2851C8.73994 46.257 7.78714 46.2732 7.57178 46.2692C9.24827 46.2573 10.5098 47.844 10.4812 49.4543C10.5133 51.0588 9.24247 52.6553 7.57178 52.6386C7.88659 52.6309 8.7713 52.6632 9.06754 52.6051C9.89525 52.4782 10.6238 51.9422 11.0584 51.2354L11.0589 51.2346C11.413 50.6543 11.5854 49.9813 11.5539 49.3022Z" fill="url(#paint17_linear_101_696)"/>
<path d="M45.0422 8.06157C45.0302 7.79153 44.9871 7.52375 44.9137 7.26359C44.7901 6.83076 44.5794 6.42774 44.2946 6.07916C44.2293 6.00108 44.1612 5.92507 44.0889 5.85368C44.0261 5.79148 43.9599 5.7332 43.8932 5.67569C43.6295 5.45666 43.3288 5.28655 43.0052 5.17344C42.4922 4.96756 41.6063 5.04008 41.0606 5.0287C42.7374 5.01662 43.9987 6.60255 43.97 8.21304C43.9353 8.82709 44.0656 13.133 43.8681 13.6299C43.5718 14.9112 42.4104 15.9956 41.0606 15.9795C41.2012 15.9772 42.211 15.9865 42.3242 15.9722C42.9466 15.925 43.5347 15.6689 43.9933 15.2455C44.2065 15.0499 44.3921 14.8262 44.545 14.5806C44.5457 14.5795 44.5466 14.5784 44.5473 14.5772L44.5479 14.5763C44.8496 14.0827 45.0201 13.5201 45.0429 12.942C45.0458 12.8932 45.046 12.8444 45.0463 12.7953V8.21304C45.0456 8.16222 45.0451 8.11179 45.0422 8.06157Z" fill="url(#paint18_linear_101_696)"/>
<path d="M78.7352 46.2688C82.5928 46.4413 82.594 52.4651 78.7352 52.638H74.5492C70.6907 52.4648 70.6904 46.4421 74.5492 46.2688H78.7352Z" fill="#FFF2DC"/>
<path d="M17.3914 26.7029C17.0033 26.7008 16.62 26.6175 16.266 26.4584C15.9121 26.2992 15.5953 26.0678 15.3361 25.7789L12.4056 22.5711C10.8856 20.6506 12.0809 17.3669 14.6466 17.3526C15.3351 17.3576 15.9969 17.6195 16.5024 18.0869L19.4367 21.2984C21.1659 23.152 20.0818 26.6874 17.3914 26.7029Z" fill="#FFF2DC"/>
<path d="M66.1767 60.0154C70.0207 60.1807 70.0498 66.205 66.1767 66.3855H15.9434C14.3393 66.3855 13.0351 64.9566 13.0351 63.2004C13.0351 61.4443 14.3393 60.0154 15.9434 60.0154H21.5085L20.8149 58.1024C15.3629 43.6586 25.0332 25.6509 41.0602 25.6485C57.0893 25.6518 66.7582 43.6599 61.3062 58.1025L60.6128 60.0154H66.1767ZM54.0263 59.4363C61.446 48.5221 54.1148 31.9591 41.0598 32.0182C27.6349 32.0409 20.5136 49.0816 28.4763 60.0158H53.6445L54.0263 59.4367" fill="#FFF2DC"/>
<path d="M67.9308 16.8533C70.7737 16.9104 71.8036 20.6786 69.7879 22.492L66.7807 25.7834C66.5279 26.0652 66.2199 26.2921 65.8759 26.4501C65.5319 26.6081 65.1591 26.6938 64.7806 26.702C62.1841 26.5292 61.2077 23.1106 62.8963 21.2957L65.7072 17.988C65.9659 17.6408 66.301 17.3579 66.6866 17.1612C67.0722 16.9644 67.4979 16.8591 67.9308 16.8533Z" fill="#FFF2DC"/>
<path d="M57.805 78.345C61.6636 78.5178 61.6639 84.5408 57.805 84.7134H53.6186C49.7615 84.5415 49.7603 78.5177 53.6186 78.345H57.805Z" fill="#FFF2DC"/>
<path d="M36.8744 78.345C38.4786 78.345 39.7834 79.7728 39.7834 81.529C39.7834 83.2851 38.4786 84.7134 36.8744 84.7134H24.3158C20.4603 84.5424 20.4549 78.5188 24.3158 78.345H36.8744Z" fill="#FFF2DC"/>
<path d="M7.57191 46.2688C11.4299 46.4418 11.4311 52.4645 7.57191 52.638H3.38542C-0.472072 52.4652 -0.472372 46.4417 3.38542 46.2688H7.57191Z" fill="#FFF2DC"/>
<path d="M41.0597 15.9796C39.4556 15.9796 38.1515 14.5518 38.1515 12.7952V8.21302C38.3112 3.9889 43.8094 3.9888 43.9692 8.21302V12.7952C43.9695 14.552 42.6649 15.9796 41.0597 15.9796Z" fill="#FFF2DC"/>
<defs>
<filter id="filter0_f_101_696" x="1.88544" y="2.04489" width="87.137" height="85.6685" filterUnits="userSpaceOnUse" color-interpolation-filters="sRGB">
<feFlood flood-opacity="0" result="BackgroundImageFix"/>
<feBlend mode="normal" in="SourceGraphic" in2="BackgroundImageFix" result="shape"/>
<feGaussianBlur stdDeviation="1.5" result="effect1_foregroundBlur_101_696"/>
</filter>
<linearGradient id="paint0_linear_101_696" x1="52.7078" y1="0.934387" x2="52.7078" y2="88.81" gradientUnits="userSpaceOnUse">
<stop stop-color="#D34A0F"/>
<stop offset="1" stop-color="#F87C56"/>
</linearGradient>
<linearGradient id="paint1_linear_101_696" x1="52.7078" y1="0.934387" x2="52.7078" y2="88.81" gradientUnits="userSpaceOnUse">
<stop stop-color="#D34A0F"/>
<stop offset="1" stop-color="#F87C56"/>
</linearGradient>
<linearGradient id="paint2_linear_101_696" x1="52.7078" y1="0.934387" x2="52.7078" y2="88.81" gradientUnits="userSpaceOnUse">
<stop stop-color="#D34A0F"/>
<stop offset="1" stop-color="#F87C56"/>
</linearGradient>
<linearGradient id="paint3_linear_101_696" x1="52.7078" y1="0.934387" x2="52.7078" y2="88.81" gradientUnits="userSpaceOnUse">
<stop stop-color="#D34A0F"/>
<stop offset="1" stop-color="#F87C56"/>
</linearGradient>
<linearGradient id="paint4_linear_101_696" x1="52.7078" y1="0.934387" x2="52.7078" y2="88.81" gradientUnits="userSpaceOnUse">
<stop stop-color="#D34A0F"/>
<stop offset="1" stop-color="#F87C56"/>
</linearGradient>
<linearGradient id="paint5_linear_101_696" x1="52.7078" y1="0.934387" x2="52.7078" y2="88.81" gradientUnits="userSpaceOnUse">
<stop stop-color="#D34A0F"/>
<stop offset="1" stop-color="#F87C56"/>
</linearGradient>
<linearGradient id="paint6_linear_101_696" x1="52.7078" y1="0.934387" x2="52.7078" y2="88.81" gradientUnits="userSpaceOnUse">
<stop stop-color="#D34A0F"/>
<stop offset="1" stop-color="#F87C56"/>
</linearGradient>
<linearGradient id="paint7_linear_101_696" x1="52.7078" y1="0.934387" x2="52.7078" y2="88.81" gradientUnits="userSpaceOnUse">
<stop stop-color="#D34A0F"/>
<stop offset="1" stop-color="#F87C56"/>
</linearGradient>
<linearGradient id="paint8_linear_101_696" x1="52.7078" y1="0.934387" x2="52.7078" y2="88.81" gradientUnits="userSpaceOnUse">
<stop stop-color="#D34A0F"/>
<stop offset="1" stop-color="#F87C56"/>
</linearGradient>
<linearGradient id="paint9_linear_101_696" x1="45.1462" y1="5.02521" x2="45.1462" y2="84.7175" gradientUnits="userSpaceOnUse">
<stop stop-color="#F7A175"/>
<stop offset="1" stop-color="#FFF2DC"/>
</linearGradient>
<linearGradient id="paint10_linear_101_696" x1="45.1462" y1="5.02521" x2="45.1462" y2="84.7175" gradientUnits="userSpaceOnUse">
<stop stop-color="#F7A175"/>
<stop offset="1" stop-color="#FFF2DC"/>
</linearGradient>
<linearGradient id="paint11_linear_101_696" x1="45.1462" y1="5.02521" x2="45.1462" y2="84.7175" gradientUnits="userSpaceOnUse">
<stop stop-color="#F7A175"/>
<stop offset="1" stop-color="#FFF2DC"/>
</linearGradient>
<linearGradient id="paint12_linear_101_696" x1="45.1462" y1="5.02521" x2="45.1462" y2="84.7175" gradientUnits="userSpaceOnUse">
<stop stop-color="#F7A175"/>
<stop offset="1" stop-color="#FFF2DC"/>
</linearGradient>
<linearGradient id="paint13_linear_101_696" x1="45.1462" y1="5.02521" x2="45.1462" y2="84.7175" gradientUnits="userSpaceOnUse">
<stop stop-color="#F7A175"/>
<stop offset="1" stop-color="#FFF2DC"/>
</linearGradient>
<linearGradient id="paint14_linear_101_696" x1="45.1462" y1="5.02521" x2="45.1462" y2="84.7175" gradientUnits="userSpaceOnUse">
<stop stop-color="#F7A175"/>
<stop offset="1" stop-color="#FFF2DC"/>
</linearGradient>
<linearGradient id="paint15_linear_101_696" x1="45.1462" y1="5.02521" x2="45.1462" y2="84.7175" gradientUnits="userSpaceOnUse">
<stop stop-color="#F7A175"/>
<stop offset="1" stop-color="#FFF2DC"/>
</linearGradient>
<linearGradient id="paint16_linear_101_696" x1="45.1462" y1="5.02521" x2="45.1462" y2="84.7175" gradientUnits="userSpaceOnUse">
<stop stop-color="#F7A175"/>
<stop offset="1" stop-color="#FFF2DC"/>
</linearGradient>
<linearGradient id="paint17_linear_101_696" x1="45.1462" y1="5.02521" x2="45.1462" y2="84.7175" gradientUnits="userSpaceOnUse">
<stop stop-color="#F7A175"/>
<stop offset="1" stop-color="#FFF2DC"/>
</linearGradient>
<linearGradient id="paint18_linear_101_696" x1="45.1462" y1="5.02521" x2="45.1462" y2="84.7175" gradientUnits="userSpaceOnUse">
<stop stop-color="#F7A175"/>
<stop offset="1" stop-color="#FFF2DC"/>
</linearGradient>
</defs>
</svg>
