<svg width="94" height="94" viewBox="0 0 94 94" fill="none" xmlns="http://www.w3.org/2000/svg">
<path d="M28.6784 78.6521C32.4037 79.0576 34.8905 82.7224 34.6479 86.3301C34.5004 89.8816 31.698 93.1825 28.0117 93.1721H32.3287C32.7994 93.1709 33.2686 93.1161 33.727 93.0088C35.4409 92.6133 36.921 91.4525 37.8375 89.9661L37.8394 89.9629C40.2436 86.1248 38.7194 80.4905 34.3131 78.9464L34.3075 78.9446C33.7604 78.7574 33.1894 78.6492 32.6118 78.6233C32.5177 78.6182 32.4231 78.6151 32.3287 78.6156H28.0117C28.2344 78.6165 28.4569 78.6287 28.6784 78.6521Z" fill="url(#paint0_linear_101_683)"/>
<path d="M16.442 54.9297C18.3573 57.3331 18.5657 60.901 17.0348 63.5507C15.9085 65.5557 13.7355 66.9802 11.4054 66.9547C12.1537 66.9354 16.0249 67.0186 16.6749 66.8802C17.9127 66.6814 19.0636 66.1199 19.9823 65.2669C23.083 62.4584 23.1627 57.1733 20.162 54.2626C20.1235 54.225 20.0847 54.1875 20.0455 54.1519C20.0355 54.1427 20.0255 54.1345 20.0155 54.1261L20.0136 54.1245C20.0061 54.1183 19.9998 54.1133 19.9946 54.1096C18.0926 52.2378 17.5544 49.2153 18.5019 46.7479C19.1444 45.0466 20.5254 43.5965 22.2736 43.0356C22.695 42.8975 23.1319 42.8124 23.5744 42.7821C24.0642 42.7573 24.5583 42.7673 25.0416 42.6684C26.8818 42.3462 28.4942 41.1387 29.4647 39.5608C30.0947 38.5359 30.4749 37.3772 30.5745 36.1783C30.6222 35.633 30.5965 35.083 30.6279 34.5369C30.6578 33.8318 30.726 33.1274 30.823 32.4291C31.1636 30.0147 31.9145 27.6763 33.0432 25.515C36.15 19.5242 42.2644 15.2925 49.1137 15.3234C48.0561 15.3362 44.4258 15.2812 43.4479 15.3773C42.3598 15.4632 41.2825 15.6536 40.2308 15.9458C35.2685 17.307 31.111 20.954 28.7441 25.4803C27.3719 28.1009 26.5555 30.9765 26.3461 33.9272C26.2796 34.676 26.3115 35.4295 26.2576 36.1783C26.2052 36.799 26.0784 37.4112 25.8801 38.0017C25.0134 40.6698 22.5074 42.7926 19.6386 42.7669C17.8064 42.7538 16.0642 43.7454 15.0089 45.2219C13.088 47.8389 13.3498 51.8243 15.6786 54.1094C15.9568 54.3597 16.2123 54.6342 16.442 54.9297Z" fill="url(#paint1_linear_101_683)"/>
<path d="M38.9716 67.2467C38.886 64.3849 37.0765 61.5518 34.3131 60.6179C34.3113 60.6173 34.3094 60.6168 34.3076 60.6161C33.7605 60.4289 33.1895 60.3208 32.6118 60.2949C32.5177 60.2898 32.4231 60.2867 32.3287 60.2871H28.0117C31.8807 60.2847 34.7025 63.8498 34.6613 67.5657C34.7046 71.2811 31.8782 74.8454 28.0117 74.8437H32.3287C32.7995 74.8425 33.2686 74.7877 33.7271 74.6805C35.441 74.285 36.9213 73.1247 37.8376 71.638L37.8395 71.6349C38.644 70.317 39.0381 68.7894 38.9716 67.2467Z" fill="url(#paint2_linear_101_683)"/>
<path d="M38.9716 48.9184C38.8859 46.0549 37.074 43.219 34.3075 42.2874C33.7603 42.1 33.1891 41.9918 32.6112 41.966C32.5172 41.961 32.423 41.9578 32.3287 41.9583H28.0117C31.8808 41.956 34.7025 45.5215 34.6613 49.2369C34.7044 52.9512 31.8764 56.5135 28.0117 56.5115H32.3287C32.7995 56.5103 33.2688 56.4556 33.7273 56.3484C35.4422 55.9526 36.9236 54.7908 37.8398 53.3031C38.644 51.9863 39.038 50.46 38.9716 48.9184Z" fill="url(#paint3_linear_101_683)"/>
<path d="M45.4226 69.4898C49.1468 69.8948 51.6347 73.558 51.3921 77.165C51.2445 80.7166 48.4423 84.0173 44.7559 84.0068H49.0727C49.5436 84.0056 50.0128 83.9509 50.4712 83.8436C52.1863 83.4478 53.6674 82.2861 54.5834 80.7979C55.7254 78.959 56.0138 76.6376 55.4209 74.5619C55.076 73.3413 54.4244 72.2294 53.528 71.332C52.5822 70.3821 51.3626 69.7523 50.0405 69.531C49.4005 69.3831 45.4798 69.4784 44.7559 69.4531C44.9786 69.4541 45.2011 69.4663 45.4226 69.4898Z" fill="url(#paint4_linear_101_683)"/>
<path d="M45.4225 51.1582C49.148 51.5638 51.6346 55.2292 51.3921 58.837C51.2444 62.3882 48.4419 65.6887 44.7559 65.6781H49.0727C49.5436 65.6769 50.0128 65.6221 50.4712 65.5147C52.1852 65.1195 53.6653 63.9588 54.5817 62.4722L54.5835 62.4691C56.4129 59.5564 56.0054 55.4283 53.5339 53.0072C52.5876 52.0536 51.3656 51.4212 50.0405 51.1994C49.4003 51.0515 45.48 51.1469 44.7559 51.1216C44.9785 51.1225 45.2011 51.1347 45.4225 51.1582Z" fill="url(#paint5_linear_101_683)"/>
<path d="M55.714 39.7251C55.6203 36.8712 53.808 34.0504 51.0512 33.122C50.5042 32.9347 49.9331 32.8265 49.3554 32.8007C49.2613 32.7955 49.1669 32.7923 49.0724 32.7928H44.7559C48.6245 32.7905 51.4465 36.3557 51.4055 40.0715C51.4487 43.7865 48.6221 47.3513 44.7559 47.3495H49.0727C49.5436 47.3482 50.0128 47.2935 50.4712 47.1862C52.1852 46.7906 53.6653 45.6302 54.5817 44.1437L54.5835 44.1405C55.3932 42.8148 55.7869 41.2768 55.714 39.7251Z" fill="url(#paint6_linear_101_683)"/>
<path d="M62.1666 60.3237C65.8921 60.729 68.3782 64.3945 68.1357 68.0017C67.9885 71.5531 65.1864 74.8538 61.5 74.8432C61.7153 74.8359 66.174 74.8607 66.2456 74.8264C66.9899 74.7739 67.7186 74.5866 68.3959 74.2735C71.0411 73.0606 72.6017 70.1074 72.4596 67.2462C72.3733 64.5046 70.7223 61.7864 68.1363 60.7441C67.5129 60.4882 66.8514 60.3373 66.1786 60.2978C66.1846 60.2478 61.6475 60.3112 61.5004 60.2867C61.7229 60.2878 61.9453 60.3001 62.1666 60.3237Z" fill="url(#paint7_linear_101_683)"/>
<path d="M62.1666 41.9949C65.8919 42.4005 68.3781 46.066 68.1357 49.673C67.9883 53.2236 65.1848 56.5223 61.5 56.5116C61.7147 56.5044 66.1745 56.529 66.2454 56.4949C66.9899 56.4424 67.7186 56.255 68.3961 55.9419C71.0401 54.7297 72.6017 51.7784 72.4593 48.918C72.373 46.1763 70.722 43.4578 68.136 42.4153C67.5127 42.1595 66.8512 42.0087 66.1785 41.9691C66.0581 41.964 65.9378 41.957 65.8171 41.958H61.5005C61.723 41.9591 61.9454 41.9714 62.1666 41.9949Z" fill="url(#paint8_linear_101_683)"/>
<path d="M93.2875 44.5594C93.286 44.3012 93.279 44.0431 93.2691 43.7853V43.7825C92.9254 33.9341 87.1697 24.4541 77.835 20.7796C76.9558 18.7264 75.8865 16.7599 74.6412 14.9058C70.7919 9.16626 65.1327 4.59986 58.5702 2.36115L58.5673 2.36008C56.4568 1.63656 54.271 1.1553 52.0518 0.925594C50.1548 0.692857 46.6888 0.789814 44.7462 0.771343C55.1125 0.744285 64.6177 6.37261 70.3243 14.9058C71.5696 16.7599 72.6388 18.7264 73.5181 20.7796C82.8535 24.4551 88.6083 33.9343 88.9522 43.7825V43.7852C89.2146 50.1938 87.2274 56.7145 83.1973 61.7321C81.9803 63.0743 80.2449 63.9832 78.4101 63.9645C78.9545 63.9492 83.0329 64.0076 83.4641 63.9184C85.0335 63.7398 86.4579 62.8847 87.5142 61.7318C91.3792 56.9174 93.3737 50.7147 93.2875 44.5594Z" fill="url(#paint9_linear_101_683)"/>
<path d="M62.1666 78.6521C65.8919 79.0575 68.3783 82.7226 68.1357 86.3301C67.9882 89.8814 65.1863 93.1825 61.5 93.1721H65.8169C66.2877 93.1709 66.7568 93.1161 67.2153 93.0088C68.929 92.6133 70.4088 91.4528 71.3252 89.9664C71.3259 89.9652 71.3265 89.964 71.3272 89.963C73.731 86.125 72.2076 80.4905 67.8012 78.9464L67.7956 78.9445C67.2485 78.7573 66.6776 78.6492 66.1 78.6233C66.0059 78.6182 65.9114 78.6151 65.8169 78.6156H61.5005C61.723 78.6165 61.9453 78.6287 62.1666 78.6521Z" fill="url(#paint10_linear_101_683)"/>
<path d="M28.0117 78.6159C31.6786 78.6159 34.6613 81.8799 34.6613 85.8938C34.2955 95.55 21.7275 95.548 21.3632 85.8938C21.363 81.8799 24.3448 78.6159 28.0117 78.6159Z" fill="#F87C56"/>
<path d="M28.0117 60.2871C31.6786 60.2871 34.6613 63.5511 34.6613 67.5658C34.2962 77.2207 21.7269 77.2192 21.3632 67.5658C21.363 63.5511 24.3448 60.2871 28.0117 60.2871Z" fill="#F87C56"/>
<path d="M28.0117 41.9584C31.6786 41.9584 34.6613 45.2233 34.6613 49.237C34.2951 58.8879 21.728 58.886 21.3632 49.237C21.363 45.2229 24.3448 41.9584 28.0117 41.9584Z" fill="#F87C56"/>
<path d="M44.7558 69.4531C48.4227 69.4531 51.4055 72.7165 51.4055 76.7283C51.0401 86.3845 38.4714 86.3825 38.1074 76.7283C38.1069 72.7165 41.0888 69.4531 44.7558 69.4531Z" fill="#F87C56"/>
<path d="M44.7558 51.1216C48.4227 51.1216 51.4055 54.3865 51.4055 58.4002C51.0399 68.0557 38.4715 68.0537 38.1074 58.4002C38.1069 54.3862 41.0888 51.1216 44.7558 51.1216Z" fill="#F87C56"/>
<path d="M44.7558 32.7928C48.4227 32.7928 51.4055 36.0578 51.4055 40.0715C51.0399 49.7265 38.4715 49.725 38.1074 40.0715C38.1069 36.0575 41.0888 32.7928 44.7558 32.7928Z" fill="#F87C56"/>
<path d="M61.5005 60.2871C65.1674 60.2871 68.1492 63.5511 68.1492 67.5658C67.7844 77.2217 55.2152 77.2187 54.8512 67.5658C54.8508 63.5511 57.8331 60.2871 61.5005 60.2871Z" fill="#F87C56"/>
<path d="M61.5005 41.9584C65.1674 41.9584 68.1492 45.2233 68.1492 49.237C67.7833 58.8884 55.2162 58.8854 54.8512 49.237C54.8508 45.2229 57.8331 41.9584 61.5005 41.9584Z" fill="#F87C56"/>
<path d="M80.9948 25.5995C90.7023 34.8991 91.6908 51.1092 83.1973 61.7321C80.7572 64.4634 76.901 64.6974 74.2497 62.3611C71.3871 59.9494 70.9543 55.0938 73.2249 52.1292C78.4596 45.9746 75.227 35.2122 67.403 33.8377C64.9815 33.3833 62.9958 31.5137 62.2211 28.9653C54.9734 7.39151 26.6265 13.028 26.2875 35.4942C26.2875 39.5023 23.3057 42.7669 19.6379 42.7669C14.1019 42.7989 11.7671 50.2935 15.6779 54.1092C20.2389 58.1574 17.8352 66.9033 11.4045 66.9543C9.67722 66.9543 8.04207 66.2355 6.79681 64.9244C-3.978 54.6604 -0.486944 34.2351 13.5153 29.2968C19.1984 -3.26595 59.5745 -10.2797 73.5172 20.7792C76.3013 21.8809 78.8419 23.5187 80.9948 25.5995Z" fill="#F87C56"/>
<path d="M61.5005 78.6159C65.1674 78.6159 68.1492 81.8799 68.1492 85.8938C67.7837 95.5505 55.2158 95.5475 54.8512 85.8938C54.8508 81.8799 57.8331 78.6159 61.5005 78.6159Z" fill="#F87C56"/>
<g style="mix-blend-mode:multiply" opacity="0.4" filter="url(#filter0_f_101_683)">
<path d="M28.214 46.0528C29.8182 46.0528 31.1234 47.4806 31.1234 49.2366C30.9629 53.4612 25.4652 53.461 25.3055 49.2366C25.3055 47.4806 26.6099 46.0528 28.214 46.0528Z" fill="#D34A0F"/>
<path d="M44.959 55.2162C46.5631 55.2162 47.8676 56.645 47.8676 58.4012C47.7074 62.6267 42.2096 62.6246 42.0497 58.4012C42.0497 56.645 43.3549 55.2162 44.959 55.2162Z" fill="#D34A0F"/>
<path d="M44.959 36.8871C46.5631 36.8871 47.8676 38.3164 47.8676 40.0722C47.7074 44.2977 42.2096 44.2956 42.0497 40.0722C42.0497 38.3167 43.3549 36.8871 44.959 36.8871Z" fill="#D34A0F"/>
<path d="M61.7031 46.0528C63.3073 46.0528 64.6125 47.4806 64.6125 49.2366C64.452 53.4616 58.9537 53.4605 58.7938 49.2366C58.7938 47.4806 60.099 46.0528 61.7031 46.0528Z" fill="#D34A0F"/>
<path d="M85.4038 43.4411C85.752 49.1561 84.0523 54.6771 80.6188 58.9958C80.3616 59.2705 80.0511 59.4899 79.7062 59.6406C79.3613 59.7912 78.9893 59.8699 78.613 59.8718C76.0931 59.8664 74.8832 56.6579 76.3272 54.7194C83.3246 46.2965 78.9759 31.7252 68.2408 29.8052C67.1793 29.6063 66.3101 28.7884 65.9713 27.6708C56.7856 1.27952 23.1313 8.80112 22.7508 35.4869C22.7508 37.2451 21.4464 38.6739 19.8427 38.6739C10.8204 38.731 6.98079 50.9106 13.3768 57.1475C15.4921 58.9067 14.4901 62.8201 11.6061 62.8635C11.2274 62.8612 10.8532 62.7812 10.5066 62.6285C10.1601 62.4758 9.84857 62.2536 9.59133 61.9756C0.256371 52.9759 3.94362 35.4151 17.0597 32.5445C20.1078 2.11002 57.7028 -6.28557 70.5563 23.0457V23.9728C79.0964 26.375 84.9291 34.4981 85.4038 43.4411Z" fill="#D34A0F"/>
<path d="M61.7031 64.3813C63.3073 64.3813 64.6125 65.81 64.6125 67.5663C64.452 71.7898 58.9537 71.7891 58.7938 67.5663C58.7938 65.81 60.099 64.3813 61.7031 64.3813Z" fill="#D34A0F"/>
<path d="M61.7031 82.7099C63.3073 82.7099 64.6125 84.1387 64.6125 85.895C64.452 90.12 58.9537 90.1184 58.7938 85.895C58.7938 84.1387 60.099 82.7099 61.7031 82.7099Z" fill="#D34A0F"/>
<path d="M44.959 73.5458C46.5631 73.5458 47.8676 74.9741 47.8676 76.7297C47.7074 80.9551 42.2096 80.9531 42.0497 76.7297C42.0497 74.9741 43.3549 73.5458 44.959 73.5458Z" fill="#D34A0F"/>
<path d="M28.214 64.3813C29.8182 64.3813 31.1234 65.81 31.1234 67.5663C30.9629 71.7898 25.4651 71.7898 25.3055 67.5663C25.3055 65.81 26.6099 64.3813 28.214 64.3813Z" fill="#D34A0F"/>
<path d="M28.214 82.7099C29.8182 82.7099 31.1234 84.1387 31.1234 85.895C30.9629 90.1196 25.4652 90.1194 25.3055 85.895C25.3055 84.1387 26.6099 82.7099 28.214 82.7099Z" fill="#D34A0F"/>
</g>
<path d="M27.803 49.097C27.7747 48.2636 27.4339 47.4714 26.8485 46.8776C26.7834 46.8139 26.716 46.7529 26.6464 46.6948C26.535 46.6035 26.4173 46.5199 26.2944 46.4447C26.2927 46.4437 26.2909 46.4429 26.2892 46.4418C25.9524 46.2395 25.5759 46.1122 25.1855 46.0684C24.9858 46.0403 24.0379 46.0566 23.8202 46.0526C24.5542 46.0594 25.2559 46.3559 25.7723 46.8776C26.8536 47.9373 27.031 49.7424 26.2311 51.0171C25.7261 51.8475 24.8042 52.4294 23.8202 52.4211C24.1351 52.4134 25.0198 52.4457 25.3161 52.3875C26.1423 52.2608 26.8704 51.7263 27.3048 51.0209L27.3068 51.018V51.0171C27.4922 50.7145 27.6288 50.3846 27.7115 50.0395C27.7842 49.7309 27.815 49.4139 27.803 49.097Z" fill="url(#paint11_linear_101_683)"/>
<path d="M40.0838 11.2372C38.7866 11.2707 37.4953 11.4242 36.2264 11.6958L36.2213 11.6969C34.7948 12.0069 33.4049 12.4659 32.0743 13.0663C30.7332 13.6757 29.4579 14.4206 28.2683 15.2894C22.754 19.3082 19.2513 25.7795 18.5259 32.5302C18.4354 33.3248 18.3848 34.1242 18.3651 34.9238C18.3537 35.3805 18.3781 35.8453 18.2636 36.2916C18.0766 37.1097 17.5738 37.8208 16.8648 38.2699C16.5206 38.4827 16.133 38.6157 15.7307 38.6593C15.1907 38.6878 14.6473 38.683 14.1132 38.7762C12.7274 38.9915 11.4102 39.5242 10.2643 40.3326C9.6055 40.7963 9.00479 41.3375 8.47509 41.9445C8.47439 41.9453 8.47379 41.9462 8.47309 41.9469C8.09724 42.3793 7.75668 42.8411 7.45468 43.3279L7.45358 43.3297C7.32378 43.5404 7.20127 43.756 7.08475 43.9747L7.08346 43.9772C4.84884 48.1735 5.56233 53.7937 8.9837 57.1479C9.03611 57.1956 9.08164 57.2373 9.12977 57.2831C11.059 59.1203 10.0255 62.8063 7.21276 62.8644C7.43082 62.8602 8.37095 62.8768 8.56814 62.8497C9.16113 62.7854 9.71748 62.5313 10.1543 62.1251C10.7319 61.584 11.0947 60.8527 11.1761 60.0654C11.2254 59.6125 11.1866 59.1544 11.062 58.7162C10.9074 58.1717 10.612 57.6776 10.2056 57.2836C10.1576 57.2378 10.112 57.1959 10.0596 57.1484C6.12575 53.2939 5.81264 46.5302 9.27684 42.273C10.6567 40.5426 12.6272 39.2677 14.8091 38.8423C15.2425 38.7574 15.6816 38.7047 16.1228 38.6847C16.4145 38.6686 16.7119 38.689 17.0006 38.6317C17.3999 38.5528 17.7782 38.3911 18.1112 38.157C18.4442 37.923 18.7245 37.6217 18.9339 37.2727C19.1901 36.8552 19.352 36.3868 19.4084 35.9002C19.4528 35.517 19.4259 35.1279 19.4464 34.7431C19.4853 33.3684 19.6311 31.9987 19.8822 30.6465C20.9851 24.5939 24.3531 18.9347 29.3401 15.293L29.3443 15.2899C30.5339 14.4212 31.8091 13.6763 33.1501 13.0668C34.4807 12.4664 35.8707 12.0074 37.2972 11.6974L37.3022 11.6962C38.7442 11.3876 40.2147 11.2316 41.6893 11.2308C41.3155 11.2311 40.4444 11.2255 40.0838 11.2372Z" fill="url(#paint12_linear_101_683)"/>
<path d="M40.8545 55.232C42.4508 55.3918 43.5668 57.0012 43.4704 58.5475C43.4357 60.1013 42.1795 61.6027 40.5649 61.5857C41.1809 61.5758 42.0745 61.6556 42.6444 61.3904C44.1474 60.7924 44.8709 58.9622 44.4176 57.4515L44.417 57.4491C44.2937 57.0193 44.0847 56.6189 43.8027 56.272C43.8012 56.2703 43.7995 56.2686 43.7981 56.2667C43.4595 55.8523 43.0135 55.5389 42.5088 55.3609L42.5072 55.3604C41.9954 55.1552 41.1094 55.2277 40.5649 55.2162C40.6621 55.2177 40.7588 55.2227 40.8545 55.232Z" fill="url(#paint13_linear_101_683)"/>
<path d="M44.5469 39.9207C44.5349 39.6507 44.4918 39.383 44.4184 39.123L44.4178 39.1207C44.2945 38.6908 44.0855 38.2904 43.8034 37.9435C43.7366 37.8636 43.6672 37.7857 43.5931 37.7126C43.592 37.7116 43.5909 37.7103 43.5898 37.7091C43.2845 37.4059 42.9154 37.1746 42.5094 37.0322L42.508 37.0317C41.9962 36.8265 41.1102 36.899 40.5657 36.8876C40.8603 36.8887 41.1528 36.9373 41.4319 37.0317C42.9659 37.5488 43.7682 39.3488 43.3804 40.8757C43.0927 42.1697 41.928 43.2733 40.5657 43.2572C41.1226 43.2453 41.9955 43.32 42.5175 43.1095C43.8197 42.6649 44.6216 41.2659 44.5469 39.9207Z" fill="url(#paint14_linear_101_683)"/>
<path d="M57.5988 46.0684C59.1949 46.2282 60.3118 47.8363 60.2156 49.3832C60.1808 50.9373 58.9238 52.438 57.3101 52.4215C57.6253 52.4138 58.5096 52.4461 58.8059 52.3879C59.6338 52.261 60.3627 51.7247 60.7971 51.0175C60.9826 50.715 61.1192 50.3851 61.2018 50.0399C61.3002 49.6223 61.3211 49.1902 61.2635 48.765C61.1695 48.0518 60.8446 47.389 60.3383 46.8779C60.3374 46.8771 60.3365 46.876 60.3355 46.875C60.1688 46.7111 59.9838 46.5669 59.7842 46.4451C59.7826 46.4441 59.7808 46.4433 59.7791 46.4422C59.3585 46.1891 58.8772 46.0546 58.3863 46.0528H57.3096C57.4062 46.0541 57.503 46.0591 57.5988 46.0684Z" fill="url(#paint15_linear_101_683)"/>
<path d="M82.1283 44.6413C82.0953 38.3517 79.4198 32.0521 74.6069 27.9438C73.1126 26.653 71.4277 25.6009 69.6119 24.8248C68.8801 24.5092 68.0013 24.2222 67.2392 23.9729V23.0458C63.9079 14.773 56.9366 8.0015 48.2234 5.72185C46.2445 5.19951 44.2107 4.91344 42.1646 4.86966H42.1578C41.8041 4.86078 40.9224 4.8653 40.5564 4.8643C52.0898 4.85691 61.9289 12.5444 66.163 23.046V23.9731C80.9794 28.3313 85.5234 47.3068 76.2251 58.996C75.9673 59.2699 75.6566 59.4887 75.3118 59.6393C74.9671 59.7899 74.5954 59.8691 74.2193 59.8721C74.4297 59.8682 75.3755 59.8836 75.5646 59.8585C76.2277 59.7868 76.8435 59.481 77.3014 58.996C77.8346 58.3234 78.3285 57.6205 78.7804 56.8909L78.7816 56.889C81.0416 53.2376 82.1843 48.9294 82.1283 44.6413Z" fill="url(#paint16_linear_101_683)"/>
<path d="M57.5986 64.3971C57.795 64.4193 57.9886 64.4624 58.1759 64.5255C60.095 65.1806 60.7769 67.6931 59.7183 69.3497C59.2131 70.1784 58.292 70.7575 57.3096 70.7498C57.5692 70.7439 58.481 70.7675 58.721 70.728C59.5817 70.6255 60.3474 70.0779 60.7964 69.3467V69.346C60.8723 69.2215 60.9406 69.0925 61.0009 68.9598C61.0018 68.9578 61.0025 68.9556 61.0035 68.9537C61.5135 67.8168 61.3454 66.4015 60.5478 65.4376C60.4806 65.3577 60.4114 65.2796 60.3371 65.2065L60.3341 65.2033C60.2719 65.1424 60.207 65.0849 60.1413 65.0283C59.8775 64.8092 59.5765 64.6391 59.2527 64.526L59.2512 64.5255C58.9721 64.4309 58.6795 64.3823 58.3849 64.3814H57.3096C57.4062 64.3827 57.5029 64.3877 57.5986 64.3971Z" fill="url(#paint17_linear_101_683)"/>
<path d="M57.5987 82.7258C59.195 82.8856 60.3117 84.4947 60.2156 86.0413C60.1808 87.5953 58.9238 89.0959 57.3101 89.0795C57.6251 89.0719 58.5096 89.104 58.8059 89.0458C59.6336 88.9189 60.362 88.3831 60.7966 87.6764V87.6756C61.5385 86.4893 61.4442 84.8459 60.5482 83.7663C60.4811 83.6864 60.4118 83.6082 60.3375 83.5352C60.2746 83.473 60.2084 83.4146 60.1417 83.3571C59.8776 83.1376 59.5763 82.9673 59.252 82.8542C58.9729 82.7597 58.6804 82.711 58.3858 82.71H57.3096C57.4062 82.7114 57.503 82.7166 57.5987 82.7258Z" fill="url(#paint18_linear_101_683)"/>
<path d="M40.8545 73.5617C43.1531 73.8334 44.1561 76.6578 42.9722 78.516C42.4672 79.3437 41.5469 79.9227 40.5659 79.9144C40.8811 79.9068 41.7653 79.9388 42.0618 79.8808C42.8894 79.7537 43.6181 79.2178 44.0522 78.5107C44.128 78.3863 44.1963 78.2574 44.2566 78.1247C44.5815 77.386 44.6388 76.5571 44.4186 75.7806V75.7782C44.2669 75.2454 43.982 74.7599 43.5909 74.3676C43.5287 74.3067 43.4639 74.2492 43.3982 74.1927C43.3962 74.191 43.394 74.1896 43.3919 74.1879C43.1296 73.9706 42.8306 73.802 42.5089 73.6901C41.997 73.4849 41.1111 73.5573 40.5664 73.5459C40.6621 73.5473 40.7589 73.5525 40.8545 73.5617Z" fill="url(#paint19_linear_101_683)"/>
<path d="M27.803 67.4266C27.7912 67.1526 27.7477 66.8808 27.6732 66.6168L27.6726 66.6146C27.5213 66.083 27.2374 65.5986 26.8477 65.2068C26.8466 65.2058 26.8457 65.2047 26.8447 65.2036C26.7824 65.1428 26.7175 65.0852 26.6518 65.0286C26.3881 64.8096 26.0873 64.6394 25.7638 64.5263L25.7622 64.5258C25.2503 64.3205 24.3643 64.3932 23.8197 64.3817C24.1143 64.3827 24.4068 64.4314 24.6859 64.5258C26.6035 65.1804 27.2861 67.6895 26.2307 69.3462C25.7257 70.1768 24.8036 70.7583 23.8197 70.7501C24.0793 70.7442 24.9911 70.7678 25.2311 70.7283C26.0916 70.6257 26.8575 70.0782 27.3064 69.347V69.3463C27.6585 68.7697 27.8313 68.1016 27.803 67.4266Z" fill="url(#paint20_linear_101_683)"/>
<path d="M24.1094 82.7258C25.7058 82.8855 26.8226 84.4946 26.7265 86.0413C26.6916 87.5953 25.4347 89.0958 23.8205 89.0795C24.1355 89.0719 25.02 89.1039 25.3163 89.0458C26.1426 88.919 26.8703 88.3848 27.3049 87.6796C27.3055 87.6785 27.3063 87.6775 27.307 87.6764V87.6756C28.1073 86.4007 27.9294 84.5951 26.8478 83.5352C26.5419 83.2302 26.1715 82.9977 25.7638 82.8547L25.7623 82.8542C25.2504 82.649 24.3644 82.7215 23.8198 82.71C23.917 82.7114 24.0139 82.7165 24.1094 82.7258Z" fill="url(#paint21_linear_101_683)"/>
<path d="M23.8205 46.0528C25.4246 46.0528 26.7298 47.4806 26.7298 49.2366C26.5693 53.4612 21.0716 53.461 20.9119 49.2366C20.9119 47.4806 22.2164 46.0528 23.8205 46.0528Z" fill="#FFF2DC"/>
<path d="M40.5655 55.2162C42.1696 55.2162 43.474 56.645 43.474 58.4012C43.3142 62.6267 37.8161 62.6246 37.656 58.4012C37.6561 56.645 38.9613 55.2162 40.5655 55.2162Z" fill="#FFF2DC"/>
<path d="M40.5655 36.8871C42.1696 36.8871 43.474 38.3164 43.474 40.0722C43.3142 44.2977 37.8161 44.2956 37.656 40.0722C37.6561 38.3167 38.9613 36.8871 40.5655 36.8871Z" fill="#FFF2DC"/>
<path d="M57.3096 46.0528C58.9137 46.0528 60.2189 47.4806 60.2189 49.2366C60.0584 53.4616 54.5602 53.4605 54.4002 49.2366C54.4002 47.4806 55.7054 46.0528 57.3096 46.0528Z" fill="#FFF2DC"/>
<path d="M81.01 43.4411C81.3582 49.1561 79.6586 54.6771 76.225 58.9958C75.9678 59.2705 75.6573 59.4899 75.3124 59.6406C74.9675 59.7912 74.5956 59.8699 74.2192 59.8718C71.6993 59.8664 70.4894 56.6579 71.9333 54.7194C78.9307 46.2965 74.5821 31.7252 63.8469 29.8052C62.7855 29.6063 61.9162 28.7884 61.5775 27.6708C52.3918 1.27952 18.7376 8.80112 18.3571 35.4869C18.3571 37.2451 17.0525 38.6739 15.4488 38.6739C6.42656 38.731 2.58704 50.9106 8.98307 57.1475C11.0983 58.9067 10.0963 62.8201 7.21223 62.8635C6.83365 62.8611 6.45959 62.781 6.11317 62.6283C5.76674 62.4756 5.45533 62.2535 5.19817 61.9756C-4.13729 52.9759 -0.449631 35.4151 12.6665 32.5445C15.7147 2.11002 53.3096 -6.28557 66.1632 23.0457V23.9728C74.7029 26.375 80.5355 34.4981 81.01 43.4411Z" fill="#FFF2DC"/>
<path d="M57.3096 64.3813C58.9137 64.3813 60.2189 65.81 60.2189 67.5663C60.0585 71.7898 54.5602 71.7891 54.4002 67.5663C54.4002 65.81 55.7054 64.3813 57.3096 64.3813Z" fill="#FFF2DC"/>
<path d="M57.3096 82.7099C58.9137 82.7099 60.2189 84.1387 60.2189 85.895C60.0584 90.12 54.5602 90.1184 54.4002 85.895C54.4002 84.1387 55.7054 82.7099 57.3096 82.7099Z" fill="#FFF2DC"/>
<path d="M40.5655 73.5458C42.1696 73.5458 43.474 74.9741 43.474 76.7297C43.3142 80.9551 37.8161 80.9531 37.656 76.7297C37.6561 74.9741 38.9613 73.5458 40.5655 73.5458Z" fill="#FFF2DC"/>
<path d="M23.8205 64.3813C25.4246 64.3813 26.7298 65.81 26.7298 67.5663C26.5694 71.7898 21.0716 71.7898 20.9119 67.5663C20.9119 65.81 22.2164 64.3813 23.8205 64.3813Z" fill="#FFF2DC"/>
<path d="M23.8205 82.7099C25.4246 82.7099 26.7298 84.1387 26.7298 85.895C26.5693 90.1196 21.0716 90.1194 20.9119 85.895C20.9119 84.1387 22.2164 82.7099 23.8205 82.7099Z" fill="#FFF2DC"/>
<defs>
<filter id="filter0_f_101_683" x="1.3934" y="1.88705" width="87.055" height="90.1763" filterUnits="userSpaceOnUse" color-interpolation-filters="sRGB">
<feFlood flood-opacity="0" result="BackgroundImageFix"/>
<feBlend mode="normal" in="SourceGraphic" in2="BackgroundImageFix" result="shape"/>
<feGaussianBlur stdDeviation="1.5" result="effect1_foregroundBlur_101_683"/>
</filter>
<linearGradient id="paint0_linear_101_683" x1="52.3478" y1="0.76651" x2="52.3478" y2="93.1721" gradientUnits="userSpaceOnUse">
<stop stop-color="#D34A0F"/>
<stop offset="1" stop-color="#F87C56"/>
</linearGradient>
<linearGradient id="paint1_linear_101_683" x1="52.3478" y1="0.76651" x2="52.3478" y2="93.1721" gradientUnits="userSpaceOnUse">
<stop stop-color="#D34A0F"/>
<stop offset="1" stop-color="#F87C56"/>
</linearGradient>
<linearGradient id="paint2_linear_101_683" x1="52.3478" y1="0.76651" x2="52.3478" y2="93.1721" gradientUnits="userSpaceOnUse">
<stop stop-color="#D34A0F"/>
<stop offset="1" stop-color="#F87C56"/>
</linearGradient>
<linearGradient id="paint3_linear_101_683" x1="52.3478" y1="0.76651" x2="52.3478" y2="93.1721" gradientUnits="userSpaceOnUse">
<stop stop-color="#D34A0F"/>
<stop offset="1" stop-color="#F87C56"/>
</linearGradient>
<linearGradient id="paint4_linear_101_683" x1="52.3478" y1="0.76651" x2="52.3478" y2="93.1721" gradientUnits="userSpaceOnUse">
<stop stop-color="#D34A0F"/>
<stop offset="1" stop-color="#F87C56"/>
</linearGradient>
<linearGradient id="paint5_linear_101_683" x1="52.3478" y1="0.76651" x2="52.3478" y2="93.1721" gradientUnits="userSpaceOnUse">
<stop stop-color="#D34A0F"/>
<stop offset="1" stop-color="#F87C56"/>
</linearGradient>
<linearGradient id="paint6_linear_101_683" x1="52.3478" y1="0.76651" x2="52.3478" y2="93.1721" gradientUnits="userSpaceOnUse">
<stop stop-color="#D34A0F"/>
<stop offset="1" stop-color="#F87C56"/>
</linearGradient>
<linearGradient id="paint7_linear_101_683" x1="52.3478" y1="0.76651" x2="52.3478" y2="93.1721" gradientUnits="userSpaceOnUse">
<stop stop-color="#D34A0F"/>
<stop offset="1" stop-color="#F87C56"/>
</linearGradient>
<linearGradient id="paint8_linear_101_683" x1="52.3478" y1="0.76651" x2="52.3478" y2="93.1721" gradientUnits="userSpaceOnUse">
<stop stop-color="#D34A0F"/>
<stop offset="1" stop-color="#F87C56"/>
</linearGradient>
<linearGradient id="paint9_linear_101_683" x1="52.3478" y1="0.76651" x2="52.3478" y2="93.1721" gradientUnits="userSpaceOnUse">
<stop stop-color="#D34A0F"/>
<stop offset="1" stop-color="#F87C56"/>
</linearGradient>
<linearGradient id="paint10_linear_101_683" x1="52.3478" y1="0.76651" x2="52.3478" y2="93.1721" gradientUnits="userSpaceOnUse">
<stop stop-color="#D34A0F"/>
<stop offset="1" stop-color="#F87C56"/>
</linearGradient>
<linearGradient id="paint11_linear_101_683" x1="43.965" y1="4.86401" x2="43.965" y2="89.0816" gradientUnits="userSpaceOnUse">
<stop stop-color="#F7A175"/>
<stop offset="1" stop-color="#FFF2DC"/>
</linearGradient>
<linearGradient id="paint12_linear_101_683" x1="43.965" y1="4.86401" x2="43.965" y2="89.0816" gradientUnits="userSpaceOnUse">
<stop stop-color="#F7A175"/>
<stop offset="1" stop-color="#FFF2DC"/>
</linearGradient>
<linearGradient id="paint13_linear_101_683" x1="43.965" y1="4.86401" x2="43.965" y2="89.0816" gradientUnits="userSpaceOnUse">
<stop stop-color="#F7A175"/>
<stop offset="1" stop-color="#FFF2DC"/>
</linearGradient>
<linearGradient id="paint14_linear_101_683" x1="43.965" y1="4.86401" x2="43.965" y2="89.0816" gradientUnits="userSpaceOnUse">
<stop stop-color="#F7A175"/>
<stop offset="1" stop-color="#FFF2DC"/>
</linearGradient>
<linearGradient id="paint15_linear_101_683" x1="43.965" y1="4.86401" x2="43.965" y2="89.0816" gradientUnits="userSpaceOnUse">
<stop stop-color="#F7A175"/>
<stop offset="1" stop-color="#FFF2DC"/>
</linearGradient>
<linearGradient id="paint16_linear_101_683" x1="43.965" y1="4.86401" x2="43.965" y2="89.0816" gradientUnits="userSpaceOnUse">
<stop stop-color="#F7A175"/>
<stop offset="1" stop-color="#FFF2DC"/>
</linearGradient>
<linearGradient id="paint17_linear_101_683" x1="43.965" y1="4.86401" x2="43.965" y2="89.0816" gradientUnits="userSpaceOnUse">
<stop stop-color="#F7A175"/>
<stop offset="1" stop-color="#FFF2DC"/>
</linearGradient>
<linearGradient id="paint18_linear_101_683" x1="43.965" y1="4.86401" x2="43.965" y2="89.0816" gradientUnits="userSpaceOnUse">
<stop stop-color="#F7A175"/>
<stop offset="1" stop-color="#FFF2DC"/>
</linearGradient>
<linearGradient id="paint19_linear_101_683" x1="43.965" y1="4.86401" x2="43.965" y2="89.0816" gradientUnits="userSpaceOnUse">
<stop stop-color="#F7A175"/>
<stop offset="1" stop-color="#FFF2DC"/>
</linearGradient>
<linearGradient id="paint20_linear_101_683" x1="43.965" y1="4.86401" x2="43.965" y2="89.0816" gradientUnits="userSpaceOnUse">
<stop stop-color="#F7A175"/>
<stop offset="1" stop-color="#FFF2DC"/>
</linearGradient>
<linearGradient id="paint21_linear_101_683" x1="43.965" y1="4.86401" x2="43.965" y2="89.0816" gradientUnits="userSpaceOnUse">
<stop stop-color="#F7A175"/>
<stop offset="1" stop-color="#FFF2DC"/>
</linearGradient>
</defs>
</svg>
