<svg width="95" height="98" viewBox="0 0 95 98" fill="none" xmlns="http://www.w3.org/2000/svg">
<path d="M31.6081 82.9948C35.3323 83.3998 37.8193 87.0638 37.5767 90.6704C37.4294 94.2216 34.6279 97.523 30.9415 97.5124H35.2584C35.729 97.5111 36.198 97.4564 36.6562 97.3493C38.3711 96.9535 39.852 95.7917 40.7678 94.304C43.1715 90.4662 41.6483 84.8334 37.2422 83.2894C37.2404 83.2888 37.2385 83.2883 37.2367 83.2876C36.6897 83.1004 36.1187 82.9922 35.5411 82.9664C35.4469 82.9613 35.3525 82.9582 35.258 82.9586H30.9411C31.1639 82.9594 31.3865 82.9714 31.6081 82.9948Z" fill="url(#paint0_linear_101_684)"/>
<path d="M31.608 64.6636C35.3337 65.0688 37.8193 68.7347 37.5767 72.3422C37.4294 75.8932 34.6276 79.1943 30.9415 79.1836C31.6941 79.1646 35.5626 79.2485 36.2175 79.107C37.1301 78.9597 37.9987 78.6119 38.7607 78.0886C40.9216 76.6274 42.084 73.9415 41.8864 71.3649C41.7302 68.5812 39.9288 65.8667 37.2427 64.958L37.2372 64.9561C36.6899 64.7688 36.1187 64.6607 35.5408 64.635C35.4469 64.6298 35.3527 64.6268 35.2584 64.6271H30.9415C31.1642 64.6281 31.3866 64.6402 31.608 64.6636Z" fill="url(#paint1_linear_101_684)"/>
<path d="M29.1999 50.5076C29.3912 49.6202 29.3184 48.7067 29.3908 47.808C29.4949 46.3946 29.777 45.0001 30.2303 43.6573C31.2408 40.6735 33.1341 37.9762 35.6788 36.1068C37.996 34.3843 40.8042 33.4497 43.6914 33.4402C42.8621 33.4507 39.0669 33.4051 38.3281 33.4818C37.3712 33.557 36.4252 33.7361 35.5071 34.0162C31.4582 35.2343 28.1644 38.41 26.467 42.2452C26.0558 43.1691 25.7298 44.1286 25.493 45.1117C25.2815 45.9993 25.1412 46.9024 25.0737 47.8124C25.0027 48.6829 25.0718 49.5677 24.8981 50.4284C24.54 52.4227 23.3565 54.2824 21.616 55.3435C20.8642 55.8079 20.0216 56.1058 19.145 56.2172C18.5891 56.297 18.0155 56.2235 17.4713 56.3869C16.5285 56.6537 15.7225 57.269 15.2165 58.108C15.117 58.2714 15.0275 58.4405 14.9483 58.6146C14.1931 60.292 14.5529 62.471 15.9756 63.6854C16.3479 64.0318 16.8198 64.2272 17.2619 64.4647C17.7849 64.7599 18.2663 65.1232 18.6935 65.5452C20.3942 67.2197 21.1409 69.7341 20.793 72.0787C20.3537 75.3449 17.6333 78.2324 14.2289 78.2175C14.9778 78.1969 18.8489 78.2835 19.4986 78.1411C20.4689 77.9834 21.3885 77.5996 22.1831 77.0208C25.3064 74.7843 26.0757 70.2076 24.1154 66.9602C24.1145 66.9586 24.1134 66.9571 24.1125 66.9555C23.8051 66.4415 23.4349 65.9677 23.0104 65.5452C22.6067 65.1461 22.1541 64.7996 21.6635 64.514C21.2358 64.2667 20.7657 64.09 20.386 63.7652C19.112 62.7432 18.6261 60.9534 19.0031 59.3907C19.3209 58.0216 20.3477 56.7977 21.7189 56.4063C22.4502 56.1866 23.23 56.3231 23.9686 56.1317C25.7349 55.7644 27.2691 54.5834 28.208 53.0589C28.6902 52.2754 29.0263 51.411 29.1999 50.5076Z" fill="url(#paint2_linear_101_684)"/>
<path d="M39.8905 18.8101C40.7332 18.8313 41.5743 18.8954 42.4105 19.0022H46.7276C45.6943 18.8703 44.6536 18.8034 43.6119 18.8018H39.295C39.4937 18.8021 39.6922 18.8049 39.8905 18.8101Z" fill="url(#paint3_linear_101_684)"/>
<path d="M56.1342 8.94472C55.9927 8.82401 55.8435 8.71135 55.6926 8.60292L55.6909 8.60165C54.8854 8.02968 53.9574 7.65361 52.9809 7.50336C52.4057 7.37486 48.4301 7.4582 47.7667 7.43603C49.3642 7.43164 50.9284 8.09341 52.0881 9.18331L53.2831 10.4659H57.5999L56.4047 9.18302C56.3167 9.10065 56.2261 9.0217 56.1342 8.94472Z" fill="url(#paint4_linear_101_684)"/>
<path d="M48.3821 73.8079C52.1071 74.2134 54.5925 77.8801 54.3495 81.4868C54.2021 85.0368 51.4015 88.339 47.716 88.3285C48.4678 88.3097 52.3375 88.3933 52.9916 88.2518C54.0723 88.0756 55.0884 87.6211 55.9402 86.933C58.0878 85.2342 59.0514 82.2984 58.5521 79.633C58.0952 76.9523 56.0686 74.504 53.3602 73.9174C52.9244 73.821 52.4794 73.772 52.0331 73.7713H47.7162C47.9386 73.7722 48.1609 73.7844 48.3821 73.8079Z" fill="url(#paint5_linear_101_684)"/>
<path d="M58.6732 62.4263C58.5874 59.5649 56.7787 56.7313 54.0153 55.7972L54.0105 55.7956C53.8011 55.7248 53.5883 55.6646 53.3729 55.6154C52.9329 55.5174 52.4836 55.4675 52.0328 55.4667H47.716C51.5841 55.4646 54.4039 59.0312 54.3625 62.7454C54.4057 66.4596 51.5813 70.0249 47.716 70.0233H52.0328C52.5035 70.0222 52.9724 69.9674 53.4307 69.8601C55.1439 69.4647 56.6232 68.3043 57.5393 66.8184L57.5414 66.8146C58.3457 65.4966 58.7397 63.969 58.6732 62.4263Z" fill="url(#paint6_linear_101_684)"/>
<path d="M59.1725 27.9674C61.1849 30.2409 62.8506 32.7992 64.1158 35.5592C65.0551 35.9648 65.9607 36.4443 66.8241 36.9932H71.141C70.2776 36.4443 69.372 35.9648 68.4327 35.5592C66.7008 31.768 64.2104 28.3717 61.1152 25.5802C61.235 25.4073 61.3639 25.2389 61.4979 25.0796C62.8617 23.6852 64.7737 22.8269 66.7326 22.8347C66.0917 22.8522 62.1145 22.7864 61.5757 22.8866C60.0389 23.0793 58.6015 23.7502 57.4667 24.8044C57.3701 24.8942 57.2743 24.985 57.181 25.0796C57.0812 25.1976 56.9847 25.3217 56.8921 25.4482L56.8915 25.449C56.8602 25.4919 56.8293 25.5362 56.7983 25.5802C57.6348 26.3298 58.4275 27.1268 59.1725 27.9674Z" fill="url(#paint7_linear_101_684)"/>
<path d="M73.2914 7.4304C73.2057 4.56706 71.3944 1.73156 68.6279 0.799814C67.9907 0.582515 67.3222 0.471228 66.649 0.470347H62.332C65.1884 0.443489 67.6876 2.5499 68.5605 5.20296C68.782 5.85023 68.9165 6.52403 68.9605 7.20673C68.999 7.6061 68.974 8.96102 68.9804 9.37727C69.8088 9.68705 70.6161 10.0503 71.3973 10.4648H75.7146C74.9337 10.0498 74.1264 9.68658 73.2978 9.37727C73.2955 9.14014 73.3036 7.63308 73.2914 7.4304Z" fill="url(#paint8_linear_101_684)"/>
<path d="M77.3174 55.3654C77.6676 61.41 75.7499 67.6123 71.7826 72.2206C70.9278 73.2201 69.9824 74.1383 68.9585 74.9636C67.7442 76.0146 66.2392 76.6934 64.6383 76.678H68.9552C70.2813 76.6715 71.5713 76.2446 72.6395 75.4587C73.7363 74.6398 74.752 73.7174 75.6724 72.7043C80.2123 67.7427 82.2573 60.7622 81.534 54.1143C82.3938 54.1007 83.2414 53.9087 84.0232 53.5505L84.0248 53.5498C87.3808 52.01 88.8144 47.8754 87.7011 44.4562C87.4173 43.5588 86.9664 42.7231 86.3722 41.9932C86.2279 41.8074 85.2752 40.7831 85.0999 40.587C85.4836 39.7251 85.8146 38.8405 86.0909 37.9384C86.4337 37.9405 87.695 37.9477 88.0079 37.9217C88.5441 37.8841 89.073 37.7763 89.5811 37.601C92.4419 36.6251 94.2626 33.6235 94.2284 30.6598C94.2614 27.6906 92.4346 24.6825 89.5644 23.7133C89.0401 23.534 88.4939 23.4265 87.9408 23.3938C87.6698 23.3659 86.3799 23.391 86.0906 23.3825C85.8152 22.4798 85.4835 21.5952 85.0975 20.734L86.2665 19.4503C87.1332 18.3336 87.6717 16.9975 87.8216 15.5919V15.5879C88.1785 12.5505 86.6401 9.30921 83.8054 8.01033C83.1524 7.70693 82.4513 7.52039 81.7339 7.45919C81.6485 7.42464 77.1524 7.43604 76.9014 7.43584C81.1434 7.46459 83.9804 11.5625 83.5049 15.5879C83.3553 16.9949 82.8167 18.3324 81.9494 19.4503L80.7805 20.734C81.1664 21.5952 81.4981 22.4798 81.7735 23.3825C82.0657 23.3754 83.3637 23.3809 83.6237 23.3937C84.1747 23.4268 84.7187 23.5337 85.2412 23.7116C88.1147 24.6793 89.9439 27.6883 89.911 30.66C89.9448 33.6234 88.1245 36.6257 85.2638 37.6011C84.7557 37.7764 84.2268 37.8843 83.6906 37.9219C83.37 37.9599 82.1104 37.9285 81.7736 37.9386C81.4972 38.8407 81.1663 39.7252 80.7826 40.5872C81.1121 40.9589 81.9789 41.8591 82.2545 42.2492C82.751 42.917 83.1326 43.6629 83.3838 44.4563L83.3844 44.4582C84.4966 47.877 83.0623 52.0107 79.7075 53.55L79.7059 53.5507C78.9241 53.9089 78.0765 54.1008 77.2167 54.1145C77.2604 54.5303 77.2939 54.9473 77.3174 55.3654Z" fill="url(#paint9_linear_101_684)"/>
<path d="M30.9415 82.9581C34.6082 82.9581 37.5897 86.2223 37.5897 90.2338C37.2247 99.8909 24.6558 99.8873 24.2921 90.2338C24.2921 86.2224 27.2735 82.9581 30.9415 82.9581Z" fill="#F87C56"/>
<path d="M30.9415 64.6267C34.6082 64.6267 37.5897 67.8902 37.5897 71.9053C37.2245 81.5617 24.6559 81.5581 24.2921 71.9053C24.2921 67.8906 27.2735 64.6267 30.9415 64.6267Z" fill="#F87C56"/>
<path d="M47.716 73.7713C51.3811 73.7713 54.3625 77.0355 54.3625 81.05C53.9967 90.7075 41.4316 90.7028 41.0671 81.05C41.0671 77.0355 44.0491 73.7713 47.716 73.7713Z" fill="#F87C56"/>
<path d="M47.716 55.4667C51.3811 55.4667 54.3625 58.7316 54.3625 62.7454C53.9968 72.4022 41.4314 72.3975 41.0671 62.7454C41.0671 58.7314 44.0491 55.4667 47.716 55.4667Z" fill="#F87C56"/>
<path d="M83.2622 37.9382H81.7737C81.4981 38.8406 81.1672 39.7251 80.7828 40.5867L81.8223 41.7234C85.7831 45.9597 83.3132 53.9911 77.2169 54.1142C78.1418 62.3178 74.6954 70.7857 68.3223 75.4583C65.2706 77.7264 60.9709 76.6891 59.0567 73.3763C57.0462 70.013 57.9097 65.4823 60.9823 63.2786C66.441 59.3324 64.628 49.9075 58.0369 48.8153C55.5629 48.3538 53.5739 46.4851 52.7973 43.9317C50.8252 37.6959 45.4269 33.4687 39.3745 33.4399C31.4676 33.4399 25.0612 40.4201 25.0278 49.0019C25.0278 53.0023 22.0458 56.267 18.3789 56.267C16.2751 56.267 14.5626 58.1404 14.5626 60.4445C14.5526 62.1135 15.4423 63.5975 16.8299 64.2432C23.3598 67.3302 21.5257 78.0738 14.2285 78.2174C13.3279 78.2066 12.4385 78.0168 11.612 77.6591C-2.40789 71.0207 -2.06403 48.9846 12.2752 42.9468C15.0609 27.9724 28.1321 17.1809 42.411 19.002C39.3075 14.469 42.1022 7.4761 47.7667 7.43536C49.3769 7.44747 50.922 8.07222 52.0881 9.18264L53.283 10.4653C54.0568 10.0458 54.8596 9.68227 55.6854 9.37755V7.74879C55.6854 3.73504 58.6667 0.470093 62.3319 0.470093C65.9993 0.470093 68.9808 3.73504 68.9808 7.74879V9.37755C69.8102 9.68474 70.6177 10.0482 71.3976 10.4653L72.4393 9.325C74.9823 6.84436 78.7161 6.8258 81.2256 9.18523C84.009 11.6859 84.3185 16.5552 81.9499 19.4493L80.7809 20.7331C81.1669 21.5943 81.4985 22.4789 81.7739 23.3816H83.2624C92.0842 23.7767 92.0791 37.5468 83.2622 37.9382ZM67.9397 35.8769C70.3732 32.6843 70.2461 28.0123 67.5548 24.9767C64.7791 22.1154 59.9755 22.1329 57.181 25.0796C57.0536 25.2293 56.9241 25.3991 56.7984 25.58C59.8955 28.3699 62.3861 31.7665 64.1159 35.559C65.0555 35.9637 65.9612 36.4432 66.8241 36.9929C67.2121 36.6893 67.6064 36.249 67.9397 35.8769Z" fill="#F87C56"/>
<g style="mix-blend-mode:multiply" opacity="0.4" filter="url(#filter0_f_101_684)">
<path d="M31.2191 68.7212C32.823 68.7212 34.1284 70.149 34.1284 71.9048C33.9676 76.1295 28.4701 76.1289 28.3102 71.9048C28.3102 70.1487 29.6148 68.7212 31.2191 68.7212Z" fill="#D34A0F"/>
<path d="M47.9936 59.5598C49.5975 59.5598 50.9029 60.9887 50.9029 62.7448C50.7426 66.9682 45.2439 66.9673 45.0843 62.7448C45.0843 60.9887 46.3892 59.5598 47.9936 59.5598Z" fill="#D34A0F"/>
<path d="M83.5412 27.4745C87.4008 27.6483 87.3987 33.6717 83.5412 33.8438H79.1757C78.7588 36.1066 78.0603 38.3556 76.9273 40.3302L76.4004 41.2698L79.4565 44.6156C81.1852 46.468 80.1024 50.0052 77.4114 50.0196C77.0235 50.0175 76.6402 49.9342 76.2864 49.7751C75.9326 49.6161 75.6159 49.3846 75.3569 49.0958L74.7789 48.5111L72.7275 50.0577C75.6307 57.7251 72.983 67.3925 66.5072 72.065C66.044 72.3995 65.4877 72.5805 64.9164 72.5824C61.8997 72.5354 60.9803 68.3391 63.3099 66.7005C71.6034 60.7207 68.8661 46.4395 58.8783 44.7674C57.8244 44.5642 56.9602 43.749 56.6218 42.6361C54.1184 34.7185 47.3073 29.3835 39.6682 29.3449C29.4153 29.1913 21.3946 38.8843 21.5659 48.9827C21.5659 50.7438 20.2603 52.1726 18.6564 52.1726C10.4101 52.3054 8.25266 64.4947 15.6442 68.008C18.4998 69.3675 17.7035 74.0518 14.5049 74.1222C14.0853 74.1151 13.671 74.0269 13.2848 73.8626C1.41332 68.0616 3.25863 49.218 15.8645 46.1048C17.3106 30.7225 31.7935 18.8724 46.8709 24.1628C47.3455 23.182 47.8142 21.9562 48.3 21.0231L48.8092 20.0958L45.8055 16.7496C44.2805 14.8303 45.4746 11.5412 48.0425 11.527C48.7329 11.5315 49.3965 11.7946 49.9024 12.2645L52.9729 15.5658C54.7082 14.3046 56.6458 13.2671 58.7084 12.7775L59.7009 12.5299V7.74927C59.7009 5.9931 61.0059 4.56424 62.6103 4.56424C64.2147 4.56424 65.5195 5.9927 65.5195 7.74927V12.5269L66.5093 12.7765C68.5872 13.2758 70.5449 14.3105 72.3036 15.5658L75.3222 12.2609C75.8333 11.7869 76.5063 11.5261 77.2034 11.5321C77.9005 11.5381 78.5689 11.8103 79.0718 12.2931C80.2755 13.3759 80.4236 15.4781 79.4182 16.7456L76.4 20.0498L76.927 20.9899C78.0596 22.9631 78.7586 25.2134 79.1753 27.4748L83.5412 27.4745ZM70.5185 39.1934C74.7015 34.6565 74.702 26.6629 70.5185 22.1255C66.2602 17.6511 59.1679 17.643 54.9204 22.0726C53.6757 23.4738 52.896 25.095 52.2739 26.8063C56.5196 29.8151 59.79 34.0027 61.6804 38.8509C63.3501 39.4061 64.9174 40.2313 66.3201 41.2936L66.922 41.7498C68.0685 41.2054 69.1595 40.5348 70.0684 39.6185H70.1415L70.5185 39.1934Z" fill="#D34A0F"/>
<path d="M47.9936 77.8653C49.5975 77.8653 50.9029 79.2938 50.9029 81.0503C50.7422 85.2753 45.2443 85.2738 45.0843 81.0503C45.0843 79.2938 46.3892 77.8653 47.9936 77.8653Z" fill="#D34A0F"/>
<path d="M31.2191 87.0495C32.823 87.0495 34.1284 88.4785 34.1284 90.2346C33.9682 94.4588 28.4695 94.458 28.3102 90.2346C28.3102 88.4785 29.6148 87.0495 31.2191 87.0495Z" fill="#D34A0F"/>
</g>
<path d="M30.8082 71.7656C30.7799 70.9322 30.4392 70.14 29.8537 69.5463L29.851 69.5435C29.6843 69.3796 29.4993 69.2354 29.2997 69.1136C29.298 69.1125 29.2962 69.1117 29.2945 69.1107C29.1283 69.0118 28.9526 68.9299 28.77 68.8662C28.7694 68.8659 28.7688 68.8657 28.7681 68.8656C28.2562 68.6603 27.3703 68.7329 26.8255 68.7214C29.2869 68.7552 30.4792 71.7231 29.2364 73.6856C28.7314 74.516 27.8096 75.098 26.8255 75.0897C27.1406 75.0821 28.025 75.1142 28.3213 75.056C29.149 74.9291 29.8773 74.3932 30.312 73.6865L30.3126 73.6856C30.6643 73.1088 30.8368 72.4405 30.8082 71.7656Z" fill="url(#paint10_linear_101_684)"/>
<path d="M18.2596 48.3941C18.4921 38.444 26.0206 29.3396 36.3514 29.3455C35.6134 29.3446 34.7047 29.3344 33.9807 29.3945C32.4477 29.5085 30.9375 29.8319 29.4922 30.3555C23.9685 32.3415 19.7773 37.2325 18.1 42.7948C17.7189 44.0482 17.4541 45.334 17.3088 46.6359C17.2366 47.2661 17.1962 47.9 17.1797 48.5342C17.199 49.3082 17.1026 50.105 16.6737 50.7688C16.4642 51.1183 16.1839 51.4201 15.8506 51.6546C15.5173 51.8891 15.1386 52.051 14.7388 52.1301C14.4617 52.1856 14.1763 52.1671 13.8962 52.1834C13.5336 52.2038 13.1732 52.2517 12.8179 52.3267C10.8117 52.744 9.06973 54.0855 8.00349 55.8168C5.93791 59.1134 6.35865 63.8034 9.16278 66.5495L9.16397 66.5508C9.64265 67.0233 10.182 67.43 10.7679 67.7604C11.033 67.9155 11.3228 68.0256 11.5811 68.1923C11.893 68.3919 12.1645 68.6483 12.3817 68.9482C13.5577 70.5104 13.0553 73.0337 11.2414 73.8711L11.2349 73.8743C10.8826 74.0368 10.4994 74.1215 10.1115 74.1227C10.2494 74.1201 11.2631 74.1297 11.3738 74.1155C11.6983 74.0924 12.0158 74.0107 12.3111 73.8743L12.3176 73.8711C12.9804 73.5512 13.5068 73.0047 13.8018 72.3305L13.8024 72.3291C14.5113 70.7945 13.9017 68.7302 12.327 68.0085C10.1888 67.02 8.6358 64.9825 8.06518 62.7159C7.20223 59.4473 8.32379 55.6708 11.069 53.6258C12.1646 52.7911 13.4794 52.293 14.8531 52.1922C15.1726 52.1613 15.4982 52.1931 15.8149 52.13C16.3308 52.0338 16.8091 51.7943 17.1951 51.4388C17.4091 51.2422 17.5954 51.0174 17.7488 50.7706L17.7497 50.7689C17.978 50.3972 18.1314 49.9847 18.2014 49.5542C18.2688 49.1718 18.2415 48.7805 18.2596 48.3941Z" fill="url(#paint11_linear_101_684)"/>
<path d="M37.9524 22.9644C37.5255 22.9295 37.0977 22.9073 36.6692 22.8979H36.6622C36.3811 22.8901 35.4741 22.8941 35.1787 22.8932C36.8261 22.8967 38.4675 23.0906 40.0703 23.471C40.8235 23.6422 41.7333 23.9339 42.4776 24.163H43.5537C41.7428 23.5688 39.8556 23.1031 37.9524 22.9644Z" fill="url(#paint12_linear_101_684)"/>
<path d="M47.5828 62.6049C47.5565 61.8789 47.2953 61.1809 46.8385 60.616C46.6214 60.3517 46.3611 60.1263 46.0686 59.9491C45.9023 59.8501 45.7265 59.7681 45.5438 59.7044L45.5423 59.7039C45.0305 59.4986 44.1445 59.5711 43.6 59.5597C43.8984 59.5607 44.1945 59.6107 44.4766 59.7078C46.0042 60.2289 46.8017 62.0242 46.4155 63.5472C46.1275 64.8412 44.9622 65.944 43.5999 65.928C43.7406 65.9256 44.7503 65.9349 44.8634 65.9207C45.4895 65.8728 46.0808 65.6141 46.5408 65.1867C46.7516 64.9914 46.9353 64.7689 47.0871 64.525V64.5243C47.4387 63.9477 47.6113 63.2797 47.5828 62.6049Z" fill="url(#paint13_linear_101_684)"/>
<path d="M49.6559 15.5659L46.5854 12.2647C46.5521 12.2341 46.5181 12.2045 46.4834 12.1759L46.4812 12.174C46.4224 12.1254 46.3614 12.0803 46.3005 12.0355C46.1894 11.9578 46.0731 11.8875 45.9526 11.8252C45.9514 11.8247 45.9503 11.824 45.9491 11.8234L45.9482 11.8228C45.8335 11.7653 45.7151 11.7152 45.5939 11.6731H45.593C45.0803 11.4665 44.1952 11.5391 43.6492 11.5277C44.0743 11.5295 44.493 11.6308 44.8719 11.8235C44.8735 11.8244 44.8751 11.8252 44.8767 11.826C45.1059 11.9441 45.3185 12.0918 45.5092 12.2653L48.5797 15.5665L49.6559 15.5659Z" fill="url(#paint14_linear_101_684)"/>
<path d="M49.1461 27.7694C52.8004 30.6388 55.5771 34.5441 57.2867 38.8514C58.3295 39.2026 59.335 39.6559 60.2887 40.2047C61.0702 40.6675 61.8187 41.1839 62.5288 41.7503H63.605C62.8967 41.2052 62.1412 40.6435 61.365 40.2049C60.4116 39.6558 59.4062 39.2024 58.3635 38.8514C56.4183 33.9537 53.2583 29.8582 48.9569 26.8068C49.1751 26.2612 49.4898 25.4117 49.7468 24.8957C50.2378 23.8767 50.8621 22.9275 51.6033 22.0731C53.6266 20.0008 56.4683 18.7257 59.3771 18.7412C58.5983 18.7427 57.6474 18.7191 56.8839 18.8374C54.4768 19.1551 52.2228 20.3461 50.5272 22.0731C50.2856 22.3526 50.0561 22.6416 49.8389 22.9399C49.8378 22.9412 49.8369 22.9428 49.8358 22.9442C49.3263 23.6453 48.8903 24.3969 48.5347 25.1873C48.3605 25.5607 48.0382 26.4146 47.8806 26.8068C48.1697 27.0264 48.8725 27.5505 49.1461 27.7694Z" fill="url(#paint15_linear_101_684)"/>
<path d="M62.1998 7.6099C62.1714 6.77624 61.8305 5.98377 61.2449 5.38977C61.1799 5.32607 61.1123 5.26516 61.0428 5.20685C60.6275 4.85994 60.1198 4.64221 59.5822 4.58054C59.381 4.55228 58.4354 4.56873 58.217 4.56474C59.525 4.55046 60.6602 5.56879 60.9943 6.80008C61.0814 7.10903 61.1258 7.4284 61.1264 7.74938V12.5271C62.37 12.8234 63.66 13.1805 64.8139 13.731C65.8892 14.2096 66.9387 14.8997 67.9104 15.5659H68.9865C67.8819 14.8019 66.6995 14.0498 65.4571 13.5386C64.4395 13.0921 63.2841 12.7885 62.2022 12.5271V7.74938C62.2024 7.70258 62.2016 7.65609 62.1998 7.6099Z" fill="url(#paint16_linear_101_684)"/>
<path d="M69.7079 50.9413C69.6157 50.6447 69.5165 50.3503 69.4101 50.0582L71.4615 48.5116H70.3854L68.334 50.0582C71.1645 57.7362 68.7686 67.1382 62.1137 72.0655C61.6506 72.4002 61.0943 72.5812 60.5229 72.583H61.5991C62.1704 72.581 62.7267 72.4 63.1899 72.0655C69.5842 67.3345 72.0604 58.4394 69.7079 50.9413Z" fill="url(#paint17_linear_101_684)"/>
<path d="M75.0629 44.6162C76.7839 46.4917 75.7293 49.9802 73.0179 50.0202C73.2357 50.0178 74.1719 50.031 74.3673 50.0061C74.7471 49.9669 75.1145 49.8482 75.4456 49.6579C77.1352 48.7013 77.4624 46.1898 76.2393 44.7328L76.2386 44.7318C76.2064 44.6925 76.1731 44.654 76.1388 44.6162L73.0828 41.2705C73.7318 40.1437 74.3785 38.9386 74.8213 37.7178V37.7169C75.2927 36.4912 75.6002 35.134 75.8576 33.8444H74.7813C74.5234 35.1364 74.2169 36.4903 73.7447 37.7178C73.3024 38.9379 72.6543 40.1446 72.0061 41.2705L75.0629 44.6162Z" fill="url(#paint18_linear_101_684)"/>
<path d="M75.6914 14.8802C75.663 15.5551 75.4306 16.2056 75.0249 16.7458L72.0068 20.0499C72.6431 21.1582 73.2833 22.3422 73.7217 23.5405C74.2073 24.7862 74.5204 26.1625 74.782 27.4752H75.8582C75.596 26.1607 75.2838 24.7873 74.7978 23.5403C74.3601 22.3433 73.7186 21.1563 73.0831 20.0499L76.1012 16.7458C77.1961 15.3388 76.9219 13.0669 75.4409 12.037L75.4391 12.0357C75.1164 11.8073 74.7488 11.6502 74.3608 11.5748C74.2892 11.5611 74.2167 11.5516 74.1443 11.5421C74.0508 11.5335 73.9565 11.5276 73.8623 11.5271H72.7861C74.535 11.5207 75.8018 13.2075 75.6914 14.8802Z" fill="url(#paint19_linear_101_684)"/>
<path d="M79.4142 27.489C79.6183 27.5097 79.8195 27.5534 80.0139 27.6192C81.9319 28.2742 82.6137 30.7833 81.5585 32.4405C81.0535 33.271 80.1316 33.8526 79.1476 33.8444C79.4628 33.8367 80.3469 33.8689 80.6435 33.8108C81.4714 33.6838 82.2002 33.1477 82.6347 32.4405C82.8803 32.0351 83.0396 31.5834 83.1026 31.1137C83.1657 30.6439 83.1311 30.1662 83.001 29.7104L83.0005 29.7083C82.8491 29.1768 82.5652 28.6924 82.1755 28.3005C82.1745 28.2996 82.1735 28.2984 82.1725 28.2974C81.8671 27.9939 81.4979 27.7626 81.0917 27.62L81.09 27.6195C80.8109 27.525 80.5184 27.4763 80.2237 27.4754H79.1476C79.2366 27.4766 79.3262 27.4803 79.4142 27.489Z" fill="url(#paint20_linear_101_684)"/>
<path d="M43.889 77.8812C45.4853 78.0409 46.6021 79.65 46.5059 81.1966C46.471 82.7505 45.2141 84.2511 43.6004 84.2346C43.86 84.2287 44.7718 84.2523 45.0116 84.2129C45.8723 84.1103 46.6379 83.5626 47.087 82.8314L47.0874 82.8306C47.8304 81.6425 47.7349 79.995 46.8341 78.9161C46.7128 78.7696 46.5784 78.6345 46.4325 78.5125C46.2677 78.3764 46.0889 78.2584 45.899 78.1604C45.7871 78.1045 45.672 78.0555 45.5541 78.0137C45.0379 77.803 44.1503 77.877 43.6004 77.8654C43.6966 77.8669 43.7934 77.8719 43.889 77.8812Z" fill="url(#paint21_linear_101_684)"/>
<path d="M27.1146 87.0654C27.3109 87.0877 27.5043 87.1307 27.6915 87.1937C29.2358 87.7139 30.0391 89.5343 29.6331 91.0677C29.3368 92.3491 28.1753 93.434 26.8255 93.4186C27.1406 93.4109 28.0251 93.4432 28.3214 93.385C29.1476 93.2583 29.8756 92.7241 30.3101 92.0187C30.3107 92.0177 30.3115 92.0168 30.3122 92.0157L30.3127 92.0148C31.1139 90.7388 30.934 88.9314 29.8503 87.8719C29.786 87.8094 29.7196 87.7494 29.6511 87.6921C29.5382 87.5995 29.4189 87.5151 29.294 87.4393C29.1278 87.3404 28.952 87.2584 28.7693 87.1946H28.7677C28.256 86.9892 27.3699 87.0618 26.8255 87.0504C26.9222 87.0509 27.0189 87.0561 27.1146 87.0654Z" fill="url(#paint22_linear_101_684)"/>
<path d="M26.8255 68.7212C28.4294 68.7212 29.7348 70.149 29.7348 71.9048C29.574 76.1295 24.0765 76.1289 23.9166 71.9048C23.9166 70.1487 25.2211 68.7212 26.8255 68.7212Z" fill="#FFF2DC"/>
<path d="M43.6 59.5598C45.2039 59.5598 46.5093 60.9887 46.5093 62.7448C46.3489 66.9682 40.8503 66.9673 40.6907 62.7448C40.6907 60.9887 41.9957 59.5598 43.6 59.5598Z" fill="#FFF2DC"/>
<path d="M79.1476 27.4745C83.0072 27.6483 83.005 33.6717 79.1476 33.8438H74.782C74.3653 36.1066 73.6667 38.3556 72.5337 40.3302L72.0069 41.2698L75.0629 44.6156C76.7917 46.468 75.7089 50.0052 73.0178 50.0196C72.6298 50.0175 72.2466 49.9342 71.8928 49.7751C71.5389 49.6161 71.2223 49.3846 70.9633 49.0958L70.3854 48.5111L68.334 50.0577C71.2371 57.7251 68.5895 67.3925 62.1137 72.065C61.6506 72.3995 61.0943 72.5805 60.523 72.5824C57.5063 72.5354 56.5869 68.3391 58.9164 66.7005C67.21 60.7207 64.4726 46.4395 54.4849 44.7674C53.4309 44.5642 52.5666 43.749 52.2284 42.6361C49.725 34.7185 42.9139 29.3835 35.2748 29.3449C25.0219 29.1913 17.0011 38.8843 17.1724 48.9827C17.1724 50.7438 15.8668 52.1726 14.2629 52.1726C6.01657 52.3054 3.85913 64.4947 11.2508 68.008C14.1064 69.3675 13.3101 74.0518 10.1114 74.1222C9.69179 74.1151 9.27753 74.0269 8.89139 73.8626C-2.98012 68.0616 -1.13489 49.218 11.4711 46.1048C12.9172 30.7225 27.4001 18.8724 42.4774 24.1628C42.9521 23.182 43.4208 21.9562 43.9065 21.0231L44.4158 20.0958L41.412 16.7496C39.8871 14.8303 41.081 11.5412 43.6485 11.527C44.3389 11.5315 45.0025 11.7947 45.5083 12.2645L48.579 15.5658C50.3143 14.3046 52.2517 13.2671 54.3145 12.7775L55.307 12.5299V7.74927C55.307 5.9931 56.6119 4.56424 58.2162 4.56424C59.8205 4.56424 61.1256 5.9927 61.1256 7.74927V12.5269L62.1154 12.7765C64.1932 13.2758 66.151 14.3105 67.9096 15.5658L70.9282 12.2609C71.4393 11.7869 72.1124 11.5261 72.8095 11.5321C73.5066 11.5381 74.175 11.8103 74.6779 12.2931C75.8816 13.3759 76.0297 15.4781 75.0241 16.7456L72.0061 20.0498L72.533 20.9899C73.6657 22.9631 74.3646 25.2134 74.7812 27.4748L79.1476 27.4745ZM66.125 39.1934C70.308 34.6565 70.3085 26.6629 66.125 22.1255C61.8667 17.6511 54.7744 17.643 50.5268 22.0726C49.2822 23.4738 48.5025 25.095 47.8803 26.8063C52.126 29.8151 55.3964 34.0027 57.2869 38.8509C58.9565 39.4062 60.5239 40.2313 61.9266 41.2936L62.5284 41.7498C63.6749 41.2054 64.7659 40.5348 65.6748 39.6185H65.748L66.125 39.1934Z" fill="#FFF2DC"/>
<path d="M43.6 77.8653C45.2039 77.8653 46.5093 79.2938 46.5093 81.0503C46.3485 85.2753 40.8507 85.2738 40.6907 81.0503C40.6907 79.2938 41.9957 77.8653 43.6 77.8653Z" fill="#FFF2DC"/>
<path d="M26.8255 87.0495C28.4294 87.0495 29.7348 88.4785 29.7348 90.2346C29.5745 94.4588 24.0759 94.458 23.9166 90.2346C23.9166 88.4785 25.2211 87.0495 26.8255 87.0495Z" fill="#FFF2DC"/>
<defs>
<filter id="filter0_f_101_684" x="2.32092" y="1.56424" width="87.1142" height="94.8382" filterUnits="userSpaceOnUse" color-interpolation-filters="sRGB">
<feFlood flood-opacity="0" result="BackgroundImageFix"/>
<feBlend mode="normal" in="SourceGraphic" in2="BackgroundImageFix" result="shape"/>
<feGaussianBlur stdDeviation="1.5" result="effect1_foregroundBlur_101_684"/>
</filter>
<linearGradient id="paint0_linear_101_684" x1="54.2289" y1="0.470093" x2="54.2289" y2="97.5124" gradientUnits="userSpaceOnUse">
<stop stop-color="#D34A0F"/>
<stop offset="1" stop-color="#F87C56"/>
</linearGradient>
<linearGradient id="paint1_linear_101_684" x1="54.2289" y1="0.470093" x2="54.2289" y2="97.5124" gradientUnits="userSpaceOnUse">
<stop stop-color="#D34A0F"/>
<stop offset="1" stop-color="#F87C56"/>
</linearGradient>
<linearGradient id="paint2_linear_101_684" x1="54.2289" y1="0.470093" x2="54.2289" y2="97.5124" gradientUnits="userSpaceOnUse">
<stop stop-color="#D34A0F"/>
<stop offset="1" stop-color="#F87C56"/>
</linearGradient>
<linearGradient id="paint3_linear_101_684" x1="54.2289" y1="0.470093" x2="54.2289" y2="97.5124" gradientUnits="userSpaceOnUse">
<stop stop-color="#D34A0F"/>
<stop offset="1" stop-color="#F87C56"/>
</linearGradient>
<linearGradient id="paint4_linear_101_684" x1="54.2289" y1="0.470093" x2="54.2289" y2="97.5124" gradientUnits="userSpaceOnUse">
<stop stop-color="#D34A0F"/>
<stop offset="1" stop-color="#F87C56"/>
</linearGradient>
<linearGradient id="paint5_linear_101_684" x1="54.2289" y1="0.470093" x2="54.2289" y2="97.5124" gradientUnits="userSpaceOnUse">
<stop stop-color="#D34A0F"/>
<stop offset="1" stop-color="#F87C56"/>
</linearGradient>
<linearGradient id="paint6_linear_101_684" x1="54.2289" y1="0.470093" x2="54.2289" y2="97.5124" gradientUnits="userSpaceOnUse">
<stop stop-color="#D34A0F"/>
<stop offset="1" stop-color="#F87C56"/>
</linearGradient>
<linearGradient id="paint7_linear_101_684" x1="54.2289" y1="0.470093" x2="54.2289" y2="97.5124" gradientUnits="userSpaceOnUse">
<stop stop-color="#D34A0F"/>
<stop offset="1" stop-color="#F87C56"/>
</linearGradient>
<linearGradient id="paint8_linear_101_684" x1="54.2289" y1="0.470093" x2="54.2289" y2="97.5124" gradientUnits="userSpaceOnUse">
<stop stop-color="#D34A0F"/>
<stop offset="1" stop-color="#F87C56"/>
</linearGradient>
<linearGradient id="paint9_linear_101_684" x1="54.2289" y1="0.470093" x2="54.2289" y2="97.5124" gradientUnits="userSpaceOnUse">
<stop stop-color="#D34A0F"/>
<stop offset="1" stop-color="#F87C56"/>
</linearGradient>
<linearGradient id="paint10_linear_101_684" x1="44.9211" y1="4.56354" x2="44.9211" y2="93.4207" gradientUnits="userSpaceOnUse">
<stop stop-color="#F7A175"/>
<stop offset="1" stop-color="#FFF2DC"/>
</linearGradient>
<linearGradient id="paint11_linear_101_684" x1="44.9211" y1="4.56354" x2="44.9211" y2="93.4207" gradientUnits="userSpaceOnUse">
<stop stop-color="#F7A175"/>
<stop offset="1" stop-color="#FFF2DC"/>
</linearGradient>
<linearGradient id="paint12_linear_101_684" x1="44.9211" y1="4.56354" x2="44.9211" y2="93.4207" gradientUnits="userSpaceOnUse">
<stop stop-color="#F7A175"/>
<stop offset="1" stop-color="#FFF2DC"/>
</linearGradient>
<linearGradient id="paint13_linear_101_684" x1="44.9211" y1="4.56354" x2="44.9211" y2="93.4207" gradientUnits="userSpaceOnUse">
<stop stop-color="#F7A175"/>
<stop offset="1" stop-color="#FFF2DC"/>
</linearGradient>
<linearGradient id="paint14_linear_101_684" x1="44.9211" y1="4.56354" x2="44.9211" y2="93.4207" gradientUnits="userSpaceOnUse">
<stop stop-color="#F7A175"/>
<stop offset="1" stop-color="#FFF2DC"/>
</linearGradient>
<linearGradient id="paint15_linear_101_684" x1="44.9211" y1="4.56354" x2="44.9211" y2="93.4207" gradientUnits="userSpaceOnUse">
<stop stop-color="#F7A175"/>
<stop offset="1" stop-color="#FFF2DC"/>
</linearGradient>
<linearGradient id="paint16_linear_101_684" x1="44.9211" y1="4.56354" x2="44.9211" y2="93.4207" gradientUnits="userSpaceOnUse">
<stop stop-color="#F7A175"/>
<stop offset="1" stop-color="#FFF2DC"/>
</linearGradient>
<linearGradient id="paint17_linear_101_684" x1="44.9211" y1="4.56354" x2="44.9211" y2="93.4207" gradientUnits="userSpaceOnUse">
<stop stop-color="#F7A175"/>
<stop offset="1" stop-color="#FFF2DC"/>
</linearGradient>
<linearGradient id="paint18_linear_101_684" x1="44.9211" y1="4.56354" x2="44.9211" y2="93.4207" gradientUnits="userSpaceOnUse">
<stop stop-color="#F7A175"/>
<stop offset="1" stop-color="#FFF2DC"/>
</linearGradient>
<linearGradient id="paint19_linear_101_684" x1="44.9211" y1="4.56354" x2="44.9211" y2="93.4207" gradientUnits="userSpaceOnUse">
<stop stop-color="#F7A175"/>
<stop offset="1" stop-color="#FFF2DC"/>
</linearGradient>
<linearGradient id="paint20_linear_101_684" x1="44.9211" y1="4.56354" x2="44.9211" y2="93.4207" gradientUnits="userSpaceOnUse">
<stop stop-color="#F7A175"/>
<stop offset="1" stop-color="#FFF2DC"/>
</linearGradient>
<linearGradient id="paint21_linear_101_684" x1="44.9211" y1="4.56354" x2="44.9211" y2="93.4207" gradientUnits="userSpaceOnUse">
<stop stop-color="#F7A175"/>
<stop offset="1" stop-color="#FFF2DC"/>
</linearGradient>
<linearGradient id="paint22_linear_101_684" x1="44.9211" y1="4.56354" x2="44.9211" y2="93.4207" gradientUnits="userSpaceOnUse">
<stop stop-color="#F7A175"/>
<stop offset="1" stop-color="#FFF2DC"/>
</linearGradient>
</defs>
</svg>
