<svg width="94" height="66" viewBox="0 0 94 66" fill="none" xmlns="http://www.w3.org/2000/svg">
<path d="M8.18732 47.2792C8.67831 47.3155 9.16342 47.4091 9.63263 47.5582C11.3181 48.1317 12.9223 48.921 14.4052 49.9064C15.0992 50.3477 15.8787 50.6376 16.6924 50.7571C17.2027 50.8733 21.2346 50.797 21.8387 50.8176C20.7345 50.815 19.6537 50.499 18.722 49.9064C17.2393 48.9207 15.6351 48.1314 13.9494 47.5582C13.4017 47.3834 12.8325 47.2854 12.2578 47.2668C12.199 47.2638 12.14 47.2634 12.0811 47.2633H7.76386C7.90524 47.264 8.04654 47.2698 8.18732 47.2792Z" fill="url(#paint0_linear_101_672)"/>
<path d="M21.839 65.3289C25.3203 65.3219 28.7241 64.3001 31.6337 62.3886C32.8776 61.6131 34.3134 61.2002 35.7792 61.1964H31.4623C29.9964 61.2003 28.5607 61.6131 27.3167 62.3886C24.4071 64.3001 21.0033 65.3219 17.522 65.3289H21.839Z" fill="url(#paint1_linear_101_672)"/>
<path d="M49.5169 50.8198C48.6786 50.7951 47.8552 50.5923 47.1014 50.2249C46.5822 49.974 46.1086 49.6371 45.599 49.3679C44.5372 48.7811 43.4264 48.2877 42.2791 47.8932H42.2779C40.8441 47.4017 39.3599 47.0715 37.853 46.9087L37.845 46.908C36.4257 46.7236 32.8942 46.8166 31.4212 46.7958C34.249 46.8021 37.0444 47.3985 39.6285 48.5471C40.3855 48.8829 41.1222 49.2626 41.835 49.6842C42.7103 50.2548 43.6884 50.6878 44.7372 50.7893C44.7395 50.7893 44.7416 50.7899 44.7438 50.7902C45.0034 50.8528 49.2913 50.8123 49.6776 50.823C49.6241 50.8232 49.5705 50.8214 49.5169 50.8198Z" fill="url(#paint2_linear_101_672)"/>
<path d="M59.5951 62.3886C60.8392 61.6131 62.2751 61.2002 63.7411 61.1964H59.4241C57.9581 61.2002 56.5224 61.6131 55.2783 62.3886C52.3339 64.2467 48.9254 65.2374 45.4436 65.2471C50.7995 65.3279 54.8151 65.3979 59.5951 62.3886Z" fill="url(#paint3_linear_101_672)"/>
<path d="M60.0824 46.8115C62.5245 46.9117 64.9287 47.4512 67.1794 48.4043C67.9598 48.7343 68.7196 49.1109 69.4547 49.5321C69.9486 49.8132 70.4188 50.1393 70.9469 50.3557L70.9557 50.3592C71.546 50.6091 72.1734 50.7594 72.8128 50.8041C72.7358 50.8303 77.4027 50.813 77.5155 50.8176C76.3821 50.8101 75.2747 50.4776 74.3245 49.8597C73.0127 49.0542 71.6165 48.395 70.161 47.8939C68.7232 47.4011 67.2349 47.0703 65.7238 46.9077C64.2941 46.723 60.7792 46.8165 59.2987 46.7956C59.5598 46.7956 59.821 46.8017 60.0824 46.8115Z" fill="url(#paint4_linear_101_672)"/>
<path d="M93.9987 54.6193C94.0538 51.7645 92.4021 48.8715 89.7263 47.7526L89.7233 47.7514C89.3147 47.5792 88.8891 47.4507 88.4535 47.3682C87.7146 47.179 83.8577 47.2964 83.036 47.266C85.2865 47.2526 87.4009 48.5932 88.5509 50.4956C89.8823 52.6389 90.0394 55.4379 89.0074 57.7343C88.3411 59.232 87.1687 60.5249 85.6756 61.2246C85.4242 61.3454 85.1649 61.4488 84.8995 61.5341C84.2637 61.7391 83.6562 62.0228 83.0909 62.3788C80.2482 64.2746 76.9107 65.2927 73.4938 65.3065C78.8101 65.383 82.7362 65.4773 87.4079 62.3788C87.9731 62.0229 88.5805 61.7391 89.2162 61.5341C90.7407 61.0413 92.0331 60.009 92.8505 58.631C93.4562 57.6473 93.8334 56.5401 93.9542 55.3913C93.9806 55.1344 93.9969 54.8769 93.9987 54.6193Z" fill="url(#paint5_linear_101_672)"/>
<path d="M7.80384 24.2552C8.28962 24.2824 8.7704 24.3674 9.23608 24.5084L9.24417 24.511C9.43488 24.5697 9.62283 24.6371 9.80794 24.713C11.4332 25.2711 12.9788 26.0385 14.4059 26.9957C15.0342 27.3944 15.7327 27.6697 16.464 27.8071C17.1685 27.9914 21.0502 27.8754 21.8394 27.9057C20.7354 27.9029 19.6548 27.5874 18.7228 26.9957C17.2957 26.0384 15.75 25.271 14.1248 24.713C13.4873 24.4486 12.8098 24.2939 12.1208 24.2552C12.0073 24.25 11.8939 24.2442 11.7802 24.2452H7.46326C7.57668 24.2453 7.69002 24.2499 7.80384 24.2552Z" fill="url(#paint6_linear_101_672)"/>
<path d="M26.9798 39.4769C24.0706 41.389 20.6669 42.4111 17.1856 42.4181C22.5551 42.4993 26.5716 42.5752 31.2967 39.4769C32.5416 38.7011 33.9783 38.2882 35.4451 38.2848H31.1282C29.6614 38.2882 28.2247 38.7011 26.9798 39.4769Z" fill="url(#paint7_linear_101_672)"/>
<path d="M49.3663 27.9019C48.5798 27.8586 47.8098 27.6586 47.1017 27.3135C46.5825 27.0629 46.1093 26.7262 45.6001 26.4572C44.5375 25.8699 43.4259 25.3762 42.2777 24.9814C40.8413 24.4888 39.3543 24.1583 37.8445 23.9959C36.4256 23.8115 32.894 23.9045 31.4216 23.8837C34.2495 23.8901 37.0449 24.4869 39.6289 25.6357C40.3859 25.9716 41.1226 26.3513 41.8354 26.7729C42.7107 27.3431 43.6886 27.7763 44.7372 27.8776L44.7437 27.8784C45.0033 27.9412 49.2912 27.9006 49.6774 27.9114C49.5737 27.9108 49.4701 27.9076 49.3663 27.9019Z" fill="url(#paint8_linear_101_672)"/>
<path d="M54.9443 39.4769C51.9996 41.3354 48.5909 42.3264 45.1088 42.3364C50.4688 42.4171 54.4786 42.487 59.2612 39.4769C60.5051 38.7015 61.9408 38.2887 63.4067 38.2849H59.0899C57.624 38.2886 56.1882 38.7015 54.9443 39.4769Z" fill="url(#paint9_linear_101_672)"/>
<path d="M60.0818 23.8996C63.5965 24.0502 67.014 25.0998 70.0073 26.9481C70.5414 27.2909 71.1251 27.5496 71.7379 27.715C72.1758 27.8305 72.6256 27.8941 73.0783 27.9047C73.1183 27.9056 73.1582 27.906 73.1982 27.906H77.5151C76.3817 27.8984 75.2743 27.566 74.324 26.9484C73.0117 26.1429 71.6151 25.4836 70.1592 24.9824C68.7216 24.4896 67.2334 24.1587 65.7223 23.9961C64.2933 23.8113 60.7782 23.9048 59.2983 23.8839C59.5597 23.8835 59.8209 23.8898 60.0818 23.8996Z" fill="url(#paint10_linear_101_672)"/>
<path d="M93.6614 31.4893C93.6422 30.1595 93.2795 28.8572 92.6085 27.7089C92.4167 27.3855 92.2009 27.0768 91.963 26.7856C91.2736 25.9408 90.3911 25.2743 89.39 24.8423C89.389 24.8418 89.388 24.8414 89.387 24.8411C88.7827 24.5847 88.141 24.4274 87.4866 24.3754C87.4766 24.3445 82.8997 24.3573 82.6996 24.3554C85.0023 24.3405 87.1518 25.7433 88.2916 27.7086C89.5545 29.837 89.6824 32.571 88.6703 34.8237C88.0049 36.3207 86.8332 37.6131 85.3416 38.3123C85.0903 38.4332 84.8309 38.5366 84.5653 38.6218C83.9291 38.826 83.3216 39.1101 82.757 39.4674C79.9136 41.3621 76.5763 42.3798 73.1595 42.3942C78.4763 42.4708 82.3983 42.5647 87.0738 39.4674C87.6384 39.1101 88.2461 38.826 88.8822 38.6218C89.1477 38.5367 89.407 38.4335 89.6582 38.3128C91.1503 37.6139 92.3221 36.3214 92.9873 34.8241C93.453 33.7751 93.6831 32.6368 93.6614 31.4893Z" fill="url(#paint11_linear_101_672)"/>
<path d="M8.00548 1.4533C8.78726 1.48325 9.54071 1.7089 10.2637 1.99455C11.2175 2.35848 12.1429 2.79283 13.0323 3.29403C13.8797 3.75042 14.6356 4.38233 15.5618 4.68077C16.1157 4.87044 16.695 4.97553 17.2802 4.99248C17.3326 4.99518 17.3852 4.99518 17.4378 4.99538H21.7546C20.6513 4.99244 19.5716 4.67643 18.6409 4.0841C17.1563 3.09942 15.551 2.31014 13.8647 1.73575C13.3189 1.56147 12.7515 1.46434 12.1789 1.4472C12.1198 1.44411 12.0605 1.44391 12.0013 1.44381H7.68401C7.79154 1.44421 7.89855 1.4477 8.00548 1.4533Z" fill="url(#paint12_linear_101_672)"/>
<path d="M21.6709 19.5066C25.152 19.4993 28.5556 18.4775 31.4652 16.5664C32.7091 15.7908 34.1448 15.3778 35.6107 15.374H31.2937C29.8278 15.3778 28.3922 15.7908 27.1483 16.5664C24.2387 18.4775 20.8352 19.4993 17.3541 19.5066H21.6709Z" fill="url(#paint13_linear_101_672)"/>
<path d="M31.8464 0.980134C34.5566 1.05424 37.2245 1.66999 39.6931 2.79111C40.5016 3.15639 41.2862 3.57224 42.0424 4.03617C42.8299 4.54228 43.7233 4.86041 44.6535 4.96593C44.923 5.03062 49.1997 4.98849 49.5937 4.99967C48.5527 4.99526 47.5309 4.71892 46.6295 4.19802C45.1352 3.2581 43.5311 2.50538 41.8532 1.95681C40.3982 1.4861 38.8945 1.18107 37.3711 1.04753C36.156 0.917732 32.6004 0.990319 31.3372 0.972846C31.5074 0.972946 31.6766 0.975042 31.8464 0.980134Z" fill="url(#paint14_linear_101_672)"/>
<path d="M49.5941 19.4248C53.076 19.415 56.4848 18.4244 59.4296 16.5664C60.6734 15.7906 62.1092 15.3777 63.5752 15.374H59.2582C57.7924 15.3777 56.3567 15.7906 55.1129 16.5664C52.168 18.4243 48.7593 19.415 45.2773 19.4248H49.5941Z" fill="url(#paint15_linear_101_672)"/>
<path d="M59.724 0.980133C62.3808 1.05291 64.9976 1.64568 67.4264 2.72492C68.143 3.04252 68.8415 3.39974 69.5184 3.79495C70.191 4.2119 70.8827 4.61297 71.6576 4.80498C72.0943 4.91991 72.543 4.98337 72.9945 4.99408C73.0344 4.99488 73.0741 4.99531 73.1136 4.99538H77.4304C76.297 4.98681 75.1897 4.654 74.2394 4.03627C71.6273 2.42615 68.6895 1.41801 65.6391 1.08507C64.2195 0.900556 60.6881 0.993612 59.2149 0.972844C59.3847 0.972944 59.5543 0.975041 59.724 0.980133Z" fill="url(#paint16_linear_101_672)"/>
<path d="M83.1912 1.4534C85.3257 1.55664 87.2859 2.8659 88.3823 4.67269C89.769 6.90281 89.881 9.84383 88.7085 12.1883C88.0284 13.5676 86.9063 14.7461 85.5073 15.402C85.2561 15.5227 84.9967 15.6259 84.7313 15.7109C84.0944 15.916 83.486 16.2008 82.9204 16.5584C80.0787 18.4524 76.743 19.4697 73.3279 19.4838C78.6437 19.5606 82.5674 19.6535 87.2373 16.5584C87.8029 16.2008 88.4113 15.916 89.0483 15.7109C89.5371 15.5535 90.005 15.3372 90.4417 15.0668C92.3487 13.9002 93.5549 11.7707 93.7865 9.56806C94.1485 6.4637 92.4947 3.16174 89.5581 1.92996L89.5552 1.92876C89.1435 1.75526 88.7145 1.62623 88.2754 1.54386C87.5447 1.35765 83.6816 1.47347 82.8677 1.44402C82.9757 1.44432 83.0834 1.44841 83.1912 1.4534Z" fill="url(#paint17_linear_101_672)"/>
<path d="M89.4151 52.5068C90.4447 56.3555 88.4167 60.4062 84.8994 61.5332C84.2637 61.7382 83.6561 62.022 83.091 62.378C77.2643 66.345 69.456 66.1521 63.5625 62.3834C62.3203 61.6068 60.8846 61.1954 59.4196 61.1963C57.9546 61.1972 56.5195 61.6104 55.2783 62.3886C52.336 64.2565 48.9226 65.248 45.4374 65.2471C41.9522 65.2462 38.5393 64.2529 35.598 62.3835C34.3552 61.6098 32.9204 61.2001 31.4566 61.201C29.9927 61.2019 28.5584 61.6133 27.3166 62.3886C21.4414 66.3002 13.5715 66.2925 7.6773 62.3571C7.05196 61.97 6.37859 61.6665 5.67446 61.4542C-1.27471 58.8409 0.0544729 47.5183 7.76466 47.2633C8.39889 47.2648 9.02907 47.3643 9.63294 47.5582C11.3193 48.1298 12.9237 48.9192 14.4055 49.9064C16.2695 51.1202 18.7974 51.1164 20.6747 49.8828C23.8917 47.8766 27.6061 46.8112 31.3975 46.8071C35.1888 46.803 38.9055 47.8605 42.1268 49.8598C43.0833 50.4834 44.1998 50.8169 45.3417 50.82C46.4835 50.8232 47.6018 50.4958 48.5616 49.8773C51.7787 47.8739 55.4921 46.8105 59.282 46.8074C63.0718 46.8043 66.787 47.8616 70.0073 49.8597C70.9478 50.4789 72.0483 50.8108 73.1743 50.815C74.3003 50.8191 75.4031 50.4952 76.348 49.8828C77.9152 48.8453 79.6168 48.0269 81.4057 47.4504C84.9606 46.5824 88.4231 48.803 89.4151 52.5068Z" fill="#F87C56"/>
<path d="M5.56828 38.6217C-1.61413 36.22 -0.38908 24.5077 7.46299 24.2448C8.26771 24.245 9.06452 24.4041 9.80758 24.7131C11.433 25.2707 12.9786 26.0381 14.4055 26.9957C15.3437 27.5908 16.4327 27.9047 17.5437 27.9004C18.6546 27.896 19.7412 27.5737 20.6747 26.9714C23.8917 24.9651 27.6061 23.8996 31.3975 23.8955C35.1888 23.8914 38.9055 24.9489 42.1269 26.9482C43.0833 27.5716 44.1997 27.9051 45.3415 27.9085C46.4832 27.9118 47.6015 27.5848 48.5616 26.967C51.7784 24.9629 55.4919 23.899 59.2819 23.8957C63.0718 23.8924 66.7871 24.9498 70.0073 26.9482C70.9479 27.5671 72.0483 27.8989 73.1743 27.903C74.3002 27.9071 75.403 27.5834 76.348 26.9714C77.7495 26.0397 79.2618 25.2864 80.8497 24.7292C81.4313 24.4701 82.0629 24.3426 82.6995 24.3557C90.5312 24.6272 91.7284 36.2104 84.5653 38.6217C83.9292 38.8259 83.3216 39.11 82.757 39.4672C76.9245 43.4334 69.1238 43.2397 63.2257 39.4727C61.9842 38.6957 60.549 38.2841 59.0844 38.2848C57.6198 38.2856 56.1851 38.6988 54.9444 39.4771C52.0022 41.3454 48.5888 42.3372 45.1036 42.3364C41.6183 42.3356 38.2054 41.3423 35.264 39.4727C34.0209 38.6986 32.5857 38.2887 31.1213 38.2894C29.657 38.2902 28.2221 38.7017 26.9798 39.4771C21.109 43.389 13.2331 43.3826 7.34296 39.4456C6.78809 39.098 6.19193 38.8212 5.56828 38.6217Z" fill="#F87C56"/>
<path d="M5.73419 15.7079C-1.33889 13.1806 -0.113679 1.716 7.68447 1.44343C9.7862 1.42815 12.5813 2.95747 14.3241 4.08381C16.1849 5.29772 18.7162 5.29263 20.5902 4.06025C23.8074 2.05409 27.5218 0.988554 31.3132 0.984266C35.1046 0.979978 38.8214 2.0371 42.043 4.03599C42.9995 4.65968 44.116 4.99331 45.2579 4.99664C46.3997 4.99997 47.5181 4.67286 48.4782 4.05476C51.695 2.05136 55.4082 0.987878 59.1979 0.984543C62.9875 0.981208 66.7025 2.03816 69.9229 4.03589C70.8638 4.65547 71.9648 4.9877 73.0914 4.99202C74.218 4.99635 75.3215 4.67258 76.2672 4.06025C78.0091 2.93341 80.7643 1.43494 82.8678 1.44343C85.801 1.44343 88.4246 3.59917 89.2473 6.68416C90.2768 10.5329 88.2488 14.5841 84.7315 15.7101C84.0946 15.9153 83.4862 16.2 82.9206 16.5576C77.0969 20.5214 69.2847 20.3266 63.3944 16.5603C62.1527 15.7837 60.7175 15.3723 59.253 15.3732C57.7884 15.3741 56.3537 15.7873 55.113 16.5655C52.1702 18.4334 48.7564 19.4249 45.2707 19.424C41.7851 19.4231 38.3718 18.4299 35.4299 16.5604C34.1872 15.7867 32.7524 15.377 31.2885 15.3779C29.8246 15.3788 28.3903 15.7903 27.1486 16.5655C21.277 20.4761 13.4027 20.4694 7.51169 16.534C6.9555 16.1864 6.35848 15.909 5.73419 15.7079Z" fill="#F87C56"/>
<g style="mix-blend-mode:multiply" opacity="0.4" filter="url(#filter0_f_101_672)">
<path d="M86.1484 53.6535C86.5977 55.3382 85.711 57.1104 84.1715 57.6027C83.2477 57.9004 82.3653 58.314 81.5456 58.8338C76.7693 62.08 70.5469 61.8799 65.7389 58.8303C63.9452 57.7017 61.8692 57.1027 59.75 57.1022C57.6308 57.1017 55.5545 57.6998 53.7603 58.8275C51.3716 60.3465 48.5994 61.1536 45.7686 61.1541C42.9378 61.1546 40.1655 60.3485 37.7763 58.8303C35.981 57.706 33.9055 57.1096 31.7872 57.1091C29.6689 57.1086 27.5932 57.7041 25.7973 58.8275C23.4446 60.39 20.6838 61.2248 17.8596 61.2277C15.0353 61.2306 12.2727 60.4014 9.91687 58.8438C9.09359 58.3199 8.20707 57.9029 7.27859 57.6027C5.73031 57.1066 4.84456 55.3348 5.29516 53.6497C5.72499 52.0107 7.34669 50.9838 8.89668 51.4851C10.2709 51.9522 11.578 52.5968 12.7852 53.4027C14.2855 54.3795 16.0366 54.901 17.8269 54.9044C19.6172 54.9077 21.3702 54.3927 22.8742 53.4214C25.5384 51.7721 28.6097 50.8984 31.743 50.8986C34.8764 50.8988 37.9476 51.7728 40.6115 53.4224C42.1245 54.3931 43.8843 54.909 45.6819 54.909C47.4794 54.909 49.2393 54.3931 50.7523 53.4224C53.4165 51.7729 56.4879 50.899 59.6214 50.8988C62.7549 50.8987 65.8264 51.7723 68.4907 53.4215C69.9915 54.3902 71.74 54.9049 73.5263 54.9038C75.3125 54.9027 77.0604 54.3858 78.5599 53.4152C79.7227 52.6379 80.9784 52.0094 82.2977 51.5446L82.542 51.4887C84.0933 50.9829 85.7188 52.0113 86.1484 53.6535Z" fill="#D34A0F"/>
<path d="M6.94353 34.6921C5.40093 34.1995 4.51341 32.4277 4.96351 30.7427C5.33792 28.987 7.18554 27.8398 8.8119 28.5429C10.2159 29.0156 11.5517 29.6706 12.7851 30.4911C14.2853 31.4678 16.0362 31.9894 17.8263 31.9929C19.6164 31.9965 21.3692 31.4818 22.8733 30.5111C25.5375 28.8612 28.6092 27.9872 31.743 27.9874C34.8767 27.9876 37.9483 28.8619 40.6124 30.5121C42.1253 31.4821 43.8847 31.9977 45.6818 31.9977C47.4789 31.9977 49.2384 31.4821 50.7513 30.5121C53.4154 28.862 56.487 27.9876 59.6208 27.9875C62.7546 27.9873 65.8264 28.8613 68.4907 30.5112C69.9917 31.4794 71.7402 31.9937 73.5263 31.9924C75.3125 31.9912 77.0603 31.4743 78.5599 30.504C79.7754 29.691 81.0925 29.0412 82.4772 28.5711C82.6446 28.4811 82.8335 28.4387 83.0233 28.4487C85.2976 28.4539 86.6117 31.1798 85.572 33.1647C85.4 33.5228 85.1576 33.8425 84.8593 34.1048C84.561 34.3672 84.213 34.5667 83.8358 34.6915C82.9123 34.9896 82.0302 35.4032 81.2105 35.9226C76.4342 39.1686 70.2126 38.9688 65.4041 35.9197C63.6105 34.7908 61.5344 34.1916 59.4151 34.191C57.2958 34.1904 55.2194 34.7884 53.4251 35.9163C51.0365 37.4356 48.2645 38.2429 45.4337 38.2435C42.6028 38.2441 39.8304 37.4381 37.4411 35.9198C35.646 34.7952 33.5706 34.1985 31.4523 34.1979C29.334 34.1973 27.2583 34.7928 25.4625 35.9163C23.11 37.4789 20.3492 38.3137 17.525 38.3165C14.7008 38.3194 11.9384 37.4901 9.58268 35.9323C8.759 35.4089 7.87215 34.9922 6.94353 34.6921Z" fill="#D34A0F"/>
<path d="M7.18904 11.8055C5.65214 11.2881 4.76478 9.51692 5.21478 7.83165C5.64311 6.19151 7.26348 5.16331 8.81366 5.66333C10.1876 6.1302 11.4945 6.77467 12.7014 7.58034C14.2016 8.55711 15.9525 9.07865 17.7427 9.082C19.5329 9.08535 21.2857 8.57036 22.7895 7.59921C25.4539 5.94957 28.5255 5.07574 31.6592 5.07591C34.7929 5.07609 37.8644 5.95027 40.5286 7.60021C42.0415 8.57026 43.801 9.08589 45.5982 9.08589C47.3955 9.08589 49.1549 8.57026 50.6678 7.60021C53.332 5.95031 56.4036 5.07616 59.5373 5.076C62.671 5.07584 65.7425 5.94968 68.4068 7.59931C69.9076 8.56807 71.6563 9.08275 73.4426 9.08147C75.2289 9.08019 76.9768 8.56302 78.4762 7.59212C79.6889 6.78136 81.0025 6.13282 82.3836 5.66303C83.9325 5.1654 85.5517 6.1922 85.9808 7.83045C86.4308 9.51613 85.5434 11.2883 84.0039 11.7799C83.0802 12.0778 82.198 12.4917 81.3785 13.0117C76.6024 16.2572 70.3796 16.058 65.5718 13.0081C63.7781 11.8797 61.7021 11.2807 59.583 11.2801C57.4639 11.2794 55.3877 11.8771 53.5932 13.0044C51.2047 14.5239 48.4326 15.3313 45.6018 15.332C42.7709 15.3326 39.9984 14.5266 37.6091 13.0082C35.8138 11.8842 33.7386 11.2878 31.6204 11.2871C29.5022 11.2864 27.4266 11.8815 25.6305 13.0044C23.2778 14.5669 20.5171 15.4018 17.6928 15.4049C14.8685 15.408 12.1059 14.5791 9.7498 13.0217C8.94952 12.5124 8.0894 12.104 7.18904 11.8055Z" fill="#D34A0F"/>
</g>
<path d="M4.03201 51.3823C4.19155 51.4034 4.34913 51.4377 4.50296 51.4849C5.48027 51.8186 6.42467 52.2417 7.32415 52.7491C7.93749 53.083 8.49914 53.5047 9.12018 53.8249C10.2702 54.4349 11.5353 54.797 12.8338 54.8878C13.2509 54.9239 14.1013 54.9047 14.5268 54.9095C12.7311 54.9002 10.9756 54.377 9.46768 53.4019C8.25922 52.5985 6.95225 51.9542 5.57911 51.4849C5.08907 51.3031 4.2102 51.3684 3.69211 51.358C3.80581 51.3596 3.91925 51.3677 4.03201 51.3823Z" fill="url(#paint18_linear_101_672)"/>
<path d="M14.5268 61.237C17.356 61.2267 20.1205 60.3892 22.4798 58.8278C24.276 57.7067 26.3494 57.1092 28.4668 57.1025C25.9565 56.9992 23.5878 57.4557 21.4037 58.8278C19.0443 60.3892 16.2798 61.2266 13.4505 61.237H14.5268Z" fill="url(#paint19_linear_101_672)"/>
<path d="M41.8682 54.9001C40.6281 54.8323 39.414 54.5187 38.2961 53.9776C37.532 53.6101 36.8374 53.1147 36.0761 52.7406C34.2214 51.7966 32.2098 51.1993 30.1404 50.9781C29.2617 50.8757 28.2369 50.8865 27.3488 50.8883C30.0462 50.8966 32.7027 51.5493 35.0968 52.792C35.8727 53.1788 36.5794 53.6919 37.3704 54.0494C38.4084 54.5282 39.5249 54.8142 40.6653 54.8934C41.0935 54.9272 41.9294 54.9119 42.3636 54.9151C42.1985 54.9144 42.0333 54.9095 41.8682 54.9001Z" fill="url(#paint20_linear_101_672)"/>
<path d="M50.4427 58.8275C52.2388 57.7064 54.3121 57.1089 56.4294 57.1022C53.9183 56.999 51.5518 57.4552 49.3666 58.8276C46.973 60.3386 44.2022 61.1449 41.3717 61.154C44.5428 61.2857 47.6952 60.575 50.4427 58.8275Z" fill="url(#paint21_linear_101_672)"/>
<path d="M69.9501 54.9051C68.2528 54.8525 66.6017 54.3397 65.1733 53.4215C63.0079 52.091 60.5743 51.2574 58.0479 50.9808C57.164 50.8778 56.1226 50.8849 55.2275 50.8883C58.3606 50.9018 61.4294 51.7783 64.097 53.4215C65.3394 54.219 66.7521 54.713 68.2207 54.8635C68.7711 54.9289 69.6408 54.9059 70.2017 54.9097C70.1179 54.9097 70.034 54.9074 69.9501 54.9051Z" fill="url(#paint22_linear_101_672)"/>
<path d="M82.945 54.6798C83.0263 53.2026 82.0182 51.6761 80.5214 51.4049C80.5201 51.4049 80.5185 51.4049 80.5171 51.4043C80.1937 51.3322 79.3037 51.3683 78.9636 51.3604C80.4583 51.3493 81.6868 52.6648 81.843 54.1061C81.9854 55.1873 81.5878 56.3426 80.7521 57.0555C80.467 57.3013 80.1356 57.4876 79.7773 57.6033C78.8535 57.9011 77.9711 58.3147 77.1513 58.8344C74.864 60.3687 72.1758 61.196 69.4216 61.2131C72.5178 61.3461 75.5694 60.6223 78.2279 58.8344C79.0474 58.3147 79.9296 57.9011 80.8532 57.6033C81.5176 57.3823 82.0817 56.9321 82.4444 56.3332C82.5209 56.2077 82.5897 56.0776 82.6506 55.9438V55.9424C82.7349 55.7514 82.8023 55.5532 82.8517 55.3503C82.8847 55.2084 82.9097 55.0648 82.9266 54.9201C82.9362 54.8399 82.9401 54.7598 82.945 54.6798Z" fill="url(#paint23_linear_101_672)"/>
<path d="M3.6652 28.3508C3.92407 28.3789 4.17764 28.4436 4.41832 28.543C5.42688 28.8857 6.40174 29.3205 7.33058 29.842C7.94143 30.1747 8.50086 30.5941 9.1193 30.9131C10.1867 31.4794 11.354 31.8324 12.5563 31.9526C13.1055 32.0182 13.9689 31.9932 14.5273 31.9979C12.9545 31.9921 11.4087 31.5891 10.0332 30.8263C9.40648 30.475 8.82282 30.0514 8.18501 29.7186C7.32311 29.2514 6.42319 28.8581 5.49497 28.5427C5.44095 28.52 5.38626 28.5008 5.33174 28.4809C5.208 28.4394 5.08169 28.4061 4.95362 28.381C4.88553 28.3698 4.81726 28.3595 4.74886 28.3511C4.74657 28.3511 4.74414 28.3511 4.74184 28.3511C4.55693 28.3247 3.59558 28.3411 3.3916 28.3366C3.48256 28.3377 3.57424 28.3414 3.6652 28.3508Z" fill="url(#paint24_linear_101_672)"/>
<path d="M21.0689 35.9164C18.7096 37.4778 15.9451 38.3152 13.1159 38.3256C16.2859 38.4608 19.4102 37.7312 22.1451 35.9164C23.9411 34.7952 26.0145 34.1977 28.1318 34.1911C25.6215 34.0875 23.2531 34.5437 21.0689 35.9164Z" fill="url(#paint25_linear_101_672)"/>
<path d="M41.868 31.9886C40.6277 31.9208 39.4133 31.6072 38.2952 31.066C37.5313 30.6979 36.836 30.2039 36.0751 29.8289C34.2205 28.8849 32.2091 28.2877 30.14 28.0666C29.2613 27.9641 28.2367 27.975 27.3488 27.9768C30.0435 27.9849 32.6973 28.6363 35.0895 29.8768C35.8683 30.265 36.5771 30.779 37.3705 31.1379C38.4085 31.6166 39.525 31.9026 40.6654 31.9817C41.0936 32.0156 41.9295 32.0004 42.3637 32.0035C42.1985 32.0028 42.0333 31.9979 41.868 31.9886Z" fill="url(#paint26_linear_101_672)"/>
<path d="M49.0315 35.9164C46.6383 37.4273 43.8678 38.2336 41.0375 38.2428C49.3705 38.5077 49.7218 34.2703 56.0947 34.1903C53.5843 34.0874 51.2161 34.5437 49.0315 35.9164Z" fill="url(#paint27_linear_101_672)"/>
<path d="M56.3507 28.0157C59.0958 28.2127 61.753 29.0686 64.097 30.5109C65.3192 31.2937 66.7053 31.7846 68.1477 31.9454C68.7268 32.016 69.6115 31.9962 70.202 31.9982C68.4184 31.9903 66.6741 31.4742 65.1733 30.5105C62.9997 29.174 60.5555 28.339 58.0185 28.0662C57.1427 27.9646 56.1139 27.974 55.2275 27.9764C55.6022 27.978 55.9766 27.9911 56.3507 28.0157Z" fill="url(#paint28_linear_101_672)"/>
<path d="M80.5185 34.6912C81.0175 34.5289 81.4627 34.2336 81.8064 33.837C81.9171 33.7084 82.018 33.5715 82.1081 33.4277C82.109 33.4263 82.1099 33.4251 82.1107 33.4238C82.1883 33.2967 82.2581 33.1649 82.3194 33.0291L82.3203 33.0267C82.4033 32.8387 82.4696 32.6437 82.5185 32.4441C82.5185 32.4423 82.5195 32.4406 82.52 32.4388V32.4381C82.5919 32.1343 82.6228 31.8222 82.6118 31.5102C82.6118 31.5091 82.6118 31.5079 82.6118 31.5068C82.6067 31.4017 82.5982 31.2971 82.5852 31.1928C82.5847 31.1889 82.5845 31.185 82.5839 31.1812C82.4816 30.3708 82.0802 29.628 81.4583 29.0985C81.3938 29.05 81.3314 28.9979 81.2653 28.9518C80.9422 28.7248 80.5748 28.5685 80.187 28.4933L80.1832 28.4927C79.8601 28.4207 78.9701 28.4566 78.6304 28.4486C80.1245 28.4387 81.351 29.7533 81.5093 31.1928C81.6547 32.2773 81.2532 33.4377 80.4126 34.1505C80.1282 34.393 79.7987 34.5769 79.443 34.6915C78.5195 34.9895 77.6374 35.4031 76.8177 35.9226C74.5303 37.4567 71.8422 38.2839 69.0881 38.3013C72.184 38.4344 75.2359 37.7101 77.8938 35.9226C78.7133 35.4031 79.5952 34.9894 80.5185 34.6912Z" fill="url(#paint29_linear_101_672)"/>
<path d="M3.85582 5.54972C4.0472 5.56848 4.23626 5.60638 4.42008 5.66285C5.79292 6.13251 7.09952 6.77698 8.30777 7.58036C9.56122 8.38907 10.9882 8.88991 12.4721 9.04198C13.0181 9.10648 13.8867 9.08362 14.443 9.08741C12.6474 9.07796 10.892 8.55504 9.38393 7.58036C8.17583 6.77671 6.86909 6.13223 5.49614 5.66285C5.0069 5.48163 4.12828 5.54773 3.61118 5.53694C3.69272 5.53867 3.77428 5.54293 3.85582 5.54972Z" fill="url(#paint30_linear_101_672)"/>
<path d="M14.3596 15.4135C17.1888 15.4035 19.9534 14.566 22.3126 13.0043C24.109 11.8839 26.1822 11.2867 28.2994 11.2799C25.7893 11.1766 23.4204 11.6334 21.2365 13.0043C18.8772 14.566 16.1127 15.4035 13.2834 15.4135H14.3596Z" fill="url(#paint31_linear_101_672)"/>
<path d="M27.8859 5.07775C30.3692 5.17772 32.8003 5.82239 35.0069 6.96611C35.7849 7.35381 36.494 7.86771 37.2869 8.22635C38.325 8.70505 39.4414 8.99093 40.5818 9.07003C41.0093 9.10378 41.8469 9.0888 42.2807 9.0918C40.8138 9.08749 39.368 8.74103 38.0585 8.07998C37.3026 7.69058 36.6008 7.20134 35.83 6.83921C34.0212 5.93904 32.0662 5.36881 30.057 5.15533C29.1784 5.05269 28.1532 5.06347 27.2647 5.06547C27.4721 5.06537 27.6789 5.07076 27.8859 5.07775Z" fill="url(#paint32_linear_101_672)"/>
<path d="M42.2811 15.3317C45.1116 15.3225 47.8822 14.5159 50.2752 13.0043C52.0717 11.8841 54.1449 11.2869 56.262 11.2799C53.7511 11.1766 51.3844 11.6333 49.199 13.0043C46.806 14.5159 44.0355 15.3225 41.2051 15.3317H42.2811Z" fill="url(#paint33_linear_101_672)"/>
<path d="M55.7651 5.07776C58.685 5.19853 61.5249 6.06668 64.0133 7.59913C65.2572 8.39719 66.6715 8.89129 68.1418 9.04148C68.6902 9.10658 69.5596 9.08372 70.1187 9.08741C68.3351 9.07934 66.5907 8.56308 65.09 7.59913C62.9164 6.26267 60.4721 5.42775 57.9351 5.15514C57.0593 5.05349 56.0309 5.06288 55.1447 5.06528C55.3513 5.06538 55.5582 5.07077 55.7651 5.07776Z" fill="url(#paint34_linear_101_672)"/>
<path d="M81.6677 8.22715C81.8446 9.39623 81.3767 10.6634 80.4137 11.3687C80.1695 11.5478 79.8981 11.6866 79.6098 11.7797C78.6861 12.0776 77.804 12.4915 76.9845 13.0115C74.697 14.5454 72.0088 15.3726 69.2547 15.3901C72.3507 15.5227 75.4027 14.799 78.061 13.0115C78.8804 12.4915 79.7626 12.0776 80.6863 11.7797C81.3509 11.559 81.9153 11.1087 82.2779 10.5096C82.3545 10.3841 82.4233 10.2541 82.484 10.1202L82.4846 10.1188C82.5679 9.93005 82.6346 9.73438 82.6837 9.53401C82.757 9.22881 82.7888 8.91515 82.7783 8.60146C82.7658 8.13965 82.6561 7.68565 82.4566 7.26898C82.257 6.85231 81.9721 6.48231 81.6202 6.18303C81.2552 5.88017 80.8201 5.67371 80.3547 5.58257C80.3532 5.58257 80.3517 5.58257 80.3504 5.58197C80.0271 5.50988 79.1371 5.54592 78.7972 5.53804C80.2698 5.52715 81.491 6.80846 81.6677 8.22715Z" fill="url(#paint35_linear_101_672)"/>
<path d="M81.7547 53.6535C82.204 55.3382 81.3174 57.1104 79.7774 57.6027C78.8537 57.9004 77.9715 58.3141 77.1519 58.8338C72.3756 62.08 66.1533 61.8799 61.3452 58.8303C59.5515 57.7017 57.4755 57.1027 55.3563 57.1022C53.2371 57.1017 51.1609 57.6998 49.3666 58.8275C46.9779 60.3465 44.2058 61.1536 41.375 61.1541C38.5442 61.1546 35.7718 60.3485 33.3825 58.8303C31.5872 57.706 29.5118 57.1096 27.3935 57.1091C25.2752 57.1086 23.1995 57.7041 21.4036 58.8275C19.051 60.39 16.2902 61.2248 13.4659 61.2277C10.6417 61.2306 7.87917 60.4014 5.52331 58.8438C4.70003 58.3199 3.81351 57.9029 2.88504 57.6027C1.33665 57.1066 0.450911 55.3348 0.901509 53.6497C1.33134 52.0107 2.95304 50.9838 4.50303 51.4851C5.87722 51.9521 7.18441 52.5968 8.3915 53.4026C9.89186 54.3795 11.6429 54.901 13.4333 54.9044C15.2236 54.9077 16.9766 54.3927 18.4806 53.4214C21.1447 51.7721 24.2161 50.8984 27.3495 50.8986C30.4828 50.8988 33.554 51.7728 36.218 53.4224C37.7309 54.3931 39.4907 54.909 41.2883 54.909C43.0858 54.909 44.8457 54.3931 46.3586 53.4224C49.0228 51.7729 52.0942 50.899 55.2277 50.8988C58.3612 50.8987 61.4327 51.7723 64.0971 53.4215C65.5978 54.3902 67.3465 54.9049 69.1327 54.9038C70.9189 54.9027 72.6668 54.3858 74.1664 53.4152C75.3291 52.6379 76.5848 52.0094 77.904 51.5446L78.1484 51.4887C79.6997 50.9829 81.3252 52.0113 81.7547 53.6535Z" fill="#FFF2DC"/>
<path d="M2.54994 34.6921C1.00734 34.1995 0.119917 32.4277 0.569916 30.7427C0.944432 28.987 2.79205 27.8398 4.41841 28.5429C5.82233 29.0156 7.15811 29.6706 8.39152 30.4911C9.89173 31.4678 11.6426 31.9894 13.4327 31.9929C15.2228 31.9965 16.9756 31.4818 18.4797 30.5111C21.144 28.8612 24.2156 27.9872 27.3494 27.9874C30.4831 27.9876 33.5547 28.8619 36.2188 30.5121C37.7317 31.4821 39.4912 31.9977 41.2883 31.9977C43.0855 31.9977 44.8448 31.4821 46.3578 30.5121C49.0219 28.862 52.0935 27.9876 55.2273 27.9875C58.3611 27.9873 61.4328 28.8613 64.0971 30.5112C65.5981 31.4794 67.3467 31.9937 69.1328 31.9924C70.919 31.9912 72.6668 31.4743 74.1664 30.504C75.3819 29.691 76.6989 29.0412 78.0836 28.5711C78.251 28.4811 78.4399 28.4388 78.6297 28.4487C80.9041 28.4539 82.2182 31.1798 81.1785 33.1647C81.0065 33.5227 80.7641 33.8424 80.4658 34.1047C80.1674 34.367 79.8194 34.5664 79.4422 34.6912C78.5185 34.9892 77.6363 35.4029 76.8164 35.9223C72.0401 39.1683 65.8184 38.9685 61.0099 35.9194C59.2163 34.7905 57.1403 34.1913 55.021 34.1907C52.9017 34.1901 50.8253 34.7881 49.031 35.916C46.6424 37.4353 43.8704 38.2425 41.0396 38.2432C38.2087 38.2438 35.4363 37.4378 33.0471 35.9195C31.2519 34.7949 29.1765 34.1982 27.0582 34.1976C24.9399 34.197 22.8642 34.7925 21.0683 35.916C18.7158 37.4786 15.9551 38.3134 13.1309 38.3162C10.3067 38.3191 7.54419 37.4898 5.1885 35.932C4.36496 35.4087 3.47837 34.9921 2.54994 34.6921Z" fill="#FFF2DC"/>
<path d="M2.79539 11.8055C1.25859 11.2881 0.371222 9.51692 0.821221 7.83165C1.24955 6.1915 2.86982 5.1633 4.42011 5.66332C5.79401 6.1302 7.10095 6.77467 8.3078 7.58034C9.80799 8.55711 11.5589 9.07866 13.3491 9.08201C15.1392 9.08535 16.8921 8.57036 18.3959 7.59921C21.0603 5.94957 24.132 5.07574 27.2657 5.07591C30.3994 5.07609 33.4709 5.95027 36.1351 7.60021C37.648 8.57026 39.4075 9.08589 41.2047 9.08589C43.0019 9.08589 44.7613 8.57026 46.2742 7.60021C48.9384 5.9503 52.0099 5.07615 55.1436 5.07599C58.2773 5.07584 61.349 5.94968 64.0133 7.59931C65.5141 8.56807 67.2627 9.08275 69.049 9.08147C70.8353 9.0802 72.5832 8.56302 74.0826 7.59212C75.2953 6.78134 76.609 6.1328 77.9901 5.66303C79.5388 5.1654 81.1581 6.1922 81.5873 7.83045C82.0373 9.51612 81.1498 11.2883 79.6098 11.7799C78.6859 12.0777 77.8036 12.4916 76.9839 13.0117C72.2078 16.2572 65.9851 16.058 61.1773 13.0081C59.3835 11.8797 57.3075 11.2807 55.1884 11.2801C53.0692 11.2794 50.993 11.8771 49.1985 13.0044C46.81 14.5239 44.038 15.3313 41.2071 15.332C38.3763 15.3326 35.6038 14.5266 33.2146 13.0082C31.4193 11.8841 29.344 11.2877 27.2258 11.2871C25.1076 11.2864 23.032 11.8815 21.2359 13.0044C18.8832 14.5669 16.1224 15.4018 13.2982 15.4049C10.4739 15.408 7.71123 14.5791 5.35517 13.0217C4.55517 12.5125 3.69544 12.104 2.79539 11.8055Z" fill="#FFF2DC"/>
<defs>
<filter id="filter0_f_101_672" x="1.84644" y="2.07591" width="87.4187" height="62.1518" filterUnits="userSpaceOnUse" color-interpolation-filters="sRGB">
<feFlood flood-opacity="0" result="BackgroundImageFix"/>
<feBlend mode="normal" in="SourceGraphic" in2="BackgroundImageFix" result="shape"/>
<feGaussianBlur stdDeviation="1.5" result="effect1_foregroundBlur_101_672"/>
</filter>
<linearGradient id="paint0_linear_101_672" x1="50.7317" y1="0.967331" x2="50.7317" y2="65.3314" gradientUnits="userSpaceOnUse">
<stop stop-color="#D34A0F"/>
<stop offset="1" stop-color="#F87C56"/>
</linearGradient>
<linearGradient id="paint1_linear_101_672" x1="50.7317" y1="0.967331" x2="50.7317" y2="65.3314" gradientUnits="userSpaceOnUse">
<stop stop-color="#D34A0F"/>
<stop offset="1" stop-color="#F87C56"/>
</linearGradient>
<linearGradient id="paint2_linear_101_672" x1="50.7317" y1="0.967331" x2="50.7317" y2="65.3314" gradientUnits="userSpaceOnUse">
<stop stop-color="#D34A0F"/>
<stop offset="1" stop-color="#F87C56"/>
</linearGradient>
<linearGradient id="paint3_linear_101_672" x1="50.7317" y1="0.967331" x2="50.7317" y2="65.3314" gradientUnits="userSpaceOnUse">
<stop stop-color="#D34A0F"/>
<stop offset="1" stop-color="#F87C56"/>
</linearGradient>
<linearGradient id="paint4_linear_101_672" x1="50.7317" y1="0.967331" x2="50.7317" y2="65.3314" gradientUnits="userSpaceOnUse">
<stop stop-color="#D34A0F"/>
<stop offset="1" stop-color="#F87C56"/>
</linearGradient>
<linearGradient id="paint5_linear_101_672" x1="50.7317" y1="0.967331" x2="50.7317" y2="65.3314" gradientUnits="userSpaceOnUse">
<stop stop-color="#D34A0F"/>
<stop offset="1" stop-color="#F87C56"/>
</linearGradient>
<linearGradient id="paint6_linear_101_672" x1="50.7317" y1="0.967331" x2="50.7317" y2="65.3314" gradientUnits="userSpaceOnUse">
<stop stop-color="#D34A0F"/>
<stop offset="1" stop-color="#F87C56"/>
</linearGradient>
<linearGradient id="paint7_linear_101_672" x1="50.7317" y1="0.967331" x2="50.7317" y2="65.3314" gradientUnits="userSpaceOnUse">
<stop stop-color="#D34A0F"/>
<stop offset="1" stop-color="#F87C56"/>
</linearGradient>
<linearGradient id="paint8_linear_101_672" x1="50.7317" y1="0.967331" x2="50.7317" y2="65.3314" gradientUnits="userSpaceOnUse">
<stop stop-color="#D34A0F"/>
<stop offset="1" stop-color="#F87C56"/>
</linearGradient>
<linearGradient id="paint9_linear_101_672" x1="50.7317" y1="0.967331" x2="50.7317" y2="65.3314" gradientUnits="userSpaceOnUse">
<stop stop-color="#D34A0F"/>
<stop offset="1" stop-color="#F87C56"/>
</linearGradient>
<linearGradient id="paint10_linear_101_672" x1="50.7317" y1="0.967331" x2="50.7317" y2="65.3314" gradientUnits="userSpaceOnUse">
<stop stop-color="#D34A0F"/>
<stop offset="1" stop-color="#F87C56"/>
</linearGradient>
<linearGradient id="paint11_linear_101_672" x1="50.7317" y1="0.967331" x2="50.7317" y2="65.3314" gradientUnits="userSpaceOnUse">
<stop stop-color="#D34A0F"/>
<stop offset="1" stop-color="#F87C56"/>
</linearGradient>
<linearGradient id="paint12_linear_101_672" x1="50.7317" y1="0.967331" x2="50.7317" y2="65.3314" gradientUnits="userSpaceOnUse">
<stop stop-color="#D34A0F"/>
<stop offset="1" stop-color="#F87C56"/>
</linearGradient>
<linearGradient id="paint13_linear_101_672" x1="50.7317" y1="0.967331" x2="50.7317" y2="65.3314" gradientUnits="userSpaceOnUse">
<stop stop-color="#D34A0F"/>
<stop offset="1" stop-color="#F87C56"/>
</linearGradient>
<linearGradient id="paint14_linear_101_672" x1="50.7317" y1="0.967331" x2="50.7317" y2="65.3314" gradientUnits="userSpaceOnUse">
<stop stop-color="#D34A0F"/>
<stop offset="1" stop-color="#F87C56"/>
</linearGradient>
<linearGradient id="paint15_linear_101_672" x1="50.7317" y1="0.967331" x2="50.7317" y2="65.3314" gradientUnits="userSpaceOnUse">
<stop stop-color="#D34A0F"/>
<stop offset="1" stop-color="#F87C56"/>
</linearGradient>
<linearGradient id="paint16_linear_101_672" x1="50.7317" y1="0.967331" x2="50.7317" y2="65.3314" gradientUnits="userSpaceOnUse">
<stop stop-color="#D34A0F"/>
<stop offset="1" stop-color="#F87C56"/>
</linearGradient>
<linearGradient id="paint17_linear_101_672" x1="50.7317" y1="0.967331" x2="50.7317" y2="65.3314" gradientUnits="userSpaceOnUse">
<stop stop-color="#D34A0F"/>
<stop offset="1" stop-color="#F87C56"/>
</linearGradient>
<linearGradient id="paint18_linear_101_672" x1="43.1706" y1="5.06393" x2="43.1706" y2="61.237" gradientUnits="userSpaceOnUse">
<stop stop-color="#F7A175"/>
<stop offset="1" stop-color="#FFF2DC"/>
</linearGradient>
<linearGradient id="paint19_linear_101_672" x1="43.1706" y1="5.06393" x2="43.1706" y2="61.237" gradientUnits="userSpaceOnUse">
<stop stop-color="#F7A175"/>
<stop offset="1" stop-color="#FFF2DC"/>
</linearGradient>
<linearGradient id="paint20_linear_101_672" x1="43.1706" y1="5.06393" x2="43.1706" y2="61.237" gradientUnits="userSpaceOnUse">
<stop stop-color="#F7A175"/>
<stop offset="1" stop-color="#FFF2DC"/>
</linearGradient>
<linearGradient id="paint21_linear_101_672" x1="43.1706" y1="5.06393" x2="43.1706" y2="61.237" gradientUnits="userSpaceOnUse">
<stop stop-color="#F7A175"/>
<stop offset="1" stop-color="#FFF2DC"/>
</linearGradient>
<linearGradient id="paint22_linear_101_672" x1="43.1706" y1="5.06393" x2="43.1706" y2="61.237" gradientUnits="userSpaceOnUse">
<stop stop-color="#F7A175"/>
<stop offset="1" stop-color="#FFF2DC"/>
</linearGradient>
<linearGradient id="paint23_linear_101_672" x1="43.1706" y1="5.06393" x2="43.1706" y2="61.237" gradientUnits="userSpaceOnUse">
<stop stop-color="#F7A175"/>
<stop offset="1" stop-color="#FFF2DC"/>
</linearGradient>
<linearGradient id="paint24_linear_101_672" x1="43.1706" y1="5.06393" x2="43.1706" y2="61.237" gradientUnits="userSpaceOnUse">
<stop stop-color="#F7A175"/>
<stop offset="1" stop-color="#FFF2DC"/>
</linearGradient>
<linearGradient id="paint25_linear_101_672" x1="43.1706" y1="5.06393" x2="43.1706" y2="61.237" gradientUnits="userSpaceOnUse">
<stop stop-color="#F7A175"/>
<stop offset="1" stop-color="#FFF2DC"/>
</linearGradient>
<linearGradient id="paint26_linear_101_672" x1="43.1706" y1="5.06393" x2="43.1706" y2="61.237" gradientUnits="userSpaceOnUse">
<stop stop-color="#F7A175"/>
<stop offset="1" stop-color="#FFF2DC"/>
</linearGradient>
<linearGradient id="paint27_linear_101_672" x1="43.1706" y1="5.06393" x2="43.1706" y2="61.237" gradientUnits="userSpaceOnUse">
<stop stop-color="#F7A175"/>
<stop offset="1" stop-color="#FFF2DC"/>
</linearGradient>
<linearGradient id="paint28_linear_101_672" x1="43.1706" y1="5.06393" x2="43.1706" y2="61.237" gradientUnits="userSpaceOnUse">
<stop stop-color="#F7A175"/>
<stop offset="1" stop-color="#FFF2DC"/>
</linearGradient>
<linearGradient id="paint29_linear_101_672" x1="43.1706" y1="5.06393" x2="43.1706" y2="61.237" gradientUnits="userSpaceOnUse">
<stop stop-color="#F7A175"/>
<stop offset="1" stop-color="#FFF2DC"/>
</linearGradient>
<linearGradient id="paint30_linear_101_672" x1="43.1706" y1="5.06393" x2="43.1706" y2="61.237" gradientUnits="userSpaceOnUse">
<stop stop-color="#F7A175"/>
<stop offset="1" stop-color="#FFF2DC"/>
</linearGradient>
<linearGradient id="paint31_linear_101_672" x1="43.1706" y1="5.06393" x2="43.1706" y2="61.237" gradientUnits="userSpaceOnUse">
<stop stop-color="#F7A175"/>
<stop offset="1" stop-color="#FFF2DC"/>
</linearGradient>
<linearGradient id="paint32_linear_101_672" x1="43.1706" y1="5.06393" x2="43.1706" y2="61.237" gradientUnits="userSpaceOnUse">
<stop stop-color="#F7A175"/>
<stop offset="1" stop-color="#FFF2DC"/>
</linearGradient>
<linearGradient id="paint33_linear_101_672" x1="43.1706" y1="5.06393" x2="43.1706" y2="61.237" gradientUnits="userSpaceOnUse">
<stop stop-color="#F7A175"/>
<stop offset="1" stop-color="#FFF2DC"/>
</linearGradient>
<linearGradient id="paint34_linear_101_672" x1="43.1706" y1="5.06393" x2="43.1706" y2="61.237" gradientUnits="userSpaceOnUse">
<stop stop-color="#F7A175"/>
<stop offset="1" stop-color="#FFF2DC"/>
</linearGradient>
<linearGradient id="paint35_linear_101_672" x1="43.1706" y1="5.06393" x2="43.1706" y2="61.237" gradientUnits="userSpaceOnUse">
<stop stop-color="#F7A175"/>
<stop offset="1" stop-color="#FFF2DC"/>
</linearGradient>
</defs>
</svg>
