<svg width="94" height="98" viewBox="0 0 94 98" fill="none" xmlns="http://www.w3.org/2000/svg">
<path d="M14.7639 52.6711C15.6241 53.9719 16.9929 54.9514 18.5365 55.2348C19.2014 55.4086 23.1015 55.2979 23.8505 55.327C20.7476 55.347 18.2866 52.6511 17.9879 49.6658C17.7272 47.5213 18.5147 45.2484 20.1514 43.8164C20.9952 43.0614 22.0472 42.5785 23.1698 42.4309C23.8194 42.3564 24.4817 42.4109 25.1219 42.2512C26.8871 41.8842 28.42 40.7036 29.3582 39.1807L29.3594 39.1788C29.9883 38.1547 30.3676 36.9972 30.4668 35.7996C30.5145 35.2547 30.4888 34.7053 30.5204 34.1594C30.5503 33.4546 30.6187 32.751 30.7157 32.0527C31.0565 29.6373 31.8078 27.2979 32.9369 25.1356C36.0432 19.144 42.1565 14.9116 49.0062 14.9415C47.5111 14.9546 44.1084 14.8686 42.6897 15.0596C41.0689 15.251 39.4838 15.6737 37.9828 16.3148C31.6307 18.9962 27.2967 25.3448 26.3929 32.0964C26.2901 32.8344 26.2249 33.5787 26.1959 34.3237C26.1743 34.8221 26.1941 35.3234 26.1481 35.8205C26.0461 37.0082 25.6688 38.1559 25.046 39.1724C24.1045 40.7055 22.561 41.8922 20.7846 42.2551C20.1794 42.4005 19.5552 42.3639 18.9402 42.419C17.9738 42.5287 17.053 42.8898 16.2696 43.4663C13.4194 45.5212 12.8079 49.7995 14.7639 52.6711Z" fill="url(#paint0_linear_101_693)"/>
<path d="M26.306 80.5876C26.2124 77.7338 24.4004 74.9129 21.6439 73.9844C21.0066 73.7671 20.338 73.6557 19.6647 73.6549H15.3473C19.2164 73.6525 22.038 77.2175 21.9969 80.9336C22.0399 84.6478 19.2122 88.211 15.3473 88.2092H19.6642C20.1351 88.208 20.6044 88.1532 21.0629 88.0459C22.7779 87.6501 24.2591 86.4883 25.1754 85.0007C25.9849 83.6757 26.3787 82.1386 26.306 80.5876Z" fill="url(#paint1_linear_101_693)"/>
<path d="M36.6953 69.8732C39.4962 69.767 41.8835 67.6179 42.6874 64.995H38.3706C37.5327 67.7227 35.0114 69.9038 32.091 69.8803H36.4078C36.5042 69.8803 36.5999 69.8777 36.6953 69.8732Z" fill="url(#paint2_linear_101_693)"/>
<path d="M40.5854 56.9471C40.1663 56.5741 39.7013 56.256 39.2019 56.0003C38.3365 55.5594 37.3793 55.3286 36.408 55.3267H32.091C35.0109 55.3026 37.5318 57.4833 38.3706 60.2096H42.6874C42.2924 58.9531 41.5663 57.8262 40.5854 56.9471Z" fill="url(#paint3_linear_101_693)"/>
<path d="M41.1308 37.0321C44.8556 37.4376 47.3411 41.1043 47.0983 44.7109C46.9507 48.2606 44.1496 51.5617 40.4647 51.5515H44.7816C45.2522 51.5503 45.7212 51.4955 46.1794 51.3882C47.8929 50.9928 49.3721 49.8322 50.2884 48.3462L50.2904 48.3428C51.8151 45.896 51.8057 42.5918 50.2596 40.157C49.2189 38.4763 47.4322 37.238 45.4481 37.0319C45.2269 37.0081 45.0046 36.9959 44.7821 36.9953H40.4647C40.6872 36.9963 40.9095 37.0085 41.1308 37.0321Z" fill="url(#paint4_linear_101_693)"/>
<path d="M72.3502 89.5736C72.2237 83.523 68.7619 77.5265 63.1912 74.9545C61.8138 74.313 60.3406 73.9013 58.8302 73.7356C57.7519 73.5876 54.1508 73.6783 53.0219 73.6547C58.4343 73.623 63.3369 76.9317 65.8863 81.6185C67.0479 83.7347 67.757 86.0692 67.9686 88.474C68.1084 89.9582 68.0892 91.4944 67.5293 92.8971C66.5963 95.4263 64.1474 97.4008 61.3958 97.3741C61.6104 97.3672 66.0708 97.3911 66.1407 97.3573C66.8847 97.3048 67.6129 97.1175 68.2898 96.8044C71.02 95.5464 72.5394 92.5162 72.3502 89.5736Z" fill="url(#paint5_linear_101_693)"/>
<path d="M61.7548 3.28164C60.0492 2.45967 58.2694 1.80151 56.4393 1.31601C54.7049 0.857783 52.932 0.560331 51.1431 0.4274C49.6787 0.291711 46.1749 0.361717 44.6632 0.345642C50.4562 0.333261 56.209 2.12385 61.032 5.31997C64.1798 7.40594 66.944 10.0194 69.2032 13.0452C71.234 15.7601 72.8656 18.7517 74.0486 21.929C74.3696 22.8237 74.7111 23.7187 74.9182 24.6483C75.0644 25.3623 75.1132 26.0929 75.0633 26.8201C74.8488 30.336 72.0879 33.5649 68.4285 33.5549H72.7455C74.7877 33.5733 76.7556 32.4666 77.9383 30.8192C79.1475 29.1284 79.6356 27.0266 79.2953 24.9761C79.1741 24.2042 78.9032 23.4656 78.6537 22.7283C78.2649 21.6084 77.8218 20.5098 77.3244 19.4323C74.1489 12.5061 68.6553 6.58709 61.7548 3.28164Z" fill="url(#paint6_linear_101_693)"/>
<path d="M93.2888 71.7673C93.3336 65.5285 89.8682 59.2849 84.1216 56.6264C82.7442 55.985 81.271 55.5732 79.7606 55.4075C78.6816 55.2594 75.0816 55.3502 73.9522 55.3266C82.7433 55.3622 89.0314 63.3204 88.9719 71.7673C89.0319 80.2141 82.7417 88.1751 73.9522 88.2091C74.6354 88.2026 78.5587 88.2332 79.1404 88.1807C79.9799 88.1282 80.8129 87.9987 81.6289 87.794C85.4169 86.8555 88.6814 84.2696 90.7125 80.9661C92.4075 78.198 93.2995 75.0131 93.2888 71.7673Z" fill="url(#paint7_linear_101_693)"/>
<path d="M93.2808 34.7644C93.1873 31.9108 91.3761 29.0898 88.6199 28.161C88.073 27.9739 87.5023 27.8658 86.9248 27.84C86.8308 27.8349 86.7365 27.8318 86.6422 27.8322H82.3253C84.9458 27.8048 87.3225 29.6095 88.3248 31.9797C88.9666 33.3963 89.0548 34.9795 88.917 36.5094C88.7263 39.0551 87.9778 41.5277 86.7246 43.7517C84.1564 48.3532 79.2948 51.5837 73.9522 51.5515C74.6358 51.5451 78.5585 51.5755 79.1406 51.5231C79.9802 51.4705 80.8132 51.3411 81.6291 51.1363C85.419 50.197 88.6849 47.6091 90.7157 44.3034C92.4717 41.4372 93.3624 38.1248 93.2808 34.7644Z" fill="url(#paint8_linear_101_693)"/>
<path d="M15.3472 73.6549C19.0146 73.6549 21.9969 76.919 21.9969 80.9336C21.6305 90.5857 9.06384 90.5838 8.69881 80.9336C8.69851 76.919 11.6799 73.6549 15.3472 73.6549Z" fill="#F87C56"/>
<path d="M33.8149 44.2742C33.8149 40.2591 36.7973 36.9955 40.4645 36.9955C49.2808 37.3911 49.2789 51.1573 40.4645 51.5516C36.7973 51.5515 33.8149 48.2879 33.8149 44.2742Z" fill="#F87C56"/>
<path d="M53.0218 73.6549C61.3032 73.6549 68.0416 81.0303 68.0416 90.0961C68.0416 94.1106 65.0597 97.3742 61.3955 97.3742C57.7276 97.3742 54.7458 94.1106 54.7458 90.0961C54.7458 89.0563 53.9718 88.2091 53.022 88.2091H32.0909C28.4241 88.2091 25.4427 84.9441 25.4427 80.9334C25.4427 76.9189 28.4241 73.6547 32.0909 73.6547L53.0218 73.6549Z" fill="#F87C56"/>
<path d="M73.9517 55.327C93.874 56.2213 93.8697 87.3179 73.9517 88.2095C65.127 87.8116 65.1401 74.0467 73.9517 73.6552C76.2364 73.5521 76.2412 69.9862 73.9517 69.8811H44.6486C41.7481 69.8811 39.277 67.8387 38.3706 64.9958C37.4655 67.8387 34.9914 69.8811 32.0909 69.8811H19.4977C-2.78082 69.259 -6.59168 36.4751 13.4072 28.9149C19.6715 -5.80209 63.3004 -10.3739 74.7344 23.9327C75.9077 27.7485 74.0295 31.8894 70.552 33.1744C67.0391 34.4862 63.2307 32.3165 62.1163 28.5939C54.8671 7.00657 26.525 12.6462 26.1808 35.1166C26.1808 39.1231 23.1993 42.3867 19.5341 42.3867C11.7075 42.7343 11.6821 54.967 19.5341 55.3275H32.0909C34.9914 55.3275 37.4655 57.3699 38.3706 60.2105C39.2768 57.3699 41.7481 55.3275 44.6486 55.3275L73.9517 55.327Z" fill="#F87C56"/>
<path d="M57.2084 36.9956H73.9517C74.9022 36.9956 75.676 36.1507 75.676 35.1109C76.0377 25.4608 88.6065 25.451 88.9715 35.1109C88.9715 44.176 82.2336 51.5515 73.9517 51.5515H57.2078C48.3928 51.159 48.3862 37.3911 57.2084 36.9956Z" fill="#F87C56"/>
<g style="mix-blend-mode:multiply" opacity="0.4" filter="url(#filter0_f_101_693)">
<path d="M37.8884 44.2741C37.8884 42.5182 39.1935 41.0891 40.7977 41.0891C44.6567 41.2628 44.6554 47.2854 40.7977 47.4583C39.1935 47.4584 37.8884 46.0298 37.8884 44.2741Z" fill="#D34A0F"/>
<path d="M53.3559 77.7476C59.5762 77.7476 64.6376 83.2877 64.6376 90.096C64.6376 91.8519 63.3326 93.281 61.7284 93.281C60.1242 93.281 58.8191 91.8523 58.8191 90.096C58.8191 86.7991 56.3686 84.1158 53.3559 84.1158H32.4264C30.8223 84.1158 29.5167 82.688 29.5167 80.9322C29.5167 79.1763 30.8223 77.7471 32.4264 77.7471L53.3559 77.7476Z" fill="#D34A0F"/>
<path d="M35.3344 62.6025C35.3344 64.3585 34.0297 65.7875 32.426 65.7875H19.8314C16.3722 65.7875 12.9701 64.4965 10.2529 62.1505C-0.0865269 53.2344 3.91873 34.8938 17.086 32.1672C18.2406 17.5039 29.9759 4.3729 44.9981 4.4404C57.2239 4.33976 68.0422 13.4652 71.5284 25.2502C72.0413 26.9162 71.2181 28.7323 69.693 29.2946C68.15 29.8707 66.4849 28.9199 65.9945 27.2862C56.8067 0.897317 23.1547 8.4256 22.7763 35.107C22.7763 36.8654 21.4715 38.294 19.8674 38.294C14.5466 38.294 10.2179 43.0324 10.2179 48.8561C10.2179 54.6798 14.5466 59.4197 19.8674 59.4197H32.4264C34.0297 59.4189 35.3344 60.8465 35.3344 62.6025Z" fill="#D34A0F"/>
<path d="M74.2867 59.4189C89.2465 60.0884 89.2495 83.4453 74.2867 84.1158C70.4213 83.939 70.4347 77.9181 74.2867 77.7475C77.2985 77.7475 79.7499 75.0642 79.7499 71.7668C79.7499 68.4694 77.2985 65.7861 74.2867 65.7861H44.9843C41.1386 65.6203 41.1127 59.5958 44.9843 59.418L74.2867 59.4189Z" fill="#D34A0F"/>
<path d="M54.6333 44.2741C54.6333 42.5182 55.9385 41.0891 57.5426 41.0891H74.2865C77.2983 41.0891 79.7497 38.4068 79.7497 35.1089C79.7497 33.353 81.0539 31.9253 82.659 31.9253C84.2641 31.9253 85.5673 33.3531 85.5673 35.1089C85.5673 41.9183 80.5066 47.4583 74.2865 47.4583H57.5426C55.9385 47.4584 54.6333 46.0298 54.6333 44.2741Z" fill="#D34A0F"/>
<path d="M15.6811 77.7476C17.2848 77.7476 18.5904 79.1762 18.5904 80.9327C18.4306 85.1561 12.9316 85.1554 12.7722 80.9327C12.7722 79.1762 14.0769 77.7476 15.6811 77.7476Z" fill="#D34A0F"/>
</g>
<path d="M28.3215 59.4348C29.9176 59.5945 31.0336 61.2029 30.9375 62.749C30.9027 64.3027 29.6465 65.8037 28.032 65.7871C28.1727 65.7848 29.1823 65.7941 29.2955 65.7798C29.921 65.7319 30.5117 65.4733 30.9711 65.0463C31.1808 64.8522 31.3637 64.6309 31.5149 64.3884C31.5157 64.3871 31.5167 64.3859 31.5175 64.3845L31.5182 64.3835C31.7638 63.9781 31.923 63.5263 31.9861 63.0565C32.0491 62.5868 32.0145 62.109 31.8845 61.6532L31.8839 61.651C31.7323 61.1183 31.4476 60.6329 31.0565 60.2406C30.6102 59.7925 30.0254 59.5085 29.3972 59.4348C29.3018 59.4258 29.2046 59.4195 29.1082 59.419H16.55C16.3703 59.4185 16.1905 59.4129 16.0114 59.4022C15.2044 59.3532 14.4079 59.194 13.644 58.9292C11.8537 58.292 10.2901 57.1428 9.14762 55.6243C6.00252 51.5563 6.17845 45.3839 9.60201 41.5345C11.0539 39.8731 13.0793 38.6974 15.2732 38.3864C15.8517 38.2807 16.4448 38.3319 17.0247 38.2507C17.4242 38.1718 17.8027 38.0101 18.1358 37.776C18.4689 37.5419 18.7493 37.2406 18.9588 36.8915L18.9596 36.8901C19.2207 36.4632 19.384 35.9837 19.4379 35.4862C19.4807 34.7938 19.4588 34.0971 19.5162 33.4047C19.6427 31.4137 19.9959 29.4436 20.569 27.5327C22.8773 19.7112 29.2208 13.0291 37.3235 11.3158L37.3267 11.315C38.7687 11.0065 40.2391 10.8504 41.7138 10.8495C39.8915 10.8176 38.0309 10.9173 36.2505 11.315L36.2473 11.3158C27.3363 13.2128 20.693 20.9775 18.9325 29.7448C18.6575 31.0792 18.4856 32.4329 18.4183 33.7936C18.3758 34.3676 18.4088 34.946 18.3584 35.5189C18.3019 36.0073 18.1388 36.4774 17.8808 36.8959C17.481 37.5574 16.8359 38.0341 16.0862 38.2222C15.7368 38.3121 15.3734 38.2865 15.0171 38.3059C14.1764 38.3492 13.3462 38.5121 12.5514 38.7897C10.4374 39.5215 8.6467 41.0542 7.47832 42.95C7.34806 43.1616 7.22472 43.3775 7.1083 43.5976C6.33081 45.0853 5.89541 46.7278 5.83388 48.4053C5.64917 52.3423 7.65964 56.4029 11.1697 58.3075C12.2045 58.8777 13.3418 59.2377 14.5162 59.3669C14.909 59.4871 27.6632 59.3719 28.3215 59.4348Z" fill="url(#paint9_linear_101_693)"/>
<path d="M36.6931 41.1051C38.2893 41.2649 39.4061 42.8739 39.3099 44.4199C39.2751 45.9738 38.0181 47.4743 36.4045 47.458C36.7195 47.4503 37.6039 47.4825 37.9002 47.4244C38.7278 47.2975 39.4563 46.7614 39.8909 46.0548V46.054C40.2997 45.3815 40.4649 44.5889 40.3586 43.809C40.3355 43.6446 40.3016 43.482 40.2569 43.3221C40.1335 42.8924 39.9245 42.4921 39.6424 42.1452C39.5754 42.0653 39.5059 41.9871 39.4318 41.9139C39.1284 41.6113 38.7614 41.38 38.3574 41.2371C38.3536 41.2359 38.35 41.234 38.3461 41.2329C37.8343 41.0278 36.9483 41.1002 36.404 41.0889C36.5007 41.0907 36.5975 41.0958 36.6931 41.1051Z" fill="url(#paint10_linear_101_693)"/>
<path d="M61.3096 89.5554C61.1487 84.4384 57.8031 79.4672 52.7486 78.1087C52.0687 77.924 51.3717 77.8096 50.6684 77.7672C50.2314 77.7338 49.4039 77.7523 48.9624 77.7472C52.712 77.7163 56.2351 79.8874 58.2068 83.0265C59.5738 85.182 60.2808 87.6902 60.2407 90.2423C60.2059 91.7961 58.949 93.2975 57.3352 93.2804C57.6501 93.2727 58.5347 93.3047 58.831 93.2468C59.6571 93.1199 60.385 92.5858 60.8196 91.8805C60.8202 91.8794 60.821 91.8785 60.8217 91.8774V91.8764C61.2629 91.1885 61.3657 90.3565 61.3096 89.5554Z" fill="url(#paint11_linear_101_693)"/>
<path d="M57.2121 9.59237C52.8882 6.41472 47.6007 4.54245 42.2255 4.4457H42.2243C41.8598 4.43631 40.9809 4.44109 40.6042 4.43999C52.2219 4.41463 62.232 12.3338 66.3365 22.9739C66.5622 23.5503 66.7719 24.1329 66.9655 24.7218C67.1558 25.27 67.3231 25.8395 67.2824 26.4261C67.2409 27.9809 65.981 29.4802 64.367 29.4621C64.9508 29.4501 65.8268 29.5301 66.3758 29.2943C67.6438 28.8344 68.4181 27.4678 68.3611 26.1484C68.3542 25.6555 68.1971 25.1844 68.0421 24.7218C67.8481 24.1351 67.6389 23.5537 67.4144 22.9774C66.7043 21.1627 65.8279 19.4175 64.7964 17.7642C62.8146 14.58 60.2399 11.8058 57.2121 9.59237Z" fill="url(#paint12_linear_101_693)"/>
<path d="M82.2405 71.277C82.0753 65.1277 77.3563 59.4242 70.9693 59.419H69.8932C76.4836 59.436 81.2273 65.4357 81.1739 71.7674C81.2283 78.0982 76.4812 84.1006 69.8932 84.1158C71.1137 84.1358 72.408 84.1122 73.5862 83.7797C79.0638 82.3513 82.4897 76.7887 82.2405 71.277Z" fill="url(#paint13_linear_101_693)"/>
<path d="M82.2466 34.9575C82.2345 34.6875 82.1914 34.4198 82.1181 34.1596C81.9672 33.6274 81.6833 33.1424 81.2931 32.7502C81.1258 32.585 80.9399 32.4398 80.7392 32.3174C80.5711 32.2171 80.3932 32.1341 80.2082 32.0697C79.6963 31.8644 78.8104 31.937 78.2656 31.9255C79.8108 31.9078 81.0556 33.305 81.1596 34.7949C81.2404 37.3373 80.5733 39.8475 79.2412 42.0145C77.2804 45.2417 73.716 47.4899 69.8932 47.4585C70.6943 47.4577 71.6575 47.4803 72.4423 47.3532C75.0306 46.9922 77.4176 45.5996 79.1227 43.6354L79.1256 43.6319C79.5646 43.1268 79.9623 42.5872 80.3151 42.0184C80.3159 42.0172 80.3166 42.016 80.3172 42.0147C80.4688 41.769 80.6116 41.5173 80.7476 41.2623L80.7499 41.2577C81.7654 39.315 82.2799 37.1494 82.2466 34.9575Z" fill="url(#paint14_linear_101_693)"/>
<path d="M15.2695 80.7807C15.2385 79.9499 14.897 79.1609 14.3124 78.5697C14.1456 78.4057 13.9606 78.2614 13.7609 78.1396C13.7593 78.1386 13.7576 78.1378 13.756 78.1369C13.5898 78.038 13.414 77.956 13.2314 77.8923L13.2298 77.8918C12.718 77.6865 11.8319 77.759 11.2875 77.7476C12.9589 77.732 14.2288 79.327 14.1968 80.9326C14.229 82.5371 12.9581 84.1329 11.2875 84.1162C11.5471 84.1103 12.459 84.1339 12.699 84.0944C13.5595 83.9918 14.3253 83.4444 14.7743 82.7133L14.7748 82.7124C15.1287 82.1323 15.301 81.4596 15.2695 80.7807Z" fill="url(#paint15_linear_101_693)"/>
<path d="M33.4948 44.2741C33.4948 42.5182 34.7999 41.0891 36.4041 41.0891C40.2631 41.2628 40.2618 47.2854 36.4041 47.4583C34.7999 47.4584 33.4948 46.0298 33.4948 44.2741Z" fill="#FFF2DC"/>
<path d="M48.9624 77.7476C55.1827 77.7476 60.2441 83.2877 60.2441 90.096C60.2441 91.8519 58.939 93.281 57.3348 93.281C55.7306 93.281 54.4256 91.8523 54.4256 90.096C54.4256 86.7991 51.9751 84.1158 48.9624 84.1158H28.0325C26.4283 84.1158 25.1228 82.688 25.1228 80.9322C25.1228 79.1763 26.4283 77.7471 28.0325 77.7471L48.9624 77.7476Z" fill="#FFF2DC"/>
<path d="M30.9408 62.6025C30.9408 64.3585 29.6362 65.7875 28.0325 65.7875H15.4379C11.9787 65.7875 8.5766 64.4965 5.85923 62.1505C-4.48006 53.2344 -0.474902 34.8938 12.6925 32.1672C13.8471 17.5039 25.5824 4.3729 40.6045 4.4404C52.8303 4.33976 63.6486 13.4652 67.1349 25.2502C67.6478 26.9162 66.8245 28.7323 65.2993 29.2946C63.7563 29.8707 62.0912 28.9199 61.601 27.2862C52.4132 0.897317 18.7611 8.4256 18.3827 35.107C18.3827 36.8654 17.0779 38.294 15.4738 38.294C10.153 38.294 5.82428 43.0324 5.82428 48.8561C5.82428 54.6798 10.153 59.4197 15.4738 59.4197H28.0325C29.6362 59.4189 30.9408 60.8465 30.9408 62.6025Z" fill="#FFF2DC"/>
<path d="M69.8931 59.4189C84.853 60.0884 84.8559 83.4453 69.8931 84.1158C66.0278 83.939 66.0412 77.9181 69.8931 77.7475C72.9049 77.7475 75.3563 75.0642 75.3563 71.7668C75.3563 68.4694 72.9049 65.7861 69.893 65.7861H40.5907C36.745 65.6203 36.7192 59.5958 40.5907 59.418L69.8931 59.4189Z" fill="#FFF2DC"/>
<path d="M50.2398 44.2741C50.2398 42.5182 51.5449 41.0891 53.1491 41.0891H69.893C72.9049 41.0891 75.3563 38.4068 75.3563 35.1089C75.3563 33.353 76.6604 31.9253 78.2655 31.9253C79.8706 31.9253 81.1739 33.3531 81.1739 35.1089C81.1739 41.9183 76.1132 47.4583 69.893 47.4583H53.1491C51.5449 47.4584 50.2398 46.0298 50.2398 44.2741Z" fill="#FFF2DC"/>
<path d="M11.2875 77.7476C12.8913 77.7476 14.1967 79.1762 14.1967 80.9327C14.037 85.1561 8.53794 85.1554 8.37869 80.9327C8.37869 79.1762 9.68336 77.7476 11.2875 77.7476Z" fill="#FFF2DC"/>
<defs>
<filter id="filter0_f_101_693" x="1.39359" y="1.43958" width="87.1737" height="94.8414" filterUnits="userSpaceOnUse" color-interpolation-filters="sRGB">
<feFlood flood-opacity="0" result="BackgroundImageFix"/>
<feBlend mode="normal" in="SourceGraphic" in2="BackgroundImageFix" result="shape"/>
<feGaussianBlur stdDeviation="1.5" result="effect1_foregroundBlur_101_693"/>
</filter>
<linearGradient id="paint0_linear_101_693" x1="53.4583" y1="0.341553" x2="53.4583" y2="97.3759" gradientUnits="userSpaceOnUse">
<stop stop-color="#D34A0F"/>
<stop offset="1" stop-color="#F87C56"/>
</linearGradient>
<linearGradient id="paint1_linear_101_693" x1="53.4583" y1="0.341553" x2="53.4583" y2="97.3759" gradientUnits="userSpaceOnUse">
<stop stop-color="#D34A0F"/>
<stop offset="1" stop-color="#F87C56"/>
</linearGradient>
<linearGradient id="paint2_linear_101_693" x1="53.4583" y1="0.341553" x2="53.4583" y2="97.3759" gradientUnits="userSpaceOnUse">
<stop stop-color="#D34A0F"/>
<stop offset="1" stop-color="#F87C56"/>
</linearGradient>
<linearGradient id="paint3_linear_101_693" x1="53.4583" y1="0.341553" x2="53.4583" y2="97.3759" gradientUnits="userSpaceOnUse">
<stop stop-color="#D34A0F"/>
<stop offset="1" stop-color="#F87C56"/>
</linearGradient>
<linearGradient id="paint4_linear_101_693" x1="53.4583" y1="0.341553" x2="53.4583" y2="97.3759" gradientUnits="userSpaceOnUse">
<stop stop-color="#D34A0F"/>
<stop offset="1" stop-color="#F87C56"/>
</linearGradient>
<linearGradient id="paint5_linear_101_693" x1="53.4583" y1="0.341553" x2="53.4583" y2="97.3759" gradientUnits="userSpaceOnUse">
<stop stop-color="#D34A0F"/>
<stop offset="1" stop-color="#F87C56"/>
</linearGradient>
<linearGradient id="paint6_linear_101_693" x1="53.4583" y1="0.341553" x2="53.4583" y2="97.3759" gradientUnits="userSpaceOnUse">
<stop stop-color="#D34A0F"/>
<stop offset="1" stop-color="#F87C56"/>
</linearGradient>
<linearGradient id="paint7_linear_101_693" x1="53.4583" y1="0.341553" x2="53.4583" y2="97.3759" gradientUnits="userSpaceOnUse">
<stop stop-color="#D34A0F"/>
<stop offset="1" stop-color="#F87C56"/>
</linearGradient>
<linearGradient id="paint8_linear_101_693" x1="53.4583" y1="0.341553" x2="53.4583" y2="97.3759" gradientUnits="userSpaceOnUse">
<stop stop-color="#D34A0F"/>
<stop offset="1" stop-color="#F87C56"/>
</linearGradient>
<linearGradient id="paint9_linear_101_693" x1="44.0377" y1="4.43973" x2="44.0377" y2="93.2824" gradientUnits="userSpaceOnUse">
<stop stop-color="#F7A175"/>
<stop offset="1" stop-color="#FFF2DC"/>
</linearGradient>
<linearGradient id="paint10_linear_101_693" x1="44.0377" y1="4.43973" x2="44.0377" y2="93.2824" gradientUnits="userSpaceOnUse">
<stop stop-color="#F7A175"/>
<stop offset="1" stop-color="#FFF2DC"/>
</linearGradient>
<linearGradient id="paint11_linear_101_693" x1="44.0377" y1="4.43973" x2="44.0377" y2="93.2824" gradientUnits="userSpaceOnUse">
<stop stop-color="#F7A175"/>
<stop offset="1" stop-color="#FFF2DC"/>
</linearGradient>
<linearGradient id="paint12_linear_101_693" x1="44.0377" y1="4.43973" x2="44.0377" y2="93.2824" gradientUnits="userSpaceOnUse">
<stop stop-color="#F7A175"/>
<stop offset="1" stop-color="#FFF2DC"/>
</linearGradient>
<linearGradient id="paint13_linear_101_693" x1="44.0377" y1="4.43973" x2="44.0377" y2="93.2824" gradientUnits="userSpaceOnUse">
<stop stop-color="#F7A175"/>
<stop offset="1" stop-color="#FFF2DC"/>
</linearGradient>
<linearGradient id="paint14_linear_101_693" x1="44.0377" y1="4.43973" x2="44.0377" y2="93.2824" gradientUnits="userSpaceOnUse">
<stop stop-color="#F7A175"/>
<stop offset="1" stop-color="#FFF2DC"/>
</linearGradient>
<linearGradient id="paint15_linear_101_693" x1="44.0377" y1="4.43973" x2="44.0377" y2="93.2824" gradientUnits="userSpaceOnUse">
<stop stop-color="#F7A175"/>
<stop offset="1" stop-color="#FFF2DC"/>
</linearGradient>
</defs>
</svg>
