<svg width="90" height="88" viewBox="0 0 90 88" fill="none" xmlns="http://www.w3.org/2000/svg">
<path d="M36.7355 36.7357C40.6118 36.9098 43.3006 40.6304 43.0936 44.3532C42.9792 47.943 40.1805 51.2897 36.4526 51.2842H40.7694C41.24 51.283 41.709 51.2282 42.1672 51.121C43.8812 50.7255 45.3612 49.5649 46.2775 48.0783L46.2797 48.0748C48.6836 44.2367 47.1601 38.6029 42.7536 37.0587C42.7517 37.0581 42.7498 37.0575 42.748 37.0568C42.1504 36.8534 41.5252 36.7429 40.8941 36.7291C38.0751 36.7254 9.03906 36.7291 7.151 36.7278H36.452C36.5474 36.7278 36.6416 36.7313 36.7355 36.7357Z" fill="url(#paint0_linear_101_690)"/>
<path d="M22.2932 61.9881C22.1994 59.2561 20.5477 56.5517 17.9717 55.5129C17.3243 55.2465 16.6356 55.0945 15.9361 55.0636C15.7918 55.0479 11.539 55.0585 11.3361 55.0557C15.2049 55.0534 18.0257 58.6194 17.9843 62.3344C18.0275 66.0494 15.202 69.6131 11.3361 69.6119H15.653C16.1236 69.6105 16.5926 69.5558 17.0508 69.4486C18.7644 69.0533 20.2443 67.893 21.1605 66.4067C21.9715 65.0802 22.3661 63.5411 22.2932 61.9881Z" fill="url(#paint1_linear_101_690)"/>
<path d="M44.6734 73.3729C44.7343 73.3775 44.7958 73.3829 44.8572 73.3845H49.174C48.8975 73.3807 48.6246 73.3217 48.3713 73.2107C47.5797 72.6565 46.6715 72.291 45.7166 72.1424C45.1298 72.0112 41.1637 72.0958 40.4897 72.0734C41.766 72.0802 43.0098 72.477 44.0541 73.2108C44.0726 73.2208 44.0903 73.2289 44.1122 73.2381L44.1136 73.2387C44.1376 73.2487 44.1643 73.2587 44.1935 73.2687L44.1953 73.2694C44.2923 73.3017 44.3914 73.3273 44.4918 73.346H44.4924C44.5505 73.3575 44.6129 73.3645 44.6734 73.3729Z" fill="url(#paint2_linear_101_690)"/>
<path d="M64.1622 71.5002C64.2107 64.7365 60.1508 58.0391 53.6234 55.8024C52.6459 55.4685 51.6343 55.2441 50.6072 55.1334C49.5856 54.9955 45.9094 55.0759 44.8262 55.0559C53.6198 55.0915 59.9054 63.0525 59.8456 71.5003C59.9055 79.9472 53.6152 87.9071 44.8262 87.941C45.5098 87.9346 49.4327 87.9651 50.0147 87.9127C50.8542 87.8602 51.6872 87.7307 52.5031 87.526C56.2929 86.5867 59.5587 83.9987 61.5895 80.6931C61.7912 80.3659 61.9811 80.0309 62.1622 79.6915C62.1633 79.6895 62.1643 79.6875 62.1653 79.6854C63.484 77.159 64.1692 74.3501 64.1622 71.5002Z" fill="url(#paint3_linear_101_690)"/>
<path d="M89.2796 53.1686C89.3282 46.4036 85.2624 39.7046 78.7323 37.4722C77.7574 37.1395 76.7485 36.9158 75.7242 36.8053C74.7033 36.6674 71.0263 36.7477 69.9433 36.7278C78.7342 36.7636 85.0221 44.722 84.9626 53.1686C85.0225 61.6163 78.7339 69.5775 69.9433 69.6119C70.6264 69.6054 74.5497 69.6359 75.1313 69.5836C75.9709 69.5311 76.8039 69.4016 77.6198 69.1968C81.4076 68.2582 84.6719 65.6722 86.7028 62.3693C86.9056 62.0404 87.0967 61.7037 87.2788 61.3624L87.282 61.3562C88.6011 58.829 89.2866 56.0193 89.2796 53.1686Z" fill="url(#paint4_linear_101_690)"/>
<path d="M7.81764 18.4358C11.5418 18.8413 14.0274 22.5067 13.7849 26.1139C13.6372 29.6633 10.8359 32.9632 7.15149 32.9532H11.4684C11.939 32.952 12.408 32.8972 12.8662 32.79C14.5794 32.3944 16.0589 31.2342 16.975 29.7481L16.9768 29.745C19.0218 26.4886 18.2524 21.7962 15.0644 19.5589C14.2825 19.0019 13.3831 18.6321 12.4356 18.4778C11.7808 18.3285 7.88614 18.426 7.15168 18.3998C7.37413 18.4006 7.5964 18.4126 7.81764 18.4358Z" fill="url(#paint5_linear_101_690)"/>
<path d="M53.1965 14.624C52.8697 14.6362 52.5513 14.7304 52.2704 14.898C51.2895 15.5196 50.1523 15.85 48.991 15.8507H53.3079C54.4692 15.85 55.6064 15.5196 56.5874 14.898C56.8682 14.7304 57.1867 14.6362 57.5135 14.624H53.1965Z" fill="url(#paint6_linear_101_690)"/>
<path d="M68.6158 27.5756C69.106 26.9847 69.555 26.3609 69.9598 25.7085C70.1634 25.3776 70.3564 25.0402 70.5389 24.6962C74.5214 17.1905 72.4345 7.15668 65.2302 2.41087C63.3629 1.17309 61.2274 0.398282 59.0008 0.150624C57.9125 -0.000340939 54.326 0.0952067 53.1898 0.0696465C61.9861 0.104293 68.2785 8.05809 68.2193 16.5112C68.2792 24.9596 61.9874 32.918 53.1973 32.952C55.0111 32.9155 58.443 33.0966 60.1817 32.6924C63.4841 32.0516 66.4782 30.1558 68.6158 27.5756Z" fill="url(#paint7_linear_101_690)"/>
<path d="M89.2721 25.3303C89.2448 24.7139 89.1465 24.1027 88.979 23.5089C88.3727 21.3469 86.7449 19.4416 84.5911 18.7221C84.0496 18.5384 83.4849 18.4324 82.9137 18.4072C82.8199 18.402 82.7256 18.3989 82.6313 18.3993H78.3143C82.1832 18.3969 85.005 21.9606 84.9639 25.6767C85.0071 29.3915 82.18 32.9544 78.3143 32.9526H82.6313C83.1023 32.9513 83.5715 32.8966 84.03 32.7893C85.745 32.3937 87.226 31.2318 88.1422 29.7441C88.9515 28.4188 89.3451 26.8814 89.2721 25.3303Z" fill="url(#paint8_linear_101_690)"/>
<path d="M7.15155 51.2838C3.48397 51.2838 0.501953 48.0189 0.501953 44.0052C0.501953 39.9914 3.48357 36.7277 7.15155 36.7277H36.4527C45.2663 37.1188 45.2762 50.8874 36.4527 51.2841L7.15155 51.2838Z" fill="#F87C56"/>
<path d="M11.3361 55.0554C20.1534 55.4498 20.154 69.2185 11.3361 69.6118H7.15155C3.48397 69.6118 0.501953 66.3486 0.501953 62.3344C0.501953 58.3203 3.48357 55.0557 7.15155 55.0557L11.3361 55.0554Z" fill="#F87C56"/>
<path d="M44.826 55.0554C64.7505 55.951 64.7411 87.0514 44.826 87.9409C42.1735 87.9199 39.5788 87.1635 37.3304 85.756C31.4895 82.3153 33.3599 72.223 40.4899 72.0732C41.7666 72.0777 43.011 72.4749 44.0543 73.2107C45.2088 73.768 46.5427 72.9329 46.5496 71.5001C46.5496 70.4604 45.7756 69.6118 44.8258 69.6118H28.0819C19.2673 69.2204 19.2616 55.4508 28.0819 55.0553L44.826 55.0554Z" fill="#F87C56"/>
<path d="M69.9435 36.7278C89.8649 37.6216 89.8609 68.7204 69.9435 69.6119C61.1172 69.2146 61.1305 55.4468 69.9435 55.0553C70.8933 55.0553 71.6648 54.2083 71.6648 53.1683C71.6648 52.1283 70.8933 51.2839 69.9435 51.2839H53.1966C49.5323 51.2839 46.5498 48.019 46.5498 44.0053C46.5498 39.9915 49.5323 36.7278 53.1966 36.7278H69.9435Z" fill="#F87C56"/>
<path d="M7.15155 32.9524C3.48397 32.9524 0.501953 29.6885 0.501953 25.6765C0.866785 16.0229 13.4334 16.0224 13.7976 25.6765C13.7979 29.6887 10.8163 32.9524 7.15155 32.9524Z" fill="#F87C56"/>
<path d="M23.8951 32.9524C15.0801 32.5599 15.0737 18.7945 23.8951 18.3991H53.1966C55.4748 18.2987 55.4922 14.7329 53.1966 14.6239C52.8698 14.636 52.5514 14.7303 52.2706 14.8979C49.1869 16.9084 44.9457 15.5814 43.2414 12.2321C41.3995 8.69628 42.515 4.2425 45.6986 2.25479C47.9447 0.846444 50.5382 0.090169 53.1892 0.0704041C73.1225 0.959818 73.1201 32.0606 53.1965 32.9529L23.8951 32.9524Z" fill="#F87C56"/>
<path d="M78.3135 32.9524C74.6464 32.9524 71.6648 29.6886 71.6648 25.6765C72.0296 16.0216 84.5992 16.0242 84.9627 25.6765C84.9627 29.6888 81.9811 32.9524 78.3135 32.9524Z" fill="#F87C56"/>
<g style="mix-blend-mode:multiply" opacity="0.4" filter="url(#filter0_f_101_690)">
<path d="M45.1483 59.1504C60.1136 59.824 60.105 83.1771 45.1505 83.8486C43.1505 83.8321 41.1945 83.2606 39.5004 82.1976C36.8634 80.7366 37.6522 76.2381 40.8129 76.1681C41.3705 76.17 41.914 76.3436 42.3695 76.6653C43.2014 77.1751 44.1532 77.4559 45.1286 77.4792C52.3948 77.168 52.3973 65.843 45.1486 65.5188H28.4037C26.7996 65.5188 25.4953 64.0897 25.4953 62.3338C25.4953 60.5778 26.7996 59.1498 28.4037 59.1498L45.1483 59.1504Z" fill="#D34A0F"/>
<path d="M70.2647 40.8206C85.2262 41.4915 85.2264 64.8485 70.2647 65.519C66.402 65.3424 66.4108 59.3216 70.2647 59.1504C77.51 58.8249 77.5104 47.515 70.2647 47.1901H53.5198C51.9156 47.1901 50.6114 45.7615 50.6114 44.0056C50.6114 42.2496 51.9156 40.8205 53.5198 40.8205L70.2647 40.8206Z" fill="#D34A0F"/>
<path d="M11.6591 59.1504C15.5172 59.323 15.5176 65.3456 11.6591 65.519H7.47331C3.61562 65.3459 3.61442 59.3233 7.47331 59.1504H11.6591Z" fill="#D34A0F"/>
<path d="M7.47329 47.1902C3.62169 47.0205 3.60862 40.9969 7.47329 40.8207H36.7755C40.6272 40.9905 40.6412 47.014 36.7755 47.1902H7.47329Z" fill="#D34A0F"/>
<path d="M7.47332 28.8612C5.86922 28.8612 4.56409 27.4327 4.56409 25.6762C4.72444 21.4515 10.2226 21.4528 10.3825 25.6762C10.3825 27.4327 9.07712 28.8612 7.47332 28.8612Z" fill="#D34A0F"/>
<path d="M24.2176 28.8612C20.3657 28.6915 20.352 22.6689 24.2176 22.4923H53.5199C56.5326 22.4923 58.9829 19.8099 58.9829 16.5116C59.0176 12.0696 54.5481 9.04182 50.8223 11.2944C49.4096 12.2343 47.5815 11.6721 46.7959 10.173C45.9931 8.63016 46.48 6.68182 47.8735 5.81227C49.5683 4.74955 51.5251 4.17866 53.5255 4.16333C68.4822 4.83628 68.4802 28.1921 53.5198 28.8611L24.2176 28.8612Z" fill="#D34A0F"/>
<path d="M78.6363 28.8612C77.0326 28.8612 75.7279 27.4327 75.7279 25.6762C75.8877 21.4509 81.3858 21.4528 81.5459 25.6762C81.5459 27.4327 80.2404 28.8612 78.6363 28.8612Z" fill="#D34A0F"/>
</g>
<path d="M41.7473 77.4771C40.7941 77.4416 39.8659 77.1621 39.0515 76.6653C38.6732 76.4011 38.2351 76.2354 37.7766 76.1832C37.5814 76.1576 36.6314 76.1713 36.4186 76.1682C36.9759 76.1726 37.5188 76.346 37.9755 76.6653C38.5571 77.0154 39.1954 77.261 39.8616 77.3911H39.8624C40.3895 77.5085 41.2666 77.4757 41.8107 77.479C41.79 77.479 41.7686 77.4778 41.7473 77.4771Z" fill="url(#paint9_linear_101_690)"/>
<path d="M53.1019 71.0091C52.9663 65.8802 49.6074 60.87 44.5407 59.5115C43.8608 59.3268 43.1638 59.2123 42.4605 59.1699C42.0235 59.1365 41.1962 59.1551 40.7547 59.15C47.3451 59.1673 52.0886 65.1671 52.0353 71.4987C52.0897 77.8289 47.3443 83.8315 40.757 83.8482C41.9775 83.8682 43.2717 83.8443 44.4498 83.5114C49.926 82.0823 53.351 76.5198 53.1019 71.0091Z" fill="url(#paint10_linear_101_690)"/>
<path d="M78.2187 52.6802C78.0832 47.5509 74.7242 42.5406 69.6572 41.1818C68.9773 40.9971 68.2803 40.8827 67.577 40.8403C67.14 40.8068 66.3127 40.8255 65.8712 40.8204C72.462 40.8377 77.2056 46.838 77.1522 53.1701C77.2066 59.5002 72.4595 65.5036 65.8712 65.5186C66.6724 65.5178 67.6357 65.5405 68.4206 65.4134C71.0089 65.0521 73.3961 63.6597 75.1011 61.6952C75.1021 61.6942 75.103 61.6931 75.1039 61.6919C75.735 60.9657 76.2801 60.1691 76.7283 59.3177C77.795 57.2729 78.3088 54.9848 78.2187 52.6802Z" fill="url(#paint11_linear_101_690)"/>
<path d="M11.2473 62.183C11.2165 61.3523 10.875 60.5634 10.2905 59.9724C10.2284 59.9114 10.1634 59.8539 10.0977 59.7974C9.88332 59.6197 9.64454 59.4736 9.38878 59.3635C9.32957 59.3398 9.27026 59.3162 9.20996 59.295H9.2084C8.69639 59.0897 7.81057 59.1622 7.26582 59.1507C8.94211 59.1388 10.2035 60.7246 10.175 62.3348C10.207 63.9392 8.93691 65.5359 7.26582 65.5193C7.52541 65.5135 8.43718 65.5369 8.6768 65.4976C9.53546 65.3951 10.301 64.8492 10.7499 64.1197C10.7506 64.1186 10.7514 64.1175 10.7522 64.1164V64.1155C10.9366 63.8146 11.0727 63.4867 11.1556 63.1437C11.2302 62.8292 11.2611 62.5059 11.2473 62.183Z" fill="url(#paint12_linear_101_690)"/>
<path d="M36.3645 43.8541C36.3362 43.1322 36.0754 42.4388 35.6211 41.8772C35.554 41.7973 35.4846 41.7192 35.4103 41.646C35.3473 41.5838 35.2812 41.5254 35.2145 41.4679C34.9504 41.2484 34.6491 41.0781 34.3248 40.965C33.8129 40.7597 32.927 40.8322 32.3823 40.8207C34.0589 40.8089 35.3205 42.3956 35.292 44.0058C35.3241 45.6104 34.0532 47.2067 32.3823 47.1902C32.6419 47.1843 33.5538 47.2079 33.7936 47.1683C34.653 47.0659 35.4182 46.5194 35.8672 45.7905L35.8692 45.7875V45.7867C36.2235 45.2064 36.396 44.5333 36.3645 43.8541Z" fill="url(#paint13_linear_101_690)"/>
<path d="M3.36867 22.5081C4.96498 22.6678 6.08164 24.2768 5.98539 25.8229C5.95064 27.3769 4.69384 28.8774 3.07996 28.8609C3.39487 28.8533 4.27933 28.8852 4.57567 28.8273C5.40179 28.7004 6.12965 28.1665 6.56418 27.4611C6.56477 27.4601 6.56562 27.4591 6.56632 27.458L6.56681 27.457C6.64267 27.3325 6.71094 27.2035 6.77128 27.0708C6.85447 26.8818 6.92104 26.6859 6.97018 26.4854L6.97135 26.4793C7.09339 25.9733 7.09801 25.446 6.98481 24.9379C6.87161 24.4299 6.64359 23.9544 6.31827 23.5481C6.25127 23.4682 6.18194 23.39 6.10766 23.317C5.94028 23.1517 5.75431 23.0064 5.55345 22.8839C5.55185 22.883 5.55007 22.8821 5.54857 22.8811C5.38229 22.7823 5.20652 22.7004 5.0239 22.6366L5.02244 22.6361C4.51053 22.4308 3.62461 22.5034 3.07996 22.4919C3.17631 22.4937 3.27312 22.4987 3.36867 22.5081Z" fill="url(#paint14_linear_101_690)"/>
<path d="M46.4289 11.2946C45.9814 11.5909 45.4579 11.7516 44.9212 11.7576H45.9974C46.534 11.7516 47.0575 11.5909 47.505 11.2946C48.3231 10.8113 49.2525 10.5485 50.2025 10.5316H49.1263C48.1763 10.5485 47.247 10.8114 46.4289 11.2946Z" fill="url(#paint15_linear_101_690)"/>
<path d="M50.691 4.28207C56.9413 5.25056 60.8934 11.4729 60.3668 17.5626C59.9574 23.5009 55.2941 28.8623 49.1262 28.8612C49.9276 28.8605 50.8909 28.8829 51.6759 28.7559C54.2644 28.3947 56.6516 27.0023 58.3568 25.0378L58.3596 25.0344C58.9896 24.3094 59.5339 23.5142 59.9817 22.6646C59.9824 22.6632 59.9832 22.6617 59.984 22.6603C63.4449 16.1359 60.7487 7.25861 53.5698 4.72396L53.5642 4.7221C52.7093 4.42962 51.8198 4.25027 50.9183 4.18871C50.4611 4.14977 49.5996 4.16695 49.1321 4.16345C49.654 4.16398 50.1751 4.20363 50.691 4.28207Z" fill="url(#paint16_linear_101_690)"/>
<path d="M78.225 25.5253C78.1941 24.696 77.8537 23.9083 77.2709 23.3175C76.9649 23.0125 76.5945 22.78 76.1869 22.637L76.1852 22.6365C75.6733 22.4312 74.7874 22.5037 74.2426 22.4923C76.7039 22.5263 77.897 25.4949 76.6538 27.4572C76.6531 27.4585 76.6522 27.4598 76.6513 27.4611C76.1462 28.2898 75.225 28.8695 74.2426 28.8613C74.4623 28.857 75.4009 28.8741 75.6006 28.8461C76.1886 28.78 76.7402 28.5282 77.1754 28.1273C77.3889 27.9314 77.5747 27.7074 77.7278 27.4615L77.7299 27.4585V27.4576C78.084 26.8773 78.2564 26.2044 78.225 25.5253Z" fill="url(#paint17_linear_101_690)"/>
<path d="M40.7547 59.1504C55.72 59.824 55.7113 83.1771 40.7569 83.8486C38.757 83.8321 36.8009 83.2606 35.1068 82.1976C32.4698 80.7366 33.2587 76.2381 36.4192 76.1681C36.9769 76.17 37.5205 76.3435 37.976 76.6653C38.8078 77.1751 39.7597 77.4559 40.7351 77.4792C48.0012 77.168 48.0038 65.843 40.7551 65.5188H24.0101C22.406 65.5188 21.1017 64.0897 21.1017 62.3338C21.1017 60.5778 22.406 59.1498 24.0101 59.1498L40.7547 59.1504Z" fill="#FFF2DC"/>
<path d="M65.8712 40.8206C80.8327 41.4915 80.8328 64.8485 65.8712 65.519C62.0084 65.3424 62.0172 59.3216 65.8712 59.1504C73.1165 58.8249 73.1168 47.515 65.8712 47.1901H49.1263C47.5222 47.1901 46.2179 45.7615 46.2179 44.0056C46.2179 42.2496 47.5222 40.8205 49.1263 40.8205L65.8712 40.8206Z" fill="#FFF2DC"/>
<path d="M7.26555 59.1504C11.1236 59.323 11.1239 65.3456 7.26555 65.519H3.07989C-0.777903 65.3459 -0.779001 59.3233 3.07989 59.1504H7.26555Z" fill="#FFF2DC"/>
<path d="M3.07978 47.1902C-0.771822 47.0205 -0.785002 40.9969 3.07978 40.8207H32.382C36.2337 40.9905 36.2476 47.014 32.382 47.1902H3.07978Z" fill="#FFF2DC"/>
<path d="M3.07977 28.8612C1.47567 28.8612 0.170532 27.4327 0.170532 25.6762C0.330882 21.4515 5.82906 21.4528 5.98891 25.6762C5.98891 27.4327 4.68397 28.8612 3.07977 28.8612Z" fill="#FFF2DC"/>
<path d="M19.8239 28.8612C15.972 28.6915 15.9582 22.6689 19.8239 22.4923H49.1262C52.1389 22.4923 54.5893 19.8099 54.5893 16.5116C54.624 12.0696 50.1545 9.04182 46.4287 11.2944C45.016 12.2343 43.1878 11.6721 42.4023 10.173C41.5994 8.63016 42.0863 6.68182 43.4799 5.81227C45.1747 4.74953 47.1315 4.17864 49.1319 4.16333C64.0886 4.83628 64.0866 28.1921 49.1261 28.8611L19.8239 28.8612Z" fill="#FFF2DC"/>
<path d="M74.2427 28.8612C72.6389 28.8612 71.3343 27.4327 71.3343 25.6762C71.4946 21.4509 76.9923 21.4528 77.1524 25.6762C77.1524 27.4327 75.8468 28.8612 74.2427 28.8612Z" fill="#FFF2DC"/>
<defs>
<filter id="filter0_f_101_690" x="1.56409" y="1.16333" width="82.9818" height="85.6852" filterUnits="userSpaceOnUse" color-interpolation-filters="sRGB">
<feFlood flood-opacity="0" result="BackgroundImageFix"/>
<feBlend mode="normal" in="SourceGraphic" in2="BackgroundImageFix" result="shape"/>
<feGaussianBlur stdDeviation="1.5" result="effect1_foregroundBlur_101_690"/>
</filter>
<linearGradient id="paint0_linear_101_690" x1="48.2158" y1="0.0629578" x2="48.2158" y2="87.9441" gradientUnits="userSpaceOnUse">
<stop stop-color="#D34A0F"/>
<stop offset="1" stop-color="#F87C56"/>
</linearGradient>
<linearGradient id="paint1_linear_101_690" x1="48.2158" y1="0.0629578" x2="48.2158" y2="87.9441" gradientUnits="userSpaceOnUse">
<stop stop-color="#D34A0F"/>
<stop offset="1" stop-color="#F87C56"/>
</linearGradient>
<linearGradient id="paint2_linear_101_690" x1="48.2158" y1="0.0629578" x2="48.2158" y2="87.9441" gradientUnits="userSpaceOnUse">
<stop stop-color="#D34A0F"/>
<stop offset="1" stop-color="#F87C56"/>
</linearGradient>
<linearGradient id="paint3_linear_101_690" x1="48.2158" y1="0.0629578" x2="48.2158" y2="87.9441" gradientUnits="userSpaceOnUse">
<stop stop-color="#D34A0F"/>
<stop offset="1" stop-color="#F87C56"/>
</linearGradient>
<linearGradient id="paint4_linear_101_690" x1="48.2158" y1="0.0629578" x2="48.2158" y2="87.9441" gradientUnits="userSpaceOnUse">
<stop stop-color="#D34A0F"/>
<stop offset="1" stop-color="#F87C56"/>
</linearGradient>
<linearGradient id="paint5_linear_101_690" x1="48.2158" y1="0.0629578" x2="48.2158" y2="87.9441" gradientUnits="userSpaceOnUse">
<stop stop-color="#D34A0F"/>
<stop offset="1" stop-color="#F87C56"/>
</linearGradient>
<linearGradient id="paint6_linear_101_690" x1="48.2158" y1="0.0629578" x2="48.2158" y2="87.9441" gradientUnits="userSpaceOnUse">
<stop stop-color="#D34A0F"/>
<stop offset="1" stop-color="#F87C56"/>
</linearGradient>
<linearGradient id="paint7_linear_101_690" x1="48.2158" y1="0.0629578" x2="48.2158" y2="87.9441" gradientUnits="userSpaceOnUse">
<stop stop-color="#D34A0F"/>
<stop offset="1" stop-color="#F87C56"/>
</linearGradient>
<linearGradient id="paint8_linear_101_690" x1="48.2158" y1="0.0629578" x2="48.2158" y2="87.9441" gradientUnits="userSpaceOnUse">
<stop stop-color="#D34A0F"/>
<stop offset="1" stop-color="#F87C56"/>
</linearGradient>
<linearGradient id="paint9_linear_101_690" x1="40.6544" y1="4.1626" x2="40.6544" y2="83.8533" gradientUnits="userSpaceOnUse">
<stop stop-color="#F7A175"/>
<stop offset="1" stop-color="#FFF2DC"/>
</linearGradient>
<linearGradient id="paint10_linear_101_690" x1="40.6544" y1="4.1626" x2="40.6544" y2="83.8533" gradientUnits="userSpaceOnUse">
<stop stop-color="#F7A175"/>
<stop offset="1" stop-color="#FFF2DC"/>
</linearGradient>
<linearGradient id="paint11_linear_101_690" x1="40.6544" y1="4.1626" x2="40.6544" y2="83.8533" gradientUnits="userSpaceOnUse">
<stop stop-color="#F7A175"/>
<stop offset="1" stop-color="#FFF2DC"/>
</linearGradient>
<linearGradient id="paint12_linear_101_690" x1="40.6544" y1="4.1626" x2="40.6544" y2="83.8533" gradientUnits="userSpaceOnUse">
<stop stop-color="#F7A175"/>
<stop offset="1" stop-color="#FFF2DC"/>
</linearGradient>
<linearGradient id="paint13_linear_101_690" x1="40.6544" y1="4.1626" x2="40.6544" y2="83.8533" gradientUnits="userSpaceOnUse">
<stop stop-color="#F7A175"/>
<stop offset="1" stop-color="#FFF2DC"/>
</linearGradient>
<linearGradient id="paint14_linear_101_690" x1="40.6544" y1="4.1626" x2="40.6544" y2="83.8533" gradientUnits="userSpaceOnUse">
<stop stop-color="#F7A175"/>
<stop offset="1" stop-color="#FFF2DC"/>
</linearGradient>
<linearGradient id="paint15_linear_101_690" x1="40.6544" y1="4.1626" x2="40.6544" y2="83.8533" gradientUnits="userSpaceOnUse">
<stop stop-color="#F7A175"/>
<stop offset="1" stop-color="#FFF2DC"/>
</linearGradient>
<linearGradient id="paint16_linear_101_690" x1="40.6544" y1="4.1626" x2="40.6544" y2="83.8533" gradientUnits="userSpaceOnUse">
<stop stop-color="#F7A175"/>
<stop offset="1" stop-color="#FFF2DC"/>
</linearGradient>
<linearGradient id="paint17_linear_101_690" x1="40.6544" y1="4.1626" x2="40.6544" y2="83.8533" gradientUnits="userSpaceOnUse">
<stop stop-color="#F7A175"/>
<stop offset="1" stop-color="#FFF2DC"/>
</linearGradient>
</defs>
</svg>
