<svg width="69" height="98" viewBox="0 0 69 98" fill="none" xmlns="http://www.w3.org/2000/svg">
<path d="M18.2317 24.6973H13.9149V45.5284H18.2317V24.6973Z" fill="url(#paint0_linear_101_698)"/>
<path d="M34.9774 26.2266H30.6605V43.9989H34.9774V26.2266Z" fill="url(#paint1_linear_101_698)"/>
<path d="M51.7218 27.737H47.4049V42.4886H51.7218V27.737Z" fill="url(#paint2_linear_101_698)"/>
<path d="M68.4591 21.0301C68.3901 19.1211 67.6047 17.3081 66.2593 15.952C65.6658 15.3624 64.9663 14.8901 64.1976 14.56L64.196 14.5593C63.6974 14.3481 63.1728 14.2045 62.6362 14.1321C62.4152 14.0921 18.4875 10.1183 18.2319 10.0884C18.2101 8.88775 18.3346 6.91593 18.0129 5.76752C17.5085 3.62596 16.0228 1.69254 13.976 0.830583C13.3314 0.557532 12.6449 0.396666 11.9461 0.354859C11.9733 0.328001 7.39586 0.351432 7.26816 0.343744C10.1237 0.317285 12.6213 2.42332 13.4946 5.07529C13.6963 5.6667 13.8265 6.28009 13.8825 6.90242C13.9424 7.42061 13.9057 9.53763 13.915 10.0885C14.1703 10.1184 58.1 14.0929 58.3187 14.1322C58.8555 14.2049 59.3803 14.3486 59.8793 14.5596L59.8808 14.5602C61.7643 15.3558 63.1799 17.0592 63.7868 18.9944C63.9945 19.6545 64.1141 20.3391 64.1425 21.0306C64.1471 21.145 64.1496 21.2602 64.1492 21.3754V48.8618C64.1544 50.0949 63.865 51.3115 63.3049 52.4102C62.5261 53.9389 61.1951 55.2041 59.5719 55.7893C59.1686 55.934 58.7514 56.0368 58.327 56.096C58.2291 56.1093 58.1308 56.1209 58.0316 56.1296L13.915 60.1382V90.1015C13.915 90.3663 13.9003 90.6292 13.8751 90.892C13.8176 91.4776 13.694 92.055 13.5068 92.6129C12.6407 95.2808 10.137 97.4054 7.26807 97.38C7.84716 97.3672 11.8829 97.4238 12.3501 97.33C13.8902 97.1432 15.32 96.3345 16.342 95.1774C17.0515 94.376 17.5796 93.4309 17.8902 92.4066C17.9346 92.2554 17.9776 92.1046 18.0144 91.9509C18.1342 91.4459 18.205 90.9304 18.2259 90.4118C18.2298 90.3089 18.2318 90.2054 18.2318 90.1013V60.138L62.3485 56.1294C62.4476 56.1207 62.546 56.1095 62.6438 56.0958C63.262 56.0102 63.8636 55.8309 64.4278 55.564C66.5158 54.5855 67.9615 52.4919 68.3482 50.2413C68.4273 49.7857 68.4666 49.324 68.4659 48.8616V21.375C68.466 21.2595 68.4643 21.1445 68.4591 21.0301Z" fill="url(#paint3_linear_101_698)"/>
<path d="M58.0403 14.0999C61.4743 14.4019 64.1613 17.5982 64.1489 21.3749V48.8613C64.1613 52.6338 61.473 55.8293 58.0314 56.1292L13.9148 60.1378V90.1011C13.9148 94.1149 10.9322 97.3798 7.26791 97.3798C3.60083 97.3798 0.619385 94.1154 0.619385 90.1011V7.61962C0.98162 -2.01287 13.5342 -2.0553 13.9148 7.61962V10.0882L58.0403 14.0999ZM17.3627 45.2258V25.0002L13.9148 24.6973V45.5284L17.3627 45.2258ZM34.1066 43.6782V26.5474L30.6603 26.2267V43.999L34.1066 43.6782ZM50.8505 42.1679V28.059L47.4045 27.737V42.4886L50.8505 42.1679Z" fill="#F87C56"/>
<g style="mix-blend-mode:multiply" opacity="0.4" filter="url(#filter0_f_101_698)">
<path d="M58.0519 18.1786C59.561 18.3109 60.7364 19.7098 60.7314 21.3637V48.8615C60.7364 50.5197 59.561 51.9178 58.0556 52.0508C48.5014 52.9164 19.605 55.5387 10.4986 56.3731V90.1021C10.3476 94.3009 4.85304 94.3528 4.67981 90.1021V7.62112C4.83247 3.41896 10.3264 3.37283 10.4986 7.62112V13.8556C19.5115 14.6814 48.5826 17.3192 58.0519 18.1786ZM21.4245 49.006V21.2232L10.4983 20.2661V49.9631L21.4245 49.006ZM38.1685 47.4416V22.7865L27.2425 21.7704V48.4588L38.1688 47.4415L38.1685 47.4416ZM54.9128 45.9291V24.2992L43.9871 23.2826V46.9465L54.9127 45.9293" fill="#D34A0F"/>
</g>
<path d="M7.181 20.2661H6.10474V49.9631H7.181V20.2661Z" fill="url(#paint4_linear_101_698)"/>
<path d="M23.9251 21.7704H22.8489V48.4589H23.9251V21.7704Z" fill="url(#paint5_linear_101_698)"/>
<path d="M40.6699 23.2826H39.5938V46.9465H40.6699V23.2826Z" fill="url(#paint6_linear_101_698)"/>
<path d="M57.4111 21.2129C57.407 21.1085 57.3978 21.0048 57.3844 20.9016C57.3844 20.9004 57.3844 20.899 57.3839 20.8976C57.2798 20.0876 56.8775 19.3456 56.2556 18.8163C56.1434 18.7238 56.0248 18.6393 55.9008 18.5634C55.8991 18.5625 55.8975 18.5612 55.8957 18.5601C55.7826 18.4932 55.6655 18.4334 55.5449 18.3812L55.5436 18.3807C55.4261 18.332 55.3057 18.2908 55.1831 18.2572C45.3639 17.2576 16.5859 14.7538 7.18041 13.8556V7.62113C7.18111 7.5159 7.17421 7.41146 7.16613 7.30702C7.10842 6.64269 6.85323 6.01083 6.43338 5.49276C6.36639 5.41289 6.29701 5.33461 6.22282 5.26163C6.15782 5.19773 6.09009 5.13692 6.0206 5.07861C5.75858 4.86163 5.46001 4.69308 5.13882 4.58095H5.13721C4.94994 4.51767 4.75641 4.47466 4.55998 4.45259C4.36299 4.42443 3.41019 4.44069 3.19482 4.43669C4.58146 4.42122 5.7608 5.56184 6.02479 6.88478C6.17675 7.00649 6.07844 13.491 6.1047 13.856C15.3595 14.7479 44.4336 17.2589 54.1354 18.266C54.8734 18.482 55.4984 18.9766 55.8784 19.6451C56.1816 20.1669 56.3401 20.7603 56.3376 21.3638C56.3317 21.521 56.3453 48.8747 56.3348 49.0107C56.3149 49.5219 56.18 50.0219 55.94 50.4737C55.7555 50.8312 55.5004 51.1477 55.1902 51.404C54.88 51.6603 54.5211 51.8511 54.1352 51.9648C44.3305 52.9776 15.5065 55.4709 6.1046 56.3738V90.1027C6.10449 90.455 6.05061 90.8051 5.94484 91.1411C5.58739 92.3324 4.46793 93.301 3.19521 93.2868C3.51032 93.2792 4.39464 93.3112 4.69108 93.2532C5.51869 93.1262 6.24725 92.5904 6.68187 91.8836L6.68241 91.8828C6.947 91.451 7.1108 90.9652 7.16164 90.4613C7.17419 90.3419 7.18051 90.222 7.18061 90.1019V56.3729C16.5717 55.4282 45.6 53.0417 55.4089 51.9019C56.4455 51.5294 57.1798 50.539 57.362 49.4679V49.4673C57.3963 49.2671 57.4136 49.0644 57.4136 48.8614C57.4111 48.7122 57.4195 21.3425 57.4111 21.2129Z" fill="url(#paint7_linear_101_698)"/>
<path d="M53.6583 18.1786C55.1673 18.3109 56.3428 19.7098 56.3378 21.3637V48.8615C56.3428 50.5197 55.1673 51.9178 53.662 52.0508C44.1076 52.9164 15.2119 55.5387 6.10495 56.3731V90.1021C5.95378 94.3009 0.459363 94.3528 0.286133 90.1021V7.62112C0.438795 3.41896 5.93262 3.37283 6.10495 7.62112V13.8556C15.1178 14.6814 44.189 17.3192 53.6583 18.1786ZM17.0308 49.006V21.2232L6.10475 20.2661V49.9631L17.0308 49.006ZM33.7747 47.4416V22.7865L22.8488 21.7704V48.4588L33.7752 47.4415L33.7747 47.4416ZM50.5192 45.9291V24.2992L39.5939 23.2826V46.9465L50.5195 45.9293" fill="#FFF2DC"/>
<defs>
<filter id="filter0_f_101_698" x="1.67981" y="1.45218" width="62.0516" height="94.8185" filterUnits="userSpaceOnUse" color-interpolation-filters="sRGB">
<feFlood flood-opacity="0" result="BackgroundImageFix"/>
<feBlend mode="normal" in="SourceGraphic" in2="BackgroundImageFix" result="shape"/>
<feGaussianBlur stdDeviation="1.5" result="effect1_foregroundBlur_101_698"/>
</filter>
<linearGradient id="paint0_linear_101_698" x1="37.867" y1="0.341553" x2="37.867" y2="97.3854" gradientUnits="userSpaceOnUse">
<stop stop-color="#D34A0F"/>
<stop offset="1" stop-color="#F87C56"/>
</linearGradient>
<linearGradient id="paint1_linear_101_698" x1="37.867" y1="0.341553" x2="37.867" y2="97.3854" gradientUnits="userSpaceOnUse">
<stop stop-color="#D34A0F"/>
<stop offset="1" stop-color="#F87C56"/>
</linearGradient>
<linearGradient id="paint2_linear_101_698" x1="37.867" y1="0.341553" x2="37.867" y2="97.3854" gradientUnits="userSpaceOnUse">
<stop stop-color="#D34A0F"/>
<stop offset="1" stop-color="#F87C56"/>
</linearGradient>
<linearGradient id="paint3_linear_101_698" x1="37.867" y1="0.341553" x2="37.867" y2="97.3854" gradientUnits="userSpaceOnUse">
<stop stop-color="#D34A0F"/>
<stop offset="1" stop-color="#F87C56"/>
</linearGradient>
<linearGradient id="paint4_linear_101_698" x1="30.3049" y1="4.43558" x2="30.3049" y2="93.2889" gradientUnits="userSpaceOnUse">
<stop stop-color="#F7A175"/>
<stop offset="1" stop-color="#FFF2DC"/>
</linearGradient>
<linearGradient id="paint5_linear_101_698" x1="30.3049" y1="4.43558" x2="30.3049" y2="93.2889" gradientUnits="userSpaceOnUse">
<stop stop-color="#F7A175"/>
<stop offset="1" stop-color="#FFF2DC"/>
</linearGradient>
<linearGradient id="paint6_linear_101_698" x1="30.3049" y1="4.43558" x2="30.3049" y2="93.2889" gradientUnits="userSpaceOnUse">
<stop stop-color="#F7A175"/>
<stop offset="1" stop-color="#FFF2DC"/>
</linearGradient>
<linearGradient id="paint7_linear_101_698" x1="30.3049" y1="4.43558" x2="30.3049" y2="93.2889" gradientUnits="userSpaceOnUse">
<stop stop-color="#F7A175"/>
<stop offset="1" stop-color="#FFF2DC"/>
</linearGradient>
</defs>
</svg>
