<svg width="90" height="98" viewBox="0 0 90 98" fill="none" xmlns="http://www.w3.org/2000/svg">
<path d="M13.85 31.1519C13.8945 32.1608 14.1762 33.145 14.6724 34.0245C15.1685 34.904 15.8651 35.6542 16.7056 36.2141C17.3708 36.6522 18.1211 36.9448 18.9073 37.0727C19.4458 37.2054 23.4533 37.1186 24.0841 37.1419C20.7993 37.1614 18.1439 34.1334 18.1616 30.9273C18.5997 25.8881 20.6587 20.9712 24.0894 17.2372H19.7725C16.3417 20.9714 14.2827 25.8881 13.8447 30.9273C13.8452 31.0022 13.8469 31.0771 13.85 31.1519Z" fill="url(#paint0_linear_101_687)"/>
<path d="M24.7053 51.6857C31.0215 51.4995 36.7357 47.7618 39.9971 42.4356C41.8758 39.3751 42.986 35.9054 43.2327 32.3227C43.4561 28.8307 43.0094 25.3055 42.0473 21.9466C40.488 16.5514 37.5443 11.6211 33.857 7.41305C32.0293 5.34387 30.0384 3.39859 27.8292 1.74317L27.8239 1.73927C27.0022 1.12021 26.0413 0.711988 25.0253 0.550251C24.4102 0.411368 20.4684 0.500289 19.7677 0.477025C22.1173 0.482217 23.5329 1.6705 25.2223 3.11715C27.4628 5.05917 29.5034 7.22049 31.3135 9.56887C36.0925 15.7208 39.1375 23.313 38.9691 31.1727C38.8039 41.8094 30.8238 51.6499 19.7677 51.6978C20.1748 51.6933 24.4269 51.7095 24.7053 51.6857Z" fill="url(#paint1_linear_101_687)"/>
<path d="M48.6067 82.9312C45.5866 82.6217 43.2588 79.7305 43.2793 76.7491C43.7175 71.7101 45.7766 66.7931 49.2071 63.0592H44.8903C41.4596 66.7933 39.4006 71.71 38.9625 76.7491C38.9595 79.1884 40.4777 81.5741 42.7366 82.5253C43.3159 82.771 43.9329 82.9159 44.5609 82.9538C44.5232 82.9652 49.0789 82.9661 49.1993 82.9638C49.0014 82.963 48.8036 82.952 48.6067 82.9312Z" fill="url(#paint2_linear_101_687)"/>
<path d="M49.6678 97.5148C56.5855 97.3629 62.7041 93.0119 65.8536 86.9636C67.9183 83.0796 68.6936 78.5957 68.3236 74.2285C67.7894 66.4824 64.1792 59.2081 59.1253 53.41C57.7433 51.8135 56.2485 50.3184 54.6522 48.9363C53.7762 48.2069 52.9237 47.4347 51.8991 46.9255C51.2352 46.5996 50.5177 46.3969 49.7814 46.3273C49.445 46.2493 45.3229 46.3248 44.8851 46.2988C46.2279 46.3048 47.5331 46.7431 48.6074 47.5488C50.8245 49.2076 52.8229 51.1599 54.6564 53.2352C58.3999 57.5086 61.3812 62.5274 62.917 68.0203C63.8321 71.3019 64.2489 74.7398 64.0322 78.1445C63.7762 81.8769 62.5818 85.4842 60.5596 88.6317C57.145 93.9548 51.2799 97.5516 44.8826 97.5208C45.0483 97.5194 49.7062 97.5266 49.6678 97.5148Z" fill="url(#paint3_linear_101_687)"/>
<path d="M69.5372 37.1089C66.5171 36.7993 64.1886 33.9083 64.2098 30.9268C64.6474 25.8876 66.7068 20.9709 70.1371 17.2367H65.8202C62.3899 20.9709 60.3305 25.8875 59.8929 30.9268C59.9016 31.973 60.166 33.0012 60.663 33.9218C61.16 34.8425 61.8746 35.6277 62.7444 36.209C63.4111 36.6498 64.1638 36.944 64.9527 37.0721C65.4919 37.2051 69.4985 37.1182 70.1298 37.1414C69.9319 37.1405 69.734 37.1296 69.5372 37.1089Z" fill="url(#paint4_linear_101_687)"/>
<path d="M88.8445 25.1531C87.7115 18.8055 84.5844 12.9359 80.4442 8.04068C78.4748 5.72649 76.3007 3.56243 73.8701 1.73717L73.8566 1.72718L73.8551 1.7263C73.4458 1.42307 73.0027 1.16842 72.5347 0.967472C71.9118 0.702252 71.2492 0.541998 70.5739 0.493211C70.4776 0.461061 66.0401 0.481931 65.815 0.47644C67.1581 0.482304 68.4635 0.920416 69.5382 1.72591L69.5526 1.7359C71.7643 3.39332 73.7572 5.34027 75.587 7.41124C79.3306 11.6846 82.312 16.7037 83.8479 22.1969C84.763 25.4786 85.1799 28.9172 84.9632 32.3219C84.7072 36.0541 83.5127 39.661 81.4905 42.8083C78.0758 48.1314 72.2104 51.7277 65.8129 51.6969C66.9045 51.6837 70.5156 51.7406 71.5289 51.6408C72.5613 51.5596 73.5844 51.3868 74.5862 51.1246C79.3673 49.8942 83.4795 46.6081 86.0483 42.4282C89.3158 37.1437 89.934 31.1842 88.8445 25.1531Z" fill="url(#paint5_linear_101_687)"/>
<path d="M38.9748 30.6718C38.9748 42.2661 30.3582 51.6978 19.7676 51.6978C9.17701 51.6978 0.559448 42.2661 0.559448 30.6718C0.559448 14.5302 13.3935 3.77754 15.966 1.78804C18.2435 0.0560402 21.2411 0.0469165 23.4929 1.7293C23.5914 1.79759 38.9748 12.7697 38.9748 30.6718ZM19.7676 37.1418C23.026 37.1418 25.6758 34.2383 25.6758 30.6718C25.2552 25.7095 23.1317 20.8605 19.7728 17.2368C16.4252 20.8769 14.2948 25.7546 13.845 30.9267C13.8573 34.238 16.5098 37.1414 19.7676 37.1414" fill="#F87C56"/>
<path d="M48.6073 47.5489C48.7082 47.6211 64.0911 58.5917 64.0911 76.4938C64.0911 88.0892 55.4746 97.521 44.8825 97.521C34.2921 97.521 25.6758 88.0888 25.6758 76.4938C25.6758 60.3534 38.51 49.6001 41.0835 47.6105C43.3579 45.8782 46.357 45.8696 48.6073 47.5489ZM44.8825 82.9637C48.1409 82.9637 50.7933 80.0603 50.7933 76.4938C50.3722 71.5315 48.2473 66.6842 44.8902 63.0593C41.5427 66.6995 39.4123 71.5772 38.9624 76.7493C38.9748 80.0605 41.6246 82.9639 44.8825 82.9639" fill="#F87C56"/>
<path d="M69.5382 1.72649C69.6392 1.79758 85.0221 12.7693 85.0221 30.6714C85.0221 42.2657 76.4056 51.6973 65.8129 51.6973C55.223 51.6973 46.6068 42.2657 46.6068 30.6714C46.6068 14.5298 59.4409 3.77708 62.0134 1.78758C64.2902 0.056078 67.2855 0.0481087 69.5382 1.72649ZM65.8129 37.1413C69.0718 37.1413 71.7237 34.2379 71.7237 30.6714C71.3026 25.7091 69.1769 20.8601 65.8195 17.2363C62.4726 20.8764 60.3417 25.7542 59.8924 30.9263C59.9042 34.2376 62.554 37.1409 65.8124 37.1409" fill="#F87C56"/>
<g style="mix-blend-mode:multiply" opacity="0.4" filter="url(#filter0_f_101_687)">
<path d="M79.5453 20.3764C80.9113 23.7505 81.6033 27.2146 81.6033 30.6735C81.6033 40.0089 74.6652 47.6039 66.1366 47.6039C57.6079 47.6039 50.6691 40.0087 50.6691 30.6735C50.6691 27.3069 51.3413 23.9211 52.6671 20.6092C53.7496 17.9034 55.2725 15.2322 57.1909 12.669C60.3071 8.50695 63.5672 5.84539 64.4922 5.1291C64.9614 4.76969 65.5355 4.57386 66.1265 4.57157C66.7176 4.56928 67.2931 4.76066 67.7651 5.11643C70.8239 7.20038 77.2461 14.1231 79.5453 20.3764ZM75.7854 30.6735C75.221 23.2914 71.7708 16.4357 66.1331 11.8343C60.5745 16.3845 57.0788 23.3165 56.4925 30.5413C56.9451 44.7003 75.2551 44.7064 75.7854 30.6735Z" fill="#D34A0F"/>
<path d="M53.9895 58.1912C58.1013 63.5634 60.6874 69.8945 60.6732 76.4955C60.6732 85.8309 53.7341 93.4269 45.2056 93.4269C36.6772 93.4269 29.7381 85.8312 29.7381 76.4955C29.7381 73.1294 30.4104 69.7436 31.7362 66.4312C32.8197 63.7265 34.3422 61.0545 36.2609 58.4909C39.376 54.3298 42.6364 51.6678 43.5613 50.9511C44.0308 50.5918 44.605 50.3961 45.1962 50.394C45.7874 50.3919 46.3631 50.5834 46.8351 50.9394C46.8942 50.9817 50.4446 53.541 53.9895 58.1912ZM54.8549 76.4955C54.2911 69.1126 50.8401 62.2595 45.2023 57.6563C39.645 62.2074 36.1473 69.1385 35.5625 76.3633C36.0153 90.523 54.3244 90.5277 54.8549 76.4955Z" fill="#D34A0F"/>
<path d="M35.5569 30.6735C34.7035 53.1339 5.47246 53.1296 4.62128 30.6735C4.40582 20.4732 11.7283 10.3038 18.445 5.12891C18.9143 4.76942 19.4885 4.57357 20.0797 4.57128C20.6709 4.56899 21.2466 4.76039 21.7188 5.11623C21.7778 5.15846 25.3282 7.71784 28.8727 12.3688C32.9849 17.7428 35.5714 24.0708 35.5569 30.6735ZM29.7382 30.6735C29.1745 23.2906 25.7235 16.4368 20.0859 11.8343C14.5272 16.3844 11.0317 23.316 10.446 30.5413C10.898 44.7006 29.208 44.706 29.7382 30.6735Z" fill="#D34A0F"/>
</g>
<path d="M57.4568 40.1311C57.9097 40.3796 58.383 40.5891 58.8715 40.7572L58.8737 40.7579C59.6045 41.008 60.3648 41.1614 61.1354 41.2139C61.5394 41.2488 62.4043 41.2316 62.8193 41.2355C60.9541 41.2298 59.1368 40.6446 57.6189 39.5608C56.8932 39.0447 56.2394 38.4341 55.675 37.7453C55.2579 37.2353 54.8884 36.6881 54.5712 36.1106L54.5703 36.1091C53.645 34.3998 53.1652 32.485 53.1752 30.5413C53.7898 23.288 57.1827 16.4815 62.8158 11.8343H61.7397C56.1065 16.4811 52.7137 23.2889 52.099 30.5413C52.089 32.485 52.5688 34.3998 53.4941 36.1091L53.4949 36.1106C53.813 36.6895 54.1835 37.2379 54.6018 37.7491L54.6025 37.7499C55.1662 38.4368 55.8186 39.0457 56.5427 39.5608L56.5452 39.5626C56.838 39.7692 57.1424 39.959 57.4568 40.1311Z" fill="url(#paint6_linear_101_687)"/>
<path d="M63.621 4.69469C63.1367 4.51258 62.2564 4.58237 61.7431 4.57008C62.3356 4.57467 62.911 4.76937 63.3846 5.12552C63.5491 5.24533 63.7115 5.37143 63.8751 5.50032L63.8771 5.50203C64.3971 5.91409 64.9009 6.34572 65.3973 6.79153C65.3986 6.79272 65.3999 6.79404 65.4012 6.79504C70.3873 11.3389 74.4636 17.109 76.2612 23.6651C77.8134 29.4789 77.6708 35.5014 74.2419 40.6336C71.4993 44.8076 66.7918 47.6369 61.7431 47.604C63.0041 47.6198 64.332 47.5963 65.5656 47.3365C69.757 46.5277 73.4175 43.7562 75.6331 40.1455C78.1692 36.0498 78.7134 31.4656 77.992 26.7674C77.1285 20.9711 74.3229 15.6068 70.6135 11.1228C69.3417 9.5817 67.9593 8.13531 66.4773 6.79504C65.9799 6.34803 65.4745 5.91509 64.9532 5.50203C64.7934 5.37543 64.6197 5.24134 64.4608 5.12552C64.4552 5.12152 64.4508 5.11824 64.4487 5.11684C64.2689 4.98524 64.075 4.87405 63.8705 4.78528C63.8076 4.75822 63.7436 4.73361 63.6788 4.71225C63.6601 4.70576 63.6401 4.70079 63.621 4.69469Z" fill="url(#paint7_linear_101_687)"/>
<path d="M31.1784 76.8559C31.27 79.2829 32.1232 81.6911 33.6719 83.5713L33.6725 83.572C34.2363 84.2591 34.8889 84.8682 35.6132 85.3834L35.6147 85.3843C36.3298 85.8905 37.113 86.2928 37.9411 86.579L37.9432 86.5797C38.6737 86.8298 39.4339 86.9831 40.2043 87.0356C40.6083 87.0704 41.4732 87.0534 41.888 87.0572C40.0242 87.0515 38.2082 86.4669 36.691 85.3843L36.689 85.383C35.9647 84.8679 35.3121 84.2588 34.7483 83.5717L34.7451 83.5677C33.0918 81.5608 32.2365 78.9543 32.2448 76.3631C32.8624 69.0989 36.2471 62.3138 41.8846 57.6561H40.8085C35.1708 62.3134 31.7858 69.0999 31.1686 76.3631C31.1683 76.5287 31.1739 76.6922 31.1784 76.8559Z" fill="url(#paint8_linear_101_687)"/>
<path d="M42.2653 93.4216C47.3879 93.3186 52.0682 90.2847 54.706 85.9626C57.3535 81.6866 57.8186 76.8901 56.9678 72.0117C56.0103 66.4331 53.2693 61.2835 49.6856 56.9484C47.8596 54.756 45.837 52.7063 43.5676 50.976C43.5476 50.9614 43.5329 50.9505 43.5177 50.9396C43.3367 50.8073 43.1416 50.6955 42.9359 50.6063C42.6825 50.4996 42.4143 50.4321 42.1406 50.4061C41.9709 50.383 41.0011 50.3961 40.8121 50.393C41.3995 50.3973 41.9703 50.5888 42.4414 50.9396L42.4537 50.9485C47.9896 55.226 52.8528 61.6086 54.9816 68.3071C55.9639 71.4051 56.4453 74.6877 56.2231 77.9362C56.0105 80.7801 55.1213 83.5319 53.6297 85.9626C50.9174 90.4039 46.0815 93.4579 40.8121 93.4269C41.0936 93.4257 41.9994 93.4309 42.2653 93.4216Z" fill="url(#paint9_linear_101_687)"/>
<path d="M6.06203 31.0347C6.15349 33.4602 7.00579 35.8672 8.55298 37.7464C8.55377 37.7473 8.55447 37.7484 8.55527 37.7493C9.11956 38.4371 9.77285 39.0468 10.4979 39.5624C10.9531 39.8835 11.4357 40.1638 11.9401 40.4002L11.9427 40.4015C12.2302 40.5349 12.5248 40.6529 12.8242 40.757L12.8264 40.7576C13.5571 41.0077 14.3174 41.1611 15.088 41.2137C15.4918 41.2483 16.3568 41.2314 16.7716 41.2352C14.9076 41.2294 13.0914 40.6449 11.574 39.5624L11.5721 39.5609C8.69902 37.5407 7.10403 34.0167 7.12829 30.541C7.74263 23.2868 11.1344 16.4819 16.7682 11.834H15.692C10.0562 16.4847 6.66748 23.2842 6.05214 30.541C6.05184 30.7067 6.05744 30.8707 6.06203 31.0347Z" fill="url(#paint10_linear_101_687)"/>
<path d="M29.6295 21.7747C30.4341 24.0703 30.9289 26.463 31.1008 28.8895C31.2978 31.462 31.0478 34.0793 30.2103 36.5265C28.1354 42.7834 22.4392 47.6281 15.6961 47.604C16.7816 47.6118 17.9563 47.6114 19.0224 47.4243C22.4847 46.883 25.6645 44.9954 27.9522 42.3622C28.8176 41.3669 29.5651 40.275 30.1802 39.1083C32.3244 35.0686 32.6242 30.6363 31.8518 26.1897C30.5345 18.6178 26.0394 11.9046 20.4264 6.79189C20.4251 6.7906 20.4238 6.78953 20.4224 6.78834C19.7863 6.21862 19.1369 5.66487 18.4554 5.15616L18.4191 5.12949C18.2343 4.9928 18.0346 4.87755 17.8238 4.78594L17.8202 4.78423C17.5665 4.67738 17.2981 4.60979 17.024 4.58376C16.8543 4.5606 15.8846 4.57374 15.6961 4.57065C16.2834 4.5752 16.854 4.76645 17.3255 5.11672C17.3409 5.1279 17.3554 5.13836 17.3754 5.15304C18.0582 5.66225 18.7088 6.21742 19.3463 6.78834L19.3503 6.79189C23.8591 10.8967 27.6033 15.9896 29.6295 21.7747Z" fill="url(#paint11_linear_101_687)"/>
<path d="M75.1521 20.3764C76.5181 23.7505 77.2101 27.2146 77.2101 30.6735C77.2101 40.0089 70.272 47.6039 61.7434 47.6039C53.2148 47.6039 46.2758 40.0087 46.2758 30.6735C46.2758 27.3069 46.9482 23.9211 48.274 20.6092C49.3565 17.9034 50.8792 15.2322 52.7978 12.669C55.914 8.50695 59.174 5.84539 60.099 5.1291C60.5682 4.76968 61.1423 4.57386 61.7333 4.57157C62.3244 4.56928 62.9 4.76065 63.372 5.11643C66.4302 7.20038 72.8526 14.1231 75.1521 20.3764ZM71.3923 30.6735C70.8277 23.2914 67.3775 16.4357 61.74 11.8343C56.1814 16.3845 52.6856 23.3165 52.0993 30.5413C52.5519 44.7003 70.862 44.7064 71.3923 30.6735Z" fill="#FFF2DC"/>
<path d="M49.596 58.1912C53.7077 63.5634 56.2938 69.8945 56.2797 76.4955C56.2797 85.8309 49.3405 93.4269 40.8121 93.4269C32.2837 93.4269 25.3445 85.8312 25.3445 76.4955C25.3445 73.1294 26.0169 69.7436 27.3426 66.4312C28.426 63.7265 29.9486 61.0545 31.8673 58.4909C34.9824 54.3298 38.2428 51.6678 39.1677 50.9511C39.6372 50.5918 40.2114 50.3961 40.8026 50.394C41.3938 50.3919 41.9694 50.5834 42.4415 50.9394C42.5006 50.9817 46.0511 53.541 49.596 58.1912ZM50.4614 76.4955C49.8975 69.1126 46.4465 62.2595 40.8087 57.6563C35.2514 62.2074 31.7537 69.1385 31.1689 76.3633C31.6217 90.523 49.9309 90.5277 50.4614 76.4955Z" fill="#FFF2DC"/>
<path d="M31.1633 30.6735C30.3099 53.1339 1.07884 53.1296 0.227661 30.6735C0.0122969 20.4732 7.3348 10.3038 14.0513 5.12891C14.5207 4.76942 15.0949 4.57357 15.6861 4.57128C16.2773 4.56899 16.853 4.76039 17.3251 5.11623C17.3843 5.15846 20.9347 7.71784 24.4791 12.3688C28.5913 17.7428 31.1778 24.0708 31.1633 30.6735ZM25.3445 30.6735C24.781 23.2906 21.33 16.4368 15.6923 11.8343C10.1336 16.3844 6.63806 23.316 6.05247 30.5413C6.50447 44.7006 24.8145 44.706 25.3445 30.6735Z" fill="#FFF2DC"/>
<defs>
<filter id="filter0_f_101_687" x="1.61664" y="1.57126" width="82.9866" height="94.8557" filterUnits="userSpaceOnUse" color-interpolation-filters="sRGB">
<feFlood flood-opacity="0" result="BackgroundImageFix"/>
<feBlend mode="normal" in="SourceGraphic" in2="BackgroundImageFix" result="shape"/>
<feGaussianBlur stdDeviation="1.5" result="effect1_foregroundBlur_101_687"/>
</filter>
<linearGradient id="paint0_linear_101_687" x1="51.5917" y1="0.470093" x2="51.5917" y2="97.5217" gradientUnits="userSpaceOnUse">
<stop stop-color="#D34A0F"/>
<stop offset="1" stop-color="#F87C56"/>
</linearGradient>
<linearGradient id="paint1_linear_101_687" x1="51.5917" y1="0.470093" x2="51.5917" y2="97.5217" gradientUnits="userSpaceOnUse">
<stop stop-color="#D34A0F"/>
<stop offset="1" stop-color="#F87C56"/>
</linearGradient>
<linearGradient id="paint2_linear_101_687" x1="51.5917" y1="0.470093" x2="51.5917" y2="97.5217" gradientUnits="userSpaceOnUse">
<stop stop-color="#D34A0F"/>
<stop offset="1" stop-color="#F87C56"/>
</linearGradient>
<linearGradient id="paint3_linear_101_687" x1="51.5917" y1="0.470093" x2="51.5917" y2="97.5217" gradientUnits="userSpaceOnUse">
<stop stop-color="#D34A0F"/>
<stop offset="1" stop-color="#F87C56"/>
</linearGradient>
<linearGradient id="paint4_linear_101_687" x1="51.5917" y1="0.470093" x2="51.5917" y2="97.5217" gradientUnits="userSpaceOnUse">
<stop stop-color="#D34A0F"/>
<stop offset="1" stop-color="#F87C56"/>
</linearGradient>
<linearGradient id="paint5_linear_101_687" x1="51.5917" y1="0.470093" x2="51.5917" y2="97.5217" gradientUnits="userSpaceOnUse">
<stop stop-color="#D34A0F"/>
<stop offset="1" stop-color="#F87C56"/>
</linearGradient>
<linearGradient id="paint6_linear_101_687" x1="42.1688" y1="4.5668" x2="42.1688" y2="93.4273" gradientUnits="userSpaceOnUse">
<stop stop-color="#F7A175"/>
<stop offset="1" stop-color="#FFF2DC"/>
</linearGradient>
<linearGradient id="paint7_linear_101_687" x1="42.1688" y1="4.5668" x2="42.1688" y2="93.4273" gradientUnits="userSpaceOnUse">
<stop stop-color="#F7A175"/>
<stop offset="1" stop-color="#FFF2DC"/>
</linearGradient>
<linearGradient id="paint8_linear_101_687" x1="42.1688" y1="4.5668" x2="42.1688" y2="93.4273" gradientUnits="userSpaceOnUse">
<stop stop-color="#F7A175"/>
<stop offset="1" stop-color="#FFF2DC"/>
</linearGradient>
<linearGradient id="paint9_linear_101_687" x1="42.1688" y1="4.5668" x2="42.1688" y2="93.4273" gradientUnits="userSpaceOnUse">
<stop stop-color="#F7A175"/>
<stop offset="1" stop-color="#FFF2DC"/>
</linearGradient>
<linearGradient id="paint10_linear_101_687" x1="42.1688" y1="4.5668" x2="42.1688" y2="93.4273" gradientUnits="userSpaceOnUse">
<stop stop-color="#F7A175"/>
<stop offset="1" stop-color="#FFF2DC"/>
</linearGradient>
<linearGradient id="paint11_linear_101_687" x1="42.1688" y1="4.5668" x2="42.1688" y2="93.4273" gradientUnits="userSpaceOnUse">
<stop stop-color="#F7A175"/>
<stop offset="1" stop-color="#FFF2DC"/>
</linearGradient>
</defs>
</svg>
