<svg width="94" height="90" viewBox="0 0 94 90" fill="none" xmlns="http://www.w3.org/2000/svg">
<path d="M36.7898 86.5689C36.2252 87.3431 35.505 87.9909 34.6756 88.4707C33.7356 89.0131 32.6704 89.3007 31.5851 89.3052C32.4872 89.2716 36.2501 89.4014 37.0622 89.1927C38.6938 88.8798 40.1539 87.8857 41.1236 86.5469C41.1289 86.5395 41.1343 86.5322 41.1395 86.5248H36.8228C36.812 86.5396 36.8007 86.5541 36.7898 86.5689Z" fill="url(#paint0_linear_101_692)"/>
<path d="M40.8573 57.2911C40.7037 57.1069 40.5428 56.9291 40.3729 56.7608C40.232 56.623 40.0861 56.4907 39.9352 56.3642C39.4427 55.9549 38.8934 55.6192 38.3044 55.3677L38.3017 55.3664C37.6641 55.0963 36.9858 54.9347 36.2949 54.8881L36.2876 54.8876C36.4123 54.8646 31.6641 54.8789 31.5858 54.8753C31.7142 54.8761 31.8428 54.8797 31.9707 54.8876L31.9779 54.8881C33.0559 54.9629 34.0964 55.3139 34.9994 55.9074C35.2139 56.0484 35.4205 56.2008 35.6185 56.3642L35.6208 56.3663C36.0741 56.7447 36.4781 57.1785 36.8233 57.6574H41.1401C41.0493 57.5311 40.9537 57.4106 40.8573 57.2911Z" fill="url(#paint1_linear_101_692)"/>
<path d="M28.9581 48.7333C29.1317 40.8797 35.1185 33.6305 43.2695 33.6168C41.5197 33.6541 38.0823 33.4742 36.4072 33.8638C33.3767 34.451 30.6126 36.1428 28.5941 38.4633C26.4358 40.9294 25.0994 44.0801 24.7406 47.3328C24.5861 48.4291 24.7086 49.5494 24.5031 50.6391C24.1451 52.6343 22.9623 54.4954 21.2211 55.5569C20.4693 56.0212 19.6267 56.319 18.7501 56.4304C18.1111 56.5116 17.4489 56.4348 16.8356 56.674C15.9961 56.9767 15.2856 57.5579 14.8225 58.3209C13.9793 59.6775 13.9439 61.4982 14.7632 62.8743L14.7646 62.8766C14.9963 63.2649 15.2932 63.6103 15.6421 63.8978C18.3208 65.8624 19.2343 69.691 18.0435 72.7413C17.1028 75.2781 14.6701 77.2221 11.9119 77.1992C12.1615 77.1973 16.5546 77.2133 16.6718 77.1815C17.3885 77.13 18.0906 76.9537 18.7466 76.6606C21.43 75.4782 23.0099 72.4951 22.8686 69.618V69.6155C22.8203 68.3285 22.4553 67.0733 21.8059 65.9611V65.9605C21.3885 65.255 20.8535 64.6261 20.2241 64.101C20.1503 64.0401 20.0749 63.9793 19.9979 63.924L19.9969 63.9232C19.9827 63.9132 19.9702 63.9047 19.9596 63.898C18.4948 62.7141 18.1054 60.5244 18.8677 58.8371C19.3587 57.7189 20.3626 56.8085 21.5719 56.5579C21.917 56.4766 22.2733 56.4842 22.6249 56.4713C22.9872 56.4512 23.347 56.3995 23.7003 56.3169C25.4145 55.9217 26.8954 54.7611 27.8116 53.2743L27.8127 53.2725C27.8145 53.2696 27.816 53.2666 27.8179 53.2637C28.6673 51.915 28.9951 50.3131 28.9581 48.7333Z" fill="url(#paint2_linear_101_692)"/>
<path d="M47.5619 19.3902C46.5172 19.2073 45.462 19.0911 44.4025 19.0422C43.5604 18.989 39.7804 19.0212 38.8718 19.013C40.5864 19.0126 42.2967 19.1852 43.9767 19.5284H48.2937C48.0506 19.478 47.8067 19.4319 47.5619 19.3902Z" fill="url(#paint3_linear_101_692)"/>
<path d="M58.2446 71.7849C58.1609 69.3745 56.8925 66.9929 54.8069 65.7381C54.5473 65.5815 54.277 65.4431 53.9981 65.324L53.9963 65.3231H53.9955C53.5314 65.1272 53.0453 64.9883 52.5478 64.9093C54.1387 60.7034 51.7075 55.4501 47.0194 54.91C47.0178 54.91 47.0163 54.91 47.0147 54.9094C46.7228 54.844 42.4704 54.8865 42.0577 54.8752C44.8859 54.8577 47.3606 56.8974 48.2586 59.5197C48.8757 61.2649 48.866 63.1705 48.231 64.9093C48.7286 64.9886 49.2149 65.1276 49.6793 65.3233L49.6816 65.3244C53.4465 66.9312 54.9139 71.6718 53.2626 75.3024C53.2619 75.304 53.261 75.3058 53.2603 75.3075C52.363 77.3453 50.4738 78.975 48.2448 79.3156C49.9052 83.7668 47.0667 89.2465 42.0577 89.3054H46.3745C47.949 89.3154 49.547 88.6532 50.7048 87.5535C52.9069 85.5088 53.5964 82.1088 52.562 79.3156C54.0544 79.0833 55.4232 78.273 56.4099 77.139C56.411 77.1378 56.4119 77.1365 56.4129 77.1354C56.5483 76.9786 56.6786 76.8173 56.8006 76.6494C56.8013 76.6485 56.8021 76.6477 56.8027 76.6468C57.107 76.2267 57.3675 75.7764 57.5799 75.303V75.302C58.069 74.1963 58.2965 72.9928 58.2446 71.7849Z" fill="url(#paint4_linear_101_692)"/>
<path d="M60.9822 25.5831C61.0291 24.1987 61.3175 22.8331 61.8345 21.548H57.5176C56.9016 23.0935 56.6086 24.7488 56.6566 26.4118C59.5912 29.11 61.9531 32.3709 63.6017 36.0006C64.1854 36.2529 64.7611 36.5247 65.3205 36.8274C66.364 36.8489 70.1051 36.8437 71.2126 36.8436L69.6373 36.8274C69.0781 36.5247 68.5024 36.2528 67.9185 36.0006C66.2701 32.3708 63.9083 29.1099 60.9736 26.4118C60.9735 26.1627 60.9716 25.8286 60.9822 25.5831Z" fill="url(#paint5_linear_101_692)"/>
<path d="M73.814 7.94695C73.8118 7.60775 73.7886 7.269 73.7442 6.93271V6.93154C73.6924 6.54976 73.6139 6.17204 73.5094 5.80117C73.3268 5.15932 73.0617 4.54388 72.7207 3.97024C72.3089 3.28392 71.7853 2.6712 71.1716 2.15744C70.2918 1.42145 69.2308 0.934812 68.099 0.748156C67.4724 0.601185 63.5404 0.695948 62.8287 0.670787C65.2282 0.65571 67.464 2.16472 68.568 4.26056C69.2833 5.60447 69.5966 7.12586 69.4705 8.64303C69.3906 9.5635 69.1138 10.4562 69.0772 11.3832C68.9866 12.7335 69.1311 14.0892 69.5045 15.3899L69.5057 15.3945C70.0296 17.242 71.0176 18.9246 72.3755 20.2824C73.4359 21.3399 74.721 22.1447 76.1354 22.637C76.9016 22.8991 77.6987 23.0597 78.5065 23.1148C78.7982 23.1586 83.048 23.1298 83.4589 23.1374C78.6969 23.1574 74.7677 19.456 73.7033 14.9435C73.3809 13.6317 73.2897 12.2737 73.4337 10.9305C73.5151 10.0504 73.7889 9.19848 73.8085 8.31176C73.8085 8.31056 73.8085 8.30935 73.8085 8.30816C73.8126 8.18784 73.8154 8.06746 73.814 7.94695Z" fill="url(#paint6_linear_101_692)"/>
<path d="M93.9112 29.9934C93.9112 29.7637 93.9012 29.5349 93.882 29.3068V29.3028C93.7381 27.6114 93.0379 25.9559 91.8452 24.7376C90.8047 23.6053 89.3671 22.8323 87.8307 22.6746H87.8301C87.52 22.6079 83.2872 22.6515 82.8587 22.6399C84.6259 22.6287 86.3418 23.4401 87.5283 24.7377C89.2174 26.4597 89.8938 29.0277 89.4739 31.3819C87.8004 38.9171 82.771 45.7819 75.6135 48.9023C77.6128 55.0806 77.0843 62.0762 74.0521 67.8314L74.0502 67.8351C72.3466 71.0758 69.8512 73.9136 66.7809 75.9197C65.2641 76.8664 63.6531 77.8767 61.803 77.8782H66.1199C67.0315 77.8649 67.9286 77.6483 68.7458 77.2441C72.3967 75.5084 75.4653 72.6448 77.5811 69.2116L77.5818 69.2104C77.8591 68.7614 78.121 68.303 78.3674 67.8354L78.3682 67.8339L78.3696 67.8309C79.0556 66.5236 79.6182 65.1552 80.05 63.7434C81.5131 58.8983 81.4716 53.7233 79.9309 48.9023C80.3602 48.712 80.7836 48.5094 81.201 48.2945C87.698 44.9528 92.219 38.4468 93.7913 31.3819C93.8704 30.9233 93.9105 30.4588 93.9112 29.9934Z" fill="url(#paint7_linear_101_692)"/>
<path d="M48.2306 64.909C55.7857 66.2719 55.7903 77.9411 48.2443 79.3153C49.4638 82.4749 48.2702 86.5833 45.3753 88.3364C42.5534 90.1635 38.7532 89.2929 36.8227 86.5246C35.5698 88.2597 33.639 89.3051 31.585 89.3051C26.7126 89.3242 23.6835 83.7359 25.3978 79.3153C17.845 77.9338 17.8635 66.2672 25.4141 64.909C23.6716 60.466 26.6972 54.8589 31.5851 54.8747C33.639 54.8747 35.5698 55.919 36.8227 57.6569C38.0799 55.9169 40.0087 54.8747 42.0572 54.8747C46.9468 54.858 49.9748 60.4753 48.2306 64.909Z" fill="#F87C56"/>
<path d="M87.5279 24.7377C89.1603 26.4064 89.9057 28.91 89.4734 31.3819C87.6363 39.4525 82.4496 45.896 75.6131 48.9021C76.4067 51.3413 76.8044 53.8918 76.7912 56.4568C76.8489 65.459 71.9964 73.6323 64.4282 77.2439C61.0807 78.9372 57.0198 77.0675 55.6635 73.514L55.5649 73.2399C54.2278 69.9807 55.7816 65.386 59.1213 63.9085C63.4394 61.9759 64.8457 55.8138 62.1755 51.9239C61.0406 50.1915 59.3568 49.0468 57.4359 48.6989C55.024 48.2536 53.0375 46.4143 52.244 43.8945C50.4543 38.0299 45.0466 33.5806 38.9527 33.6165C31.0582 33.6165 24.6525 40.6104 24.6327 49.21C24.6327 53.2162 21.6514 56.4798 17.9841 56.4798C14.3406 56.491 12.8068 61.5927 15.6422 63.8973C20.8463 67.7046 18.6945 77.0931 11.9118 77.1988C10.3335 77.1874 8.81634 76.5864 7.65839 75.5138C-2.96995 66.9917 -0.667688 48.1214 11.8912 42.9338C14.8288 27.1508 29.0001 16.4555 43.9772 19.5281C46.1077 10.3419 52.8219 3.01278 61.3821 0.844753C63.6508 0.28852 66.0117 1.0906 67.5959 2.87353C69.1924 4.64077 69.854 7.26126 69.3131 9.69966C69.1445 10.4933 69.056 11.3019 69.0489 12.1132C69.0489 18.1778 73.5759 23.1371 79.1431 23.1371C79.8718 23.123 80.5964 23.0242 81.3021 22.8424C83.5353 22.2445 85.9232 22.9849 87.5279 24.7377ZM66.8956 36.8436C68.2043 36.8418 69.4979 36.5647 70.6925 36.0303C64.6956 33.4058 59.8885 28.1252 57.5175 21.548C56.9009 23.0933 56.6079 24.7487 56.6567 26.4118C59.5931 29.1083 61.9553 32.3697 63.6017 36.0006C64.1859 36.2516 64.7608 36.5247 65.3204 36.8274L66.8956 36.8436Z" fill="#F87C56"/>
<g style="mix-blend-mode:multiply" opacity="0.4" filter="url(#filter0_f_101_692)">
<path d="M47.6019 68.9291C51.4605 69.1028 51.4593 75.1253 47.6019 75.2976H42.1411L44.9075 80.4229C45.6973 81.8572 45.2338 83.9359 43.8265 84.7861C42.4411 85.6821 40.5906 85.0947 39.834 83.606L37.1368 78.4769L34.4394 83.6042C33.6836 85.0947 31.8318 85.6826 30.447 84.786C29.0517 83.9082 28.5673 81.9517 29.366 80.4221L32.1324 75.2977H26.6709C25.0668 75.2977 23.7623 73.8699 23.7623 72.114C23.7623 70.358 25.0668 68.9289 26.6709 68.9289H32.1148L29.3649 63.757C28.5654 62.2341 29.049 60.2741 30.4467 59.3944C31.8308 58.4982 33.6825 59.0857 34.4379 60.5745L37.1365 65.7817L39.8378 60.5678C40.5892 59.0866 42.4451 58.4986 43.8262 59.3945C45.2231 60.2741 45.7067 62.2341 44.9039 63.7647L42.1573 68.9286L47.6019 68.9291Z" fill="#D34A0F"/>
<path d="M85.2167 27.6521C85.5872 28.0333 85.8623 28.4968 86.0195 29.0046C86.1768 29.5124 86.2117 30.0502 86.1215 30.5741C84.2701 38.707 78.2865 44.6776 70.7127 46.376C76.1303 55.8768 73.0291 68.8128 63.2497 73.4896C62.8853 73.6757 62.4833 73.7767 62.0742 73.7851C58.8379 73.6958 58.0923 69.0357 60.9168 67.6694C70.9691 62.8933 69.184 46.6911 58.3586 44.6607C57.3103 44.4682 56.4404 43.6631 56.0921 42.5599C53.8251 35.1288 46.9981 29.4818 39.275 29.5221C29.0492 29.3702 21.008 39.1083 21.2085 49.1988C21.2085 50.958 19.9031 52.3869 18.2991 52.3869C10.9914 52.4379 8.06778 62.596 13.7282 67.1878C15.2716 68.1914 15.5888 70.5331 14.4644 71.9609C13.4853 73.2931 11.567 73.4964 10.3672 72.368C1.20726 65.0299 4.14539 48.9325 15.5006 46.0868C17.1627 30.3382 32.0328 18.8379 47.2919 24.6122C47.8603 15.5357 53.632 7.06093 62.5322 4.83579C63.0207 4.72564 63.5301 4.75059 64.0055 4.90795C64.4809 5.06531 64.9044 5.34912 65.2307 5.72898C65.5849 6.13404 65.8385 6.61688 65.9712 7.13831C66.1038 7.65974 66.1117 8.20508 65.9942 8.73012C63.6057 18.9871 72.445 29.4763 82.4725 26.8262C82.7004 26.7646 82.9354 26.7332 83.1714 26.7328C83.5576 26.7349 83.939 26.8177 84.2913 26.9761C84.6435 27.1344 84.9587 27.3646 85.2167 27.6521ZM77.5677 35.8321L79.1363 33.8936C73.8009 33.2734 69.5387 31.6104 65.7305 27.4612C61.9515 23.371 60.3625 18.4731 59.8309 12.8611L58.0737 14.5063C54.9964 17.3874 53.2313 21.5827 53.2313 26.0158V28.4067C56.751 31.1824 59.5102 34.9719 61.1939 39.2915C62.4434 39.7147 63.644 40.2709 64.775 40.9502C65.6718 41.0377 66.5752 41.032 67.4708 40.9332C71.3334 40.8533 75.0012 39.0041 77.5675 35.8321" fill="#D34A0F"/>
</g>
<path d="M31.0348 60.4219C30.8556 60.1209 30.6272 59.8523 30.3589 59.6271C30.2973 59.5771 30.2344 59.5294 30.1711 59.4825C29.7846 59.2094 29.3355 59.0381 28.8654 58.9841C28.6692 58.9584 27.7201 58.9721 27.5066 58.969C27.9618 58.977 28.4086 59.0931 28.8101 59.3079C29.2116 59.5226 29.5563 59.8298 29.8156 60.204C29.9002 60.3224 29.9767 60.4464 30.0445 60.5751L32.7431 65.7823H33.8193L31.1207 60.5751C31.0932 60.523 31.0645 60.4719 31.0348 60.4219Z" fill="url(#paint8_linear_101_692)"/>
<path d="M30.0459 83.604C29.7369 84.2004 29.2403 84.6786 28.6326 84.9647H28.632C28.5149 85.0173 28.3945 85.0625 28.2717 85.0999H28.2709C28.1475 85.1357 28.0219 85.1635 27.895 85.1831H27.8942C27.7658 85.201 27.6363 85.2105 27.5067 85.2113C27.7962 85.2046 28.6981 85.2323 28.9704 85.1831H28.9712C29.0981 85.1634 29.2237 85.1357 29.3471 85.0999H29.3479C29.4707 85.0625 29.591 85.0173 29.708 84.9647H29.7088C29.826 84.9103 29.9396 84.8487 30.0491 84.7802C30.1591 84.7097 30.2646 84.6325 30.365 84.549C30.6165 84.335 30.8335 84.0834 31.0082 83.8031C31.047 83.7398 31.0828 83.6733 31.1195 83.6083L31.1216 83.6043L33.8189 78.4773H32.7427L30.0459 83.604Z" fill="url(#paint9_linear_101_692)"/>
<path d="M34.4961 29.5856C34.982 29.5437 35.4693 29.5225 35.9579 29.5221C34.4165 29.4962 32.8227 29.5595 31.3176 29.8997C23.2135 31.6362 17.5876 39.1728 16.9065 47.2427V47.244C16.8616 47.742 16.8332 48.2414 16.8213 48.7421C16.8139 49.1746 16.8269 49.6144 16.7129 50.0357C16.4512 51.1301 15.5832 52.0966 14.4621 52.3279C14.1595 52.3995 13.8459 52.3809 13.5384 52.3973C13.0551 52.4239 12.5757 52.5003 12.1081 52.6254C10.2461 53.116 8.64978 54.4032 7.64505 56.0308C5.44847 59.5336 6.07747 64.5516 9.33509 67.1878C9.75802 67.4808 10.106 67.8693 10.3507 68.3219C10.5954 68.7744 10.7301 69.2783 10.7437 69.7926V69.7937C10.8182 71.2135 9.8982 72.6885 8.47842 73.0287C8.26763 73.0802 8.05157 73.1065 7.8346 73.1072C8.27281 73.0957 9.13762 73.1514 9.55457 73.0287C10.4398 72.8149 11.1658 72.1395 11.5302 71.3155C11.7423 70.8374 11.8414 70.3168 11.8198 69.7942V69.7927C11.8072 69.3354 11.6993 68.8858 11.503 68.4726C11.3067 68.0594 11.0264 67.6917 10.6799 67.3931C10.6611 67.3775 10.6427 67.3626 10.6224 67.3463C10.6212 67.3455 10.6199 67.3445 10.6187 67.3435C10.5508 67.29 10.4828 67.2398 10.4111 67.188C6.9111 64.3524 6.46611 58.821 9.21652 55.3196C10.2813 53.9356 11.819 52.8997 13.5365 52.5407C13.8917 52.4657 14.2522 52.4178 14.6148 52.3975C14.8948 52.3809 15.1804 52.3997 15.4575 52.344C15.856 52.2654 16.2337 52.1043 16.5663 51.871C16.8989 51.6377 17.1789 51.3374 17.3885 50.9894C17.4661 50.863 17.5357 50.732 17.5969 50.5969C17.8706 50.0178 17.9045 49.3733 17.8976 48.7427C17.9103 48.2425 17.9376 47.7423 17.9829 47.2441V47.2429C18.6644 39.1726 24.2908 31.6362 32.3942 29.9L32.4002 29.8988C33.0916 29.7507 33.7916 29.6461 34.4961 29.5856Z" fill="url(#paint10_linear_101_692)"/>
<path d="M41.9737 81.8867C41.958 81.4321 41.8523 80.9852 41.6628 80.5717C41.6397 80.5218 41.6156 80.4719 41.59 80.4229L38.8236 75.2976H37.7475L40.5139 80.4229C40.5394 80.472 40.5637 80.5217 40.5865 80.5717C40.8157 81.0716 40.9217 81.6192 40.8955 82.1686C40.8556 83.7309 39.5958 85.2269 37.98 85.2119H39.0561C40.0265 85.2224 40.9719 84.6375 41.473 83.8079C41.5475 83.6856 41.6146 83.5589 41.6739 83.4285C41.6748 83.4267 41.6758 83.4248 41.6766 83.4229C41.822 83.093 41.9163 82.7428 41.9562 82.3845V82.3827C41.9734 82.2179 41.9792 82.0522 41.9737 81.8867Z" fill="url(#paint11_linear_101_692)"/>
<path d="M40.61 60.7859C40.9418 61.5518 40.9881 62.4112 40.7407 63.2083C40.7756 63.3881 37.8932 68.6405 37.7639 68.9295H38.84C38.9971 68.5853 41.8339 63.4305 41.8247 63.1856C41.8865 62.9805 41.9297 62.7701 41.9537 62.5573C41.9538 62.5566 41.9538 62.5559 41.9537 62.5552C42.0023 62.1001 41.9622 61.6399 41.8357 61.2001C41.6415 60.509 41.2198 59.9037 40.6389 59.4821L40.638 59.4815C40.2521 59.209 39.8038 59.038 39.3345 58.9841C39.1413 58.9587 38.1902 58.9724 37.9793 58.9693C38.5467 58.9749 39.0987 59.1536 39.5617 59.4815L39.5659 59.4845C40.0253 59.8158 40.3861 60.2656 40.61 60.7859Z" fill="url(#paint12_linear_101_692)"/>
<path d="M42.5416 24.1499C40.964 23.6399 39.3326 23.3146 37.6801 23.1803C36.7673 23.0982 35.7115 23.104 34.7896 23.1065C36.4514 23.1043 38.1081 23.2926 39.727 23.6677C40.7038 23.8831 41.9376 24.3038 42.8985 24.6126H43.9747L42.5416 24.1499Z" fill="url(#paint13_linear_101_692)"/>
<path d="M47.1899 71.9624C47.1848 71.8576 47.1754 71.7528 47.1625 71.6493C47.1625 71.6468 47.1616 71.6444 47.1612 71.642C47.1385 71.4801 47.105 71.32 47.0608 71.1627C46.9392 70.7379 46.7334 70.3419 46.4558 69.9982C46.4525 69.9941 46.4496 69.9897 46.4463 69.9857C46.4448 69.9838 46.4432 69.9822 46.4417 69.9803C46.3755 69.9005 46.3061 69.8242 46.2328 69.7514C46.1705 69.6907 46.1057 69.6329 46.0399 69.5765C45.9264 69.4835 45.8066 69.3983 45.6815 69.3215C45.6799 69.3205 45.6783 69.3198 45.6767 69.3189C45.5133 69.2215 45.3406 69.1407 45.1611 69.0776C45.1581 69.0766 45.1551 69.0753 45.1521 69.0742L45.1505 69.0737C44.6387 68.8686 43.7527 68.9411 43.2082 68.9297C43.5066 68.9305 43.8028 68.9805 44.085 69.0776C44.4848 69.2189 44.8484 69.4469 45.1497 69.7453C47.0491 71.5995 46.0031 75.2314 43.2082 75.2981C43.5232 75.2905 44.4078 75.3225 44.7042 75.2645C45.5302 75.1376 46.258 74.6038 46.6925 73.8985L46.6946 73.8954V73.8945C46.7704 73.7701 46.8387 73.6411 46.899 73.5084C47.1139 73.0224 47.2134 72.4933 47.1899 71.9624Z" fill="url(#paint14_linear_101_692)"/>
<path d="M57.8393 39.6806C58.7192 40.0356 59.5694 40.4602 60.3818 40.9503C61.072 41.027 62.0019 41.0154 62.7033 41.0142C62.2917 41.0135 61.8683 40.9882 61.4579 40.9503C60.3265 40.2718 59.1259 39.7158 57.8767 39.2917C56.224 35.0521 53.4924 31.2307 49.9141 28.4067C49.9286 27.1978 49.8619 25.298 50.0235 24.1221C50.2851 21.7909 51.0551 19.5456 52.2793 17.5446C52.807 16.6886 53.4199 15.8879 54.1083 15.1549C54.5545 14.6629 56.0186 13.3359 56.5136 12.8611H55.4373C54.2933 13.9379 52.7371 15.293 51.8493 16.581C50.4413 18.5338 49.4964 20.7815 49.0863 23.1538C48.7746 24.7175 48.8407 26.8046 48.838 28.4067C52.4162 31.231 55.1482 35.052 56.8006 39.2917C57.106 39.4033 57.5435 39.5577 57.8393 39.6806Z" fill="url(#paint15_linear_101_692)"/>
<path d="M61.6703 7.70556C61.718 8.17792 61.6234 8.64257 61.5259 9.10216C61.4441 9.53555 61.3785 9.97155 61.3292 10.4101C61.184 11.7099 61.2015 13.0226 61.3812 14.3181C62.0736 19.7084 65.7113 24.7707 70.9382 26.5422C70.9405 26.5431 70.9431 26.5438 70.9454 26.5446C72.0333 26.9166 73.1666 27.1396 74.3143 27.2076C74.7925 27.2411 75.6528 27.2276 76.1406 27.2301C70.0516 27.2539 64.9166 22.8284 63.1082 17.1615C62.5134 15.3398 62.247 13.4269 62.3216 11.512C62.3518 10.8133 62.4261 10.1172 62.544 9.42777C62.6086 8.99185 62.7399 8.56518 62.7554 8.12287V8.1217C62.7623 7.92158 62.7528 7.72123 62.7272 7.52264V7.52142C62.6229 6.7021 62.2171 5.95102 61.589 5.41469L61.5876 5.41372C61.3212 5.1931 61.0174 5.02202 60.6906 4.90859C60.1798 4.70301 59.2949 4.77489 58.7515 4.7637C59.3983 4.77012 60.0226 5.00169 60.5172 5.41859C60.8506 5.70498 61.1242 6.05449 61.3221 6.44697C61.52 6.83945 61.6383 7.26718 61.6703 7.70556Z" fill="url(#paint16_linear_101_692)"/>
<path d="M82.8485 29.9079C82.8336 29.3339 82.6726 28.7731 82.3807 28.2787C82.2444 28.0523 82.0829 27.8421 81.8993 27.6521C81.867 27.6171 81.8341 27.5832 81.8006 27.5502C81.7999 27.5494 81.7991 27.5489 81.7984 27.5481C81.3527 27.1021 80.7692 26.8202 80.1429 26.7482H80.1418C79.9466 26.7207 78.9922 26.7371 78.7785 26.733C78.8743 26.7347 78.9708 26.7382 79.0657 26.7482H79.067C79.7425 26.8271 80.3665 27.1483 80.8233 27.6521C81.1923 28.0343 81.4665 28.4978 81.6236 29.0054C81.7808 29.5129 81.8166 30.0502 81.7281 30.5741C80.4544 36.2074 76.9161 41.3827 71.8521 44.2434C70.9033 44.7826 69.9088 45.237 68.8802 45.6013C68.2153 45.8447 67.0044 46.1718 66.3194 46.3757C66.6212 47.0079 67.2237 48.2129 67.4785 48.8403C67.835 49.6921 68.1289 50.5689 68.3578 51.4635C69.2665 55.0773 69.1786 58.8698 68.1036 62.4376C66.6807 67.1648 63.3518 71.3637 58.8564 73.4894C58.4919 73.6754 58.09 73.7765 57.6809 73.7849H58.757C59.1661 73.7765 59.5681 73.6754 59.9325 73.4894C63.3123 71.8853 66.0691 69.1003 67.7993 65.7975C68.3618 64.7257 68.8231 63.6037 69.1771 62.4462C70.2546 58.876 70.3433 55.0805 69.4339 51.4639C69.2051 50.5693 68.9113 49.6926 68.5548 48.8408C68.2994 48.209 67.6919 46.9999 67.3953 46.3757C68.5144 46.0495 69.8934 45.6815 70.9498 45.2166C73.6685 44.0591 76.0866 42.2957 78.0197 40.0609C80.3749 37.3632 82.0041 34.0603 82.8036 30.5737C82.8142 30.5096 82.8231 30.4454 82.8301 30.3811C82.8301 30.3799 82.8301 30.3786 82.8301 30.3774C82.8467 30.2215 82.8528 30.0646 82.8485 29.9079Z" fill="url(#paint17_linear_101_692)"/>
<path d="M43.2082 68.9291C47.0668 69.1027 47.0657 75.1253 43.2082 75.2976H37.7475L40.5139 80.4229C41.3036 81.8571 40.8402 83.9359 39.4328 84.7861C38.0475 85.6821 36.197 85.0947 35.4405 83.606L32.7431 78.4769L30.0458 83.6041C29.2899 85.0947 27.4382 85.6826 26.0534 84.786C24.6581 83.9082 24.1736 81.9517 24.9724 80.4221L27.7388 75.2977H22.2773C20.6733 75.2977 19.3688 73.8699 19.3688 72.1139C19.3688 70.358 20.6733 68.9289 22.2773 68.9289H27.7213L24.9714 63.7569C24.1719 62.2341 24.6554 60.2741 26.0532 59.3944C27.4372 58.4981 29.2891 59.0857 30.0443 60.5745L32.7429 65.7817L35.4444 60.5678C36.1957 59.0866 38.0515 58.4985 39.4327 59.3945C40.8296 60.2741 41.3131 62.2341 40.5104 63.7646L37.7637 68.9286L43.2082 68.9291Z" fill="#FFF2DC"/>
<path d="M80.8231 27.652C81.1936 28.0332 81.4687 28.4967 81.6259 29.0045C81.7831 29.5124 81.8181 30.0502 81.7279 30.5741C79.8766 38.707 73.893 44.6775 66.3192 46.3759C71.7367 55.8767 68.6356 68.8128 58.8562 73.4896C58.4917 73.6757 58.0897 73.7767 57.6806 73.785C54.4443 73.6957 53.6987 69.0356 56.5232 67.6693C66.5754 62.8933 64.7903 46.691 53.965 44.6606C52.9166 44.4681 52.0469 43.6631 51.6985 42.5599C49.4314 35.1287 42.6044 29.4817 34.8813 29.5221C24.6555 29.3701 16.6143 39.1082 16.8149 49.1987C16.8149 50.958 15.5094 52.3868 13.9054 52.3868C6.59772 52.4379 3.67405 62.596 9.33443 67.1877C10.8779 68.1913 11.1951 70.5331 10.0707 71.9608C9.09161 73.2931 7.17339 73.4964 5.97356 72.3679C-3.18647 65.0299 -0.248242 48.9324 11.107 46.0867C12.769 30.3382 27.6391 18.8378 42.8982 24.6121C43.4667 15.5356 49.2382 7.06087 58.1386 4.83574C58.6271 4.72557 59.1364 4.75053 59.6118 4.90789C60.0871 5.06525 60.5107 5.34906 60.837 5.72892C61.1912 6.13395 61.4449 6.61681 61.5775 7.13825C61.7102 7.65969 61.718 8.20502 61.6004 8.73006C59.212 18.9871 68.0513 29.4763 78.0787 26.8262C78.3065 26.7645 78.5415 26.7331 78.7776 26.7327C79.1638 26.7348 79.5453 26.8176 79.8976 26.9759C80.2499 27.1343 80.5652 27.3646 80.8231 27.652ZM73.174 35.832L74.7428 33.8935C69.4074 33.2733 65.1451 31.6103 61.337 27.4612C57.558 23.371 55.969 18.4731 55.4373 12.861L53.6801 14.5063C50.6027 17.3874 48.8376 21.5826 48.8376 26.0157V28.4066C52.3572 31.1823 55.1165 34.9719 56.8002 39.2914C58.0498 39.7147 59.2503 40.2708 60.3813 40.9502C61.278 41.0377 62.1815 41.0319 63.0771 40.9331C66.9396 40.8532 70.6074 39.0041 73.1737 35.832" fill="#FFF2DC"/>
<defs>
<filter id="filter0_f_101_692" x="1.94641" y="1.76825" width="87.224" height="86.4416" filterUnits="userSpaceOnUse" color-interpolation-filters="sRGB">
<feFlood flood-opacity="0" result="BackgroundImageFix"/>
<feBlend mode="normal" in="SourceGraphic" in2="BackgroundImageFix" result="shape"/>
<feGaussianBlur stdDeviation="1.5" result="effect1_foregroundBlur_101_692"/>
</filter>
<linearGradient id="paint0_linear_101_692" x1="52.9115" y1="0.663574" x2="52.9115" y2="89.3148" gradientUnits="userSpaceOnUse">
<stop stop-color="#D34A0F"/>
<stop offset="1" stop-color="#F87C56"/>
</linearGradient>
<linearGradient id="paint1_linear_101_692" x1="52.9115" y1="0.663574" x2="52.9115" y2="89.3148" gradientUnits="userSpaceOnUse">
<stop stop-color="#D34A0F"/>
<stop offset="1" stop-color="#F87C56"/>
</linearGradient>
<linearGradient id="paint2_linear_101_692" x1="52.9115" y1="0.663574" x2="52.9115" y2="89.3148" gradientUnits="userSpaceOnUse">
<stop stop-color="#D34A0F"/>
<stop offset="1" stop-color="#F87C56"/>
</linearGradient>
<linearGradient id="paint3_linear_101_692" x1="52.9115" y1="0.663574" x2="52.9115" y2="89.3148" gradientUnits="userSpaceOnUse">
<stop stop-color="#D34A0F"/>
<stop offset="1" stop-color="#F87C56"/>
</linearGradient>
<linearGradient id="paint4_linear_101_692" x1="52.9115" y1="0.663574" x2="52.9115" y2="89.3148" gradientUnits="userSpaceOnUse">
<stop stop-color="#D34A0F"/>
<stop offset="1" stop-color="#F87C56"/>
</linearGradient>
<linearGradient id="paint5_linear_101_692" x1="52.9115" y1="0.663574" x2="52.9115" y2="89.3148" gradientUnits="userSpaceOnUse">
<stop stop-color="#D34A0F"/>
<stop offset="1" stop-color="#F87C56"/>
</linearGradient>
<linearGradient id="paint6_linear_101_692" x1="52.9115" y1="0.663574" x2="52.9115" y2="89.3148" gradientUnits="userSpaceOnUse">
<stop stop-color="#D34A0F"/>
<stop offset="1" stop-color="#F87C56"/>
</linearGradient>
<linearGradient id="paint7_linear_101_692" x1="52.9115" y1="0.663574" x2="52.9115" y2="89.3148" gradientUnits="userSpaceOnUse">
<stop stop-color="#D34A0F"/>
<stop offset="1" stop-color="#F87C56"/>
</linearGradient>
<linearGradient id="paint8_linear_101_692" x1="44.6012" y1="4.76025" x2="44.6012" y2="85.2131" gradientUnits="userSpaceOnUse">
<stop stop-color="#F7A175"/>
<stop offset="1" stop-color="#FFF2DC"/>
</linearGradient>
<linearGradient id="paint9_linear_101_692" x1="44.6012" y1="4.76025" x2="44.6012" y2="85.2131" gradientUnits="userSpaceOnUse">
<stop stop-color="#F7A175"/>
<stop offset="1" stop-color="#FFF2DC"/>
</linearGradient>
<linearGradient id="paint10_linear_101_692" x1="44.6012" y1="4.76025" x2="44.6012" y2="85.2131" gradientUnits="userSpaceOnUse">
<stop stop-color="#F7A175"/>
<stop offset="1" stop-color="#FFF2DC"/>
</linearGradient>
<linearGradient id="paint11_linear_101_692" x1="44.6012" y1="4.76025" x2="44.6012" y2="85.2131" gradientUnits="userSpaceOnUse">
<stop stop-color="#F7A175"/>
<stop offset="1" stop-color="#FFF2DC"/>
</linearGradient>
<linearGradient id="paint12_linear_101_692" x1="44.6012" y1="4.76025" x2="44.6012" y2="85.2131" gradientUnits="userSpaceOnUse">
<stop stop-color="#F7A175"/>
<stop offset="1" stop-color="#FFF2DC"/>
</linearGradient>
<linearGradient id="paint13_linear_101_692" x1="44.6012" y1="4.76025" x2="44.6012" y2="85.2131" gradientUnits="userSpaceOnUse">
<stop stop-color="#F7A175"/>
<stop offset="1" stop-color="#FFF2DC"/>
</linearGradient>
<linearGradient id="paint14_linear_101_692" x1="44.6012" y1="4.76025" x2="44.6012" y2="85.2131" gradientUnits="userSpaceOnUse">
<stop stop-color="#F7A175"/>
<stop offset="1" stop-color="#FFF2DC"/>
</linearGradient>
<linearGradient id="paint15_linear_101_692" x1="44.6012" y1="4.76025" x2="44.6012" y2="85.2131" gradientUnits="userSpaceOnUse">
<stop stop-color="#F7A175"/>
<stop offset="1" stop-color="#FFF2DC"/>
</linearGradient>
<linearGradient id="paint16_linear_101_692" x1="44.6012" y1="4.76025" x2="44.6012" y2="85.2131" gradientUnits="userSpaceOnUse">
<stop stop-color="#F7A175"/>
<stop offset="1" stop-color="#FFF2DC"/>
</linearGradient>
<linearGradient id="paint17_linear_101_692" x1="44.6012" y1="4.76025" x2="44.6012" y2="85.2131" gradientUnits="userSpaceOnUse">
<stop stop-color="#F7A175"/>
<stop offset="1" stop-color="#FFF2DC"/>
</linearGradient>
</defs>
</svg>
