<svg width="61" height="107" viewBox="0 0 61 107" fill="none" xmlns="http://www.w3.org/2000/svg">
<path d="M14.4455 76.9779C14.5532 82.737 17.8654 88.5031 23.1919 90.9161C24.4721 91.5042 25.8379 91.8843 27.2378 92.0422C28.3069 92.1967 31.9176 92.1021 33.0387 92.1267C25.6634 92.1279 19.9741 86.1203 18.9426 79.0534C18.2537 74.4805 19.4875 69.6061 22.4385 66.0222C22.8578 65.5047 23.348 65.0462 23.7151 64.4873C24.5228 63.2838 24.9796 61.8792 25.0343 60.4307C25.0626 59.8857 25.0267 24.4324 25.0404 23.9486C25.0404 23.8364 25.043 23.7245 25.0468 23.613C25.0682 22.9815 25.1525 22.3538 25.2984 21.7391C25.7842 19.6823 26.9982 17.7853 28.7363 16.5682C29.9957 15.6756 31.5 15.1938 33.0436 15.1885C32.1841 15.2145 28.3908 15.1148 27.618 15.2729C26.4661 15.452 25.3714 15.8953 24.4194 16.5682C23.8772 16.9506 23.3825 17.3964 22.9461 17.8961C22.9448 17.8975 22.9433 17.899 22.942 17.9006C22.6298 18.2596 22.3469 18.6432 22.0961 19.0475C21.9876 19.2237 21.8851 19.404 21.7877 19.5867C21.2464 20.6206 20.9043 21.7471 20.7793 22.9074C20.7426 23.2533 20.7239 23.6008 20.7232 23.9487V60.1495C20.7179 61.5861 20.3196 62.9939 19.5714 64.2203L19.5709 64.2211C19.2442 64.7656 18.8167 65.2346 18.3914 65.7018C15.7097 68.7818 14.3395 72.9105 14.4455 76.9779Z" fill="url(#paint0_linear_101_677)"/>
<path d="M39.7711 23.6299C39.6992 21.7478 38.9342 19.8868 37.5894 18.5578C36.8898 17.8584 36.0412 17.3263 35.1069 17.0013C34.5596 16.814 33.9883 16.7058 33.4104 16.6801C33.3164 16.675 33.2223 16.6719 33.128 16.6723H28.8111C31.5683 16.6442 34.0218 18.6245 34.9522 21.1604C35.2042 21.8257 35.3642 22.5222 35.4278 23.2308C35.4463 23.4698 35.4612 23.7079 35.4605 23.9485V67.3381C38.7316 70.1283 40.2209 74.7284 39.4403 78.9291C38.7886 82.6861 36.3119 86.1694 32.7672 87.6855C31.518 88.2248 30.1718 88.5034 28.8111 88.5042C29.7043 88.4842 33.4724 88.5623 34.284 88.4366C35.2489 88.3234 36.1922 88.0702 37.0841 87.6851C38.5704 87.0348 39.8928 86.0608 40.9546 84.8343C41.3786 84.3464 41.7626 83.8252 42.1028 83.2756C45.2493 78.2335 44.3212 71.2289 39.7765 67.3376V23.9486C39.777 23.8419 39.7752 23.7356 39.7711 23.6299Z" fill="url(#paint1_linear_101_677)"/>
<path d="M53.1556 16.0132C51.0395 9.52823 46.0061 3.90769 39.4826 1.69354C38.0965 1.21865 36.6617 0.900162 35.2048 0.744021C33.7611 0.559309 30.2968 0.656747 28.8111 0.634182C37.8982 0.609421 45.5969 6.96772 48.6034 15.337C49.3426 17.3712 49.8141 19.4929 50.006 21.6488C50.0571 22.2271 50.0895 22.8068 50.1031 23.3879C50.1071 23.5743 50.1093 23.7613 50.1096 23.9488V57.3117C57.5463 67.0238 58.554 80.9349 52.8149 91.7026C48.1487 100.596 39.1327 106.862 28.932 106.834C30.7778 106.821 34.134 106.908 35.9121 106.692C38.7339 106.391 41.4855 105.62 44.0527 104.411C49.862 101.695 54.5582 96.8523 57.4207 91.1429C62.8405 80.4617 61.7296 66.8456 54.4268 57.3117V23.9486C54.4258 23.2774 54.3992 22.6075 54.3469 21.9387C54.1913 19.9226 53.7913 17.9328 53.1556 16.0132Z" fill="url(#paint2_linear_101_677)"/>
<path d="M35.4604 67.3382C43.3902 74.0418 39.2917 88.3954 28.8108 88.5052C18.3087 88.3912 14.2404 74.0324 22.1624 67.3358V23.9486C22.1624 19.9362 25.1437 16.6724 28.811 16.6724C32.4783 16.6724 35.4606 19.9362 35.4606 23.9486L35.4604 67.3382Z" fill="#F87C56"/>
<path d="M50.1095 57.3115C64.7455 76.1036 52.751 106.754 28.9317 106.834C4.31812 106.142 -6.68282 75.947 7.50997 57.3224V23.9486C7.50997 11.092 17.066 0.634079 28.8111 0.634079C40.5562 0.634079 50.1095 11.092 50.1095 23.9486V57.3115ZM39.7595 86.809C44.5331 80.5787 44.1553 71.2527 38.7374 65.5222C37.4659 64.1618 36.7369 62.2764 36.7296 60.342V23.9487C36.7296 19.1175 33.1396 15.1881 28.7272 15.1881C24.3148 15.1881 20.724 19.1175 20.724 23.9487V60.1495C20.7167 62.0896 19.9903 63.9746 18.7303 65.3273C10.0193 74.551 15.2844 91.8968 28.7225 92.1264C31.988 92.1264 35.1837 90.8815 37.7227 88.6204L39.7595 86.809Z" fill="#F87C56"/>
<g style="mix-blend-mode:multiply" opacity="0.4" filter="url(#filter0_f_101_677)">
<path d="M32.6812 69.9737C38.8116 73.8713 36.4863 84.296 29.1337 84.4117C21.3629 84.1492 19.4125 73.2221 26.2247 69.5701V23.9483C26.2247 22.1925 27.5289 20.7645 29.1338 20.7645C30.7387 20.7645 32.0423 22.1923 32.0423 23.9483V69.5701L32.6812 69.9737Z" fill="#D34A0F"/>
<path d="M47.019 59.247C60.1606 75.0056 50.8291 102.457 29.2529 102.74C7.3516 102.037 -1.89087 74.777 11.573 58.8438V23.9482C11.573 13.3493 19.4507 4.72631 29.1338 4.72631C38.8169 4.72631 46.6941 13.3493 46.6941 23.9482V58.8488L47.019 59.247ZM42.0986 90.4736C48.9599 83.0196 48.7739 69.8015 41.6608 62.5827C41.1014 61.9643 40.7918 61.16 40.7921 60.3262V23.9483C40.7921 16.8609 35.5252 11.0947 29.0504 11.0947C22.5756 11.0947 17.308 16.8609 17.308 23.9483V60.1485C17.307 60.9824 16.9961 61.7862 16.4356 62.4038C9.79494 69.3538 9.2317 81.2965 15.0531 88.9351C20.4313 96.424 30.7791 98.4964 38.3218 93.3957C38.3218 93.3957 41.5667 91.0755 42.0988 90.4736" fill="#D34A0F"/>
</g>
<path d="M25.0516 11.1168C25.2785 11.1021 25.5056 11.0947 25.7329 11.0947C24.9085 11.0947 23.9309 11.0738 23.1229 11.2045C20.4271 11.5806 17.941 13.0317 16.1664 15.0779C14.5852 16.9105 13.5333 19.1393 13.1237 21.5248C13.0184 22.1314 12.9528 22.7442 12.9272 23.3593C12.9193 23.5553 12.9148 23.751 12.9144 23.9484V60.1486C12.9135 60.2619 12.9072 60.3752 12.8955 60.488C12.8423 60.9952 12.6766 61.4841 12.4105 61.9191C12.1953 62.2761 11.8865 62.5581 11.6186 62.8733C11.3754 63.1508 11.1424 63.4373 10.9156 63.7284C10.1038 64.7755 9.39919 65.9014 8.81226 67.0892C6.37436 71.9786 5.96176 77.8237 7.63855 83.0193C9.52451 89.0121 14.3131 94.1297 20.4886 95.6896C22.1905 96.1489 23.9705 96.255 25.728 96.2188C17.4647 96.2288 10.7254 90.167 8.52999 82.4112C7.03691 77.2574 7.57146 71.5359 10.0494 66.7713C10.603 65.7002 11.2532 64.6817 11.9918 63.7286C12.2181 63.4371 12.4525 63.1521 12.6949 62.8735C12.9628 62.5579 13.2717 62.2763 13.4868 61.9194L13.4884 61.9166C13.8131 61.3841 13.9866 60.7731 13.9903 60.1494V23.9483C13.9912 23.6073 14.0035 23.2673 14.0272 22.9281C14.1108 21.7624 14.3415 20.6121 14.714 19.5044C16.1964 15.008 20.2278 11.3916 25.0516 11.1168Z" fill="url(#paint3_linear_101_677)"/>
<path d="M28.7215 23.7967C28.6933 23.0726 28.4308 22.3771 27.9736 21.8149C27.9084 21.7366 27.8403 21.6607 27.7679 21.5893L27.7649 21.5862C27.7026 21.5255 27.6379 21.4676 27.5722 21.4113C27.3113 21.1943 27.0137 21.0255 26.6936 20.9129C26.6904 20.9117 26.6874 20.9103 26.6842 20.9092L26.6825 20.9087C26.4934 20.8449 26.2981 20.8017 26.0998 20.7796C25.907 20.7529 24.9516 20.7681 24.7399 20.7644C25.0346 20.7657 25.3272 20.8144 25.6063 20.9087C25.61 20.91 25.6138 20.9115 25.6175 20.9129C26.55 21.2334 27.2517 22.0601 27.5164 22.9988C27.6035 23.3078 27.6478 23.6273 27.6484 23.9483V69.5702H28.7246C28.7215 69.418 28.7317 23.9365 28.7215 23.7967Z" fill="url(#paint4_linear_101_677)"/>
<path d="M42.3591 17.5001C40.6312 12.1123 36.4656 7.43768 31.0554 5.59985C29.783 5.16396 28.4612 4.88839 27.1206 4.77952C26.4027 4.71362 25.4679 4.7268 24.7403 4.7264C32.4828 4.70584 38.9737 10.2962 41.2829 17.5001C41.7896 19.0534 42.109 20.6616 42.2345 22.2906C42.2784 22.8421 42.3004 23.3946 42.3005 23.9481V58.8487C50.14 68.045 50.8279 82.1823 44.0353 92.1527C39.7249 98.5557 32.662 102.768 24.8593 102.74C33.1238 103.032 40.3362 99.0613 45.0018 92.3131C51.9101 82.3313 51.2609 68.1009 43.3768 58.8487V23.9481C43.3759 23.3945 43.354 22.842 43.3108 22.2906C43.1853 20.6616 42.8658 19.0534 42.3591 17.5001Z" fill="url(#paint5_linear_101_677)"/>
<path d="M32.9052 76.3772C32.8787 75.7085 32.7733 75.0453 32.5912 74.4014V74.4007C32.1182 72.7392 31.115 71.2133 29.7036 70.2037C29.4788 70.034 28.9654 69.7263 28.7252 69.5702H27.6489L28.288 69.9737C31.3284 71.8841 32.5666 75.9807 31.4008 79.3265C30.471 82.177 27.807 84.4355 24.7411 84.4117C25.4182 84.4067 26.3192 84.4443 26.9767 84.3061C28.9409 83.9623 30.661 82.6728 31.6973 80.9887L31.6982 80.9871C32.5455 79.6027 32.9653 77.9991 32.9052 76.3772Z" fill="url(#paint6_linear_101_677)"/>
<path d="M28.2875 69.9737C34.418 73.8713 32.0928 84.296 24.7402 84.4117C16.9694 84.1492 15.0189 73.2221 21.8311 69.5701V23.9483C21.8311 22.1925 23.1354 20.7645 24.7403 20.7645C26.3452 20.7645 27.6487 22.1923 27.6487 23.9483V69.5701L28.2875 69.9737Z" fill="#FFF2DC"/>
<path d="M42.6255 59.247C55.767 75.0056 46.4355 102.457 24.8592 102.74C2.95807 102.037 -6.2845 74.777 7.17932 58.8438V23.9482C7.17932 13.3493 15.057 4.72631 24.7402 4.72631C34.4235 4.72631 42.3005 13.3493 42.3005 23.9482V58.8488L42.6255 59.247ZM37.7049 90.4736C44.5664 83.0196 44.3803 69.8015 37.2672 62.5827C36.7079 61.9642 36.3983 61.16 36.3986 60.3262V23.9483C36.3986 16.8609 31.1318 11.0947 24.6569 11.0947C18.182 11.0947 12.9145 16.8609 12.9145 23.9483V60.1485C12.9135 60.9824 12.6025 61.7863 12.0419 62.4038C5.40135 69.3538 4.83806 81.2965 10.6595 88.9351C16.0377 96.424 26.3856 98.4964 33.9282 93.3957C33.9282 93.3957 36.2292 92.1263 37.7051 90.4736" fill="#FFF2DC"/>
<defs>
<filter id="filter0_f_101_677" x="2.29376" y="1.72631" width="53.7741" height="104.014" filterUnits="userSpaceOnUse" color-interpolation-filters="sRGB">
<feFlood flood-opacity="0" result="BackgroundImageFix"/>
<feBlend mode="normal" in="SourceGraphic" in2="BackgroundImageFix" result="shape"/>
<feGaussianBlur stdDeviation="1.5" result="effect1_foregroundBlur_101_677"/>
</filter>
<linearGradient id="paint0_linear_101_677" x1="37.6293" y1="0.628204" x2="37.6293" y2="106.841" gradientUnits="userSpaceOnUse">
<stop stop-color="#D34A0F"/>
<stop offset="1" stop-color="#F87C56"/>
</linearGradient>
<linearGradient id="paint1_linear_101_677" x1="37.6293" y1="0.628204" x2="37.6293" y2="106.841" gradientUnits="userSpaceOnUse">
<stop stop-color="#D34A0F"/>
<stop offset="1" stop-color="#F87C56"/>
</linearGradient>
<linearGradient id="paint2_linear_101_677" x1="37.6293" y1="0.628204" x2="37.6293" y2="106.841" gradientUnits="userSpaceOnUse">
<stop stop-color="#D34A0F"/>
<stop offset="1" stop-color="#F87C56"/>
</linearGradient>
<linearGradient id="paint3_linear_101_677" x1="28.1972" y1="4.72558" x2="28.1972" y2="102.755" gradientUnits="userSpaceOnUse">
<stop stop-color="#F7A175"/>
<stop offset="1" stop-color="#FFF2DC"/>
</linearGradient>
<linearGradient id="paint4_linear_101_677" x1="28.1972" y1="4.72558" x2="28.1972" y2="102.755" gradientUnits="userSpaceOnUse">
<stop stop-color="#F7A175"/>
<stop offset="1" stop-color="#FFF2DC"/>
</linearGradient>
<linearGradient id="paint5_linear_101_677" x1="28.1972" y1="4.72558" x2="28.1972" y2="102.755" gradientUnits="userSpaceOnUse">
<stop stop-color="#F7A175"/>
<stop offset="1" stop-color="#FFF2DC"/>
</linearGradient>
<linearGradient id="paint6_linear_101_677" x1="28.1972" y1="4.72558" x2="28.1972" y2="102.755" gradientUnits="userSpaceOnUse">
<stop stop-color="#F7A175"/>
<stop offset="1" stop-color="#FFF2DC"/>
</linearGradient>
</defs>
</svg>
