<svg width="61" height="107" viewBox="0 0 61 107" fill="none" xmlns="http://www.w3.org/2000/svg">
<path d="M13.2619 77.1082C13.2536 83.8477 17.5426 90.4367 24.2099 92.2006L24.2189 92.2032C24.701 92.3292 25.1895 92.4295 25.6823 92.5035H25.6847C26.315 92.5953 26.9511 92.6417 27.588 92.6425H31.9049C31.268 92.6416 30.6319 92.5951 30.0016 92.5035H29.9994C25.9457 91.9253 22.3192 89.3776 20.1518 85.9363C16.0083 79.5046 16.9289 70.4618 22.4858 65.1458C23.5262 64.0064 24.1956 62.5775 24.4051 61.0489C24.4552 60.6899 24.4814 60.3279 24.4836 59.9655V23.9488C24.4843 23.7163 24.4927 23.4846 24.5089 23.2535C24.567 22.439 24.7309 21.6357 24.9965 20.8636C26.0618 17.6726 29.0469 15.1611 32.4868 15.1882C31.6238 15.214 27.8364 15.1146 27.0614 15.2726C25.2487 15.5416 23.5814 16.5234 22.3853 17.9006C21.9368 18.4163 21.5494 18.9823 21.231 19.5871C20.7854 20.4372 20.4745 21.3514 20.3094 22.2969C19.9281 23.0279 20.3632 59.9929 20.0882 61.0486C19.8783 62.5771 19.209 64.0058 18.1689 65.1455C14.9571 68.2282 13.2045 72.6733 13.2619 77.1082Z" fill="url(#paint0_linear_101_678)"/>
<path d="M39.211 46.5408C39.1255 43.6801 37.3158 40.8483 34.5535 39.9149L34.5478 39.913C34.0006 39.7258 33.4295 39.6177 32.8518 39.5919C32.7576 39.5868 32.6633 39.5836 32.5688 39.5841H28.2519C31.1382 39.5569 33.6535 41.7049 34.5069 44.3939C34.7317 45.0795 34.8615 45.7926 34.8925 46.5134C34.8975 46.6281 34.9005 46.7431 34.9005 46.8595V67.3356C38.9868 70.8201 40.1962 76.9567 38.0003 81.8137C36.3229 85.6677 32.5329 88.5332 28.2519 88.505C29.657 88.4658 33.1643 88.6348 34.4922 88.3178C36.7839 87.8727 38.8714 86.5905 40.3971 84.835C44.8002 79.8074 44.3055 71.7043 39.2171 67.3356V46.8595C39.217 46.7524 39.215 46.6461 39.211 46.5408Z" fill="url(#paint1_linear_101_678)"/>
<path d="M60.2658 76.7853C60.3057 69.8321 58.0991 62.851 53.8691 57.3117V23.9487C53.8691 23.7007 53.8657 23.4546 53.8573 23.2076C53.8403 22.5863 53.7998 21.9663 53.7358 21.3475C53.5114 19.1162 52.986 16.9256 52.1738 14.8353C49.8647 8.83461 45.0059 3.73474 38.8577 1.67176C37.492 1.20867 36.0794 0.897602 34.6455 0.744199C33.1923 0.55739 29.7444 0.658423 28.2519 0.634361C37.339 0.609699 45.0387 6.9683 48.0458 15.3374C48.7852 17.3716 49.2567 19.4935 49.4486 21.6494C49.4998 22.2277 49.5322 22.8073 49.5457 23.3883C49.5497 23.5746 49.5523 23.7614 49.5523 23.9489V57.3119C57.0171 67.059 58.0039 81.04 52.1934 91.8221C47.5129 100.655 38.5218 106.863 28.3718 106.834C30.2052 106.816 33.5837 106.912 35.3525 106.692C37.3941 106.476 39.4019 106.012 41.3309 105.309C49.5139 102.365 55.8154 95.2768 58.5534 87.1072C59.6764 83.7813 60.2547 80.2957 60.2658 76.7853Z" fill="url(#paint2_linear_101_678)"/>
<path d="M34.9004 67.3355C42.8339 74.0402 38.7355 88.3965 28.2516 88.505C17.7539 88.3923 13.6803 74.0285 21.6051 67.3355V46.8594C21.6051 42.8479 24.5864 39.584 28.2518 39.584C31.9191 39.584 34.9004 42.8479 34.9004 46.8594V67.3355Z" fill="#F87C56"/>
<path d="M49.5522 57.3117C64.1887 76.104 52.1936 106.755 28.3718 106.834C3.87484 106.226 -7.24774 75.9382 6.95334 57.3226V23.9488C6.95334 11.0922 16.5071 0.634274 28.2518 0.634274C39.9965 0.634274 49.5522 11.0922 49.5522 23.9488V57.3117ZM39.6276 86.2251C43.9466 80.0106 43.4317 71.0765 38.1799 65.5223C36.9026 64.1562 36.1769 62.2713 36.1721 60.3364V23.9488C36.1721 19.1176 32.5813 15.1882 28.169 15.1882C23.7567 15.1882 20.1658 19.1176 20.1658 23.9488V59.9651C20.1596 61.9081 19.4306 63.7923 18.168 65.1459C8.59191 74.2279 13.8035 92.3857 27.5872 92.643C31.0881 92.643 34.4596 91.2395 37.0831 88.6972L39.6271 86.2252" fill="#F87C56"/>
<g style="mix-blend-mode:multiply" opacity="0.4" filter="url(#filter0_f_101_678)">
<path d="M46.5988 59.2471C59.7394 75.006 50.4085 102.457 28.8326 102.74C6.93123 102.038 -2.31179 74.7771 11.1526 58.844V23.9484C11.1526 13.3495 19.0304 4.72651 28.7127 4.72651C38.395 4.72651 46.2736 13.3495 46.2736 23.9484V58.849L46.5988 59.2471ZM41.6775 90.4738C48.5802 82.6522 48.3841 70.1421 41.2405 62.5838C40.6811 61.965 40.3713 61.1606 40.3711 60.3265V23.9485C40.3711 16.8611 35.1043 11.0949 28.6288 11.0949C22.1533 11.0949 16.8871 16.8611 16.8871 23.9485V59.9653C16.8864 60.789 16.5829 61.5837 16.0342 62.1982C8.62339 69.1309 7.9811 82.3414 14.5299 90.0817C20.1734 97.2805 30.6077 98.905 37.9009 93.5317V93.9872C39.0044 93.0059 40.7333 91.5918 41.6773 90.4738" fill="#D34A0F"/>
<path d="M32.2606 69.9738C38.3916 73.8717 36.0658 84.2963 28.7126 84.4118C20.9425 84.149 18.992 73.2225 25.8041 69.5703V46.8601C25.8041 45.1043 27.1087 43.6756 28.7127 43.6756C30.3167 43.6756 31.6221 45.1043 31.6221 46.8601L31.6221 69.5703L32.2606 69.9738Z" fill="#D34A0F"/>
</g>
<path d="M5.58932 77.1419C5.58652 84.7936 9.96454 92.3764 17.1282 95.4C18.4485 95.9592 19.8342 96.349 21.2524 96.5603L21.2556 96.5608C22.0499 96.6766 22.8514 96.7352 23.6541 96.7361H24.7303C23.9276 96.7349 23.1261 96.6764 22.3317 96.5608L22.3287 96.5603C16.9936 95.8015 12.2857 92.3443 9.57725 87.7375C4.78132 79.7594 5.97284 68.7106 12.7169 62.1983C13.1421 61.7242 13.4218 61.1378 13.523 60.5091C13.553 60.3294 13.5687 60.1476 13.5698 59.9653V23.9485C13.5698 23.751 13.5754 23.5557 13.5827 23.3594C13.6241 22.3377 13.7783 21.3238 14.0426 20.3361C15.3751 15.2141 19.8793 11.0722 25.3113 11.0948C24.3098 11.0883 23.2008 11.0792 22.2224 11.2845C19.0114 11.8792 16.2018 13.9955 14.5077 16.7572C13.1827 18.9212 12.4854 21.411 12.4937 23.9485V59.9653C12.4921 60.1635 12.4737 60.3611 12.439 60.5562C12.3313 61.1673 12.0549 61.7361 11.6408 62.1983C7.65154 66.0556 5.52762 71.6227 5.58932 77.1419Z" fill="url(#paint3_linear_101_678)"/>
<path d="M28.3012 46.7088C28.2729 45.9845 28.0104 45.2889 27.5529 44.7266C27.4876 44.6484 27.4195 44.5724 27.347 44.501L27.3442 44.4978C27.0412 44.1967 26.6752 43.9666 26.2725 43.8241C26.2693 43.823 26.2663 43.8216 26.2631 43.8205L26.2616 43.82C25.7497 43.6147 24.8637 43.6873 24.3191 43.6758C24.6177 43.6767 24.914 43.7268 25.1963 43.8241C26.1997 44.169 26.9336 45.0975 27.149 46.1236C27.2018 46.3656 27.2286 46.6125 27.229 46.8602V69.5706H28.3051C28.3013 69.4188 28.3113 46.8479 28.3012 46.7088Z" fill="url(#paint4_linear_101_678)"/>
<path d="M28.3356 70.2989C31.1376 72.3936 32.1375 76.4117 30.8683 79.6354C29.8668 82.3385 27.2609 84.4372 24.3191 84.4118C24.9964 84.4069 25.8972 84.4446 26.5548 84.3063C28.5192 83.9625 30.2398 82.673 31.2759 80.9888C31.8722 80.0122 32.2595 78.9227 32.4135 77.7889C32.5676 76.6551 32.4849 75.5018 32.1707 74.4015V74.4009C31.6615 72.6075 30.5288 70.9739 28.9434 69.9739L28.3051 69.5706H27.229C27.678 69.8033 28.1837 70.1843 28.3356 70.2989Z" fill="url(#paint5_linear_101_678)"/>
<path d="M41.9386 17.5C40.2096 12.1092 36.0397 7.432 30.6249 5.59696C29.355 5.16262 28.036 4.88806 26.6982 4.77963C25.9809 4.71393 25.0461 4.72701 24.3191 4.72661C32.0619 4.70604 38.5531 10.2961 40.8624 17.5003C41.3691 19.0538 41.6886 20.6622 41.814 22.2915C41.8578 22.8427 41.8799 23.3951 41.8801 23.9489V58.8495C47.6464 65.6189 49.6017 75.1678 47.39 83.7341C44.7255 94.2996 35.6238 102.766 24.4391 102.741C32.7029 103.033 39.9159 99.0622 44.5806 92.3141C51.4892 82.3327 50.8408 68.1019 42.9562 58.8495V23.9489C42.9554 23.3955 42.9334 22.8431 42.8902 22.2915C42.7647 20.6621 42.4453 19.0536 41.9386 17.5Z" fill="url(#paint6_linear_101_678)"/>
<path d="M42.2053 59.2471C55.3458 75.006 46.0149 102.457 24.439 102.74C2.53756 102.038 -6.70531 74.7771 6.75911 58.844V23.9484C6.75911 13.3495 14.6368 4.72651 24.3192 4.72651C34.0015 4.72651 41.88 13.3495 41.88 23.9484V58.849L42.2053 59.2471ZM37.2839 90.4738C44.1867 82.6522 43.9905 70.1421 36.847 62.5838C36.2875 61.965 35.9777 61.1606 35.9776 60.3265V23.9485C35.9776 16.8611 30.7107 11.0949 24.2352 11.0949C17.7596 11.0949 12.4935 16.8611 12.4935 23.9485V59.9653C12.4927 60.789 12.1892 61.5837 11.6406 62.1982C4.22977 69.1309 3.58733 82.3414 10.1362 90.0817C15.7796 97.2805 26.214 98.905 33.5072 93.5317C34.6172 92.6178 36.3396 91.5918 37.2836 90.4738" fill="#FFF2DC"/>
<path d="M27.867 69.9738C33.9975 73.8717 31.6723 84.2963 24.319 84.4118C16.549 84.149 14.5985 73.2225 21.4106 69.5703V46.8601C21.4106 45.1043 22.7152 43.6756 24.3192 43.6756C25.9232 43.6756 27.2285 45.1043 27.2285 46.8601V69.5703L27.867 69.9738Z" fill="#FFF2DC"/>
<defs>
<filter id="filter0_f_101_678" x="1.87317" y="1.72651" width="53.7739" height="104.014" filterUnits="userSpaceOnUse" color-interpolation-filters="sRGB">
<feFlood flood-opacity="0" result="BackgroundImageFix"/>
<feBlend mode="normal" in="SourceGraphic" in2="BackgroundImageFix" result="shape"/>
<feGaussianBlur stdDeviation="1.5" result="effect1_foregroundBlur_101_678"/>
</filter>
<linearGradient id="paint0_linear_101_678" x1="36.7634" y1="0.628204" x2="36.7634" y2="106.84" gradientUnits="userSpaceOnUse">
<stop stop-color="#D34A0F"/>
<stop offset="1" stop-color="#F87C56"/>
</linearGradient>
<linearGradient id="paint1_linear_101_678" x1="36.7634" y1="0.628204" x2="36.7634" y2="106.84" gradientUnits="userSpaceOnUse">
<stop stop-color="#D34A0F"/>
<stop offset="1" stop-color="#F87C56"/>
</linearGradient>
<linearGradient id="paint2_linear_101_678" x1="36.7634" y1="0.628204" x2="36.7634" y2="106.84" gradientUnits="userSpaceOnUse">
<stop stop-color="#D34A0F"/>
<stop offset="1" stop-color="#F87C56"/>
</linearGradient>
<linearGradient id="paint3_linear_101_678" x1="27.4683" y1="4.7258" x2="27.4683" y2="102.756" gradientUnits="userSpaceOnUse">
<stop stop-color="#F7A175"/>
<stop offset="1" stop-color="#FFF2DC"/>
</linearGradient>
<linearGradient id="paint4_linear_101_678" x1="27.4683" y1="4.7258" x2="27.4683" y2="102.756" gradientUnits="userSpaceOnUse">
<stop stop-color="#F7A175"/>
<stop offset="1" stop-color="#FFF2DC"/>
</linearGradient>
<linearGradient id="paint5_linear_101_678" x1="27.4683" y1="4.7258" x2="27.4683" y2="102.756" gradientUnits="userSpaceOnUse">
<stop stop-color="#F7A175"/>
<stop offset="1" stop-color="#FFF2DC"/>
</linearGradient>
<linearGradient id="paint6_linear_101_678" x1="27.4683" y1="4.7258" x2="27.4683" y2="102.756" gradientUnits="userSpaceOnUse">
<stop stop-color="#F7A175"/>
<stop offset="1" stop-color="#FFF2DC"/>
</linearGradient>
</defs>
</svg>
